%TF.GenerationSoftware,KiCad,Pcbnew,9.0.2*%
%TF.CreationDate,2025-06-09T13:24:08-05:00*%
%TF.ProjectId,ICEBATS384,49434542-4154-4533-9338-342e6b696361,rev?*%
%TF.SameCoordinates,Original*%
%TF.FileFunction,Copper,L3,Inr*%
%TF.FilePolarity,Positive*%
%FSLAX46Y46*%
G04 Gerber Fmt 4.6, Leading zero omitted, Abs format (unit mm)*
G04 Created by KiCad (PCBNEW 9.0.2) date 2025-06-09 13:24:08*
%MOMM*%
%LPD*%
G01*
G04 APERTURE LIST*
%TA.AperFunction,ViaPad*%
%ADD10C,0.250000*%
%TD*%
%TA.AperFunction,ViaPad*%
%ADD11C,0.600000*%
%TD*%
%TA.AperFunction,Conductor*%
%ADD12C,0.120000*%
%TD*%
G04 APERTURE END LIST*
D10*
%TO.N,GND*%
X47300000Y-38700000D03*
X47600000Y-42000000D03*
X41400000Y-43500000D03*
X45600000Y-41600000D03*
X35600000Y-36600000D03*
X37000000Y-36000000D03*
%TO.N,+3V3*%
X36900000Y-43500000D03*
%TO.N,GND*%
X26000000Y-40000000D03*
X26000000Y-43500000D03*
X30000000Y-43500000D03*
X30099992Y-40000008D03*
X32500000Y-41800000D03*
%TO.N,F_IO15*%
X44800000Y-45000000D03*
X41400000Y-44100000D03*
%TO.N,F_IO27*%
X37949997Y-34000000D03*
%TO.N,F_IO26*%
X38400000Y-34000000D03*
%TO.N,F_IO23*%
X43279972Y-36679888D03*
%TO.N,F_IO22*%
X43597505Y-36998753D03*
%TO.N,F_IO20*%
X45200000Y-37600000D03*
%TO.N,F_IO19*%
X45500000Y-38300000D03*
%TO.N,F_IO18*%
X45200000Y-38700000D03*
%TO.N,GND*%
X44000000Y-37200000D03*
X41200000Y-45100000D03*
%TO.N,+3V3*%
X42600000Y-44500000D03*
%TO.N,GND*%
X47600000Y-36300000D03*
X43200000Y-34600000D03*
X46800000Y-33600000D03*
X34500000Y-33700000D03*
%TO.N,+3V3*%
X44400000Y-35000000D03*
X44400000Y-36700000D03*
X47300000Y-42800000D03*
X47300000Y-44700000D03*
X28000000Y-39900000D03*
X28300000Y-42600000D03*
X46400000Y-43300000D03*
X36900000Y-33500000D03*
%TO.N,F_IO14*%
X43018283Y-46373133D03*
%TO.N,F_IO13*%
X42909142Y-45936567D03*
%TO.N,F_IO12*%
X42800000Y-45500000D03*
%TO.N,F_IO14*%
X38418283Y-46873133D03*
%TO.N,F_IO13*%
X38309142Y-46436567D03*
%TO.N,F_IO12*%
X38200000Y-46000000D03*
%TO.N,F_IO1*%
X36949997Y-42600000D03*
%TO.N,F_IO2*%
X37400000Y-42600000D03*
%TO.N,F_IO7*%
X38603976Y-41997987D03*
%TO.N,F_IO6*%
X38202495Y-42201247D03*
%TO.N,F_IO5*%
X37800000Y-42000000D03*
%TO.N,F_IO8*%
X38000000Y-45200000D03*
%TO.N,F_IO7*%
X38000000Y-44600000D03*
%TO.N,F_IO6*%
X38001247Y-44002495D03*
%TO.N,F_IO5*%
X37800000Y-43600000D03*
X39601247Y-43597505D03*
%TO.N,F_IO6*%
X40000000Y-45900000D03*
%TO.N,F_IO7*%
X40419006Y-46139468D03*
%TO.N,F_IO8*%
X40800000Y-45900000D03*
%TO.N,GND*%
X33900000Y-38300000D03*
%TO.N,F_IO32*%
X36600000Y-37800000D03*
%TO.N,F_IO30*%
X37400000Y-37800000D03*
%TO.N,+1V2*%
X39800000Y-37100000D03*
%TO.N,F_CDONE*%
X38900000Y-36500000D03*
%TO.N,W_|HOLD*%
X39396809Y-36675000D03*
%TO.N,+3V3*%
X36600000Y-42100000D03*
%TO.N,F_|CRST*%
X33500000Y-35900000D03*
%TO.N,F_IO31*%
X37100000Y-39500000D03*
%TO.N,F_CDONE*%
X39000000Y-37800000D03*
%TO.N,Net-(Q2-D1)*%
X34700000Y-41900000D03*
X34700000Y-39000000D03*
%TO.N,Net-(Q1-D1)*%
X32000000Y-42400000D03*
X32000000Y-38900000D03*
%TO.N,F_CDONE*%
X32900000Y-38300000D03*
%TO.N,F_|CRST*%
X33000000Y-41800000D03*
%TO.N,F_IO31*%
X35600000Y-41800000D03*
%TO.N,F_IO32*%
X35700000Y-38400000D03*
%TO.N,F_|CRST*%
X31200000Y-35700000D03*
%TO.N,W_|HOLD*%
X49300000Y-36000000D03*
X48000000Y-40500000D03*
%TO.N,F_IO12*%
X43800000Y-42500000D03*
%TO.N,F_IO13*%
X44200000Y-42200000D03*
%TO.N,F_IO14*%
X44598753Y-41902495D03*
%TO.N,F_IO15*%
X44800000Y-41500000D03*
X30200000Y-40800000D03*
%TO.N,F_IO13*%
X30200000Y-41700000D03*
%TO.N,F_IO14*%
X27100000Y-42500000D03*
%TO.N,W_|HOLD*%
X27100000Y-41700000D03*
%TO.N,F_|CRST*%
X25800000Y-42100000D03*
%TO.N,F_IO12*%
X28900000Y-41300000D03*
%TO.N,+3V3*%
X28900000Y-42100000D03*
%TO.N,CLOCK_EN*%
X42800000Y-43800000D03*
%TO.N,F_|CRST*%
X35000000Y-35300000D03*
X38100000Y-36600000D03*
%TO.N,CLOCK_EN*%
X50600000Y-42700000D03*
%TO.N,F_|CRST*%
X42900000Y-43200000D03*
%TO.N,F_CDONE*%
X43200000Y-42800000D03*
%TO.N,+3V3*%
X44100000Y-40100000D03*
%TO.N,F_IO29*%
X37800002Y-38006158D03*
%TO.N,F_IO31*%
X36999998Y-38006158D03*
%TO.N,CLOCK_EN*%
X38200001Y-37800000D03*
D11*
%TO.N,+1V2*%
X40500000Y-36400000D03*
X31100000Y-37100000D03*
%TO.N,+3V3*%
X39700000Y-35000000D03*
X43300000Y-35500000D03*
X51800000Y-36000000D03*
X49700000Y-43000000D03*
X46200000Y-41200000D03*
X46500000Y-34700000D03*
X37300000Y-45815000D03*
X33600000Y-35200000D03*
%TD*%
D12*
%TO.N,F_IO15*%
X44984753Y-41684753D02*
X44800000Y-41500000D01*
X44800000Y-45000000D02*
X44984753Y-44815247D01*
X44984753Y-44815247D02*
X44984753Y-41684753D01*
%TO.N,F_IO14*%
X42518283Y-46873133D02*
X38418283Y-46873133D01*
X43018283Y-46373133D02*
X42518283Y-46873133D01*
%TO.N,F_IO13*%
X38736566Y-46436567D02*
X38309142Y-46436567D01*
X42320241Y-46525468D02*
X38825467Y-46525468D01*
X38825467Y-46525468D02*
X38736566Y-46436567D01*
X42909142Y-45936567D02*
X42320241Y-46525468D01*
%TO.N,F_IO12*%
X38700000Y-45500000D02*
X38200000Y-46000000D01*
X42800000Y-45500000D02*
X38700000Y-45500000D01*
%TO.N,F_IO7*%
X38603976Y-43996024D02*
X38000000Y-44600000D01*
X38603976Y-41997987D02*
X38603976Y-43996024D01*
%TO.N,F_IO6*%
X38202495Y-43801247D02*
X38001247Y-44002495D01*
X38202495Y-42201247D02*
X38202495Y-43801247D01*
%TO.N,F_IO5*%
X37800000Y-42000000D02*
X37800000Y-43600000D01*
%TO.N,CLOCK_EN*%
X42754113Y-43754113D02*
X42800000Y-43800000D01*
X42754113Y-43586000D02*
X42754113Y-43754113D01*
X42740113Y-43586000D02*
X42754113Y-43586000D01*
X42514000Y-43040113D02*
X42514000Y-43359887D01*
X42593000Y-42961113D02*
X42514000Y-43040113D01*
X42514000Y-43359887D02*
X42740113Y-43586000D01*
X38558000Y-38783084D02*
X42593000Y-42818084D01*
X38558000Y-38358000D02*
X38558000Y-38783084D01*
X38200000Y-38000000D02*
X38558000Y-38358000D01*
X38200001Y-37800000D02*
X38200000Y-38000000D01*
X42593000Y-42818084D02*
X42593000Y-42961113D01*
%TO.N,F_|CRST*%
X42900000Y-43045887D02*
X42900000Y-43200000D01*
X42814000Y-42959887D02*
X42900000Y-43045887D01*
X42814000Y-42726542D02*
X42814000Y-42959887D01*
X38779000Y-38691542D02*
X42814000Y-42726542D01*
X38614000Y-37959887D02*
X38779000Y-38124887D01*
X38779000Y-37475113D02*
X38614000Y-37640113D01*
X38614000Y-37640113D02*
X38614000Y-37959887D01*
X38779000Y-37279000D02*
X38779000Y-37475113D01*
X38100000Y-36600000D02*
X38779000Y-37279000D01*
X38779000Y-38124887D02*
X38779000Y-38691542D01*
%TO.N,F_CDONE*%
X39000000Y-36600000D02*
X38900000Y-36500000D01*
X39000000Y-36954113D02*
X39000000Y-36600000D01*
%TO.N,F_|CRST*%
X33500000Y-41300000D02*
X33000000Y-41800000D01*
X33500000Y-35900000D02*
X33500000Y-41300000D01*
%TO.N,F_IO31*%
X35600000Y-41000000D02*
X35600000Y-41800000D01*
X37100000Y-39500000D02*
X35600000Y-41000000D01*
%TO.N,Net-(Q2-D1)*%
X34700000Y-39000000D02*
X34700000Y-41900000D01*
%TO.N,Net-(Q1-D1)*%
X32000000Y-38900000D02*
X32000000Y-42400000D01*
%TO.N,F_|CRST*%
X25800000Y-41100000D02*
X31200000Y-35700000D01*
X25800000Y-42100000D02*
X25800000Y-41100000D01*
%TO.N,W_|HOLD*%
X48000000Y-37300000D02*
X49300000Y-36000000D01*
X48000000Y-40500000D02*
X48000000Y-37300000D01*
%TO.N,F_CDONE*%
X39000000Y-37800000D02*
X39000000Y-36954113D01*
%TO.N,CLOCK_EN*%
X50600000Y-42800000D02*
X50600000Y-42700000D01*
%TO.N,F_CDONE*%
X39000000Y-38600000D02*
X43200000Y-42800000D01*
X39000000Y-37800000D02*
X39000000Y-38600000D01*
%TO.N,F_IO32*%
X35700000Y-38400000D02*
X36000000Y-38400000D01*
X36000000Y-38400000D02*
X36600000Y-37800000D01*
%TD*%
%TA.AperFunction,Conductor*%
%TO.N,+3V3*%
G36*
X34082585Y-33020185D02*
G01*
X34128340Y-33072989D01*
X34138284Y-33142147D01*
X34109259Y-33205703D01*
X34103227Y-33212181D01*
X34014144Y-33301263D01*
X34014141Y-33301267D01*
X33945692Y-33403707D01*
X33945687Y-33403716D01*
X33898538Y-33517545D01*
X33898535Y-33517555D01*
X33874500Y-33638389D01*
X33874500Y-33761610D01*
X33895837Y-33868880D01*
X33898537Y-33882452D01*
X33899529Y-33884847D01*
X33945687Y-33996283D01*
X33945692Y-33996292D01*
X34014141Y-34098732D01*
X34014144Y-34098736D01*
X34101263Y-34185855D01*
X34101267Y-34185858D01*
X34203707Y-34254307D01*
X34203713Y-34254310D01*
X34203714Y-34254311D01*
X34317548Y-34301463D01*
X34438389Y-34325499D01*
X34438393Y-34325500D01*
X34438394Y-34325500D01*
X34561607Y-34325500D01*
X34561608Y-34325499D01*
X34682452Y-34301463D01*
X34796286Y-34254311D01*
X34898733Y-34185858D01*
X34985858Y-34098733D01*
X35054311Y-33996286D01*
X35078293Y-33938389D01*
X37324497Y-33938389D01*
X37324497Y-34061610D01*
X37348532Y-34182444D01*
X37348534Y-34182452D01*
X37356408Y-34201461D01*
X37395684Y-34296283D01*
X37395689Y-34296292D01*
X37464138Y-34398732D01*
X37464141Y-34398736D01*
X37551260Y-34485855D01*
X37551264Y-34485858D01*
X37653704Y-34554307D01*
X37653710Y-34554310D01*
X37653711Y-34554311D01*
X37767545Y-34601463D01*
X37888386Y-34625499D01*
X37888390Y-34625500D01*
X37888391Y-34625500D01*
X38011601Y-34625500D01*
X38011603Y-34625500D01*
X38132449Y-34601463D01*
X38132458Y-34601458D01*
X38138280Y-34599694D01*
X38139061Y-34602270D01*
X38196939Y-34596012D01*
X38211537Y-34600290D01*
X38211718Y-34599694D01*
X38217537Y-34601458D01*
X38217548Y-34601463D01*
X38338389Y-34625499D01*
X38338393Y-34625500D01*
X38338394Y-34625500D01*
X38461607Y-34625500D01*
X38461608Y-34625499D01*
X38582452Y-34601463D01*
X38696286Y-34554311D01*
X38720115Y-34538389D01*
X42574500Y-34538389D01*
X42574500Y-34661610D01*
X42598535Y-34782444D01*
X42598538Y-34782454D01*
X42645687Y-34896283D01*
X42645692Y-34896292D01*
X42714141Y-34998732D01*
X42714144Y-34998736D01*
X42801263Y-35085855D01*
X42801267Y-35085858D01*
X42903707Y-35154307D01*
X42903713Y-35154310D01*
X42903714Y-35154311D01*
X43017548Y-35201463D01*
X43138389Y-35225499D01*
X43138393Y-35225500D01*
X43138394Y-35225500D01*
X43261607Y-35225500D01*
X43261608Y-35225499D01*
X43382452Y-35201463D01*
X43496286Y-35154311D01*
X43598733Y-35085858D01*
X43685858Y-34998733D01*
X43754311Y-34896286D01*
X43801463Y-34782452D01*
X43825500Y-34661606D01*
X43825500Y-34538394D01*
X43801463Y-34417548D01*
X43754311Y-34303714D01*
X43754310Y-34303713D01*
X43754307Y-34303707D01*
X43685858Y-34201267D01*
X43685855Y-34201263D01*
X43598736Y-34114144D01*
X43598732Y-34114141D01*
X43496292Y-34045692D01*
X43496283Y-34045687D01*
X43382925Y-33998733D01*
X43382452Y-33998537D01*
X43382448Y-33998536D01*
X43382444Y-33998535D01*
X43261610Y-33974500D01*
X43261606Y-33974500D01*
X43138394Y-33974500D01*
X43138389Y-33974500D01*
X43017555Y-33998535D01*
X43017545Y-33998538D01*
X42903716Y-34045687D01*
X42903707Y-34045692D01*
X42801267Y-34114141D01*
X42801263Y-34114144D01*
X42714144Y-34201263D01*
X42714141Y-34201267D01*
X42645692Y-34303707D01*
X42645687Y-34303716D01*
X42598538Y-34417545D01*
X42598535Y-34417555D01*
X42574500Y-34538389D01*
X38720115Y-34538389D01*
X38798733Y-34485858D01*
X38803006Y-34481585D01*
X38839971Y-34444621D01*
X38885855Y-34398736D01*
X38885858Y-34398733D01*
X38954311Y-34296286D01*
X39001463Y-34182452D01*
X39025500Y-34061606D01*
X39025500Y-33938394D01*
X39001463Y-33817548D01*
X38954311Y-33703714D01*
X38954310Y-33703713D01*
X38954307Y-33703707D01*
X38885858Y-33601267D01*
X38885855Y-33601263D01*
X38798736Y-33514144D01*
X38798732Y-33514141D01*
X38696292Y-33445692D01*
X38696283Y-33445687D01*
X38603477Y-33407246D01*
X38582452Y-33398537D01*
X38582448Y-33398536D01*
X38582444Y-33398535D01*
X38461610Y-33374500D01*
X38461606Y-33374500D01*
X38338394Y-33374500D01*
X38338389Y-33374500D01*
X38217551Y-33398536D01*
X38211716Y-33400306D01*
X38210947Y-33397772D01*
X38152819Y-33403944D01*
X38138461Y-33399720D01*
X38138284Y-33400307D01*
X38132443Y-33398535D01*
X38011607Y-33374500D01*
X38011603Y-33374500D01*
X37888391Y-33374500D01*
X37888386Y-33374500D01*
X37767552Y-33398535D01*
X37767542Y-33398538D01*
X37653713Y-33445687D01*
X37653704Y-33445692D01*
X37551264Y-33514141D01*
X37551260Y-33514144D01*
X37464141Y-33601263D01*
X37464138Y-33601267D01*
X37395689Y-33703707D01*
X37395684Y-33703716D01*
X37348535Y-33817545D01*
X37348532Y-33817555D01*
X37324497Y-33938389D01*
X35078293Y-33938389D01*
X35101463Y-33882452D01*
X35125500Y-33761606D01*
X35125500Y-33638394D01*
X35101463Y-33517548D01*
X35054311Y-33403714D01*
X35054310Y-33403713D01*
X35054307Y-33403707D01*
X34985858Y-33301267D01*
X34985855Y-33301263D01*
X34896773Y-33212181D01*
X34863288Y-33150858D01*
X34868272Y-33081166D01*
X34910144Y-33025233D01*
X34975608Y-33000816D01*
X34984454Y-33000500D01*
X46216731Y-33000500D01*
X46283770Y-33020185D01*
X46329525Y-33072989D01*
X46339469Y-33142147D01*
X46316077Y-33195234D01*
X46317526Y-33196202D01*
X46245692Y-33303707D01*
X46245687Y-33303716D01*
X46198538Y-33417545D01*
X46198535Y-33417555D01*
X46174500Y-33538389D01*
X46174500Y-33661610D01*
X46198535Y-33782444D01*
X46198538Y-33782454D01*
X46245687Y-33896283D01*
X46245692Y-33896292D01*
X46314141Y-33998732D01*
X46314144Y-33998736D01*
X46401263Y-34085855D01*
X46401267Y-34085858D01*
X46503707Y-34154307D01*
X46503713Y-34154310D01*
X46503714Y-34154311D01*
X46617548Y-34201463D01*
X46738389Y-34225499D01*
X46738393Y-34225500D01*
X46738394Y-34225500D01*
X46861607Y-34225500D01*
X46861608Y-34225499D01*
X46982452Y-34201463D01*
X47096286Y-34154311D01*
X47198733Y-34085858D01*
X47285858Y-33998733D01*
X47354311Y-33896286D01*
X47401463Y-33782452D01*
X47425500Y-33661606D01*
X47425500Y-33538394D01*
X47401463Y-33417548D01*
X47354311Y-33303714D01*
X47354310Y-33303713D01*
X47354307Y-33303707D01*
X47282474Y-33196202D01*
X47284020Y-33195168D01*
X47260103Y-33138857D01*
X47271893Y-33069989D01*
X47319045Y-33018428D01*
X47383269Y-33000500D01*
X53434108Y-33000500D01*
X53494587Y-33000500D01*
X53505394Y-33000972D01*
X53535721Y-33003625D01*
X53662755Y-33014739D01*
X53684035Y-33018491D01*
X53785539Y-33045689D01*
X53831369Y-33057969D01*
X53851681Y-33065362D01*
X53989915Y-33129822D01*
X54008633Y-33140629D01*
X54133582Y-33228119D01*
X54150140Y-33242013D01*
X54257986Y-33349859D01*
X54271880Y-33366417D01*
X54359370Y-33491366D01*
X54370177Y-33510084D01*
X54434637Y-33648318D01*
X54442030Y-33668630D01*
X54481507Y-33815961D01*
X54485260Y-33837246D01*
X54499028Y-33994605D01*
X54499500Y-34005413D01*
X54499500Y-45994586D01*
X54499028Y-46005393D01*
X54499028Y-46005394D01*
X54485260Y-46162753D01*
X54481507Y-46184038D01*
X54442030Y-46331369D01*
X54434637Y-46351681D01*
X54370177Y-46489915D01*
X54359370Y-46508633D01*
X54271880Y-46633582D01*
X54257986Y-46650140D01*
X54150140Y-46757986D01*
X54133582Y-46771880D01*
X54008633Y-46859370D01*
X53989915Y-46870177D01*
X53851681Y-46934637D01*
X53831369Y-46942030D01*
X53684038Y-46981507D01*
X53662753Y-46985260D01*
X53505395Y-46999028D01*
X53494587Y-46999500D01*
X43575870Y-46999500D01*
X43508831Y-46979815D01*
X43463076Y-46927011D01*
X43453132Y-46857853D01*
X43482157Y-46794297D01*
X43488189Y-46787819D01*
X43504138Y-46771869D01*
X43504141Y-46771866D01*
X43572594Y-46669419D01*
X43619746Y-46555585D01*
X43643783Y-46434739D01*
X43643783Y-46311527D01*
X43619746Y-46190681D01*
X43572594Y-46076847D01*
X43562413Y-46061610D01*
X43555539Y-46051321D01*
X43534662Y-45984644D01*
X43534642Y-45982432D01*
X43534642Y-45874960D01*
X43534641Y-45874956D01*
X43519541Y-45799040D01*
X43510605Y-45754115D01*
X43463453Y-45640281D01*
X43453576Y-45625499D01*
X43446397Y-45614754D01*
X43425520Y-45548077D01*
X43425500Y-45545864D01*
X43425500Y-45438393D01*
X43425499Y-45438389D01*
X43401464Y-45317555D01*
X43401463Y-45317548D01*
X43354311Y-45203714D01*
X43354310Y-45203713D01*
X43354307Y-45203707D01*
X43285858Y-45101267D01*
X43285855Y-45101263D01*
X43198736Y-45014144D01*
X43198732Y-45014141D01*
X43096292Y-44945692D01*
X43096283Y-44945687D01*
X42982454Y-44898538D01*
X42982455Y-44898538D01*
X42982452Y-44898537D01*
X42982448Y-44898536D01*
X42982444Y-44898535D01*
X42861610Y-44874500D01*
X42861606Y-44874500D01*
X42738394Y-44874500D01*
X42672118Y-44887681D01*
X42672087Y-44887688D01*
X42665288Y-44889041D01*
X42627045Y-44894065D01*
X42479649Y-44935400D01*
X42477814Y-44935856D01*
X42475255Y-44935747D01*
X42447974Y-44939500D01*
X41893410Y-44939500D01*
X41826371Y-44919815D01*
X41780616Y-44867011D01*
X41778849Y-44862953D01*
X41754312Y-44803717D01*
X41754311Y-44803714D01*
X41754308Y-44803709D01*
X41754304Y-44803702D01*
X41736277Y-44776722D01*
X41715399Y-44710045D01*
X41733884Y-44642665D01*
X41770486Y-44604731D01*
X41798733Y-44585858D01*
X41885858Y-44498733D01*
X41954311Y-44396286D01*
X42001463Y-44282452D01*
X42018068Y-44198969D01*
X42026689Y-44155631D01*
X42028037Y-44155899D01*
X42051580Y-44097584D01*
X42108612Y-44057221D01*
X42178412Y-44054099D01*
X42238819Y-44089209D01*
X42251930Y-44105627D01*
X42314141Y-44198732D01*
X42314144Y-44198736D01*
X42401263Y-44285855D01*
X42401267Y-44285858D01*
X42503707Y-44354307D01*
X42503713Y-44354310D01*
X42503714Y-44354311D01*
X42617548Y-44401463D01*
X42698451Y-44417555D01*
X42738389Y-44425499D01*
X42738393Y-44425500D01*
X42738394Y-44425500D01*
X42861607Y-44425500D01*
X42861608Y-44425499D01*
X42982452Y-44401463D01*
X43096286Y-44354311D01*
X43198733Y-44285858D01*
X43285858Y-44198733D01*
X43354311Y-44096286D01*
X43401463Y-43982452D01*
X43425500Y-43861606D01*
X43425500Y-43738394D01*
X43405019Y-43635426D01*
X43407032Y-43612925D01*
X43404384Y-43590490D01*
X43410391Y-43575387D01*
X43411246Y-43565836D01*
X43415181Y-43556888D01*
X43418862Y-43549338D01*
X43454311Y-43496286D01*
X43501463Y-43382452D01*
X43502305Y-43378213D01*
X43507812Y-43366922D01*
X43524945Y-43348130D01*
X43538879Y-43326857D01*
X43550365Y-43318175D01*
X43598733Y-43285858D01*
X43685858Y-43198733D01*
X43697969Y-43180606D01*
X43751581Y-43135804D01*
X43801070Y-43125500D01*
X43861607Y-43125500D01*
X43861608Y-43125499D01*
X43982452Y-43101463D01*
X44096286Y-43054311D01*
X44198733Y-42985858D01*
X44199200Y-42985391D01*
X44212572Y-42972020D01*
X44273895Y-42938535D01*
X44343587Y-42943519D01*
X44399520Y-42985391D01*
X44423937Y-43050855D01*
X44424253Y-43059701D01*
X44424253Y-44439793D01*
X44404568Y-44506832D01*
X44387934Y-44527474D01*
X44314144Y-44601263D01*
X44314141Y-44601267D01*
X44245692Y-44703707D01*
X44245687Y-44703716D01*
X44198538Y-44817545D01*
X44198535Y-44817555D01*
X44174500Y-44938389D01*
X44174500Y-45061610D01*
X44198535Y-45182444D01*
X44198538Y-45182454D01*
X44245687Y-45296283D01*
X44245692Y-45296292D01*
X44314141Y-45398732D01*
X44314144Y-45398736D01*
X44401263Y-45485855D01*
X44401267Y-45485858D01*
X44503707Y-45554307D01*
X44503716Y-45554312D01*
X44524739Y-45563020D01*
X44617548Y-45601463D01*
X44738389Y-45625499D01*
X44738393Y-45625500D01*
X44738394Y-45625500D01*
X44861607Y-45625500D01*
X44861608Y-45625499D01*
X44982452Y-45601463D01*
X45096286Y-45554311D01*
X45198733Y-45485858D01*
X45285858Y-45398733D01*
X45327274Y-45336748D01*
X45350761Y-45306158D01*
X45432519Y-45160666D01*
X45432853Y-45160111D01*
X45433258Y-45159408D01*
X45433265Y-45159402D01*
X45507056Y-45031592D01*
X45509028Y-45024234D01*
X45544001Y-44893713D01*
X51149500Y-44893713D01*
X51149500Y-45106287D01*
X51154585Y-45138394D01*
X51181156Y-45306158D01*
X51182754Y-45316243D01*
X51222443Y-45438394D01*
X51248444Y-45518414D01*
X51344951Y-45707820D01*
X51469890Y-45879786D01*
X51620213Y-46030109D01*
X51792179Y-46155048D01*
X51792181Y-46155049D01*
X51792184Y-46155051D01*
X51981588Y-46251557D01*
X52183757Y-46317246D01*
X52393713Y-46350500D01*
X52393714Y-46350500D01*
X52606286Y-46350500D01*
X52606287Y-46350500D01*
X52816243Y-46317246D01*
X53018412Y-46251557D01*
X53207816Y-46155051D01*
X53240754Y-46131120D01*
X53379786Y-46030109D01*
X53379788Y-46030106D01*
X53379792Y-46030104D01*
X53530104Y-45879792D01*
X53530106Y-45879788D01*
X53530109Y-45879786D01*
X53655048Y-45707820D01*
X53655047Y-45707820D01*
X53655051Y-45707816D01*
X53751557Y-45518412D01*
X53817246Y-45316243D01*
X53850500Y-45106287D01*
X53850500Y-44893713D01*
X53817246Y-44683757D01*
X53751557Y-44481588D01*
X53655051Y-44292184D01*
X53655049Y-44292181D01*
X53655048Y-44292179D01*
X53530109Y-44120213D01*
X53379786Y-43969890D01*
X53207820Y-43844951D01*
X53018414Y-43748444D01*
X53018413Y-43748443D01*
X53018412Y-43748443D01*
X52816243Y-43682754D01*
X52816241Y-43682753D01*
X52816240Y-43682753D01*
X52654957Y-43657208D01*
X52606287Y-43649500D01*
X52393713Y-43649500D01*
X52345042Y-43657208D01*
X52183760Y-43682753D01*
X52183757Y-43682754D01*
X52012516Y-43738394D01*
X51981585Y-43748444D01*
X51792179Y-43844951D01*
X51620213Y-43969890D01*
X51469890Y-44120213D01*
X51344951Y-44292179D01*
X51248444Y-44481585D01*
X51182753Y-44683760D01*
X51163754Y-44803717D01*
X51149500Y-44893713D01*
X45544001Y-44893713D01*
X45545253Y-44889039D01*
X45545253Y-44741456D01*
X45545253Y-42638389D01*
X49974500Y-42638389D01*
X49974500Y-42761610D01*
X49996955Y-42874500D01*
X49998537Y-42882452D01*
X50002851Y-42892867D01*
X50045687Y-42996283D01*
X50045692Y-42996292D01*
X50114140Y-43098731D01*
X50114141Y-43098732D01*
X50114142Y-43098733D01*
X50128914Y-43113505D01*
X50148617Y-43139183D01*
X50151488Y-43144155D01*
X50255845Y-43248512D01*
X50383655Y-43322303D01*
X50526209Y-43360500D01*
X50526211Y-43360500D01*
X50673789Y-43360500D01*
X50673791Y-43360500D01*
X50816345Y-43322303D01*
X50944155Y-43248512D01*
X51048512Y-43144155D01*
X51051376Y-43139192D01*
X51071089Y-43113501D01*
X51085858Y-43098733D01*
X51154311Y-42996286D01*
X51201463Y-42882452D01*
X51225500Y-42761606D01*
X51225500Y-42638394D01*
X51201463Y-42517548D01*
X51154311Y-42403714D01*
X51154310Y-42403713D01*
X51154307Y-42403707D01*
X51085858Y-42301267D01*
X51085855Y-42301263D01*
X50998736Y-42214144D01*
X50998732Y-42214141D01*
X50896292Y-42145692D01*
X50896283Y-42145687D01*
X50791331Y-42102215D01*
X50782452Y-42098537D01*
X50782448Y-42098536D01*
X50782444Y-42098535D01*
X50661610Y-42074500D01*
X50661606Y-42074500D01*
X50538394Y-42074500D01*
X50538389Y-42074500D01*
X50417555Y-42098535D01*
X50417545Y-42098538D01*
X50303716Y-42145687D01*
X50303707Y-42145692D01*
X50201267Y-42214141D01*
X50201263Y-42214144D01*
X50114144Y-42301263D01*
X50114141Y-42301267D01*
X50045692Y-42403707D01*
X50045687Y-42403716D01*
X49998538Y-42517545D01*
X49998535Y-42517555D01*
X49974500Y-42638389D01*
X45545253Y-42638389D01*
X45545253Y-42349346D01*
X45564938Y-42282307D01*
X45617742Y-42236552D01*
X45657110Y-42225942D01*
X45661595Y-42225500D01*
X45661606Y-42225500D01*
X45782452Y-42201463D01*
X45896286Y-42154311D01*
X45998733Y-42085858D01*
X46085858Y-41998733D01*
X46126179Y-41938389D01*
X46974500Y-41938389D01*
X46974500Y-42061610D01*
X46998535Y-42182444D01*
X46998537Y-42182452D01*
X47006411Y-42201461D01*
X47045687Y-42296283D01*
X47045692Y-42296292D01*
X47114141Y-42398732D01*
X47114144Y-42398736D01*
X47201263Y-42485855D01*
X47201267Y-42485858D01*
X47303707Y-42554307D01*
X47303716Y-42554312D01*
X47321328Y-42561607D01*
X47417548Y-42601463D01*
X47538389Y-42625499D01*
X47538393Y-42625500D01*
X47538394Y-42625500D01*
X47661607Y-42625500D01*
X47661608Y-42625499D01*
X47782452Y-42601463D01*
X47896286Y-42554311D01*
X47896292Y-42554307D01*
X47933868Y-42529200D01*
X47975377Y-42501464D01*
X47998733Y-42485858D01*
X48085858Y-42398733D01*
X48154311Y-42296286D01*
X48201463Y-42182452D01*
X48225500Y-42061606D01*
X48225500Y-41938394D01*
X48201463Y-41817548D01*
X48158631Y-41714144D01*
X48154312Y-41703716D01*
X48154307Y-41703707D01*
X48085858Y-41601267D01*
X48085855Y-41601263D01*
X47998736Y-41514144D01*
X47998732Y-41514141D01*
X47896292Y-41445692D01*
X47896283Y-41445687D01*
X47803477Y-41407246D01*
X47782452Y-41398537D01*
X47782448Y-41398536D01*
X47782444Y-41398535D01*
X47661610Y-41374500D01*
X47661606Y-41374500D01*
X47538394Y-41374500D01*
X47538389Y-41374500D01*
X47417555Y-41398535D01*
X47417545Y-41398538D01*
X47303716Y-41445687D01*
X47303707Y-41445692D01*
X47201267Y-41514141D01*
X47201263Y-41514144D01*
X47114144Y-41601263D01*
X47114141Y-41601267D01*
X47045692Y-41703707D01*
X47045687Y-41703716D01*
X46998538Y-41817545D01*
X46998535Y-41817555D01*
X46974500Y-41938389D01*
X46126179Y-41938389D01*
X46154311Y-41896286D01*
X46156381Y-41891288D01*
X46159050Y-41884847D01*
X46159050Y-41884846D01*
X46186923Y-41817555D01*
X46201463Y-41782452D01*
X46225500Y-41661606D01*
X46225500Y-41538394D01*
X46201463Y-41417548D01*
X46154311Y-41303714D01*
X46154310Y-41303713D01*
X46154307Y-41303707D01*
X46085858Y-41201267D01*
X46085855Y-41201263D01*
X45998736Y-41114144D01*
X45998732Y-41114141D01*
X45896292Y-41045692D01*
X45896283Y-41045687D01*
X45794933Y-41003707D01*
X45782452Y-40998537D01*
X45782448Y-40998536D01*
X45782444Y-40998535D01*
X45661610Y-40974500D01*
X45661606Y-40974500D01*
X45538394Y-40974500D01*
X45538389Y-40974500D01*
X45417555Y-40998535D01*
X45417541Y-40998539D01*
X45328157Y-41035563D01*
X45258688Y-41043032D01*
X45202044Y-41016859D01*
X45198735Y-41014144D01*
X45198733Y-41014142D01*
X45198271Y-41013833D01*
X45096292Y-40945692D01*
X45096283Y-40945687D01*
X44994047Y-40903340D01*
X44982452Y-40898537D01*
X44982448Y-40898536D01*
X44982444Y-40898535D01*
X44861610Y-40874500D01*
X44861606Y-40874500D01*
X44738394Y-40874500D01*
X44738389Y-40874500D01*
X44617555Y-40898535D01*
X44617545Y-40898538D01*
X44503716Y-40945687D01*
X44503707Y-40945692D01*
X44401267Y-41014141D01*
X44401263Y-41014144D01*
X44314144Y-41101263D01*
X44314141Y-41101267D01*
X44245692Y-41203707D01*
X44245687Y-41203716D01*
X44198538Y-41317545D01*
X44198535Y-41317555D01*
X44180903Y-41406199D01*
X44174879Y-41419021D01*
X44173671Y-41429884D01*
X44160678Y-41449250D01*
X44155549Y-41460170D01*
X44151498Y-41465158D01*
X44112895Y-41503762D01*
X44079158Y-41554250D01*
X44075518Y-41558735D01*
X44051310Y-41575410D01*
X44028743Y-41594270D01*
X44020748Y-41597211D01*
X44018023Y-41598340D01*
X44017979Y-41598371D01*
X44017946Y-41598372D01*
X43903716Y-41645687D01*
X43903707Y-41645692D01*
X43801267Y-41714141D01*
X43801263Y-41714144D01*
X43714148Y-41801260D01*
X43714145Y-41801263D01*
X43714142Y-41801266D01*
X43714142Y-41801267D01*
X43687569Y-41841034D01*
X43681829Y-41849626D01*
X43628216Y-41894430D01*
X43621478Y-41896909D01*
X43503716Y-41945687D01*
X43503707Y-41945692D01*
X43401267Y-42014141D01*
X43401263Y-42014144D01*
X43391718Y-42023690D01*
X43330395Y-42057175D01*
X43260703Y-42052191D01*
X43216356Y-42023690D01*
X39596819Y-38404153D01*
X39582115Y-38377225D01*
X39565523Y-38351407D01*
X39564631Y-38345206D01*
X39563334Y-38342830D01*
X39560500Y-38316472D01*
X39560500Y-38152023D01*
X39565106Y-38118540D01*
X39593431Y-38017539D01*
X39605934Y-37972956D01*
X39610309Y-37956269D01*
X39610501Y-37955482D01*
X39622523Y-37884677D01*
X39622522Y-37884668D01*
X39622727Y-37881346D01*
X39622854Y-37879497D01*
X39623421Y-37872054D01*
X39625500Y-37861606D01*
X39625500Y-37844784D01*
X39625859Y-37840075D01*
X39636618Y-37811635D01*
X39645185Y-37782461D01*
X39648860Y-37779276D01*
X39650582Y-37774726D01*
X39675011Y-37756616D01*
X39697989Y-37736706D01*
X39703481Y-37735511D01*
X39706711Y-37733117D01*
X39717934Y-37732366D01*
X39749500Y-37725500D01*
X39861607Y-37725500D01*
X39861608Y-37725499D01*
X39982452Y-37701463D01*
X40096286Y-37654311D01*
X40198733Y-37585858D01*
X40285858Y-37498733D01*
X40354311Y-37396286D01*
X40401463Y-37282452D01*
X40401463Y-37282450D01*
X40403701Y-37277048D01*
X40447542Y-37222644D01*
X40513836Y-37200579D01*
X40518262Y-37200500D01*
X40578844Y-37200500D01*
X40578845Y-37200499D01*
X40733497Y-37169737D01*
X40849759Y-37121580D01*
X40879172Y-37109397D01*
X40879172Y-37109396D01*
X40879179Y-37109394D01*
X41010289Y-37021789D01*
X41121789Y-36910289D01*
X41209394Y-36779179D01*
X41269737Y-36633497D01*
X41271877Y-36622737D01*
X41272764Y-36618277D01*
X42654472Y-36618277D01*
X42654472Y-36741498D01*
X42678507Y-36862332D01*
X42678509Y-36862340D01*
X42680236Y-36866510D01*
X42725659Y-36976171D01*
X42725664Y-36976180D01*
X42794113Y-37078620D01*
X42794116Y-37078624D01*
X42881238Y-37165746D01*
X42950001Y-37211691D01*
X42983686Y-37234199D01*
X42983693Y-37234201D01*
X42988610Y-37236830D01*
X43038458Y-37285788D01*
X43040459Y-37289924D01*
X43043195Y-37295041D01*
X43111643Y-37397481D01*
X43111649Y-37397489D01*
X43198768Y-37484608D01*
X43198772Y-37484611D01*
X43301212Y-37553060D01*
X43301218Y-37553063D01*
X43301219Y-37553064D01*
X43415053Y-37600216D01*
X43503706Y-37617849D01*
X43565614Y-37650233D01*
X43567195Y-37651786D01*
X43601263Y-37685855D01*
X43601267Y-37685858D01*
X43703707Y-37754307D01*
X43703716Y-37754312D01*
X43720717Y-37761354D01*
X43817548Y-37801463D01*
X43938389Y-37825499D01*
X43938393Y-37825500D01*
X43938394Y-37825500D01*
X44061607Y-37825500D01*
X44061608Y-37825499D01*
X44182452Y-37801463D01*
X44296286Y-37754311D01*
X44318527Y-37739450D01*
X44403798Y-37682474D01*
X44405632Y-37685219D01*
X44456034Y-37662675D01*
X44525113Y-37673158D01*
X44577558Y-37719323D01*
X44594340Y-37761354D01*
X44598537Y-37782452D01*
X44605199Y-37798535D01*
X44645687Y-37896283D01*
X44645692Y-37896292D01*
X44714141Y-37998732D01*
X44714144Y-37998736D01*
X44777727Y-38062319D01*
X44811212Y-38123642D01*
X44806228Y-38193334D01*
X44777727Y-38237681D01*
X44714144Y-38301263D01*
X44714141Y-38301267D01*
X44645692Y-38403707D01*
X44645687Y-38403716D01*
X44598538Y-38517545D01*
X44598535Y-38517555D01*
X44574500Y-38638389D01*
X44574500Y-38761610D01*
X44598535Y-38882444D01*
X44598538Y-38882454D01*
X44645687Y-38996283D01*
X44645692Y-38996292D01*
X44714141Y-39098732D01*
X44714144Y-39098736D01*
X44801263Y-39185855D01*
X44801267Y-39185858D01*
X44903707Y-39254307D01*
X44903713Y-39254310D01*
X44903714Y-39254311D01*
X45017548Y-39301463D01*
X45098451Y-39317555D01*
X45138389Y-39325499D01*
X45138393Y-39325500D01*
X45138394Y-39325500D01*
X45261607Y-39325500D01*
X45261608Y-39325499D01*
X45382452Y-39301463D01*
X45496286Y-39254311D01*
X45598733Y-39185858D01*
X45685858Y-39098733D01*
X45754311Y-38996286D01*
X45789295Y-38911829D01*
X45803795Y-38876823D01*
X45805649Y-38877591D01*
X45838879Y-38826857D01*
X45850365Y-38818175D01*
X45898733Y-38785858D01*
X45985858Y-38698733D01*
X46026179Y-38638389D01*
X46674500Y-38638389D01*
X46674500Y-38761610D01*
X46698535Y-38882444D01*
X46698538Y-38882454D01*
X46745687Y-38996283D01*
X46745692Y-38996292D01*
X46814141Y-39098732D01*
X46814144Y-39098736D01*
X46901263Y-39185855D01*
X46901267Y-39185858D01*
X47003707Y-39254307D01*
X47003713Y-39254310D01*
X47003714Y-39254311D01*
X47117548Y-39301463D01*
X47198451Y-39317555D01*
X47238389Y-39325499D01*
X47238393Y-39325500D01*
X47315500Y-39325500D01*
X47382539Y-39345185D01*
X47428294Y-39397989D01*
X47439500Y-39449500D01*
X47439500Y-40147969D01*
X47434894Y-40181452D01*
X47394061Y-40327052D01*
X47389508Y-40344474D01*
X47389321Y-40345246D01*
X47389320Y-40345252D01*
X47377475Y-40415325D01*
X47377273Y-40418637D01*
X47375124Y-40435254D01*
X47374500Y-40438388D01*
X47374500Y-40561610D01*
X47398535Y-40682444D01*
X47398538Y-40682454D01*
X47445687Y-40796283D01*
X47445692Y-40796292D01*
X47514141Y-40898732D01*
X47514144Y-40898736D01*
X47601263Y-40985855D01*
X47601267Y-40985858D01*
X47703707Y-41054307D01*
X47703713Y-41054310D01*
X47703714Y-41054311D01*
X47817548Y-41101463D01*
X47898451Y-41117555D01*
X47938389Y-41125499D01*
X47938393Y-41125500D01*
X47938394Y-41125500D01*
X48061607Y-41125500D01*
X48061608Y-41125499D01*
X48182452Y-41101463D01*
X48296286Y-41054311D01*
X48398733Y-40985858D01*
X48485858Y-40898733D01*
X48554311Y-40796286D01*
X48601463Y-40682452D01*
X48625500Y-40561606D01*
X48625500Y-40438394D01*
X48624875Y-40435254D01*
X48617612Y-40398741D01*
X48610957Y-40365283D01*
X48605934Y-40327042D01*
X48564603Y-40179664D01*
X48564144Y-40177813D01*
X48564252Y-40175255D01*
X48560500Y-40147974D01*
X48560500Y-37583528D01*
X48580185Y-37516489D01*
X48596819Y-37495847D01*
X49018147Y-37074519D01*
X49447418Y-36645247D01*
X49474343Y-36624834D01*
X49606158Y-36550761D01*
X49615198Y-36545473D01*
X49621223Y-36541950D01*
X49621248Y-36541935D01*
X49621940Y-36541514D01*
X49680339Y-36500046D01*
X49680345Y-36500038D01*
X49682796Y-36497871D01*
X49696096Y-36487620D01*
X49698734Y-36485857D01*
X49785855Y-36398736D01*
X49785858Y-36398733D01*
X49854311Y-36296286D01*
X49901463Y-36182452D01*
X49925500Y-36061606D01*
X49925500Y-35938394D01*
X49901463Y-35817548D01*
X49854311Y-35703714D01*
X49854310Y-35703713D01*
X49854307Y-35703707D01*
X49785858Y-35601267D01*
X49785855Y-35601263D01*
X49698736Y-35514144D01*
X49698732Y-35514141D01*
X49596292Y-35445692D01*
X49596283Y-35445687D01*
X49482454Y-35398538D01*
X49482455Y-35398538D01*
X49482452Y-35398537D01*
X49482448Y-35398536D01*
X49482444Y-35398535D01*
X49361610Y-35374500D01*
X49361606Y-35374500D01*
X49238394Y-35374500D01*
X49238389Y-35374500D01*
X49117555Y-35398535D01*
X49117545Y-35398538D01*
X49003716Y-35445687D01*
X49003707Y-35445692D01*
X48901267Y-35514141D01*
X48901263Y-35514144D01*
X48814146Y-35601261D01*
X48814139Y-35601269D01*
X48776609Y-35657435D01*
X48776591Y-35657463D01*
X48772736Y-35663234D01*
X48749241Y-35693837D01*
X48674255Y-35827271D01*
X48673268Y-35828910D01*
X48671383Y-35830640D01*
X48654745Y-35852586D01*
X48387845Y-36119487D01*
X48326522Y-36152972D01*
X48256831Y-36147988D01*
X48200897Y-36106117D01*
X48185603Y-36079259D01*
X48154312Y-36003716D01*
X48154307Y-36003707D01*
X48085858Y-35901267D01*
X48085855Y-35901263D01*
X47998736Y-35814144D01*
X47998732Y-35814141D01*
X47896292Y-35745692D01*
X47896283Y-35745687D01*
X47782925Y-35698733D01*
X47782452Y-35698537D01*
X47782448Y-35698536D01*
X47782444Y-35698535D01*
X47661610Y-35674500D01*
X47661606Y-35674500D01*
X47538394Y-35674500D01*
X47538389Y-35674500D01*
X47417555Y-35698535D01*
X47417545Y-35698538D01*
X47303716Y-35745687D01*
X47303707Y-35745692D01*
X47201267Y-35814141D01*
X47201263Y-35814144D01*
X47114144Y-35901263D01*
X47114141Y-35901267D01*
X47045692Y-36003707D01*
X47045687Y-36003716D01*
X46998538Y-36117545D01*
X46998535Y-36117555D01*
X46974500Y-36238389D01*
X46974500Y-36361610D01*
X46998535Y-36482444D01*
X46998537Y-36482452D01*
X46999948Y-36485858D01*
X47045687Y-36596283D01*
X47045692Y-36596292D01*
X47114141Y-36698732D01*
X47114144Y-36698736D01*
X47201263Y-36785855D01*
X47201267Y-36785858D01*
X47303707Y-36854307D01*
X47303720Y-36854314D01*
X47393853Y-36891648D01*
X47405042Y-36896283D01*
X47420344Y-36902621D01*
X47474748Y-36946462D01*
X47496813Y-37012756D01*
X47491613Y-37052976D01*
X47487463Y-37066740D01*
X47482972Y-37074519D01*
X47477697Y-37083655D01*
X47440926Y-37220888D01*
X47440434Y-37222724D01*
X47439500Y-37226210D01*
X47439500Y-37950500D01*
X47419815Y-38017539D01*
X47367011Y-38063294D01*
X47315500Y-38074500D01*
X47238389Y-38074500D01*
X47117555Y-38098535D01*
X47117545Y-38098538D01*
X47003716Y-38145687D01*
X47003707Y-38145692D01*
X46901267Y-38214141D01*
X46901263Y-38214144D01*
X46814144Y-38301263D01*
X46814141Y-38301267D01*
X46745692Y-38403707D01*
X46745687Y-38403716D01*
X46698538Y-38517545D01*
X46698535Y-38517555D01*
X46674500Y-38638389D01*
X46026179Y-38638389D01*
X46054311Y-38596286D01*
X46056145Y-38591858D01*
X46059050Y-38584847D01*
X46059050Y-38584846D01*
X46086923Y-38517555D01*
X46101463Y-38482452D01*
X46125500Y-38361606D01*
X46125500Y-38238394D01*
X46101463Y-38117548D01*
X46054311Y-38003714D01*
X46054310Y-38003713D01*
X46054307Y-38003707D01*
X45985858Y-37901267D01*
X45985855Y-37901263D01*
X45898736Y-37814144D01*
X45898730Y-37814139D01*
X45876199Y-37799084D01*
X45831394Y-37745471D01*
X45822688Y-37676146D01*
X45823469Y-37671816D01*
X45825500Y-37661606D01*
X45825500Y-37538394D01*
X45801463Y-37417548D01*
X45758631Y-37314144D01*
X45754312Y-37303716D01*
X45754307Y-37303707D01*
X45685858Y-37201267D01*
X45685855Y-37201263D01*
X45598736Y-37114144D01*
X45598732Y-37114141D01*
X45496292Y-37045692D01*
X45496283Y-37045687D01*
X45382925Y-36998733D01*
X45382452Y-36998537D01*
X45382448Y-36998536D01*
X45382444Y-36998535D01*
X45261610Y-36974500D01*
X45261606Y-36974500D01*
X45138394Y-36974500D01*
X45138389Y-36974500D01*
X45017555Y-36998535D01*
X45017545Y-36998538D01*
X44903716Y-37045687D01*
X44903707Y-37045692D01*
X44796202Y-37117526D01*
X44794761Y-37115370D01*
X44740092Y-37137788D01*
X44671377Y-37125138D01*
X44620410Y-37077346D01*
X44605659Y-37038645D01*
X44601463Y-37017548D01*
X44557036Y-36910292D01*
X44554312Y-36903716D01*
X44554307Y-36903707D01*
X44485858Y-36801267D01*
X44485855Y-36801263D01*
X44398736Y-36714144D01*
X44398732Y-36714141D01*
X44296292Y-36645692D01*
X44296283Y-36645687D01*
X44182454Y-36598538D01*
X44182455Y-36598538D01*
X44182452Y-36598537D01*
X44182448Y-36598536D01*
X44182444Y-36598535D01*
X44093800Y-36580903D01*
X44044029Y-36558813D01*
X44036737Y-36553394D01*
X43996238Y-36512895D01*
X43893791Y-36444442D01*
X43885510Y-36441011D01*
X43873347Y-36431973D01*
X43857635Y-36411136D01*
X43839015Y-36392848D01*
X43837015Y-36388714D01*
X43834281Y-36383598D01*
X43765830Y-36281155D01*
X43765827Y-36281151D01*
X43678708Y-36194032D01*
X43678704Y-36194029D01*
X43576264Y-36125580D01*
X43576255Y-36125575D01*
X43462426Y-36078426D01*
X43462427Y-36078426D01*
X43462424Y-36078425D01*
X43462420Y-36078424D01*
X43462416Y-36078423D01*
X43341582Y-36054388D01*
X43341578Y-36054388D01*
X43218366Y-36054388D01*
X43218361Y-36054388D01*
X43097527Y-36078423D01*
X43097517Y-36078426D01*
X42983688Y-36125575D01*
X42983679Y-36125580D01*
X42881239Y-36194029D01*
X42881235Y-36194032D01*
X42794116Y-36281151D01*
X42794113Y-36281155D01*
X42725664Y-36383595D01*
X42725659Y-36383604D01*
X42678510Y-36497433D01*
X42678507Y-36497443D01*
X42654472Y-36618277D01*
X41272764Y-36618277D01*
X41278788Y-36587998D01*
X41278788Y-36587997D01*
X41299104Y-36485858D01*
X41300500Y-36478842D01*
X41300500Y-36321158D01*
X41300500Y-36321155D01*
X41300499Y-36321153D01*
X41298302Y-36310106D01*
X41269737Y-36166503D01*
X41269735Y-36166498D01*
X41209397Y-36020827D01*
X41209390Y-36020814D01*
X41121789Y-35889711D01*
X41121786Y-35889707D01*
X41010292Y-35778213D01*
X41010288Y-35778210D01*
X40879185Y-35690609D01*
X40879172Y-35690602D01*
X40733501Y-35630264D01*
X40733489Y-35630261D01*
X40578845Y-35599500D01*
X40578842Y-35599500D01*
X40421158Y-35599500D01*
X40421155Y-35599500D01*
X40266510Y-35630261D01*
X40266498Y-35630264D01*
X40120827Y-35690602D01*
X40120814Y-35690609D01*
X39989711Y-35778210D01*
X39989707Y-35778213D01*
X39878213Y-35889707D01*
X39878210Y-35889711D01*
X39790609Y-36020814D01*
X39790602Y-36020827D01*
X39788465Y-36025987D01*
X39744619Y-36080386D01*
X39678323Y-36102445D01*
X39626456Y-36093086D01*
X39579259Y-36073536D01*
X39579253Y-36073535D01*
X39458419Y-36049500D01*
X39458415Y-36049500D01*
X39385454Y-36049500D01*
X39318415Y-36029815D01*
X39303569Y-36017852D01*
X39303443Y-36018007D01*
X39298732Y-36014141D01*
X39196292Y-35945692D01*
X39196283Y-35945687D01*
X39089511Y-35901461D01*
X39082452Y-35898537D01*
X39082448Y-35898536D01*
X39082444Y-35898535D01*
X38961610Y-35874500D01*
X38961606Y-35874500D01*
X38838394Y-35874500D01*
X38838389Y-35874500D01*
X38717555Y-35898535D01*
X38717545Y-35898538D01*
X38603716Y-35945687D01*
X38603707Y-35945692D01*
X38501269Y-36014140D01*
X38497956Y-36016859D01*
X38433645Y-36044169D01*
X38371843Y-36035563D01*
X38282458Y-35998539D01*
X38282454Y-35998537D01*
X38282452Y-35998537D01*
X38282448Y-35998536D01*
X38282444Y-35998535D01*
X38161610Y-35974500D01*
X38161606Y-35974500D01*
X38038394Y-35974500D01*
X38038389Y-35974500D01*
X37917555Y-35998535D01*
X37917545Y-35998538D01*
X37798086Y-36048020D01*
X37797119Y-36045687D01*
X37739499Y-36057660D01*
X37674266Y-36032633D01*
X37632919Y-35976311D01*
X37627303Y-35944336D01*
X37626097Y-35944455D01*
X37625500Y-35938399D01*
X37625500Y-35938394D01*
X37601463Y-35817548D01*
X37554311Y-35703714D01*
X37554310Y-35703713D01*
X37554307Y-35703707D01*
X37485858Y-35601267D01*
X37485855Y-35601263D01*
X37398736Y-35514144D01*
X37398732Y-35514141D01*
X37296292Y-35445692D01*
X37296283Y-35445687D01*
X37182454Y-35398538D01*
X37182455Y-35398538D01*
X37182452Y-35398537D01*
X37182448Y-35398536D01*
X37182444Y-35398535D01*
X37061610Y-35374500D01*
X37061606Y-35374500D01*
X36938394Y-35374500D01*
X36938389Y-35374500D01*
X36817555Y-35398535D01*
X36817545Y-35398538D01*
X36703716Y-35445687D01*
X36703707Y-35445692D01*
X36601267Y-35514141D01*
X36601263Y-35514144D01*
X36514144Y-35601263D01*
X36514141Y-35601267D01*
X36445692Y-35703707D01*
X36445687Y-35703716D01*
X36398538Y-35817545D01*
X36398535Y-35817555D01*
X36374500Y-35938389D01*
X36374500Y-36061610D01*
X36395366Y-36166510D01*
X36398537Y-36182452D01*
X36407246Y-36203477D01*
X36445687Y-36296283D01*
X36445692Y-36296292D01*
X36514141Y-36398732D01*
X36514144Y-36398736D01*
X36601263Y-36485855D01*
X36601267Y-36485858D01*
X36703707Y-36554307D01*
X36703716Y-36554312D01*
X36724739Y-36563020D01*
X36817548Y-36601463D01*
X36902106Y-36618282D01*
X36938389Y-36625499D01*
X36938393Y-36625500D01*
X36938394Y-36625500D01*
X37061607Y-36625500D01*
X37061608Y-36625499D01*
X37182452Y-36601463D01*
X37296286Y-36554311D01*
X37296285Y-36554311D01*
X37301914Y-36551980D01*
X37302886Y-36554326D01*
X37360416Y-36542332D01*
X37425666Y-36567314D01*
X37467052Y-36623608D01*
X37472692Y-36655664D01*
X37473903Y-36655545D01*
X37474500Y-36661610D01*
X37497886Y-36779179D01*
X37498537Y-36782452D01*
X37507246Y-36803477D01*
X37545687Y-36896283D01*
X37545692Y-36896292D01*
X37606650Y-36987522D01*
X37627528Y-37054200D01*
X37609043Y-37121580D01*
X37557064Y-37168270D01*
X37488094Y-37179446D01*
X37479359Y-37178031D01*
X37461606Y-37174500D01*
X37338394Y-37174500D01*
X37338389Y-37174500D01*
X37217555Y-37198535D01*
X37217545Y-37198538D01*
X37103716Y-37245687D01*
X37103709Y-37245691D01*
X37068890Y-37268957D01*
X37002213Y-37289834D01*
X36934833Y-37271349D01*
X36931110Y-37268957D01*
X36896290Y-37245691D01*
X36896283Y-37245687D01*
X36789511Y-37201461D01*
X36782452Y-37198537D01*
X36782448Y-37198536D01*
X36782444Y-37198535D01*
X36661610Y-37174500D01*
X36661606Y-37174500D01*
X36538394Y-37174500D01*
X36538389Y-37174500D01*
X36417555Y-37198535D01*
X36417545Y-37198538D01*
X36303716Y-37245687D01*
X36303707Y-37245692D01*
X36201267Y-37314141D01*
X36201263Y-37314144D01*
X36114146Y-37401261D01*
X36114139Y-37401269D01*
X36076609Y-37457435D01*
X36076591Y-37457463D01*
X36072736Y-37463234D01*
X36049241Y-37493837D01*
X35974254Y-37627274D01*
X35973267Y-37628912D01*
X35971382Y-37630642D01*
X35954744Y-37652588D01*
X35867882Y-37739450D01*
X35806559Y-37772935D01*
X35767841Y-37773319D01*
X35767666Y-37775097D01*
X35761607Y-37774500D01*
X35761606Y-37774500D01*
X35638394Y-37774500D01*
X35638389Y-37774500D01*
X35517555Y-37798535D01*
X35517545Y-37798538D01*
X35403716Y-37845687D01*
X35403707Y-37845692D01*
X35301267Y-37914141D01*
X35301263Y-37914144D01*
X35214144Y-38001263D01*
X35214141Y-38001267D01*
X35145692Y-38103707D01*
X35145687Y-38103716D01*
X35098538Y-38217545D01*
X35098535Y-38217555D01*
X35078305Y-38319261D01*
X35045921Y-38381172D01*
X34985205Y-38415746D01*
X34915435Y-38412007D01*
X34909235Y-38409631D01*
X34882454Y-38398538D01*
X34882455Y-38398538D01*
X34882452Y-38398537D01*
X34882448Y-38398536D01*
X34882444Y-38398535D01*
X34761610Y-38374500D01*
X34761606Y-38374500D01*
X34649500Y-38374500D01*
X34582461Y-38354815D01*
X34536706Y-38302011D01*
X34525500Y-38250500D01*
X34525500Y-38238393D01*
X34525499Y-38238389D01*
X34521353Y-38217545D01*
X34501463Y-38117548D01*
X34454311Y-38003714D01*
X34454310Y-38003713D01*
X34454307Y-38003707D01*
X34385858Y-37901267D01*
X34385855Y-37901263D01*
X34298736Y-37814144D01*
X34298732Y-37814141D01*
X34196292Y-37745692D01*
X34196280Y-37745686D01*
X34137045Y-37721149D01*
X34082643Y-37677307D01*
X34060579Y-37611013D01*
X34060500Y-37606589D01*
X34060500Y-36252023D01*
X34065106Y-36218540D01*
X34069951Y-36201263D01*
X34105934Y-36072956D01*
X34110309Y-36056269D01*
X34110501Y-36055482D01*
X34122523Y-35984677D01*
X34122522Y-35984668D01*
X34122727Y-35981346D01*
X34124877Y-35964733D01*
X34125500Y-35961606D01*
X34125500Y-35838394D01*
X34101463Y-35717548D01*
X34054311Y-35603714D01*
X34054310Y-35603713D01*
X34054307Y-35603707D01*
X33985858Y-35501267D01*
X33985855Y-35501263D01*
X33898736Y-35414144D01*
X33898732Y-35414141D01*
X33796292Y-35345692D01*
X33796282Y-35345687D01*
X33720396Y-35314254D01*
X33682452Y-35298537D01*
X33682448Y-35298536D01*
X33682444Y-35298535D01*
X33561610Y-35274500D01*
X33561606Y-35274500D01*
X33438394Y-35274500D01*
X33438389Y-35274500D01*
X33317555Y-35298535D01*
X33317545Y-35298538D01*
X33203716Y-35345687D01*
X33203707Y-35345692D01*
X33101267Y-35414141D01*
X33101263Y-35414144D01*
X33014144Y-35501263D01*
X33014141Y-35501267D01*
X32945692Y-35603707D01*
X32945687Y-35603716D01*
X32898538Y-35717545D01*
X32898535Y-35717555D01*
X32874500Y-35838389D01*
X32874500Y-35961606D01*
X32887679Y-36027872D01*
X32887687Y-36027906D01*
X32889040Y-36034706D01*
X32894065Y-36072955D01*
X32935401Y-36220349D01*
X32935856Y-36222184D01*
X32935747Y-36224741D01*
X32939500Y-36252024D01*
X32939500Y-37552624D01*
X32919815Y-37619663D01*
X32867011Y-37665418D01*
X32839691Y-37674241D01*
X32717555Y-37698535D01*
X32717545Y-37698538D01*
X32603716Y-37745687D01*
X32603707Y-37745692D01*
X32501267Y-37814141D01*
X32501263Y-37814144D01*
X32414144Y-37901263D01*
X32414141Y-37901267D01*
X32345692Y-38003707D01*
X32345687Y-38003716D01*
X32298538Y-38117545D01*
X32298535Y-38117555D01*
X32283679Y-38192243D01*
X32251294Y-38254154D01*
X32190579Y-38288728D01*
X32137873Y-38289669D01*
X32061606Y-38274500D01*
X31938394Y-38274500D01*
X31938389Y-38274500D01*
X31817555Y-38298535D01*
X31817545Y-38298538D01*
X31703716Y-38345687D01*
X31703707Y-38345692D01*
X31601267Y-38414141D01*
X31601263Y-38414144D01*
X31514144Y-38501263D01*
X31514141Y-38501267D01*
X31445692Y-38603707D01*
X31445687Y-38603716D01*
X31398538Y-38717545D01*
X31398535Y-38717555D01*
X31374500Y-38838389D01*
X31374500Y-38961606D01*
X31387679Y-39027872D01*
X31387687Y-39027906D01*
X31389040Y-39034706D01*
X31394065Y-39072955D01*
X31435401Y-39220349D01*
X31435856Y-39222184D01*
X31435747Y-39224741D01*
X31439500Y-39252024D01*
X31439500Y-42047969D01*
X31434894Y-42081452D01*
X31394061Y-42227052D01*
X31389508Y-42244474D01*
X31389321Y-42245246D01*
X31389320Y-42245252D01*
X31377475Y-42315325D01*
X31377273Y-42318637D01*
X31375124Y-42335254D01*
X31374500Y-42338388D01*
X31374500Y-42461610D01*
X31398535Y-42582444D01*
X31398538Y-42582454D01*
X31445687Y-42696283D01*
X31445692Y-42696292D01*
X31514141Y-42798732D01*
X31514144Y-42798736D01*
X31601263Y-42885855D01*
X31601267Y-42885858D01*
X31703707Y-42954307D01*
X31703713Y-42954310D01*
X31703714Y-42954311D01*
X31817548Y-43001463D01*
X31938389Y-43025499D01*
X31938393Y-43025500D01*
X31938394Y-43025500D01*
X32061607Y-43025500D01*
X32061608Y-43025499D01*
X32182452Y-43001463D01*
X32296286Y-42954311D01*
X32398733Y-42885858D01*
X32485858Y-42798733D01*
X32554311Y-42696286D01*
X32601463Y-42582452D01*
X32620494Y-42486772D01*
X32624175Y-42479735D01*
X32624460Y-42471793D01*
X32640139Y-42449217D01*
X32652877Y-42424866D01*
X32660798Y-42419470D01*
X32664316Y-42414406D01*
X32694662Y-42396405D01*
X32702562Y-42393132D01*
X32772032Y-42385673D01*
X32797451Y-42393138D01*
X32817548Y-42401463D01*
X32938394Y-42425500D01*
X32938396Y-42425500D01*
X33061607Y-42425500D01*
X33061608Y-42425499D01*
X33182452Y-42401463D01*
X33296286Y-42354311D01*
X33398733Y-42285858D01*
X33485858Y-42198733D01*
X33527274Y-42136748D01*
X33550761Y-42106158D01*
X33625771Y-41972674D01*
X33626726Y-41971091D01*
X33628617Y-41969354D01*
X33645250Y-41947415D01*
X33710221Y-41882444D01*
X33864968Y-41727698D01*
X33926290Y-41694214D01*
X33995982Y-41699198D01*
X34051915Y-41741070D01*
X34076332Y-41806534D01*
X34074723Y-41832300D01*
X34075097Y-41832337D01*
X34074500Y-41838398D01*
X34074500Y-41961610D01*
X34098338Y-42081452D01*
X34098537Y-42082452D01*
X34106723Y-42102215D01*
X34145687Y-42196283D01*
X34145692Y-42196292D01*
X34214141Y-42298732D01*
X34214144Y-42298736D01*
X34301263Y-42385855D01*
X34301267Y-42385858D01*
X34403707Y-42454307D01*
X34403716Y-42454312D01*
X34421335Y-42461610D01*
X34517548Y-42501463D01*
X34598451Y-42517555D01*
X34638389Y-42525499D01*
X34638393Y-42525500D01*
X34638394Y-42525500D01*
X34761607Y-42525500D01*
X34761608Y-42525499D01*
X34882452Y-42501463D01*
X34996286Y-42454311D01*
X35098733Y-42385858D01*
X35127790Y-42356800D01*
X35189108Y-42323317D01*
X35258800Y-42328299D01*
X35284362Y-42341381D01*
X35303705Y-42354306D01*
X35303713Y-42354310D01*
X35303714Y-42354311D01*
X35417548Y-42401463D01*
X35535207Y-42424866D01*
X35538389Y-42425499D01*
X35538393Y-42425500D01*
X35538394Y-42425500D01*
X35661607Y-42425500D01*
X35661608Y-42425499D01*
X35782452Y-42401463D01*
X35896286Y-42354311D01*
X35998733Y-42285858D01*
X36085858Y-42198733D01*
X36154311Y-42096286D01*
X36201463Y-41982452D01*
X36225500Y-41861606D01*
X36225500Y-41738394D01*
X36210957Y-41665283D01*
X36205934Y-41627042D01*
X36164603Y-41479664D01*
X36164144Y-41477813D01*
X36164252Y-41475255D01*
X36160500Y-41447974D01*
X36160500Y-41283527D01*
X36180185Y-41216488D01*
X36196814Y-41195850D01*
X37247416Y-40145248D01*
X37274341Y-40124835D01*
X37406158Y-40050761D01*
X37415198Y-40045473D01*
X37421223Y-40041950D01*
X37421248Y-40041935D01*
X37421940Y-40041514D01*
X37480339Y-40000046D01*
X37480345Y-40000038D01*
X37482796Y-39997871D01*
X37496096Y-39987620D01*
X37498734Y-39985857D01*
X37585855Y-39898736D01*
X37585858Y-39898733D01*
X37654311Y-39796286D01*
X37701463Y-39682452D01*
X37725500Y-39561606D01*
X37725500Y-39438394D01*
X37701463Y-39317548D01*
X37654311Y-39203714D01*
X37654310Y-39203713D01*
X37654307Y-39203707D01*
X37585858Y-39101267D01*
X37585855Y-39101263D01*
X37498736Y-39014144D01*
X37498732Y-39014141D01*
X37396292Y-38945692D01*
X37396283Y-38945687D01*
X37300056Y-38905829D01*
X37282452Y-38898537D01*
X37282448Y-38898536D01*
X37282444Y-38898535D01*
X37161610Y-38874500D01*
X37161606Y-38874500D01*
X37038394Y-38874500D01*
X37015636Y-38879026D01*
X37015629Y-38879027D01*
X36917555Y-38898535D01*
X36917545Y-38898538D01*
X36803716Y-38945687D01*
X36803707Y-38945692D01*
X36701267Y-39014141D01*
X36701263Y-39014144D01*
X36614146Y-39101261D01*
X36614139Y-39101269D01*
X36575001Y-39159843D01*
X36573305Y-39161259D01*
X36572573Y-39163345D01*
X36570257Y-39166462D01*
X36549243Y-39193832D01*
X36475163Y-39325656D01*
X36454744Y-39352588D01*
X35472181Y-40335152D01*
X35410858Y-40368637D01*
X35341167Y-40363653D01*
X35285233Y-40321781D01*
X35260816Y-40256317D01*
X35260500Y-40247471D01*
X35260500Y-39352023D01*
X35265106Y-39318540D01*
X35283118Y-39254312D01*
X35305934Y-39172956D01*
X35310309Y-39156269D01*
X35310501Y-39155482D01*
X35322507Y-39084770D01*
X35353135Y-39021973D01*
X35412854Y-38985702D01*
X35482701Y-38987476D01*
X35492211Y-38990968D01*
X35517540Y-39001460D01*
X35517542Y-39001460D01*
X35517548Y-39001463D01*
X35620662Y-39021973D01*
X35638389Y-39025499D01*
X35638393Y-39025500D01*
X35638394Y-39025500D01*
X35761606Y-39025500D01*
X35834723Y-39010956D01*
X35872956Y-39005934D01*
X36020341Y-38964601D01*
X36022185Y-38964144D01*
X36024742Y-38964252D01*
X36052024Y-38960500D01*
X36073789Y-38960500D01*
X36073792Y-38960500D01*
X36216345Y-38922303D01*
X36252441Y-38901463D01*
X36344155Y-38848512D01*
X36448512Y-38744155D01*
X36448512Y-38744153D01*
X36458715Y-38733951D01*
X36458719Y-38733945D01*
X36594557Y-38598107D01*
X36655878Y-38564624D01*
X36725570Y-38569608D01*
X36729683Y-38571226D01*
X36817546Y-38607621D01*
X36935692Y-38631121D01*
X36938387Y-38631657D01*
X36938391Y-38631658D01*
X36938392Y-38631658D01*
X36997032Y-38631658D01*
X37061604Y-38631658D01*
X37182450Y-38607621D01*
X37296284Y-38560469D01*
X37318895Y-38545360D01*
X37331109Y-38537200D01*
X37397786Y-38516322D01*
X37465166Y-38534806D01*
X37468891Y-38537200D01*
X37503710Y-38560465D01*
X37503716Y-38560469D01*
X37617550Y-38607621D01*
X37735696Y-38631121D01*
X37738391Y-38631657D01*
X37738395Y-38631658D01*
X37867700Y-38631658D01*
X37867700Y-38632892D01*
X37868953Y-38633129D01*
X37876451Y-38631121D01*
X37902804Y-38639545D01*
X37929978Y-38644695D01*
X37935609Y-38650031D01*
X37943003Y-38652395D01*
X37960617Y-38673728D01*
X37980694Y-38692753D01*
X37983670Y-38701649D01*
X37987488Y-38706273D01*
X37991085Y-38723814D01*
X37996623Y-38740365D01*
X37997500Y-38747699D01*
X37997500Y-38856876D01*
X38018777Y-38936281D01*
X38021071Y-38944845D01*
X38021072Y-38944847D01*
X38034854Y-38996286D01*
X38035697Y-38999429D01*
X38094494Y-39101269D01*
X38109489Y-39127240D01*
X38220910Y-39238661D01*
X38220916Y-39238666D01*
X41665818Y-42683568D01*
X41699303Y-42744891D01*
X41694319Y-42814583D01*
X41652447Y-42870516D01*
X41586983Y-42894933D01*
X41553947Y-42892867D01*
X41501544Y-42882444D01*
X41461606Y-42874500D01*
X41338394Y-42874500D01*
X41338389Y-42874500D01*
X41217555Y-42898535D01*
X41217545Y-42898538D01*
X41103716Y-42945687D01*
X41103707Y-42945692D01*
X41001267Y-43014141D01*
X41001263Y-43014144D01*
X40914144Y-43101263D01*
X40914141Y-43101267D01*
X40845692Y-43203707D01*
X40845687Y-43203716D01*
X40798538Y-43317545D01*
X40798535Y-43317555D01*
X40774500Y-43438389D01*
X40774500Y-43561610D01*
X40798535Y-43682444D01*
X40798539Y-43682458D01*
X40827571Y-43752548D01*
X40835040Y-43822017D01*
X40827571Y-43847452D01*
X40798539Y-43917541D01*
X40798535Y-43917555D01*
X40774500Y-44038389D01*
X40774500Y-44161610D01*
X40798535Y-44282444D01*
X40798538Y-44282454D01*
X40845687Y-44396283D01*
X40845691Y-44396290D01*
X40863723Y-44423277D01*
X40884600Y-44489955D01*
X40866115Y-44557335D01*
X40829512Y-44595268D01*
X40801269Y-44614139D01*
X40801263Y-44614144D01*
X40714144Y-44701263D01*
X40714141Y-44701267D01*
X40645692Y-44803707D01*
X40645687Y-44803717D01*
X40621151Y-44862953D01*
X40577310Y-44917356D01*
X40511016Y-44939421D01*
X40506590Y-44939500D01*
X38752527Y-44939500D01*
X38685488Y-44919815D01*
X38639733Y-44867011D01*
X38629789Y-44797853D01*
X38658814Y-44734297D01*
X38664846Y-44727819D01*
X38797397Y-44595268D01*
X38937921Y-44454744D01*
X38937926Y-44454740D01*
X38948129Y-44444536D01*
X38948131Y-44444536D01*
X39052488Y-44340179D01*
X39126279Y-44212369D01*
X39126281Y-44212359D01*
X39126844Y-44211003D01*
X39127633Y-44210023D01*
X39130343Y-44205330D01*
X39131074Y-44205752D01*
X39170682Y-44156597D01*
X39236975Y-44134528D01*
X39299858Y-44149089D01*
X39304959Y-44151815D01*
X39304960Y-44151815D01*
X39304961Y-44151816D01*
X39418795Y-44198968D01*
X39539636Y-44223004D01*
X39539640Y-44223005D01*
X39539641Y-44223005D01*
X39662854Y-44223005D01*
X39662855Y-44223004D01*
X39783699Y-44198968D01*
X39897533Y-44151816D01*
X39999980Y-44083363D01*
X40087105Y-43996238D01*
X40155558Y-43893791D01*
X40202710Y-43779957D01*
X40226747Y-43659111D01*
X40226747Y-43535899D01*
X40202710Y-43415053D01*
X40155558Y-43301219D01*
X40155557Y-43301218D01*
X40155554Y-43301212D01*
X40087105Y-43198772D01*
X40087102Y-43198768D01*
X39999983Y-43111649D01*
X39999979Y-43111646D01*
X39897539Y-43043197D01*
X39897530Y-43043192D01*
X39796786Y-43001463D01*
X39783699Y-42996042D01*
X39783695Y-42996041D01*
X39783691Y-42996040D01*
X39662857Y-42972005D01*
X39662853Y-42972005D01*
X39539641Y-42972005D01*
X39539636Y-42972005D01*
X39418802Y-42996040D01*
X39418788Y-42996044D01*
X39335928Y-43030366D01*
X39266459Y-43037835D01*
X39203980Y-43006560D01*
X39168328Y-42946471D01*
X39164476Y-42915805D01*
X39164476Y-42350010D01*
X39169082Y-42316527D01*
X39173307Y-42301461D01*
X39209910Y-42170943D01*
X39214285Y-42154256D01*
X39214477Y-42153469D01*
X39226499Y-42082664D01*
X39226498Y-42082655D01*
X39226703Y-42079333D01*
X39228853Y-42062720D01*
X39229476Y-42059593D01*
X39229476Y-41936381D01*
X39205439Y-41815535D01*
X39158287Y-41701701D01*
X39158286Y-41701700D01*
X39158283Y-41701694D01*
X39089834Y-41599254D01*
X39089831Y-41599250D01*
X39002712Y-41512131D01*
X39002708Y-41512128D01*
X38900268Y-41443679D01*
X38900259Y-41443674D01*
X38803786Y-41403714D01*
X38786428Y-41396524D01*
X38786424Y-41396523D01*
X38786420Y-41396522D01*
X38665586Y-41372487D01*
X38665582Y-41372487D01*
X38542370Y-41372487D01*
X38542365Y-41372487D01*
X38421531Y-41396522D01*
X38421521Y-41396525D01*
X38307692Y-41443674D01*
X38307685Y-41443678D01*
X38269371Y-41469279D01*
X38202693Y-41490156D01*
X38135313Y-41471671D01*
X38131590Y-41469278D01*
X38096291Y-41445692D01*
X38096283Y-41445687D01*
X38003477Y-41407246D01*
X37982452Y-41398537D01*
X37982448Y-41398536D01*
X37982444Y-41398535D01*
X37861610Y-41374500D01*
X37861606Y-41374500D01*
X37738394Y-41374500D01*
X37738389Y-41374500D01*
X37617555Y-41398535D01*
X37617545Y-41398538D01*
X37503716Y-41445687D01*
X37503707Y-41445692D01*
X37401267Y-41514141D01*
X37401263Y-41514144D01*
X37314144Y-41601263D01*
X37314141Y-41601267D01*
X37245692Y-41703707D01*
X37245687Y-41703716D01*
X37198538Y-41817545D01*
X37198535Y-41817555D01*
X37185582Y-41882676D01*
X37153197Y-41944587D01*
X37092482Y-41979161D01*
X37039777Y-41980103D01*
X37011604Y-41974500D01*
X37011603Y-41974500D01*
X36888391Y-41974500D01*
X36888386Y-41974500D01*
X36767552Y-41998535D01*
X36767542Y-41998538D01*
X36653713Y-42045687D01*
X36653704Y-42045692D01*
X36551264Y-42114141D01*
X36551260Y-42114144D01*
X36464141Y-42201263D01*
X36464138Y-42201267D01*
X36395689Y-42303707D01*
X36395684Y-42303716D01*
X36348535Y-42417545D01*
X36348532Y-42417555D01*
X36324497Y-42538389D01*
X36324497Y-42661610D01*
X36348532Y-42782444D01*
X36348535Y-42782454D01*
X36395684Y-42896283D01*
X36395689Y-42896292D01*
X36464138Y-42998732D01*
X36464141Y-42998736D01*
X36551260Y-43085855D01*
X36551264Y-43085858D01*
X36653704Y-43154307D01*
X36653710Y-43154310D01*
X36653711Y-43154311D01*
X36767545Y-43201463D01*
X36848483Y-43217562D01*
X36888386Y-43225499D01*
X36888390Y-43225500D01*
X36888391Y-43225500D01*
X37011604Y-43225500D01*
X37011604Y-43225499D01*
X37066569Y-43214567D01*
X37100046Y-43217562D01*
X37133592Y-43219816D01*
X37134738Y-43220666D01*
X37136160Y-43220794D01*
X37162702Y-43241412D01*
X37189706Y-43261446D01*
X37190210Y-43262781D01*
X37191338Y-43263657D01*
X37202516Y-43295346D01*
X37214405Y-43326804D01*
X37214231Y-43328553D01*
X37214582Y-43329547D01*
X37212039Y-43362019D01*
X37211215Y-43365884D01*
X37194057Y-43427067D01*
X37189509Y-43444472D01*
X37189325Y-43445231D01*
X37177476Y-43515322D01*
X37177777Y-43521915D01*
X37174970Y-43536025D01*
X37174953Y-43536110D01*
X37174500Y-43538388D01*
X37174500Y-43661610D01*
X37198535Y-43782444D01*
X37198538Y-43782454D01*
X37245687Y-43896283D01*
X37245692Y-43896292D01*
X37314141Y-43998732D01*
X37314144Y-43998736D01*
X37348213Y-44032804D01*
X37355822Y-44045633D01*
X37364866Y-44053473D01*
X37374220Y-44076649D01*
X37379519Y-44085582D01*
X37381074Y-44090883D01*
X37399784Y-44184947D01*
X37430227Y-44258443D01*
X37432103Y-44264837D01*
X37432095Y-44293376D01*
X37435147Y-44321757D01*
X37432085Y-44332182D01*
X37432085Y-44334706D01*
X37430722Y-44336825D01*
X37427678Y-44347193D01*
X37398539Y-44417540D01*
X37398535Y-44417555D01*
X37374500Y-44538389D01*
X37374500Y-44661610D01*
X37398535Y-44782444D01*
X37398539Y-44782458D01*
X37427571Y-44852548D01*
X37435040Y-44922017D01*
X37427571Y-44947452D01*
X37398539Y-45017541D01*
X37398535Y-45017555D01*
X37374500Y-45138389D01*
X37374500Y-45261610D01*
X37398535Y-45382444D01*
X37398538Y-45382454D01*
X37445687Y-45496283D01*
X37445692Y-45496292D01*
X37514141Y-45598732D01*
X37514144Y-45598736D01*
X37579320Y-45663912D01*
X37612805Y-45725235D01*
X37607821Y-45794927D01*
X37606202Y-45799040D01*
X37598539Y-45817541D01*
X37598535Y-45817556D01*
X37574500Y-45938389D01*
X37574500Y-46061610D01*
X37598535Y-46182444D01*
X37598537Y-46182452D01*
X37645689Y-46296286D01*
X37655872Y-46311526D01*
X37662745Y-46321812D01*
X37683622Y-46388489D01*
X37683642Y-46390702D01*
X37683642Y-46498177D01*
X37707677Y-46619011D01*
X37707680Y-46619021D01*
X37754830Y-46732852D01*
X37771885Y-46758376D01*
X37777535Y-46776422D01*
X37787760Y-46792332D01*
X37792211Y-46823291D01*
X37792763Y-46825053D01*
X37792783Y-46827267D01*
X37792783Y-46875500D01*
X37773098Y-46942539D01*
X37720294Y-46988294D01*
X37668783Y-46999500D01*
X26505413Y-46999500D01*
X26494605Y-46999028D01*
X26337246Y-46985260D01*
X26315961Y-46981507D01*
X26168630Y-46942030D01*
X26148318Y-46934637D01*
X26010084Y-46870177D01*
X25991366Y-46859370D01*
X25866417Y-46771880D01*
X25849859Y-46757986D01*
X25742013Y-46650140D01*
X25728119Y-46633582D01*
X25640629Y-46508633D01*
X25629822Y-46489915D01*
X25565362Y-46351681D01*
X25557969Y-46331369D01*
X25518492Y-46184038D01*
X25514739Y-46162752D01*
X25514065Y-46155051D01*
X25500972Y-46005393D01*
X25500500Y-45994586D01*
X25500500Y-44150516D01*
X25520185Y-44083477D01*
X25572989Y-44037722D01*
X25642147Y-44027778D01*
X25693391Y-44047414D01*
X25703707Y-44054307D01*
X25703713Y-44054310D01*
X25703714Y-44054311D01*
X25817548Y-44101463D01*
X25911814Y-44120213D01*
X25938389Y-44125499D01*
X25938393Y-44125500D01*
X25938394Y-44125500D01*
X26061607Y-44125500D01*
X26061608Y-44125499D01*
X26182452Y-44101463D01*
X26296286Y-44054311D01*
X26398733Y-43985858D01*
X26485858Y-43898733D01*
X26554311Y-43796286D01*
X26601463Y-43682452D01*
X26625500Y-43561606D01*
X26625500Y-43438394D01*
X26625499Y-43438389D01*
X29374500Y-43438389D01*
X29374500Y-43561610D01*
X29394391Y-43661610D01*
X29398537Y-43682452D01*
X29398662Y-43682753D01*
X29445687Y-43796283D01*
X29445692Y-43796292D01*
X29514141Y-43898732D01*
X29514144Y-43898736D01*
X29601263Y-43985855D01*
X29601267Y-43985858D01*
X29703707Y-44054307D01*
X29703713Y-44054310D01*
X29703714Y-44054311D01*
X29817548Y-44101463D01*
X29911814Y-44120213D01*
X29938389Y-44125499D01*
X29938393Y-44125500D01*
X29938394Y-44125500D01*
X30061607Y-44125500D01*
X30061608Y-44125499D01*
X30182452Y-44101463D01*
X30296286Y-44054311D01*
X30398733Y-43985858D01*
X30485858Y-43898733D01*
X30554311Y-43796286D01*
X30601463Y-43682452D01*
X30625500Y-43561606D01*
X30625500Y-43438394D01*
X30601463Y-43317548D01*
X30560047Y-43217562D01*
X30554312Y-43203716D01*
X30554307Y-43203707D01*
X30485858Y-43101267D01*
X30485855Y-43101263D01*
X30398736Y-43014144D01*
X30398732Y-43014141D01*
X30296292Y-42945692D01*
X30296283Y-42945687D01*
X30182925Y-42898733D01*
X30182452Y-42898537D01*
X30182448Y-42898536D01*
X30182444Y-42898535D01*
X30061610Y-42874500D01*
X30061606Y-42874500D01*
X29938394Y-42874500D01*
X29938389Y-42874500D01*
X29817555Y-42898535D01*
X29817545Y-42898538D01*
X29703716Y-42945687D01*
X29703707Y-42945692D01*
X29601267Y-43014141D01*
X29601263Y-43014144D01*
X29514144Y-43101263D01*
X29514141Y-43101267D01*
X29445692Y-43203707D01*
X29445687Y-43203716D01*
X29398538Y-43317545D01*
X29398535Y-43317555D01*
X29374500Y-43438389D01*
X26625499Y-43438389D01*
X26601463Y-43317548D01*
X26560047Y-43217562D01*
X26554312Y-43203716D01*
X26554307Y-43203707D01*
X26522644Y-43156320D01*
X26522641Y-43156316D01*
X26485858Y-43101267D01*
X26398733Y-43014142D01*
X26394582Y-43011368D01*
X26394581Y-43011367D01*
X26296292Y-42945692D01*
X26296283Y-42945687D01*
X26182925Y-42898733D01*
X26182452Y-42898537D01*
X26182448Y-42898536D01*
X26182444Y-42898535D01*
X26126558Y-42887419D01*
X26064647Y-42855035D01*
X26030073Y-42794319D01*
X26033812Y-42724550D01*
X26074678Y-42667877D01*
X26092302Y-42656441D01*
X26096285Y-42654312D01*
X26175377Y-42601464D01*
X26198733Y-42585858D01*
X26268732Y-42515858D01*
X26330053Y-42482375D01*
X26399745Y-42487359D01*
X26455679Y-42529230D01*
X26478029Y-42579350D01*
X26498535Y-42682444D01*
X26498538Y-42682454D01*
X26545687Y-42796283D01*
X26545692Y-42796292D01*
X26577354Y-42843678D01*
X26577359Y-42843684D01*
X26614142Y-42898733D01*
X26701267Y-42985858D01*
X26705417Y-42988631D01*
X26705418Y-42988632D01*
X26803707Y-43054307D01*
X26803713Y-43054310D01*
X26803714Y-43054311D01*
X26917548Y-43101463D01*
X27019204Y-43121683D01*
X27038389Y-43125499D01*
X27038393Y-43125500D01*
X27038394Y-43125500D01*
X27161607Y-43125500D01*
X27161608Y-43125499D01*
X27282452Y-43101463D01*
X27396286Y-43054311D01*
X27498733Y-42985858D01*
X27585858Y-42898733D01*
X27654311Y-42796286D01*
X27701463Y-42682452D01*
X27725500Y-42561606D01*
X27725500Y-42438394D01*
X27701463Y-42317548D01*
X27658631Y-42214144D01*
X27654312Y-42203716D01*
X27654306Y-42203705D01*
X27631044Y-42168892D01*
X27610165Y-42102215D01*
X27628649Y-42034834D01*
X27631044Y-42031108D01*
X27654306Y-41996294D01*
X27654307Y-41996291D01*
X27654311Y-41996286D01*
X27701463Y-41882452D01*
X27725500Y-41761606D01*
X27725500Y-41638394D01*
X27701463Y-41517548D01*
X27654311Y-41403714D01*
X27654310Y-41403713D01*
X27654307Y-41403707D01*
X27585858Y-41301267D01*
X27585855Y-41301263D01*
X27522981Y-41238389D01*
X28274500Y-41238389D01*
X28274500Y-41361610D01*
X28298535Y-41482444D01*
X28298538Y-41482454D01*
X28345687Y-41596283D01*
X28345692Y-41596292D01*
X28414141Y-41698732D01*
X28414144Y-41698736D01*
X28501263Y-41785855D01*
X28501267Y-41785858D01*
X28603707Y-41854307D01*
X28603716Y-41854312D01*
X28621328Y-41861607D01*
X28717548Y-41901463D01*
X28838389Y-41925499D01*
X28838393Y-41925500D01*
X28838394Y-41925500D01*
X28961607Y-41925500D01*
X28961608Y-41925499D01*
X29082452Y-41901463D01*
X29196286Y-41854311D01*
X29298733Y-41785858D01*
X29368732Y-41715858D01*
X29430053Y-41682375D01*
X29499745Y-41687359D01*
X29555679Y-41729230D01*
X29578029Y-41779350D01*
X29594390Y-41861607D01*
X29598537Y-41882452D01*
X29604265Y-41896280D01*
X29645687Y-41996283D01*
X29645692Y-41996292D01*
X29714141Y-42098732D01*
X29714144Y-42098736D01*
X29801263Y-42185855D01*
X29801267Y-42185858D01*
X29903707Y-42254307D01*
X29903713Y-42254310D01*
X29903714Y-42254311D01*
X30017548Y-42301463D01*
X30127419Y-42323317D01*
X30138389Y-42325499D01*
X30138393Y-42325500D01*
X30138394Y-42325500D01*
X30261607Y-42325500D01*
X30261608Y-42325499D01*
X30382452Y-42301463D01*
X30496286Y-42254311D01*
X30598733Y-42185858D01*
X30685858Y-42098733D01*
X30754311Y-41996286D01*
X30801463Y-41882452D01*
X30825500Y-41761606D01*
X30825500Y-41638394D01*
X30801463Y-41517548D01*
X30754311Y-41403714D01*
X30750850Y-41398535D01*
X30697634Y-41318891D01*
X30676756Y-41252214D01*
X30695240Y-41184834D01*
X30697634Y-41181109D01*
X30710571Y-41161747D01*
X30754311Y-41096286D01*
X30801463Y-40982452D01*
X30825500Y-40861606D01*
X30825500Y-40738394D01*
X30801463Y-40617548D01*
X30754311Y-40503714D01*
X30754310Y-40503713D01*
X30754307Y-40503707D01*
X30685857Y-40401265D01*
X30683142Y-40397957D01*
X30655827Y-40333648D01*
X30664432Y-40271839D01*
X30701455Y-40182460D01*
X30725492Y-40061614D01*
X30725492Y-39938402D01*
X30701455Y-39817556D01*
X30654303Y-39703722D01*
X30654302Y-39703721D01*
X30654299Y-39703715D01*
X30585850Y-39601275D01*
X30585847Y-39601271D01*
X30498728Y-39514152D01*
X30498724Y-39514149D01*
X30396284Y-39445700D01*
X30396275Y-39445695D01*
X30282446Y-39398546D01*
X30282447Y-39398546D01*
X30282444Y-39398545D01*
X30282440Y-39398544D01*
X30282436Y-39398543D01*
X30161602Y-39374508D01*
X30161598Y-39374508D01*
X30038386Y-39374508D01*
X30038381Y-39374508D01*
X29917547Y-39398543D01*
X29917537Y-39398546D01*
X29803708Y-39445695D01*
X29803699Y-39445700D01*
X29701259Y-39514149D01*
X29701255Y-39514152D01*
X29614136Y-39601271D01*
X29614133Y-39601275D01*
X29545684Y-39703715D01*
X29545679Y-39703724D01*
X29498530Y-39817553D01*
X29498527Y-39817563D01*
X29474492Y-39938397D01*
X29474492Y-40061618D01*
X29498527Y-40182452D01*
X29498530Y-40182462D01*
X29545679Y-40296291D01*
X29545684Y-40296300D01*
X29614135Y-40398744D01*
X29616855Y-40402058D01*
X29644164Y-40466370D01*
X29635558Y-40528169D01*
X29598539Y-40617541D01*
X29598535Y-40617555D01*
X29574500Y-40738389D01*
X29574500Y-40790546D01*
X29554815Y-40857585D01*
X29502011Y-40903340D01*
X29432853Y-40913284D01*
X29369297Y-40884259D01*
X29362819Y-40878227D01*
X29298736Y-40814144D01*
X29298732Y-40814141D01*
X29196292Y-40745692D01*
X29196283Y-40745687D01*
X29082454Y-40698538D01*
X29082455Y-40698538D01*
X29082452Y-40698537D01*
X29082448Y-40698536D01*
X29082444Y-40698535D01*
X28961610Y-40674500D01*
X28961606Y-40674500D01*
X28838394Y-40674500D01*
X28838389Y-40674500D01*
X28717555Y-40698535D01*
X28717545Y-40698538D01*
X28603716Y-40745687D01*
X28603707Y-40745692D01*
X28501267Y-40814141D01*
X28501263Y-40814144D01*
X28414144Y-40901263D01*
X28414141Y-40901267D01*
X28345692Y-41003707D01*
X28345687Y-41003716D01*
X28298538Y-41117545D01*
X28298535Y-41117555D01*
X28274500Y-41238389D01*
X27522981Y-41238389D01*
X27498736Y-41214144D01*
X27498732Y-41214141D01*
X27396292Y-41145692D01*
X27396283Y-41145687D01*
X27289511Y-41101461D01*
X27282452Y-41098537D01*
X27282448Y-41098536D01*
X27282444Y-41098535D01*
X27161610Y-41074500D01*
X27161606Y-41074500D01*
X27038394Y-41074500D01*
X26917548Y-41098537D01*
X26917546Y-41098537D01*
X26914739Y-41099096D01*
X26845148Y-41092868D01*
X26789971Y-41050004D01*
X26766727Y-40984114D01*
X26782795Y-40916117D01*
X26802865Y-40889800D01*
X30212823Y-37479841D01*
X30274144Y-37446358D01*
X30343836Y-37451342D01*
X30399769Y-37493214D01*
X30403604Y-37498633D01*
X30478210Y-37610288D01*
X30478213Y-37610292D01*
X30589707Y-37721786D01*
X30589711Y-37721789D01*
X30720814Y-37809390D01*
X30720827Y-37809397D01*
X30846873Y-37861606D01*
X30866503Y-37869737D01*
X30999958Y-37896283D01*
X31021153Y-37900499D01*
X31021156Y-37900500D01*
X31021158Y-37900500D01*
X31178844Y-37900500D01*
X31178845Y-37900499D01*
X31333497Y-37869737D01*
X31446166Y-37823067D01*
X31479172Y-37809397D01*
X31479172Y-37809396D01*
X31479179Y-37809394D01*
X31610289Y-37721789D01*
X31721789Y-37610289D01*
X31809394Y-37479179D01*
X31869737Y-37333497D01*
X31900500Y-37178842D01*
X31900500Y-37021158D01*
X31900500Y-37021155D01*
X31900499Y-37021153D01*
X31878447Y-36910292D01*
X31869737Y-36866503D01*
X31869735Y-36866498D01*
X31809397Y-36720827D01*
X31809390Y-36720814D01*
X31721789Y-36589711D01*
X31721786Y-36589707D01*
X31610292Y-36478213D01*
X31610288Y-36478210D01*
X31542691Y-36433043D01*
X31523345Y-36409894D01*
X31502210Y-36388369D01*
X31501167Y-36383357D01*
X31497886Y-36379431D01*
X31494126Y-36349501D01*
X31487984Y-36319963D01*
X31489816Y-36315183D01*
X31489179Y-36310106D01*
X31502200Y-36282888D01*
X31513000Y-36254725D01*
X31517973Y-36249919D01*
X31519333Y-36247078D01*
X31538184Y-36229998D01*
X31538946Y-36229437D01*
X31580339Y-36200046D01*
X31583120Y-36196996D01*
X31591576Y-36190787D01*
X31592352Y-36190505D01*
X31596096Y-36187620D01*
X31598734Y-36185857D01*
X31685855Y-36098736D01*
X31685858Y-36098733D01*
X31754311Y-35996286D01*
X31801463Y-35882452D01*
X31825500Y-35761606D01*
X31825500Y-35638394D01*
X31801463Y-35517548D01*
X31758631Y-35414144D01*
X31754312Y-35403716D01*
X31754307Y-35403707D01*
X31685858Y-35301267D01*
X31685855Y-35301263D01*
X31622981Y-35238389D01*
X34374500Y-35238389D01*
X34374500Y-35361610D01*
X34391225Y-35445692D01*
X34398537Y-35482452D01*
X34407246Y-35503477D01*
X34445687Y-35596283D01*
X34445692Y-35596292D01*
X34514141Y-35698732D01*
X34514144Y-35698736D01*
X34601263Y-35785855D01*
X34601267Y-35785858D01*
X34703707Y-35854307D01*
X34703713Y-35854310D01*
X34703714Y-35854311D01*
X34817548Y-35901463D01*
X34929495Y-35923730D01*
X34938389Y-35925499D01*
X34938393Y-35925500D01*
X34938394Y-35925500D01*
X35061606Y-35925500D01*
X35070503Y-35923730D01*
X35140094Y-35929954D01*
X35195273Y-35972814D01*
X35218521Y-36038703D01*
X35202456Y-36106701D01*
X35182381Y-36133027D01*
X35114141Y-36201267D01*
X35045692Y-36303707D01*
X35045687Y-36303716D01*
X34998538Y-36417545D01*
X34998535Y-36417555D01*
X34974500Y-36538389D01*
X34974500Y-36661610D01*
X34997886Y-36779179D01*
X34998537Y-36782452D01*
X35007246Y-36803477D01*
X35045687Y-36896283D01*
X35045692Y-36896292D01*
X35114141Y-36998732D01*
X35114144Y-36998736D01*
X35201263Y-37085855D01*
X35201267Y-37085858D01*
X35303707Y-37154307D01*
X35303713Y-37154310D01*
X35303714Y-37154311D01*
X35417548Y-37201463D01*
X35524438Y-37222724D01*
X35538389Y-37225499D01*
X35538393Y-37225500D01*
X35538394Y-37225500D01*
X35661607Y-37225500D01*
X35661608Y-37225499D01*
X35782452Y-37201463D01*
X35896286Y-37154311D01*
X35998733Y-37085858D01*
X36085858Y-36998733D01*
X36154311Y-36896286D01*
X36201463Y-36782452D01*
X36225500Y-36661606D01*
X36225500Y-36538394D01*
X36201463Y-36417548D01*
X36154311Y-36303714D01*
X36154310Y-36303713D01*
X36154307Y-36303707D01*
X36085858Y-36201267D01*
X36085855Y-36201263D01*
X35998736Y-36114144D01*
X35998732Y-36114141D01*
X35896292Y-36045692D01*
X35896283Y-36045687D01*
X35794933Y-36003707D01*
X35782452Y-35998537D01*
X35782448Y-35998536D01*
X35782444Y-35998535D01*
X35661610Y-35974500D01*
X35661606Y-35974500D01*
X35538394Y-35974500D01*
X35538393Y-35974500D01*
X35529488Y-35976271D01*
X35459896Y-35970042D01*
X35404720Y-35927177D01*
X35381478Y-35861287D01*
X35397548Y-35793290D01*
X35417615Y-35766975D01*
X35485858Y-35698733D01*
X35554311Y-35596286D01*
X35601463Y-35482452D01*
X35625500Y-35361606D01*
X35625500Y-35238394D01*
X35601463Y-35117548D01*
X35554311Y-35003714D01*
X35554310Y-35003713D01*
X35554307Y-35003707D01*
X35485858Y-34901267D01*
X35485855Y-34901263D01*
X35398736Y-34814144D01*
X35398732Y-34814141D01*
X35296292Y-34745692D01*
X35296283Y-34745687D01*
X35182454Y-34698538D01*
X35182455Y-34698538D01*
X35182452Y-34698537D01*
X35182448Y-34698536D01*
X35182444Y-34698535D01*
X35061610Y-34674500D01*
X35061606Y-34674500D01*
X34938394Y-34674500D01*
X34938389Y-34674500D01*
X34817555Y-34698535D01*
X34817545Y-34698538D01*
X34703716Y-34745687D01*
X34703707Y-34745692D01*
X34601267Y-34814141D01*
X34601263Y-34814144D01*
X34514144Y-34901263D01*
X34514141Y-34901267D01*
X34445692Y-35003707D01*
X34445687Y-35003716D01*
X34398538Y-35117545D01*
X34398535Y-35117555D01*
X34374500Y-35238389D01*
X31622981Y-35238389D01*
X31598736Y-35214144D01*
X31598732Y-35214141D01*
X31496292Y-35145692D01*
X31496283Y-35145687D01*
X31382454Y-35098538D01*
X31382455Y-35098538D01*
X31382452Y-35098537D01*
X31382448Y-35098536D01*
X31382444Y-35098535D01*
X31261610Y-35074500D01*
X31261606Y-35074500D01*
X31138394Y-35074500D01*
X31138389Y-35074500D01*
X31017555Y-35098535D01*
X31017545Y-35098538D01*
X30903716Y-35145687D01*
X30903707Y-35145692D01*
X30801267Y-35214141D01*
X30801263Y-35214144D01*
X30714146Y-35301261D01*
X30714139Y-35301269D01*
X30676609Y-35357435D01*
X30676591Y-35357463D01*
X30672736Y-35363234D01*
X30649241Y-35393837D01*
X30574254Y-35527274D01*
X30573267Y-35528912D01*
X30571382Y-35530642D01*
X30554744Y-35552588D01*
X26583643Y-39523689D01*
X26522320Y-39557174D01*
X26452628Y-39552190D01*
X26408281Y-39523689D01*
X26398736Y-39514144D01*
X26398732Y-39514141D01*
X26296292Y-39445692D01*
X26296283Y-39445687D01*
X26193214Y-39402995D01*
X26182452Y-39398537D01*
X26182448Y-39398536D01*
X26182444Y-39398535D01*
X26061610Y-39374500D01*
X26061606Y-39374500D01*
X25938394Y-39374500D01*
X25938389Y-39374500D01*
X25817555Y-39398535D01*
X25817545Y-39398538D01*
X25703716Y-39445687D01*
X25703702Y-39445695D01*
X25693386Y-39452588D01*
X25626708Y-39473463D01*
X25559329Y-39454976D01*
X25512641Y-39402995D01*
X25500500Y-39349483D01*
X25500500Y-34893713D01*
X26149500Y-34893713D01*
X26149500Y-35106287D01*
X26159534Y-35169644D01*
X26179949Y-35298538D01*
X26182754Y-35316243D01*
X26248162Y-35517548D01*
X26248444Y-35518414D01*
X26344951Y-35707820D01*
X26469890Y-35879786D01*
X26620213Y-36030109D01*
X26792179Y-36155048D01*
X26792181Y-36155049D01*
X26792184Y-36155051D01*
X26981588Y-36251557D01*
X27183757Y-36317246D01*
X27393713Y-36350500D01*
X27393714Y-36350500D01*
X27606286Y-36350500D01*
X27606287Y-36350500D01*
X27816243Y-36317246D01*
X28018412Y-36251557D01*
X28207816Y-36155051D01*
X28274365Y-36106701D01*
X28379786Y-36030109D01*
X28379788Y-36030106D01*
X28379792Y-36030104D01*
X28530104Y-35879792D01*
X28530106Y-35879788D01*
X28530109Y-35879786D01*
X28647980Y-35717548D01*
X28655051Y-35707816D01*
X28751557Y-35518412D01*
X28817246Y-35316243D01*
X28850500Y-35106287D01*
X28850500Y-34893713D01*
X28817246Y-34683757D01*
X28751557Y-34481588D01*
X28655051Y-34292184D01*
X28655049Y-34292181D01*
X28655048Y-34292179D01*
X28530109Y-34120213D01*
X28379786Y-33969890D01*
X28207820Y-33844951D01*
X28018414Y-33748444D01*
X28018413Y-33748443D01*
X28018412Y-33748443D01*
X27816243Y-33682754D01*
X27816241Y-33682753D01*
X27816240Y-33682753D01*
X27654957Y-33657208D01*
X27606287Y-33649500D01*
X27393713Y-33649500D01*
X27345042Y-33657208D01*
X27183760Y-33682753D01*
X26981585Y-33748444D01*
X26792179Y-33844951D01*
X26620213Y-33969890D01*
X26469890Y-34120213D01*
X26344951Y-34292179D01*
X26248444Y-34481585D01*
X26182753Y-34683760D01*
X26149500Y-34893713D01*
X25500500Y-34893713D01*
X25500500Y-34005413D01*
X25500972Y-33994606D01*
X25506265Y-33934108D01*
X25514739Y-33837240D01*
X25518490Y-33815966D01*
X25557969Y-33668627D01*
X25565362Y-33648318D01*
X25569992Y-33638389D01*
X25629823Y-33510081D01*
X25640629Y-33491366D01*
X25728119Y-33366417D01*
X25742007Y-33349865D01*
X25849865Y-33242007D01*
X25866417Y-33228119D01*
X25991366Y-33140629D01*
X26010081Y-33129823D01*
X26148320Y-33065361D01*
X26168627Y-33057969D01*
X26315966Y-33018490D01*
X26337242Y-33014739D01*
X26469885Y-33003134D01*
X26494606Y-33000972D01*
X26505413Y-33000500D01*
X26565892Y-33000500D01*
X34015546Y-33000500D01*
X34082585Y-33020185D01*
G37*
%TD.AperFunction*%
%TD*%
%TA.AperFunction,Conductor*%
%TO.N,F_IO15*%
G36*
X44909656Y-41440793D02*
G01*
X44910073Y-41441479D01*
X44942562Y-41499293D01*
X45013158Y-41624918D01*
X45014223Y-41633809D01*
X45011231Y-41638923D01*
X44938923Y-41711231D01*
X44930650Y-41714658D01*
X44924918Y-41713158D01*
X44800076Y-41643002D01*
X44798686Y-41642084D01*
X44798620Y-41642034D01*
X44798617Y-41642032D01*
X44798615Y-41642030D01*
X44741855Y-41609260D01*
X44736406Y-41602157D01*
X44737574Y-41593279D01*
X44737891Y-41592763D01*
X44797966Y-41501312D01*
X44801312Y-41497966D01*
X44893455Y-41437437D01*
X44902249Y-41435760D01*
X44909656Y-41440793D01*
G37*
%TD.AperFunction*%
%TD*%
%TA.AperFunction,Conductor*%
%TO.N,F_IO15*%
G36*
X44938923Y-44788768D02*
G01*
X45011231Y-44861076D01*
X45014658Y-44869349D01*
X45013158Y-44875081D01*
X44910077Y-45058514D01*
X44903036Y-45064047D01*
X44894145Y-45062982D01*
X44893453Y-45062561D01*
X44887292Y-45058514D01*
X44801315Y-45002035D01*
X44797964Y-44998684D01*
X44737437Y-44906545D01*
X44735760Y-44897750D01*
X44740793Y-44890343D01*
X44741458Y-44889938D01*
X44924919Y-44786840D01*
X44933809Y-44785776D01*
X44938923Y-44788768D01*
G37*
%TD.AperFunction*%
%TD*%
%TA.AperFunction,Conductor*%
%TO.N,F_IO14*%
G36*
X38454720Y-46753914D02*
G01*
X38657341Y-46810738D01*
X38664381Y-46816270D01*
X38665881Y-46822002D01*
X38665881Y-46924263D01*
X38662454Y-46932536D01*
X38657340Y-46935528D01*
X38454742Y-46992345D01*
X38445851Y-46991280D01*
X38440318Y-46984239D01*
X38440126Y-46983452D01*
X38417774Y-46875505D01*
X38417774Y-46870761D01*
X38440126Y-46762811D01*
X38445159Y-46755406D01*
X38453955Y-46753728D01*
X38454720Y-46753914D01*
G37*
%TD.AperFunction*%
%TD*%
%TA.AperFunction,Conductor*%
%TO.N,F_IO14*%
G36*
X42924137Y-46310150D02*
G01*
X42924821Y-46310566D01*
X43016967Y-46371097D01*
X43020320Y-46374450D01*
X43080844Y-46466586D01*
X43082522Y-46475382D01*
X43077489Y-46482789D01*
X43076797Y-46483210D01*
X42893364Y-46586291D01*
X42884473Y-46587356D01*
X42879359Y-46584364D01*
X42807051Y-46512056D01*
X42803624Y-46503783D01*
X42805123Y-46498053D01*
X42908207Y-46314616D01*
X42915246Y-46309085D01*
X42924137Y-46310150D01*
G37*
%TD.AperFunction*%
%TD*%
%TA.AperFunction,Conductor*%
%TO.N,F_IO13*%
G36*
X38345579Y-46317348D02*
G01*
X38548200Y-46374172D01*
X38555240Y-46379704D01*
X38556740Y-46385436D01*
X38556740Y-46487697D01*
X38553313Y-46495970D01*
X38548199Y-46498962D01*
X38357968Y-46552310D01*
X38357837Y-46552346D01*
X38345439Y-46555668D01*
X38336561Y-46554499D01*
X38331110Y-46547395D01*
X38330961Y-46546771D01*
X38308633Y-46438938D01*
X38308633Y-46434195D01*
X38330985Y-46326245D01*
X38336018Y-46318840D01*
X38344814Y-46317162D01*
X38345579Y-46317348D01*
G37*
%TD.AperFunction*%
%TD*%
%TA.AperFunction,Conductor*%
%TO.N,F_IO13*%
G36*
X42814996Y-45873584D02*
G01*
X42815680Y-45874000D01*
X42907826Y-45934531D01*
X42911179Y-45937884D01*
X42971702Y-46030019D01*
X42971783Y-46030443D01*
X42972123Y-46030711D01*
X42972611Y-46034788D01*
X42973380Y-46038815D01*
X42973137Y-46039171D01*
X42973189Y-46039602D01*
X42970651Y-46042830D01*
X42968347Y-46046222D01*
X42967655Y-46046643D01*
X42958488Y-46051795D01*
X42955784Y-46052896D01*
X42892646Y-46069813D01*
X42892642Y-46069815D01*
X42818424Y-46112665D01*
X42818419Y-46112669D01*
X42785027Y-46146061D01*
X42776754Y-46149488D01*
X42768481Y-46146061D01*
X42697910Y-46075490D01*
X42694483Y-46067217D01*
X42695982Y-46061487D01*
X42799066Y-45878050D01*
X42806105Y-45872519D01*
X42814996Y-45873584D01*
G37*
%TD.AperFunction*%
%TD*%
%TA.AperFunction,Conductor*%
%TO.N,F_IO12*%
G36*
X38338923Y-45788768D02*
G01*
X38411231Y-45861076D01*
X38414658Y-45869349D01*
X38413158Y-45875081D01*
X38310077Y-46058514D01*
X38303036Y-46064047D01*
X38294145Y-46062982D01*
X38293453Y-46062561D01*
X38287292Y-46058514D01*
X38201315Y-46002035D01*
X38197964Y-45998684D01*
X38137437Y-45906545D01*
X38135760Y-45897750D01*
X38140793Y-45890343D01*
X38141458Y-45889938D01*
X38324919Y-45786840D01*
X38333809Y-45785776D01*
X38338923Y-45788768D01*
G37*
%TD.AperFunction*%
%TD*%
%TA.AperFunction,Conductor*%
%TO.N,F_IO12*%
G36*
X42772431Y-45381852D02*
G01*
X42777964Y-45388893D01*
X42778156Y-45389680D01*
X42800508Y-45497628D01*
X42800508Y-45502372D01*
X42778156Y-45610319D01*
X42773123Y-45617726D01*
X42764327Y-45619404D01*
X42763540Y-45619212D01*
X42560943Y-45562395D01*
X42553902Y-45556862D01*
X42552402Y-45551130D01*
X42552402Y-45448869D01*
X42555829Y-45440596D01*
X42560940Y-45437605D01*
X42763542Y-45380787D01*
X42772431Y-45381852D01*
G37*
%TD.AperFunction*%
%TD*%
%TA.AperFunction,Conductor*%
%TO.N,F_IO7*%
G36*
X38138923Y-44388768D02*
G01*
X38211231Y-44461076D01*
X38214658Y-44469349D01*
X38213158Y-44475081D01*
X38110077Y-44658514D01*
X38103036Y-44664047D01*
X38094145Y-44662982D01*
X38093453Y-44662561D01*
X38087292Y-44658514D01*
X38001315Y-44602035D01*
X37997964Y-44598684D01*
X37937437Y-44506545D01*
X37935760Y-44497750D01*
X37940793Y-44490343D01*
X37941458Y-44489938D01*
X38124919Y-44386840D01*
X38133809Y-44385776D01*
X38138923Y-44388768D01*
G37*
%TD.AperFunction*%
%TD*%
%TA.AperFunction,Conductor*%
%TO.N,F_IO7*%
G36*
X38714295Y-42019830D02*
G01*
X38721702Y-42024863D01*
X38723380Y-42033659D01*
X38723188Y-42034446D01*
X38666371Y-42237044D01*
X38660838Y-42244085D01*
X38655106Y-42245585D01*
X38552846Y-42245585D01*
X38544573Y-42242158D01*
X38541581Y-42237044D01*
X38528430Y-42190150D01*
X38527995Y-42186991D01*
X38527995Y-42158393D01*
X38527994Y-42158391D01*
X38505814Y-42075610D01*
X38505812Y-42075607D01*
X38502866Y-42070505D01*
X38488061Y-42044863D01*
X38486933Y-42042183D01*
X38484763Y-42034444D01*
X38485828Y-42025555D01*
X38492869Y-42020022D01*
X38493638Y-42019834D01*
X38601605Y-41997478D01*
X38606347Y-41997478D01*
X38714295Y-42019830D01*
G37*
%TD.AperFunction*%
%TD*%
%TA.AperFunction,Conductor*%
%TO.N,F_IO6*%
G36*
X38140170Y-43791263D02*
G01*
X38212478Y-43863571D01*
X38215905Y-43871844D01*
X38214405Y-43877576D01*
X38111324Y-44061009D01*
X38104283Y-44066542D01*
X38095392Y-44065477D01*
X38094700Y-44065056D01*
X38088539Y-44061009D01*
X38002562Y-44004530D01*
X37999211Y-44001179D01*
X37939175Y-43909787D01*
X37937498Y-43900993D01*
X37942531Y-43893586D01*
X37943067Y-43893255D01*
X37999862Y-43860465D01*
X37999870Y-43860456D01*
X37999926Y-43860415D01*
X38001316Y-43859495D01*
X38126166Y-43789335D01*
X38135056Y-43788271D01*
X38140170Y-43791263D01*
G37*
%TD.AperFunction*%
%TD*%
%TA.AperFunction,Conductor*%
%TO.N,F_IO6*%
G36*
X38312814Y-42223090D02*
G01*
X38320221Y-42228123D01*
X38321899Y-42236919D01*
X38321707Y-42237706D01*
X38264890Y-42440304D01*
X38259357Y-42447345D01*
X38253625Y-42448845D01*
X38151365Y-42448845D01*
X38143092Y-42445418D01*
X38140100Y-42440304D01*
X38126062Y-42390249D01*
X38083282Y-42237704D01*
X38084347Y-42228815D01*
X38091388Y-42223282D01*
X38092157Y-42223094D01*
X38200124Y-42200738D01*
X38204866Y-42200738D01*
X38312814Y-42223090D01*
G37*
%TD.AperFunction*%
%TD*%
%TA.AperFunction,Conductor*%
%TO.N,F_IO5*%
G36*
X37910318Y-42021843D02*
G01*
X37910676Y-42022086D01*
X37911107Y-42022035D01*
X37914332Y-42024570D01*
X37917725Y-42026876D01*
X37917806Y-42027301D01*
X37918146Y-42027569D01*
X37918633Y-42031636D01*
X37919403Y-42035672D01*
X37919211Y-42036459D01*
X37919211Y-42036461D01*
X37917183Y-42043689D01*
X37916051Y-42046377D01*
X37899176Y-42075609D01*
X37899175Y-42075610D01*
X37876995Y-42158391D01*
X37876995Y-42185389D01*
X37876560Y-42188548D01*
X37862395Y-42239057D01*
X37856862Y-42246098D01*
X37851130Y-42247598D01*
X37748870Y-42247598D01*
X37740597Y-42244171D01*
X37737605Y-42239057D01*
X37722554Y-42185389D01*
X37680787Y-42036457D01*
X37681852Y-42027568D01*
X37688893Y-42022035D01*
X37689662Y-42021847D01*
X37797629Y-41999491D01*
X37802371Y-41999491D01*
X37910318Y-42021843D01*
G37*
%TD.AperFunction*%
%TD*%
%TA.AperFunction,Conductor*%
%TO.N,F_IO5*%
G36*
X37859403Y-43355829D02*
G01*
X37862395Y-43360943D01*
X37919212Y-43563540D01*
X37918147Y-43572431D01*
X37911106Y-43577964D01*
X37910319Y-43578156D01*
X37802372Y-43600508D01*
X37797628Y-43600508D01*
X37689680Y-43578156D01*
X37682273Y-43573123D01*
X37680595Y-43564327D01*
X37680779Y-43563568D01*
X37737605Y-43360943D01*
X37743138Y-43353902D01*
X37748870Y-43352402D01*
X37851130Y-43352402D01*
X37859403Y-43355829D01*
G37*
%TD.AperFunction*%
%TD*%
%TA.AperFunction,Conductor*%
%TO.N,CLOCK_EN*%
G36*
X42760086Y-43551052D02*
G01*
X42760939Y-43552004D01*
X42836218Y-43646001D01*
X42895996Y-43720642D01*
X42898493Y-43729242D01*
X42894178Y-43737088D01*
X42893408Y-43737655D01*
X42805034Y-43797278D01*
X42796259Y-43799064D01*
X42796230Y-43799058D01*
X42765988Y-43793092D01*
X42692269Y-43778547D01*
X42684816Y-43773583D01*
X42683055Y-43764803D01*
X42684002Y-43761972D01*
X42740113Y-43646000D01*
X42740113Y-43559325D01*
X42743540Y-43551052D01*
X42751813Y-43547625D01*
X42760086Y-43551052D01*
G37*
%TD.AperFunction*%
%TD*%
%TA.AperFunction,Conductor*%
%TO.N,CLOCK_EN*%
G36*
X38204099Y-37800270D02*
G01*
X38310289Y-37821880D01*
X38317712Y-37826888D01*
X38319420Y-37835678D01*
X38319225Y-37836487D01*
X38276907Y-37988272D01*
X38273910Y-37993403D01*
X38203105Y-38064208D01*
X38194832Y-38067635D01*
X38186559Y-38064208D01*
X38184207Y-38060833D01*
X38106729Y-37892598D01*
X38106273Y-37891452D01*
X38106157Y-37891111D01*
X38103320Y-37880520D01*
X38101538Y-37877433D01*
X38101167Y-37876335D01*
X38101394Y-37872938D01*
X38100950Y-37869564D01*
X38101690Y-37868521D01*
X38101766Y-37867400D01*
X38103672Y-37865733D01*
X38105673Y-37862917D01*
X38195216Y-37802063D01*
X38203984Y-37800248D01*
X38204099Y-37800270D01*
G37*
%TD.AperFunction*%
%TD*%
%TA.AperFunction,Conductor*%
%TO.N,F_|CRST*%
G36*
X42882733Y-42947492D02*
G01*
X42884223Y-42949317D01*
X42997570Y-43120919D01*
X42999270Y-43129710D01*
X42994383Y-43137044D01*
X42904784Y-43197935D01*
X42896016Y-43199751D01*
X42895875Y-43199723D01*
X42787677Y-43177705D01*
X42780253Y-43172697D01*
X42778359Y-43165173D01*
X42791083Y-43026421D01*
X42794460Y-43019219D01*
X42866188Y-42947491D01*
X42874460Y-42944065D01*
X42882733Y-42947492D01*
G37*
%TD.AperFunction*%
%TD*%
%TA.AperFunction,Conductor*%
%TO.N,F_|CRST*%
G36*
X38209656Y-36540793D02*
G01*
X38210073Y-36541479D01*
X38242562Y-36599293D01*
X38313158Y-36724918D01*
X38314223Y-36733809D01*
X38311231Y-36738923D01*
X38238923Y-36811231D01*
X38230650Y-36814658D01*
X38224918Y-36813158D01*
X38041485Y-36710077D01*
X38035952Y-36703036D01*
X38037017Y-36694145D01*
X38037425Y-36693473D01*
X38097966Y-36601312D01*
X38101312Y-36597966D01*
X38193455Y-36537437D01*
X38202249Y-36535760D01*
X38209656Y-36540793D01*
G37*
%TD.AperFunction*%
%TD*%
%TA.AperFunction,Conductor*%
%TO.N,F_CDONE*%
G36*
X39019551Y-36479683D02*
G01*
X39024468Y-36487168D01*
X39024524Y-36487487D01*
X39057798Y-36692604D01*
X39055740Y-36701319D01*
X39048122Y-36706026D01*
X39046249Y-36706177D01*
X38944615Y-36706177D01*
X38936628Y-36703027D01*
X38837785Y-36610689D01*
X38834079Y-36602537D01*
X38836015Y-36595682D01*
X38897279Y-36503111D01*
X38904702Y-36498104D01*
X38904819Y-36498080D01*
X39010784Y-36477867D01*
X39019551Y-36479683D01*
G37*
%TD.AperFunction*%
%TD*%
%TA.AperFunction,Conductor*%
%TO.N,F_|CRST*%
G36*
X33138923Y-41588768D02*
G01*
X33211231Y-41661076D01*
X33214658Y-41669349D01*
X33213158Y-41675081D01*
X33110077Y-41858514D01*
X33103036Y-41864047D01*
X33094145Y-41862982D01*
X33093453Y-41862561D01*
X33087292Y-41858514D01*
X33001315Y-41802035D01*
X32997964Y-41798684D01*
X32937437Y-41706545D01*
X32935760Y-41697750D01*
X32940793Y-41690343D01*
X32941458Y-41689938D01*
X33124919Y-41586840D01*
X33133809Y-41585776D01*
X33138923Y-41588768D01*
G37*
%TD.AperFunction*%
%TD*%
%TA.AperFunction,Conductor*%
%TO.N,F_|CRST*%
G36*
X33610319Y-35921843D02*
G01*
X33617726Y-35926876D01*
X33619404Y-35935672D01*
X33619212Y-35936459D01*
X33562395Y-36139057D01*
X33556862Y-36146098D01*
X33551130Y-36147598D01*
X33448870Y-36147598D01*
X33440597Y-36144171D01*
X33437605Y-36139057D01*
X33423567Y-36089002D01*
X33380787Y-35936457D01*
X33381852Y-35927568D01*
X33388893Y-35922035D01*
X33389662Y-35921847D01*
X33497629Y-35899491D01*
X33502371Y-35899491D01*
X33610319Y-35921843D01*
G37*
%TD.AperFunction*%
%TD*%
%TA.AperFunction,Conductor*%
%TO.N,F_IO31*%
G36*
X35659403Y-41555829D02*
G01*
X35662395Y-41560943D01*
X35719212Y-41763540D01*
X35718147Y-41772431D01*
X35711106Y-41777964D01*
X35710319Y-41778156D01*
X35602372Y-41800508D01*
X35597628Y-41800508D01*
X35489680Y-41778156D01*
X35482273Y-41773123D01*
X35480595Y-41764327D01*
X35480779Y-41763568D01*
X35537605Y-41560943D01*
X35543138Y-41553902D01*
X35548870Y-41552402D01*
X35651130Y-41552402D01*
X35659403Y-41555829D01*
G37*
%TD.AperFunction*%
%TD*%
%TA.AperFunction,Conductor*%
%TO.N,F_IO31*%
G36*
X37005854Y-39437017D02*
G01*
X37006538Y-39437433D01*
X37098684Y-39497964D01*
X37102037Y-39501317D01*
X37162561Y-39593453D01*
X37164239Y-39602249D01*
X37159206Y-39609656D01*
X37158514Y-39610077D01*
X36975081Y-39713158D01*
X36966190Y-39714223D01*
X36961076Y-39711231D01*
X36888768Y-39638923D01*
X36885341Y-39630650D01*
X36886840Y-39624920D01*
X36989924Y-39441483D01*
X36996963Y-39435952D01*
X37005854Y-39437017D01*
G37*
%TD.AperFunction*%
%TD*%
%TA.AperFunction,Conductor*%
%TO.N,Net-(Q2-D1)*%
G36*
X34810319Y-39021843D02*
G01*
X34817726Y-39026876D01*
X34819404Y-39035672D01*
X34819212Y-39036459D01*
X34762395Y-39239057D01*
X34756862Y-39246098D01*
X34751130Y-39247598D01*
X34648870Y-39247598D01*
X34640597Y-39244171D01*
X34637605Y-39239057D01*
X34623567Y-39189002D01*
X34580787Y-39036457D01*
X34581852Y-39027568D01*
X34588893Y-39022035D01*
X34589662Y-39021847D01*
X34697629Y-38999491D01*
X34702371Y-38999491D01*
X34810319Y-39021843D01*
G37*
%TD.AperFunction*%
%TD*%
%TA.AperFunction,Conductor*%
%TO.N,Net-(Q2-D1)*%
G36*
X34759403Y-41655829D02*
G01*
X34762395Y-41660943D01*
X34819212Y-41863540D01*
X34818147Y-41872431D01*
X34811106Y-41877964D01*
X34810319Y-41878156D01*
X34702372Y-41900508D01*
X34697628Y-41900508D01*
X34589680Y-41878156D01*
X34582273Y-41873123D01*
X34580595Y-41864327D01*
X34580779Y-41863568D01*
X34637605Y-41660943D01*
X34643138Y-41653902D01*
X34648870Y-41652402D01*
X34751130Y-41652402D01*
X34759403Y-41655829D01*
G37*
%TD.AperFunction*%
%TD*%
%TA.AperFunction,Conductor*%
%TO.N,Net-(Q1-D1)*%
G36*
X32110319Y-38921843D02*
G01*
X32117726Y-38926876D01*
X32119404Y-38935672D01*
X32119212Y-38936459D01*
X32062395Y-39139057D01*
X32056862Y-39146098D01*
X32051130Y-39147598D01*
X31948870Y-39147598D01*
X31940597Y-39144171D01*
X31937605Y-39139057D01*
X31923567Y-39089002D01*
X31880787Y-38936457D01*
X31881852Y-38927568D01*
X31888893Y-38922035D01*
X31889662Y-38921847D01*
X31997629Y-38899491D01*
X32002371Y-38899491D01*
X32110319Y-38921843D01*
G37*
%TD.AperFunction*%
%TD*%
%TA.AperFunction,Conductor*%
%TO.N,Net-(Q1-D1)*%
G36*
X32059403Y-42155829D02*
G01*
X32062395Y-42160943D01*
X32119212Y-42363540D01*
X32118147Y-42372431D01*
X32111106Y-42377964D01*
X32110319Y-42378156D01*
X32002372Y-42400508D01*
X31997628Y-42400508D01*
X31889680Y-42378156D01*
X31882273Y-42373123D01*
X31880595Y-42364327D01*
X31880779Y-42363568D01*
X31937605Y-42160943D01*
X31943138Y-42153902D01*
X31948870Y-42152402D01*
X32051130Y-42152402D01*
X32059403Y-42155829D01*
G37*
%TD.AperFunction*%
%TD*%
%TA.AperFunction,Conductor*%
%TO.N,F_|CRST*%
G36*
X31105854Y-35637017D02*
G01*
X31106538Y-35637433D01*
X31198684Y-35697964D01*
X31202037Y-35701317D01*
X31262561Y-35793453D01*
X31264239Y-35802249D01*
X31259206Y-35809656D01*
X31258514Y-35810077D01*
X31075081Y-35913158D01*
X31066190Y-35914223D01*
X31061076Y-35911231D01*
X30988768Y-35838923D01*
X30985341Y-35830650D01*
X30986840Y-35824920D01*
X31089924Y-35641483D01*
X31096963Y-35635952D01*
X31105854Y-35637017D01*
G37*
%TD.AperFunction*%
%TD*%
%TA.AperFunction,Conductor*%
%TO.N,F_|CRST*%
G36*
X25859403Y-41855829D02*
G01*
X25862395Y-41860943D01*
X25919212Y-42063540D01*
X25918147Y-42072431D01*
X25911106Y-42077964D01*
X25910319Y-42078156D01*
X25802372Y-42100508D01*
X25797628Y-42100508D01*
X25689680Y-42078156D01*
X25682273Y-42073123D01*
X25680595Y-42064327D01*
X25680779Y-42063568D01*
X25737605Y-41860943D01*
X25743138Y-41853902D01*
X25748870Y-41852402D01*
X25851130Y-41852402D01*
X25859403Y-41855829D01*
G37*
%TD.AperFunction*%
%TD*%
%TA.AperFunction,Conductor*%
%TO.N,W_|HOLD*%
G36*
X49205854Y-35937017D02*
G01*
X49206538Y-35937433D01*
X49298684Y-35997964D01*
X49302037Y-36001317D01*
X49362561Y-36093453D01*
X49364239Y-36102249D01*
X49359206Y-36109656D01*
X49358514Y-36110077D01*
X49175081Y-36213158D01*
X49166190Y-36214223D01*
X49161076Y-36211231D01*
X49088768Y-36138923D01*
X49085341Y-36130650D01*
X49086840Y-36124920D01*
X49189924Y-35941483D01*
X49196963Y-35935952D01*
X49205854Y-35937017D01*
G37*
%TD.AperFunction*%
%TD*%
%TA.AperFunction,Conductor*%
%TO.N,W_|HOLD*%
G36*
X48059403Y-40255829D02*
G01*
X48062395Y-40260943D01*
X48119212Y-40463540D01*
X48118147Y-40472431D01*
X48111106Y-40477964D01*
X48110319Y-40478156D01*
X48002372Y-40500508D01*
X47997628Y-40500508D01*
X47889680Y-40478156D01*
X47882273Y-40473123D01*
X47880595Y-40464327D01*
X47880779Y-40463568D01*
X47937605Y-40260943D01*
X47943138Y-40253902D01*
X47948870Y-40252402D01*
X48051130Y-40252402D01*
X48059403Y-40255829D01*
G37*
%TD.AperFunction*%
%TD*%
%TA.AperFunction,Conductor*%
%TO.N,F_CDONE*%
G36*
X39059403Y-37555829D02*
G01*
X39062395Y-37560943D01*
X39119212Y-37763540D01*
X39118147Y-37772431D01*
X39111106Y-37777964D01*
X39110319Y-37778156D01*
X39002372Y-37800508D01*
X38997628Y-37800508D01*
X38889680Y-37778156D01*
X38882273Y-37773123D01*
X38880595Y-37764327D01*
X38880779Y-37763568D01*
X38937605Y-37560943D01*
X38943138Y-37553902D01*
X38948870Y-37552402D01*
X39051130Y-37552402D01*
X39059403Y-37555829D01*
G37*
%TD.AperFunction*%
%TD*%
%TA.AperFunction,Conductor*%
%TO.N,F_CDONE*%
G36*
X43075080Y-42586840D02*
G01*
X43258514Y-42689923D01*
X43264047Y-42696963D01*
X43262982Y-42705854D01*
X43262561Y-42706546D01*
X43202037Y-42798682D01*
X43198682Y-42802037D01*
X43106546Y-42862561D01*
X43097750Y-42864239D01*
X43090343Y-42859206D01*
X43089930Y-42858528D01*
X42986840Y-42675080D01*
X42985776Y-42666190D01*
X42988766Y-42661078D01*
X43061077Y-42588767D01*
X43069349Y-42585341D01*
X43075080Y-42586840D01*
G37*
%TD.AperFunction*%
%TD*%
%TA.AperFunction,Conductor*%
%TO.N,F_CDONE*%
G36*
X39110319Y-37821843D02*
G01*
X39117726Y-37826876D01*
X39119404Y-37835672D01*
X39119212Y-37836459D01*
X39062395Y-38039057D01*
X39056862Y-38046098D01*
X39051130Y-38047598D01*
X38948870Y-38047598D01*
X38940597Y-38044171D01*
X38937605Y-38039057D01*
X38923567Y-37989002D01*
X38880787Y-37836457D01*
X38881852Y-37827568D01*
X38888893Y-37822035D01*
X38889662Y-37821847D01*
X38997629Y-37799491D01*
X39002371Y-37799491D01*
X39110319Y-37821843D01*
G37*
%TD.AperFunction*%
%TD*%
%TA.AperFunction,Conductor*%
%TO.N,F_IO32*%
G36*
X35736437Y-38280781D02*
G01*
X35939058Y-38337605D01*
X35946098Y-38343137D01*
X35947598Y-38348869D01*
X35947598Y-38451130D01*
X35944171Y-38459403D01*
X35939057Y-38462395D01*
X35736459Y-38519212D01*
X35727568Y-38518147D01*
X35722035Y-38511106D01*
X35721843Y-38510319D01*
X35699491Y-38402372D01*
X35699491Y-38397628D01*
X35721843Y-38289678D01*
X35726876Y-38282273D01*
X35735672Y-38280595D01*
X35736437Y-38280781D01*
G37*
%TD.AperFunction*%
%TD*%
%TA.AperFunction,Conductor*%
%TO.N,F_IO32*%
G36*
X36505854Y-37737017D02*
G01*
X36506538Y-37737433D01*
X36598684Y-37797964D01*
X36602037Y-37801317D01*
X36662561Y-37893453D01*
X36664239Y-37902249D01*
X36659206Y-37909656D01*
X36658514Y-37910077D01*
X36475081Y-38013158D01*
X36466190Y-38014223D01*
X36461076Y-38011231D01*
X36388768Y-37938923D01*
X36385341Y-37930650D01*
X36386840Y-37924920D01*
X36489924Y-37741483D01*
X36496963Y-37735952D01*
X36505854Y-37737017D01*
G37*
%TD.AperFunction*%
%TD*%
M02*
