%TF.GenerationSoftware,KiCad,Pcbnew,9.0.2*%
%TF.CreationDate,2025-06-09T13:24:08-05:00*%
%TF.ProjectId,ICEBATS384,49434542-4154-4533-9338-342e6b696361,rev?*%
%TF.SameCoordinates,Original*%
%TF.FileFunction,Soldermask,Bot*%
%TF.FilePolarity,Negative*%
%FSLAX46Y46*%
G04 Gerber Fmt 4.6, Leading zero omitted, Abs format (unit mm)*
G04 Created by KiCad (PCBNEW 9.0.2) date 2025-06-09 13:24:08*
%MOMM*%
%LPD*%
G01*
G04 APERTURE LIST*
%ADD10R,0.220000X0.900000*%
%ADD11R,0.500000X0.850000*%
%ADD12C,2.200000*%
G04 APERTURE END LIST*
D10*
%TO.C,J2*%
X43800000Y-38685001D03*
X43400001Y-38685001D03*
X42999999Y-38685001D03*
X42600000Y-38685001D03*
X42200001Y-38685001D03*
X41799999Y-38685001D03*
X41400000Y-38685001D03*
X41000001Y-38685001D03*
X40600001Y-38685001D03*
X40200000Y-38685001D03*
X39800000Y-38685001D03*
X39400001Y-38685001D03*
X38999999Y-38685001D03*
X38600000Y-38685001D03*
X38200001Y-38685001D03*
X37799999Y-38685001D03*
X37400000Y-38685001D03*
X37000001Y-38685001D03*
X36600002Y-38685001D03*
X36200000Y-38685001D03*
X43800000Y-41314999D03*
X43400001Y-41314999D03*
X42999999Y-41314999D03*
X42600000Y-41314999D03*
X42200001Y-41314999D03*
X41799999Y-41314999D03*
X41400000Y-41314999D03*
X41000001Y-41314999D03*
X40600001Y-41314999D03*
X40200000Y-41314999D03*
X39800000Y-41314999D03*
X39400001Y-41314999D03*
X38999999Y-41314999D03*
X38600000Y-41314999D03*
X38200001Y-41314999D03*
X37799999Y-41314999D03*
X37400000Y-41314999D03*
X37000001Y-41314999D03*
X36600002Y-41314999D03*
X36200000Y-41314999D03*
D11*
X44600000Y-40740000D03*
X35400009Y-40740000D03*
X44600000Y-39260000D03*
X35400009Y-39260000D03*
%TD*%
D12*
%TO.C,REF\u002A\u002A*%
X52500000Y-45000000D03*
%TD*%
%TO.C,REF\u002A\u002A*%
X27500000Y-35000000D03*
%TD*%
M02*
