M48
; DRILL file {KiCad 9.0.2} date 2025-06-09T13:24:10-0500
; FORMAT={-:-/ absolute / metric / decimal}
; #@! TF.CreationDate,2025-06-09T13:24:10-05:00
; #@! TF.GenerationSoftware,Kicad,Pcbnew,9.0.2
; #@! TF.FileFunction,Plated,1,4,PTH
FMAT,2
METRIC
; #@! TA.AperFunction,Plated,PTH,ViaDrill
T1C0.150
; #@! TA.AperFunction,Plated,PTH,ViaDrill
T2C0.300
%
G90
G05
T1
X25.8Y-42.1
X26.0Y-40.0
X26.0Y-43.5
X27.1Y-41.7
X27.1Y-42.5
X28.0Y-39.9
X28.3Y-42.6
X28.9Y-41.3
X28.9Y-42.1
X30.0Y-43.5
X30.1Y-40.0
X30.2Y-40.8
X30.2Y-41.7
X31.2Y-35.7
X32.0Y-38.9
X32.0Y-42.4
X32.5Y-41.8
X32.9Y-38.3
X33.0Y-41.8
X33.5Y-35.9
X33.9Y-38.3
X34.5Y-33.7
X34.7Y-39.0
X34.7Y-41.9
X35.0Y-35.3
X35.6Y-36.6
X35.6Y-41.8
X35.7Y-38.4
X36.6Y-37.8
X36.6Y-42.1
X36.9Y-33.5
X36.9Y-43.5
X36.95Y-42.6
X37.0Y-38.006
X37.0Y-36.0
X37.1Y-39.5
X37.4Y-37.8
X37.4Y-42.6
X37.8Y-42.0
X37.8Y-43.6
X37.8Y-38.006
X37.95Y-34.0
X38.0Y-44.6
X38.0Y-45.2
X38.001Y-44.002
X38.1Y-36.6
X38.2Y-46.0
X38.2Y-37.8
X38.202Y-42.201
X38.309Y-46.437
X38.4Y-34.0
X38.418Y-46.873
X38.604Y-41.998
X38.9Y-36.5
X39.0Y-37.8
X39.397Y-36.675
X39.601Y-43.598
X39.8Y-37.1
X40.0Y-45.9
X40.419Y-46.139
X40.8Y-45.9
X41.2Y-45.1
X41.4Y-43.5
X41.4Y-44.1
X42.6Y-44.5
X42.8Y-43.8
X42.8Y-45.5
X42.9Y-43.2
X42.909Y-45.937
X43.018Y-46.373
X43.2Y-34.6
X43.2Y-42.8
X43.28Y-36.68
X43.598Y-36.999
X43.8Y-42.5
X44.0Y-37.2
X44.1Y-40.1
X44.2Y-42.2
X44.4Y-35.0
X44.4Y-36.7
X44.599Y-41.902
X44.8Y-41.5
X44.8Y-45.0
X45.2Y-37.6
X45.2Y-38.7
X45.5Y-38.3
X45.6Y-41.6
X46.4Y-43.3
X46.8Y-33.6
X47.3Y-38.7
X47.3Y-42.8
X47.3Y-44.7
X47.6Y-36.3
X47.6Y-42.0
X48.0Y-40.5
X49.3Y-36.0
X50.6Y-42.7
T2
X31.1Y-37.1
X33.6Y-35.2
X37.3Y-45.815
X39.7Y-35.0
X40.5Y-36.4
X43.3Y-35.5
X46.2Y-41.2
X46.5Y-34.7
X49.7Y-43.0
X51.8Y-36.0
M30
