%TF.GenerationSoftware,KiCad,Pcbnew,9.0.2*%
%TF.CreationDate,2025-06-09T11:48:46-05:00*%
%TF.ProjectId,ICEBATS384,49434542-4154-4533-9338-342e6b696361,rev?*%
%TF.SameCoordinates,Original*%
%TF.FileFunction,Soldermask,Top*%
%TF.FilePolarity,Negative*%
%FSLAX46Y46*%
G04 Gerber Fmt 4.6, Leading zero omitted, Abs format (unit mm)*
G04 Created by KiCad (PCBNEW 9.0.2) date 2025-06-09 11:48:46*
%MOMM*%
%LPD*%
G01*
G04 APERTURE LIST*
G04 Aperture macros list*
%AMRoundRect*
0 Rectangle with rounded corners*
0 $1 Rounding radius*
0 $2 $3 $4 $5 $6 $7 $8 $9 X,Y pos of 4 corners*
0 Add a 4 corners polygon primitive as box body*
4,1,4,$2,$3,$4,$5,$6,$7,$8,$9,$2,$3,0*
0 Add four circle primitives for the rounded corners*
1,1,$1+$1,$2,$3*
1,1,$1+$1,$4,$5*
1,1,$1+$1,$6,$7*
1,1,$1+$1,$8,$9*
0 Add four rect primitives between the rounded corners*
20,1,$1+$1,$2,$3,$4,$5,0*
20,1,$1+$1,$4,$5,$6,$7,0*
20,1,$1+$1,$6,$7,$8,$9,0*
20,1,$1+$1,$8,$9,$2,$3,0*%
%AMRotRect*
0 Rectangle, with rotation*
0 The origin of the aperture is its center*
0 $1 length*
0 $2 width*
0 $3 Rotation angle, in degrees counterclockwise*
0 Add horizontal line*
21,1,$1,$2,0,0,$3*%
%AMFreePoly0*
4,1,6,0.130000,0.115000,0.130000,-0.115000,-0.130000,-0.115000,-0.130000,0.275000,-0.020000,0.275000,0.130000,0.115000,0.130000,0.115000,$1*%
%AMFreePoly1*
4,1,6,0.130000,-0.115000,-0.130000,-0.115000,-0.130000,0.115000,0.020000,0.275000,0.130000,0.275000,0.130000,-0.115000,0.130000,-0.115000,$1*%
G04 Aperture macros list end*
%ADD10RoundRect,0.140000X0.170000X-0.140000X0.170000X0.140000X-0.170000X0.140000X-0.170000X-0.140000X0*%
%ADD11RoundRect,0.147500X-0.172500X0.147500X-0.172500X-0.147500X0.172500X-0.147500X0.172500X0.147500X0*%
%ADD12RoundRect,0.075000X0.075000X-0.247500X0.075000X0.247500X-0.075000X0.247500X-0.075000X-0.247500X0*%
%ADD13R,1.700000X1.010000*%
%ADD14RoundRect,0.225000X-0.225000X-0.250000X0.225000X-0.250000X0.225000X0.250000X-0.225000X0.250000X0*%
%ADD15C,2.200000*%
%ADD16RoundRect,0.140000X-0.140000X-0.170000X0.140000X-0.170000X0.140000X0.170000X-0.140000X0.170000X0*%
%ADD17RoundRect,0.062500X-0.387500X-0.062500X0.387500X-0.062500X0.387500X0.062500X-0.387500X0.062500X0*%
%ADD18R,0.200000X1.600000*%
%ADD19RoundRect,0.062500X-0.220971X-0.309359X0.309359X0.220971X0.220971X0.309359X-0.309359X-0.220971X0*%
%ADD20RoundRect,0.062500X0.220971X-0.309359X0.309359X-0.220971X-0.220971X0.309359X-0.309359X0.220971X0*%
%ADD21RotRect,3.100000X3.100000X45.000000*%
%ADD22RoundRect,0.135000X0.135000X0.185000X-0.135000X0.185000X-0.135000X-0.185000X0.135000X-0.185000X0*%
%ADD23RoundRect,0.140000X0.140000X0.170000X-0.140000X0.170000X-0.140000X-0.170000X0.140000X-0.170000X0*%
%ADD24RoundRect,0.140000X-0.170000X0.140000X-0.170000X-0.140000X0.170000X-0.140000X0.170000X0.140000X0*%
%ADD25RoundRect,0.135000X0.185000X-0.135000X0.185000X0.135000X-0.185000X0.135000X-0.185000X-0.135000X0*%
%ADD26RoundRect,0.112500X-0.237500X0.112500X-0.237500X-0.112500X0.237500X-0.112500X0.237500X0.112500X0*%
%ADD27FreePoly0,0.000000*%
%ADD28FreePoly1,0.000000*%
%ADD29FreePoly0,180.000000*%
%ADD30FreePoly1,180.000000*%
%ADD31RotRect,0.520000X0.520000X225.000000*%
%ADD32R,0.700000X0.220000*%
%ADD33R,0.500000X1.000000*%
%ADD34RoundRect,0.250000X0.300000X-0.400000X0.300000X0.400000X-0.300000X0.400000X-0.300000X-0.400000X0*%
G04 APERTURE END LIST*
D10*
%TO.C,C7*%
X41500000Y-35480000D03*
X41500000Y-34520000D03*
%TD*%
D11*
%TO.C,D4*%
X36500000Y-44515000D03*
X36500000Y-45485000D03*
%TD*%
D12*
%TO.C,Q1*%
X32350000Y-41000000D03*
X33000000Y-41000000D03*
X33650000Y-41000000D03*
X33650000Y-38945000D03*
X33000000Y-38945000D03*
X32350000Y-38945000D03*
D13*
X33000000Y-39972500D03*
%TD*%
D14*
%TO.C,C9*%
X31950000Y-34000000D03*
X33500000Y-34000000D03*
%TD*%
D12*
%TO.C,Q2*%
X35200000Y-41000000D03*
X35850000Y-41000000D03*
X36500000Y-41000000D03*
X36500000Y-38945000D03*
X35850000Y-38945000D03*
X35200000Y-38945000D03*
D13*
X35850000Y-39972500D03*
%TD*%
D15*
%TO.C,REF\u002A\u002A*%
X52500000Y-45000000D03*
%TD*%
D16*
%TO.C,C11*%
X35040000Y-37500000D03*
X36000000Y-37500000D03*
%TD*%
D17*
%TO.C,U2*%
X45650000Y-35500000D03*
X45650000Y-36000000D03*
X45650000Y-36500000D03*
X45650000Y-37000000D03*
X48500000Y-37000000D03*
X48500000Y-36500000D03*
X48500000Y-36000000D03*
X48500000Y-35500000D03*
D18*
X47075000Y-36250000D03*
%TD*%
D19*
%TO.C,U1*%
X38538990Y-40486136D03*
X38892544Y-40839689D03*
X39246097Y-41193243D03*
X39599651Y-41546796D03*
X39953204Y-41900349D03*
X40306757Y-42253903D03*
X40660311Y-42607456D03*
X41013864Y-42961010D03*
D20*
X41986136Y-42961010D03*
X42339689Y-42607456D03*
X42693243Y-42253903D03*
X43046796Y-41900349D03*
X43400349Y-41546796D03*
X43753903Y-41193243D03*
X44107456Y-40839689D03*
X44461010Y-40486136D03*
D19*
X44461010Y-39513864D03*
X44107456Y-39160311D03*
X43753903Y-38806757D03*
X43400349Y-38453204D03*
X43046796Y-38099651D03*
X42693243Y-37746097D03*
X42339689Y-37392544D03*
X41986136Y-37038990D03*
D20*
X41013864Y-37038990D03*
X40660311Y-37392544D03*
X40306757Y-37746097D03*
X39953204Y-38099651D03*
X39599651Y-38453204D03*
X39246097Y-38806757D03*
X38892544Y-39160311D03*
X38538990Y-39513864D03*
D21*
X41500000Y-40000000D03*
%TD*%
D22*
%TO.C,R3*%
X45800000Y-44300000D03*
X44780000Y-44300000D03*
%TD*%
%TO.C,R1*%
X45800000Y-43300000D03*
X44780000Y-43300000D03*
%TD*%
D23*
%TO.C,C5*%
X38500000Y-42500000D03*
X37540000Y-42500000D03*
%TD*%
D22*
%TO.C,R4*%
X51010000Y-36000000D03*
X49990000Y-36000000D03*
%TD*%
D11*
%TO.C,D2*%
X34000000Y-44515000D03*
X34000000Y-45485000D03*
%TD*%
D15*
%TO.C,REF\u002A\u002A*%
X27500000Y-35000000D03*
%TD*%
D24*
%TO.C,C4*%
X42000000Y-44500000D03*
X42000000Y-45460000D03*
%TD*%
D23*
%TO.C,C8*%
X48500000Y-34500000D03*
X47540000Y-34500000D03*
%TD*%
D11*
%TO.C,D3*%
X35500000Y-44515000D03*
X35500000Y-45485000D03*
%TD*%
D25*
%TO.C,R6*%
X33686790Y-43153711D03*
X33686790Y-42133711D03*
%TD*%
D16*
%TO.C,C3*%
X46040000Y-39500000D03*
X47000000Y-39500000D03*
%TD*%
D24*
%TO.C,C12*%
X48900000Y-43000000D03*
X48900000Y-43960000D03*
%TD*%
D25*
%TO.C,R5*%
X32686790Y-43153711D03*
X32686790Y-42133711D03*
%TD*%
D11*
%TO.C,D1*%
X33000000Y-44515000D03*
X33000000Y-45485000D03*
%TD*%
D14*
%TO.C,C10*%
X31950000Y-37500000D03*
X33500000Y-37500000D03*
%TD*%
D26*
%TO.C,U3*%
X35000000Y-34850000D03*
X35000000Y-36150000D03*
X37000000Y-35500000D03*
%TD*%
D27*
%TO.C,U4*%
X32039627Y-36240502D03*
D28*
X32689627Y-36240502D03*
D29*
X32689627Y-35270502D03*
D30*
X32039627Y-35270502D03*
D31*
X32364627Y-35755502D03*
%TD*%
D25*
%TO.C,R8*%
X35686790Y-43153711D03*
X35686790Y-42133711D03*
%TD*%
D32*
%TO.C,J1*%
X29549999Y-42550005D03*
X29549999Y-42150003D03*
X29549999Y-41750004D03*
X29549999Y-41350005D03*
X29549999Y-40950003D03*
X26450001Y-42550005D03*
X26450001Y-42150003D03*
X26450001Y-41750004D03*
X26450001Y-41350005D03*
X26450001Y-40950003D03*
D33*
X29500000Y-43500000D03*
X29500000Y-40000008D03*
X26500000Y-43500000D03*
X26500000Y-40000008D03*
%TD*%
D16*
%TO.C,C2*%
X46040000Y-40500000D03*
X47000000Y-40500000D03*
%TD*%
D10*
%TO.C,C1*%
X42500000Y-35480000D03*
X42500000Y-34520000D03*
%TD*%
D25*
%TO.C,R7*%
X34686790Y-43153711D03*
X34686790Y-42133711D03*
%TD*%
D22*
%TO.C,R2*%
X45800000Y-45300000D03*
X44780000Y-45300000D03*
%TD*%
D34*
%TO.C,Y1*%
X50599651Y-41453204D03*
X50599651Y-39353204D03*
X48949651Y-39353204D03*
X48949651Y-41453204D03*
%TD*%
D10*
%TO.C,C6*%
X40500000Y-35480000D03*
X40500000Y-34520000D03*
%TD*%
M02*
