%TF.GenerationSoftware,KiCad,Pcbnew,9.0.2*%
%TF.CreationDate,2025-06-09T11:48:46-05:00*%
%TF.ProjectId,ICEBATS384,49434542-4154-4533-9338-342e6b696361,rev?*%
%TF.SameCoordinates,Original*%
%TF.FileFunction,Copper,L4,Bot*%
%TF.FilePolarity,Positive*%
%FSLAX46Y46*%
G04 Gerber Fmt 4.6, Leading zero omitted, Abs format (unit mm)*
G04 Created by KiCad (PCBNEW 9.0.2) date 2025-06-09 11:48:46*
%MOMM*%
%LPD*%
G01*
G04 APERTURE LIST*
%TA.AperFunction,SMDPad,CuDef*%
%ADD10R,0.220000X0.900000*%
%TD*%
%TA.AperFunction,SMDPad,CuDef*%
%ADD11R,0.500000X0.850000*%
%TD*%
%TA.AperFunction,ViaPad*%
%ADD12C,0.250000*%
%TD*%
%TA.AperFunction,ViaPad*%
%ADD13C,0.600000*%
%TD*%
%TA.AperFunction,Conductor*%
%ADD14C,0.120000*%
%TD*%
G04 APERTURE END LIST*
D10*
%TO.P,J2,1,1*%
%TO.N,GND*%
X43800000Y-38685001D03*
%TO.P,J2,2,2*%
%TO.N,+3V3*%
X43400001Y-38685001D03*
%TO.P,J2,3,3*%
%TO.N,unconnected-(J2-Pad3)*%
X42999999Y-38685001D03*
%TO.P,J2,4,4*%
%TO.N,unconnected-(J2-Pad4)*%
X42600000Y-38685001D03*
%TO.P,J2,5,5*%
%TO.N,unconnected-(J2-Pad5)*%
X42200001Y-38685001D03*
%TO.P,J2,6,6*%
%TO.N,unconnected-(J2-Pad6)*%
X41799999Y-38685001D03*
%TO.P,J2,7,7*%
%TO.N,unconnected-(J2-Pad7)*%
X41400000Y-38685001D03*
%TO.P,J2,8,8*%
%TO.N,unconnected-(J2-Pad8)*%
X41000001Y-38685001D03*
%TO.P,J2,9,9*%
%TO.N,unconnected-(J2-Pad9)*%
X40600001Y-38685001D03*
%TO.P,J2,10,10*%
%TO.N,unconnected-(J2-Pad10)*%
X40200000Y-38685001D03*
%TO.P,J2,11,11*%
%TO.N,+1V2*%
X39800000Y-38685001D03*
%TO.P,J2,12,12*%
%TO.N,W_|HOLD*%
X39400001Y-38685001D03*
%TO.P,J2,13,13*%
%TO.N,F_CDONE*%
X38999999Y-38685001D03*
%TO.P,J2,14,14*%
%TO.N,F_|CRST*%
X38600000Y-38685001D03*
%TO.P,J2,15,15*%
%TO.N,CLOCK_EN*%
X38200001Y-38685001D03*
%TO.P,J2,16,16*%
%TO.N,F_IO32*%
X37799999Y-38685001D03*
%TO.P,J2,17,17*%
%TO.N,F_IO31*%
X37400000Y-38685001D03*
%TO.P,J2,18,18*%
%TO.N,F_IO30*%
X37000001Y-38685001D03*
%TO.P,J2,19,19*%
%TO.N,F_IO29*%
X36600002Y-38685001D03*
%TO.P,J2,20,20*%
%TO.N,GND*%
X36200000Y-38685001D03*
%TO.P,J2,21,21*%
X43800000Y-41314999D03*
%TO.P,J2,22,22*%
%TO.N,F_IO27*%
X43400001Y-41314999D03*
%TO.P,J2,23,23*%
%TO.N,F_IO26*%
X42999999Y-41314999D03*
%TO.P,J2,24,24*%
%TO.N,F_IO23*%
X42600000Y-41314999D03*
%TO.P,J2,25,25*%
%TO.N,F_IO22*%
X42200001Y-41314999D03*
%TO.P,J2,26,26*%
%TO.N,F_IO20*%
X41799999Y-41314999D03*
%TO.P,J2,27,27*%
%TO.N,F_IO19*%
X41400000Y-41314999D03*
%TO.P,J2,28,28*%
%TO.N,F_IO18*%
X41000001Y-41314999D03*
%TO.P,J2,29,29*%
%TO.N,F_IO15*%
X40600001Y-41314999D03*
%TO.P,J2,30,30*%
%TO.N,F_IO14*%
X40200000Y-41314999D03*
%TO.P,J2,31,31*%
%TO.N,F_IO13*%
X39800000Y-41314999D03*
%TO.P,J2,32,32*%
%TO.N,F_IO12*%
X39400001Y-41314999D03*
%TO.P,J2,33,33*%
%TO.N,F_IO8*%
X38999999Y-41314999D03*
%TO.P,J2,34,34*%
%TO.N,F_IO7*%
X38600000Y-41314999D03*
%TO.P,J2,35,35*%
%TO.N,F_IO6*%
X38200001Y-41314999D03*
%TO.P,J2,36,36*%
%TO.N,F_IO5*%
X37799999Y-41314999D03*
%TO.P,J2,37,37*%
%TO.N,F_IO2*%
X37400000Y-41314999D03*
%TO.P,J2,38,38*%
%TO.N,F_IO1*%
X37000001Y-41314999D03*
%TO.P,J2,39,39*%
%TO.N,+3V3*%
X36600002Y-41314999D03*
%TO.P,J2,40,40*%
%TO.N,GND*%
X36200000Y-41314999D03*
D11*
%TO.P,J2,P1,P1*%
X44600000Y-40740000D03*
%TO.P,J2,P2,P2*%
X35400009Y-40740000D03*
%TO.P,J2,P3,P3*%
X44600000Y-39260000D03*
%TO.P,J2,P4,P4*%
X35400009Y-39260000D03*
%TD*%
D12*
%TO.N,+3V3*%
X30300000Y-42100000D03*
D13*
%TO.N,+1V2*%
X40500000Y-36400000D03*
X31100000Y-37100000D03*
%TO.N,+3V3*%
X39700000Y-35000000D03*
X43300000Y-35500000D03*
X51800000Y-36000000D03*
X49700000Y-43000000D03*
X46200000Y-46000000D03*
X46200000Y-41200000D03*
X46500000Y-34700000D03*
X37300000Y-45500000D03*
X41300000Y-44500000D03*
X38500000Y-43300000D03*
X33600000Y-35200000D03*
%TD*%
D14*
%TO.N,+1V2*%
X39800000Y-37100000D02*
X40500000Y-36400000D01*
X39800000Y-38685001D02*
X39800000Y-37100000D01*
%TD*%
%TA.AperFunction,Conductor*%
%TO.N,GND*%
G36*
X53505394Y-33000972D02*
G01*
X53535721Y-33003625D01*
X53662755Y-33014739D01*
X53684035Y-33018491D01*
X53801188Y-33049882D01*
X53831369Y-33057969D01*
X53851681Y-33065362D01*
X53989915Y-33129822D01*
X54008633Y-33140629D01*
X54133582Y-33228119D01*
X54150140Y-33242013D01*
X54257986Y-33349859D01*
X54271880Y-33366417D01*
X54359370Y-33491366D01*
X54370177Y-33510084D01*
X54434637Y-33648318D01*
X54442030Y-33668630D01*
X54481507Y-33815961D01*
X54485260Y-33837246D01*
X54499028Y-33994605D01*
X54499500Y-34005413D01*
X54499500Y-45994586D01*
X54499028Y-46005394D01*
X54485260Y-46162753D01*
X54481507Y-46184038D01*
X54442030Y-46331369D01*
X54434637Y-46351681D01*
X54370177Y-46489915D01*
X54359370Y-46508633D01*
X54271880Y-46633582D01*
X54257986Y-46650140D01*
X54150140Y-46757986D01*
X54133582Y-46771880D01*
X54008633Y-46859370D01*
X53989915Y-46870177D01*
X53851681Y-46934637D01*
X53831369Y-46942030D01*
X53684038Y-46981507D01*
X53662753Y-46985260D01*
X53505395Y-46999028D01*
X53494587Y-46999500D01*
X46502190Y-46999500D01*
X46435151Y-46979815D01*
X46389396Y-46927011D01*
X46379452Y-46857853D01*
X46408477Y-46794297D01*
X46454738Y-46760939D01*
X46579172Y-46709397D01*
X46579172Y-46709396D01*
X46579179Y-46709394D01*
X46710289Y-46621789D01*
X46821789Y-46510289D01*
X46909394Y-46379179D01*
X46939821Y-46305721D01*
X47502264Y-46305721D01*
X47502264Y-46422200D01*
X47781564Y-46701500D01*
X47957843Y-46701500D01*
X48237143Y-46422200D01*
X48237143Y-46305721D01*
X48237142Y-46305720D01*
X48775057Y-46305720D01*
X48775057Y-46422200D01*
X49054356Y-46701500D01*
X49230635Y-46701500D01*
X49509935Y-46422200D01*
X49509935Y-46305721D01*
X49509934Y-46305720D01*
X50047849Y-46305720D01*
X50047849Y-46422200D01*
X50327148Y-46701500D01*
X50503428Y-46701500D01*
X50782727Y-46422200D01*
X50782727Y-46305720D01*
X51320641Y-46305720D01*
X51320641Y-46422200D01*
X51599941Y-46701500D01*
X51776219Y-46701500D01*
X51855196Y-46622522D01*
X52793755Y-46622522D01*
X52872733Y-46701500D01*
X53049012Y-46701500D01*
X53316264Y-46434247D01*
X53148485Y-46519735D01*
X53144109Y-46521857D01*
X53142324Y-46522680D01*
X53137857Y-46524635D01*
X53127041Y-46529115D01*
X53122497Y-46530892D01*
X53120656Y-46531571D01*
X53116066Y-46533163D01*
X52902763Y-46602469D01*
X52898118Y-46603878D01*
X52896229Y-46604411D01*
X52891510Y-46605643D01*
X52880125Y-46608377D01*
X52875356Y-46609424D01*
X52873430Y-46609807D01*
X52868643Y-46610661D01*
X52793755Y-46622522D01*
X51855196Y-46622522D01*
X51929688Y-46548029D01*
X51883934Y-46533163D01*
X51879344Y-46531571D01*
X51877503Y-46530892D01*
X51872959Y-46529115D01*
X51862143Y-46524635D01*
X51857676Y-46522680D01*
X51855891Y-46521857D01*
X51851515Y-46519735D01*
X51651679Y-46417914D01*
X51647353Y-46415600D01*
X51645640Y-46414640D01*
X51641476Y-46412199D01*
X51631493Y-46406082D01*
X51627393Y-46403458D01*
X51625760Y-46402367D01*
X51621760Y-46399579D01*
X51440312Y-46267750D01*
X51436437Y-46264817D01*
X51434893Y-46263600D01*
X51431109Y-46260495D01*
X51422207Y-46252890D01*
X51418615Y-46249699D01*
X51417174Y-46248368D01*
X51413629Y-46244960D01*
X51397515Y-46228846D01*
X51320641Y-46305720D01*
X50782727Y-46305720D01*
X50473528Y-45996521D01*
X50357048Y-45996521D01*
X50047849Y-46305720D01*
X49509934Y-46305720D01*
X49200735Y-45996521D01*
X49084256Y-45996521D01*
X48775057Y-46305720D01*
X48237142Y-46305720D01*
X47927943Y-45996521D01*
X47811464Y-45996521D01*
X47502264Y-46305721D01*
X46939821Y-46305721D01*
X46969737Y-46233497D01*
X47000500Y-46078842D01*
X47000500Y-45921158D01*
X47000500Y-45921155D01*
X47000499Y-45921153D01*
X46999044Y-45913839D01*
X46969737Y-45766503D01*
X46945428Y-45707816D01*
X46909397Y-45620827D01*
X46909390Y-45620814D01*
X46821789Y-45489711D01*
X46821786Y-45489707D01*
X46741037Y-45408958D01*
X47126234Y-45408958D01*
X47161239Y-45461346D01*
X47164502Y-45466499D01*
X47165764Y-45468605D01*
X47168759Y-45473893D01*
X47175659Y-45486803D01*
X47178404Y-45492257D01*
X47179453Y-45494476D01*
X47181909Y-45500019D01*
X47247854Y-45659225D01*
X47250053Y-45664927D01*
X47250879Y-45667237D01*
X47252779Y-45672989D01*
X47257029Y-45686998D01*
X47258646Y-45692839D01*
X47259243Y-45695220D01*
X47260583Y-45701187D01*
X47294202Y-45870199D01*
X47295245Y-45876211D01*
X47295605Y-45878640D01*
X47296348Y-45884663D01*
X47297783Y-45899231D01*
X47298232Y-45905326D01*
X47298352Y-45907778D01*
X47298500Y-45913839D01*
X47298500Y-46086161D01*
X47298452Y-46088098D01*
X47600747Y-45785804D01*
X47600747Y-45669325D01*
X48138660Y-45669325D01*
X48138660Y-45785804D01*
X48447860Y-46095004D01*
X48564339Y-46095004D01*
X48873539Y-45785804D01*
X48873539Y-45669325D01*
X48873538Y-45669324D01*
X49411453Y-45669324D01*
X49411453Y-45785804D01*
X49720652Y-46095004D01*
X49837131Y-46095004D01*
X50146331Y-45785804D01*
X50146331Y-45669325D01*
X50684245Y-45669325D01*
X50684245Y-45785804D01*
X50993445Y-46095004D01*
X51109924Y-46095004D01*
X51195635Y-46009292D01*
X51100421Y-45878240D01*
X51097633Y-45874240D01*
X51096542Y-45872607D01*
X51093918Y-45868507D01*
X51087801Y-45858524D01*
X51085360Y-45854360D01*
X51084400Y-45852647D01*
X51082086Y-45848321D01*
X50980265Y-45648485D01*
X50978143Y-45644109D01*
X50977320Y-45642324D01*
X50975365Y-45637857D01*
X50970885Y-45627041D01*
X50969108Y-45622497D01*
X50968429Y-45620656D01*
X50966837Y-45616066D01*
X50910596Y-45442973D01*
X50684245Y-45669325D01*
X50146331Y-45669325D01*
X49837131Y-45360125D01*
X49720652Y-45360125D01*
X49411453Y-45669324D01*
X48873538Y-45669324D01*
X48564339Y-45360125D01*
X48447860Y-45360125D01*
X48138660Y-45669325D01*
X47600747Y-45669325D01*
X47291547Y-45360125D01*
X47175069Y-45360125D01*
X47126234Y-45408958D01*
X46741037Y-45408958D01*
X46710292Y-45378213D01*
X46710288Y-45378210D01*
X46579185Y-45290609D01*
X46579172Y-45290602D01*
X46433501Y-45230264D01*
X46433489Y-45230261D01*
X46278845Y-45199500D01*
X46278842Y-45199500D01*
X46121158Y-45199500D01*
X46121155Y-45199500D01*
X45966510Y-45230261D01*
X45966498Y-45230264D01*
X45820827Y-45290602D01*
X45820814Y-45290609D01*
X45689711Y-45378210D01*
X45689707Y-45378213D01*
X45578213Y-45489707D01*
X45578210Y-45489711D01*
X45490609Y-45620814D01*
X45490602Y-45620827D01*
X45430264Y-45766498D01*
X45430261Y-45766510D01*
X45399500Y-45921153D01*
X45399500Y-46078846D01*
X45430261Y-46233489D01*
X45430264Y-46233501D01*
X45490602Y-46379172D01*
X45490609Y-46379185D01*
X45578210Y-46510288D01*
X45578213Y-46510292D01*
X45689707Y-46621786D01*
X45689711Y-46621789D01*
X45820814Y-46709390D01*
X45820827Y-46709397D01*
X45945262Y-46760939D01*
X45999666Y-46804779D01*
X46021731Y-46871074D01*
X46004452Y-46938773D01*
X45953315Y-46986384D01*
X45897810Y-46999500D01*
X26505413Y-46999500D01*
X26494605Y-46999028D01*
X26337246Y-46985260D01*
X26315961Y-46981507D01*
X26168630Y-46942030D01*
X26148318Y-46934637D01*
X26010084Y-46870177D01*
X25991366Y-46859370D01*
X25866417Y-46771880D01*
X25849859Y-46757986D01*
X25742013Y-46650140D01*
X25728119Y-46633582D01*
X25640629Y-46508633D01*
X25629822Y-46489915D01*
X25565362Y-46351681D01*
X25557969Y-46331369D01*
X25549646Y-46300306D01*
X25870211Y-46300306D01*
X25893465Y-46350174D01*
X25963497Y-46450190D01*
X26049807Y-46536500D01*
X26149824Y-46606532D01*
X26260461Y-46658123D01*
X26341923Y-46679951D01*
X26599675Y-46422200D01*
X26599675Y-46305721D01*
X27137589Y-46305721D01*
X27137589Y-46422200D01*
X27416889Y-46701500D01*
X27593168Y-46701500D01*
X27872467Y-46422200D01*
X27872467Y-46305721D01*
X28410381Y-46305721D01*
X28410381Y-46422200D01*
X28689681Y-46701500D01*
X28865960Y-46701500D01*
X29145260Y-46422200D01*
X29145260Y-46305721D01*
X29683173Y-46305721D01*
X29683173Y-46422200D01*
X29962473Y-46701500D01*
X30138752Y-46701500D01*
X30418052Y-46422200D01*
X30418052Y-46305721D01*
X30418051Y-46305720D01*
X30955966Y-46305720D01*
X30955966Y-46422200D01*
X31235265Y-46701500D01*
X31411544Y-46701500D01*
X31690844Y-46422200D01*
X31690844Y-46305721D01*
X32228758Y-46305721D01*
X32228758Y-46422200D01*
X32508058Y-46701500D01*
X32684337Y-46701500D01*
X32963636Y-46422200D01*
X32963636Y-46305721D01*
X33501550Y-46305721D01*
X33501550Y-46422200D01*
X33780850Y-46701500D01*
X33957129Y-46701500D01*
X34236429Y-46422200D01*
X34236429Y-46305721D01*
X34774342Y-46305721D01*
X34774342Y-46422200D01*
X35053642Y-46701500D01*
X35229921Y-46701500D01*
X35509221Y-46422200D01*
X35509221Y-46305721D01*
X36047134Y-46305721D01*
X36047134Y-46422200D01*
X36326434Y-46701500D01*
X36502713Y-46701500D01*
X36620319Y-46583894D01*
X37481620Y-46583894D01*
X37599226Y-46701500D01*
X37775505Y-46701500D01*
X38054805Y-46422200D01*
X38054805Y-46305721D01*
X38592719Y-46305721D01*
X38592719Y-46422200D01*
X38872019Y-46701500D01*
X39048298Y-46701500D01*
X39327597Y-46422200D01*
X39327597Y-46305721D01*
X39865511Y-46305721D01*
X39865511Y-46422200D01*
X40144811Y-46701500D01*
X40321090Y-46701500D01*
X40600390Y-46422200D01*
X40600390Y-46305721D01*
X41138303Y-46305721D01*
X41138303Y-46422200D01*
X41417603Y-46701500D01*
X41593882Y-46701500D01*
X41873182Y-46422200D01*
X41873182Y-46305721D01*
X41873181Y-46305720D01*
X42411096Y-46305720D01*
X42411096Y-46422200D01*
X42690395Y-46701500D01*
X42866674Y-46701500D01*
X43145974Y-46422200D01*
X43145974Y-46305721D01*
X43145973Y-46305720D01*
X43683888Y-46305720D01*
X43683888Y-46422200D01*
X43963187Y-46701500D01*
X44139466Y-46701500D01*
X44418766Y-46422200D01*
X44418766Y-46305721D01*
X44956680Y-46305721D01*
X44956680Y-46422200D01*
X45235980Y-46701500D01*
X45349628Y-46701500D01*
X45343211Y-46693681D01*
X45339478Y-46688898D01*
X45338015Y-46686926D01*
X45334499Y-46681935D01*
X45238761Y-46538654D01*
X45235498Y-46533501D01*
X45234236Y-46531395D01*
X45231241Y-46526107D01*
X45224341Y-46513197D01*
X45221596Y-46507743D01*
X45220547Y-46505524D01*
X45218091Y-46499981D01*
X45152146Y-46340775D01*
X45149947Y-46335073D01*
X45149121Y-46332763D01*
X45147221Y-46327011D01*
X45142971Y-46313002D01*
X45141354Y-46307161D01*
X45140757Y-46304780D01*
X45139417Y-46298813D01*
X45110244Y-46152156D01*
X44956680Y-46305721D01*
X44418766Y-46305721D01*
X44109566Y-45996521D01*
X43993087Y-45996521D01*
X43683888Y-46305720D01*
X43145973Y-46305720D01*
X42836774Y-45996521D01*
X42720295Y-45996521D01*
X42411096Y-46305720D01*
X41873181Y-46305720D01*
X41563982Y-45996521D01*
X41447503Y-45996521D01*
X41138303Y-46305721D01*
X40600390Y-46305721D01*
X40291190Y-45996521D01*
X40174711Y-45996521D01*
X39865511Y-46305721D01*
X39327597Y-46305721D01*
X39327597Y-46305720D01*
X39018398Y-45996521D01*
X38901919Y-45996521D01*
X38592719Y-46305721D01*
X38054805Y-46305721D01*
X38051298Y-46302214D01*
X38015831Y-46337682D01*
X38011433Y-46341870D01*
X38009614Y-46343519D01*
X38004996Y-46347503D01*
X37993681Y-46356789D01*
X37988898Y-46360522D01*
X37986926Y-46361985D01*
X37981935Y-46365501D01*
X37838654Y-46461239D01*
X37833501Y-46464502D01*
X37831395Y-46465764D01*
X37826107Y-46468759D01*
X37813197Y-46475659D01*
X37807743Y-46478404D01*
X37805524Y-46479453D01*
X37799981Y-46481909D01*
X37640775Y-46547854D01*
X37635073Y-46550053D01*
X37632763Y-46550879D01*
X37627011Y-46552779D01*
X37613002Y-46557029D01*
X37607161Y-46558646D01*
X37604780Y-46559243D01*
X37598813Y-46560583D01*
X37481620Y-46583894D01*
X36620319Y-46583894D01*
X36750332Y-46453880D01*
X36618065Y-46365501D01*
X36613074Y-46361985D01*
X36611102Y-46360522D01*
X36606319Y-46356789D01*
X36595004Y-46347503D01*
X36590386Y-46343519D01*
X36588567Y-46341870D01*
X36584169Y-46337682D01*
X36462318Y-46215831D01*
X36458130Y-46211433D01*
X36456481Y-46209614D01*
X36452497Y-46204996D01*
X36443211Y-46193681D01*
X36439478Y-46188898D01*
X36438015Y-46186926D01*
X36434499Y-46181935D01*
X36338761Y-46038654D01*
X36335498Y-46033501D01*
X36334236Y-46031395D01*
X36331241Y-46026107D01*
X36329676Y-46023178D01*
X36047134Y-46305721D01*
X35509221Y-46305721D01*
X35200021Y-45996521D01*
X35083542Y-45996521D01*
X34774342Y-46305721D01*
X34236429Y-46305721D01*
X33927229Y-45996521D01*
X33810750Y-45996521D01*
X33501550Y-46305721D01*
X32963636Y-46305721D01*
X32963636Y-46305720D01*
X32654437Y-45996521D01*
X32537958Y-45996521D01*
X32228758Y-46305721D01*
X31690844Y-46305721D01*
X31381644Y-45996521D01*
X31265165Y-45996521D01*
X30955966Y-46305720D01*
X30418051Y-46305720D01*
X30108852Y-45996521D01*
X29992373Y-45996521D01*
X29683173Y-46305721D01*
X29145260Y-46305721D01*
X28836060Y-45996521D01*
X28719581Y-45996521D01*
X28410381Y-46305721D01*
X27872467Y-46305721D01*
X27872467Y-46305720D01*
X27563268Y-45996521D01*
X27446789Y-45996521D01*
X27137589Y-46305721D01*
X26599675Y-46305721D01*
X26599675Y-46305720D01*
X26290476Y-45996521D01*
X26173997Y-45996521D01*
X25870211Y-46300306D01*
X25549646Y-46300306D01*
X25541454Y-46269735D01*
X25518491Y-46184035D01*
X25514739Y-46162752D01*
X25514065Y-46155051D01*
X25501655Y-46013197D01*
X25500972Y-46005393D01*
X25500500Y-45994586D01*
X25500500Y-45950583D01*
X25798500Y-45950583D01*
X25963279Y-45785804D01*
X25963279Y-45669325D01*
X26501193Y-45669325D01*
X26501193Y-45785804D01*
X26810393Y-46095004D01*
X26926872Y-46095004D01*
X27236071Y-45785804D01*
X27236071Y-45669325D01*
X27773985Y-45669325D01*
X27773985Y-45785804D01*
X28083185Y-46095004D01*
X28199664Y-46095004D01*
X28508864Y-45785804D01*
X28508864Y-45669325D01*
X29046777Y-45669325D01*
X29046777Y-45785804D01*
X29355977Y-46095004D01*
X29472456Y-46095004D01*
X29781656Y-45785804D01*
X29781656Y-45669325D01*
X29781655Y-45669324D01*
X30319570Y-45669324D01*
X30319570Y-45785804D01*
X30628769Y-46095004D01*
X30745248Y-46095004D01*
X31054448Y-45785804D01*
X31054448Y-45669325D01*
X31054447Y-45669324D01*
X31592362Y-45669324D01*
X31592362Y-45785804D01*
X31901561Y-46095004D01*
X32018041Y-46095004D01*
X32327240Y-45785804D01*
X32327240Y-45669325D01*
X32865154Y-45669325D01*
X32865154Y-45785804D01*
X33174354Y-46095004D01*
X33290833Y-46095004D01*
X33600032Y-45785804D01*
X33600032Y-45669325D01*
X34137946Y-45669325D01*
X34137946Y-45785804D01*
X34447146Y-46095004D01*
X34563625Y-46095004D01*
X34872825Y-45785804D01*
X34872825Y-45669325D01*
X35410738Y-45669325D01*
X35410738Y-45785804D01*
X35719938Y-46095004D01*
X35836417Y-46095004D01*
X36145617Y-45785804D01*
X36145617Y-45669325D01*
X35897445Y-45421153D01*
X36499500Y-45421153D01*
X36499500Y-45578846D01*
X36530261Y-45733489D01*
X36530264Y-45733501D01*
X36590602Y-45879172D01*
X36590609Y-45879185D01*
X36678210Y-46010288D01*
X36678213Y-46010292D01*
X36789707Y-46121786D01*
X36789711Y-46121789D01*
X36920814Y-46209390D01*
X36920827Y-46209397D01*
X37051687Y-46263600D01*
X37066503Y-46269737D01*
X37212677Y-46298813D01*
X37221153Y-46300499D01*
X37221156Y-46300500D01*
X37221158Y-46300500D01*
X37378844Y-46300500D01*
X37378845Y-46300499D01*
X37533497Y-46269737D01*
X37663639Y-46215831D01*
X37679172Y-46209397D01*
X37679172Y-46209396D01*
X37679179Y-46209394D01*
X37810289Y-46121789D01*
X37862213Y-46069865D01*
X38240383Y-46069865D01*
X38265522Y-46095004D01*
X38382002Y-46095004D01*
X38691201Y-45785804D01*
X38691201Y-45669325D01*
X39229115Y-45669325D01*
X39229115Y-45785804D01*
X39538315Y-46095004D01*
X39654794Y-46095004D01*
X39963993Y-45785804D01*
X39963993Y-45669324D01*
X40501907Y-45669324D01*
X40501907Y-45785804D01*
X40811107Y-46095004D01*
X40927586Y-46095004D01*
X41236786Y-45785804D01*
X41236786Y-45669325D01*
X41774699Y-45669325D01*
X41774699Y-45785804D01*
X42083899Y-46095004D01*
X42200378Y-46095004D01*
X42509578Y-45785804D01*
X42509578Y-45669325D01*
X42509577Y-45669324D01*
X43047492Y-45669324D01*
X43047492Y-45785804D01*
X43356691Y-46095004D01*
X43473170Y-46095004D01*
X43782370Y-45785804D01*
X43782370Y-45669325D01*
X43782369Y-45669324D01*
X44320284Y-45669324D01*
X44320284Y-45785804D01*
X44629483Y-46095004D01*
X44745963Y-46095004D01*
X45055162Y-45785804D01*
X45055162Y-45669324D01*
X44745963Y-45360125D01*
X44629483Y-45360125D01*
X44320284Y-45669324D01*
X43782369Y-45669324D01*
X43473170Y-45360125D01*
X43356691Y-45360125D01*
X43047492Y-45669324D01*
X42509577Y-45669324D01*
X42200378Y-45360125D01*
X42083899Y-45360125D01*
X41774699Y-45669325D01*
X41236786Y-45669325D01*
X41159543Y-45592082D01*
X41001187Y-45560583D01*
X40995220Y-45559243D01*
X40992839Y-45558646D01*
X40986998Y-45557029D01*
X40972989Y-45552779D01*
X40967237Y-45550879D01*
X40964927Y-45550053D01*
X40959225Y-45547854D01*
X40800019Y-45481909D01*
X40794476Y-45479453D01*
X40792257Y-45478404D01*
X40786803Y-45475659D01*
X40773893Y-45468759D01*
X40768605Y-45465764D01*
X40766499Y-45464502D01*
X40761346Y-45461239D01*
X40730561Y-45440669D01*
X40501907Y-45669324D01*
X39963993Y-45669324D01*
X39654794Y-45360125D01*
X39538315Y-45360125D01*
X39229115Y-45669325D01*
X38691201Y-45669325D01*
X38691201Y-45669324D01*
X38394648Y-45372771D01*
X38395245Y-45376211D01*
X38395605Y-45378640D01*
X38396348Y-45384663D01*
X38397783Y-45399231D01*
X38398232Y-45405326D01*
X38398352Y-45407778D01*
X38398500Y-45413839D01*
X38398500Y-45586161D01*
X38398352Y-45592222D01*
X38398232Y-45594674D01*
X38397783Y-45600769D01*
X38396348Y-45615337D01*
X38395605Y-45621360D01*
X38395245Y-45623789D01*
X38394202Y-45629801D01*
X38360583Y-45798813D01*
X38359243Y-45804780D01*
X38358646Y-45807161D01*
X38357029Y-45813002D01*
X38352779Y-45827011D01*
X38350879Y-45832763D01*
X38350053Y-45835073D01*
X38347854Y-45840775D01*
X38281909Y-45999981D01*
X38279453Y-46005524D01*
X38278404Y-46007743D01*
X38275659Y-46013197D01*
X38268759Y-46026107D01*
X38265764Y-46031395D01*
X38264502Y-46033501D01*
X38261239Y-46038654D01*
X38240383Y-46069865D01*
X37862213Y-46069865D01*
X37921789Y-46010289D01*
X38009394Y-45879179D01*
X38013815Y-45868507D01*
X38028620Y-45832763D01*
X38069737Y-45733497D01*
X38100500Y-45578842D01*
X38100500Y-45421158D01*
X38100500Y-45421155D01*
X38100499Y-45421153D01*
X38098073Y-45408958D01*
X38069737Y-45266503D01*
X38063587Y-45251655D01*
X38009397Y-45120827D01*
X38009390Y-45120814D01*
X37950667Y-45032929D01*
X38592719Y-45032929D01*
X38592719Y-45149408D01*
X38901919Y-45458608D01*
X39018398Y-45458608D01*
X39327597Y-45149408D01*
X39327597Y-45032929D01*
X39865511Y-45032929D01*
X39865511Y-45149408D01*
X40174711Y-45458608D01*
X40291190Y-45458608D01*
X40498142Y-45251655D01*
X40462318Y-45215831D01*
X40458130Y-45211433D01*
X40456481Y-45209614D01*
X40452497Y-45204996D01*
X40443211Y-45193681D01*
X40439478Y-45188898D01*
X40438015Y-45186926D01*
X40434499Y-45181935D01*
X40338761Y-45038654D01*
X40335498Y-45033501D01*
X40334236Y-45031395D01*
X40331241Y-45026107D01*
X40324341Y-45013197D01*
X40321596Y-45007743D01*
X40320547Y-45005524D01*
X40318091Y-44999981D01*
X40252146Y-44840775D01*
X40249947Y-44835073D01*
X40249121Y-44832763D01*
X40247221Y-44827011D01*
X40242971Y-44813002D01*
X40241354Y-44807161D01*
X40240757Y-44804780D01*
X40239417Y-44798813D01*
X40224482Y-44723729D01*
X40174711Y-44723729D01*
X39865511Y-45032929D01*
X39327597Y-45032929D01*
X39327597Y-45032928D01*
X39018398Y-44723729D01*
X38901919Y-44723729D01*
X38592719Y-45032929D01*
X37950667Y-45032929D01*
X37921789Y-44989711D01*
X37921786Y-44989707D01*
X37810292Y-44878213D01*
X37810288Y-44878210D01*
X37679185Y-44790609D01*
X37679172Y-44790602D01*
X37533501Y-44730264D01*
X37533489Y-44730261D01*
X37378845Y-44699500D01*
X37378842Y-44699500D01*
X37221158Y-44699500D01*
X37221155Y-44699500D01*
X37066510Y-44730261D01*
X37066498Y-44730264D01*
X36920827Y-44790602D01*
X36920814Y-44790609D01*
X36789711Y-44878210D01*
X36789707Y-44878213D01*
X36678213Y-44989707D01*
X36678210Y-44989711D01*
X36590609Y-45120814D01*
X36590602Y-45120827D01*
X36530264Y-45266498D01*
X36530261Y-45266510D01*
X36499500Y-45421153D01*
X35897445Y-45421153D01*
X35836417Y-45360125D01*
X35719938Y-45360125D01*
X35410738Y-45669325D01*
X34872825Y-45669325D01*
X34563625Y-45360125D01*
X34447146Y-45360125D01*
X34137946Y-45669325D01*
X33600032Y-45669325D01*
X33600032Y-45669324D01*
X33290833Y-45360125D01*
X33174354Y-45360125D01*
X32865154Y-45669325D01*
X32327240Y-45669325D01*
X32327240Y-45669324D01*
X32018041Y-45360125D01*
X31901561Y-45360125D01*
X31592362Y-45669324D01*
X31054447Y-45669324D01*
X30745248Y-45360125D01*
X30628769Y-45360125D01*
X30319570Y-45669324D01*
X29781655Y-45669324D01*
X29472456Y-45360125D01*
X29355977Y-45360125D01*
X29046777Y-45669325D01*
X28508864Y-45669325D01*
X28199664Y-45360125D01*
X28083185Y-45360125D01*
X27773985Y-45669325D01*
X27236071Y-45669325D01*
X27236071Y-45669324D01*
X26926872Y-45360125D01*
X26810393Y-45360125D01*
X26501193Y-45669325D01*
X25963279Y-45669325D01*
X25963279Y-45669324D01*
X25798500Y-45504545D01*
X25798500Y-45950583D01*
X25500500Y-45950583D01*
X25500500Y-45032929D01*
X25864797Y-45032929D01*
X25864797Y-45149408D01*
X26173997Y-45458608D01*
X26290476Y-45458608D01*
X26599675Y-45149408D01*
X26599675Y-45032929D01*
X27137589Y-45032929D01*
X27137589Y-45149408D01*
X27446789Y-45458608D01*
X27563268Y-45458608D01*
X27872467Y-45149408D01*
X27872467Y-45032929D01*
X28410381Y-45032929D01*
X28410381Y-45149408D01*
X28719581Y-45458608D01*
X28836060Y-45458608D01*
X29145260Y-45149408D01*
X29145260Y-45032929D01*
X29683173Y-45032929D01*
X29683173Y-45149408D01*
X29992373Y-45458608D01*
X30108852Y-45458608D01*
X30418052Y-45149408D01*
X30418052Y-45032929D01*
X30418051Y-45032928D01*
X30955966Y-45032928D01*
X30955966Y-45149408D01*
X31265165Y-45458608D01*
X31381644Y-45458608D01*
X31690844Y-45149408D01*
X31690844Y-45032929D01*
X32228758Y-45032929D01*
X32228758Y-45149408D01*
X32537958Y-45458608D01*
X32654437Y-45458608D01*
X32963636Y-45149408D01*
X32963636Y-45032929D01*
X33501550Y-45032929D01*
X33501550Y-45149408D01*
X33810750Y-45458608D01*
X33927229Y-45458608D01*
X34236429Y-45149408D01*
X34236429Y-45032929D01*
X34774342Y-45032929D01*
X34774342Y-45149408D01*
X35083542Y-45458608D01*
X35200021Y-45458608D01*
X35509221Y-45149408D01*
X35509221Y-45032929D01*
X36047134Y-45032929D01*
X36047134Y-45149408D01*
X36216105Y-45318379D01*
X36239417Y-45201187D01*
X36240757Y-45195220D01*
X36241354Y-45192839D01*
X36242971Y-45186998D01*
X36247221Y-45172989D01*
X36249121Y-45167237D01*
X36249947Y-45164927D01*
X36252146Y-45159225D01*
X36318091Y-45000019D01*
X36320547Y-44994476D01*
X36321596Y-44992257D01*
X36324341Y-44986803D01*
X36331241Y-44973893D01*
X36334236Y-44968605D01*
X36335498Y-44966499D01*
X36338761Y-44961346D01*
X36434499Y-44818065D01*
X36438015Y-44813074D01*
X36439478Y-44811102D01*
X36443211Y-44806319D01*
X36452497Y-44795004D01*
X36456481Y-44790386D01*
X36458130Y-44788567D01*
X36462318Y-44784169D01*
X36497785Y-44748701D01*
X36472813Y-44723729D01*
X36356334Y-44723729D01*
X36047134Y-45032929D01*
X35509221Y-45032929D01*
X35200021Y-44723729D01*
X35083542Y-44723729D01*
X34774342Y-45032929D01*
X34236429Y-45032929D01*
X33927229Y-44723729D01*
X33810750Y-44723729D01*
X33501550Y-45032929D01*
X32963636Y-45032929D01*
X32963636Y-45032928D01*
X32654437Y-44723729D01*
X32537958Y-44723729D01*
X32228758Y-45032929D01*
X31690844Y-45032929D01*
X31381644Y-44723729D01*
X31265165Y-44723729D01*
X30955966Y-45032928D01*
X30418051Y-45032928D01*
X30108852Y-44723729D01*
X29992373Y-44723729D01*
X29683173Y-45032929D01*
X29145260Y-45032929D01*
X28836060Y-44723729D01*
X28719581Y-44723729D01*
X28410381Y-45032929D01*
X27872467Y-45032929D01*
X27872467Y-45032928D01*
X27563268Y-44723729D01*
X27446789Y-44723729D01*
X27137589Y-45032929D01*
X26599675Y-45032929D01*
X26599675Y-45032928D01*
X26290476Y-44723729D01*
X26173997Y-44723729D01*
X25864797Y-45032929D01*
X25500500Y-45032929D01*
X25500500Y-44677791D01*
X25798500Y-44677791D01*
X25963279Y-44513012D01*
X25963279Y-44396533D01*
X26501193Y-44396533D01*
X26501193Y-44513012D01*
X26810393Y-44822212D01*
X26926872Y-44822212D01*
X27236071Y-44513012D01*
X27236071Y-44396533D01*
X27773985Y-44396533D01*
X27773985Y-44513012D01*
X28083185Y-44822212D01*
X28199664Y-44822212D01*
X28508864Y-44513012D01*
X28508864Y-44396533D01*
X29046777Y-44396533D01*
X29046777Y-44513012D01*
X29355977Y-44822212D01*
X29472456Y-44822212D01*
X29781656Y-44513012D01*
X29781656Y-44396533D01*
X29781655Y-44396532D01*
X30319570Y-44396532D01*
X30319570Y-44513012D01*
X30628769Y-44822212D01*
X30745248Y-44822212D01*
X31054448Y-44513012D01*
X31054448Y-44396533D01*
X31054447Y-44396532D01*
X31592362Y-44396532D01*
X31592362Y-44513012D01*
X31901561Y-44822212D01*
X32018041Y-44822212D01*
X32327240Y-44513012D01*
X32327240Y-44396533D01*
X32865154Y-44396533D01*
X32865154Y-44513012D01*
X33174354Y-44822212D01*
X33290833Y-44822212D01*
X33600032Y-44513012D01*
X33600032Y-44396533D01*
X34137946Y-44396533D01*
X34137946Y-44513012D01*
X34447146Y-44822212D01*
X34563625Y-44822212D01*
X34872825Y-44513012D01*
X34872825Y-44396533D01*
X35410738Y-44396533D01*
X35410738Y-44513012D01*
X35719938Y-44822212D01*
X35836417Y-44822212D01*
X36145617Y-44513012D01*
X36145617Y-44396533D01*
X36145616Y-44396532D01*
X36683531Y-44396532D01*
X36683531Y-44513011D01*
X36730135Y-44559615D01*
X36761347Y-44538761D01*
X36766499Y-44535498D01*
X36768605Y-44534236D01*
X36773893Y-44531241D01*
X36786803Y-44524341D01*
X36792257Y-44521596D01*
X36794476Y-44520547D01*
X36800019Y-44518091D01*
X36959225Y-44452146D01*
X36964927Y-44449947D01*
X36967237Y-44449121D01*
X36972989Y-44447221D01*
X36986998Y-44442971D01*
X36992839Y-44441354D01*
X36995220Y-44440757D01*
X37001187Y-44439417D01*
X37170199Y-44405798D01*
X37176211Y-44404755D01*
X37178640Y-44404395D01*
X37184663Y-44403652D01*
X37199231Y-44402217D01*
X37205326Y-44401768D01*
X37207778Y-44401648D01*
X37213839Y-44401500D01*
X37386161Y-44401500D01*
X37392222Y-44401648D01*
X37394674Y-44401768D01*
X37400769Y-44402217D01*
X37415337Y-44403652D01*
X37418409Y-44404030D01*
X37418409Y-44396533D01*
X37956323Y-44396533D01*
X37956323Y-44513012D01*
X38265522Y-44822212D01*
X38382002Y-44822212D01*
X38691201Y-44513012D01*
X38691201Y-44396533D01*
X39229115Y-44396533D01*
X39229115Y-44513012D01*
X39538315Y-44822212D01*
X39654794Y-44822212D01*
X39963993Y-44513012D01*
X39963993Y-44421153D01*
X40499500Y-44421153D01*
X40499500Y-44578846D01*
X40530261Y-44733489D01*
X40530264Y-44733501D01*
X40590602Y-44879172D01*
X40590609Y-44879185D01*
X40678210Y-45010288D01*
X40678213Y-45010292D01*
X40789707Y-45121786D01*
X40789711Y-45121789D01*
X40920814Y-45209390D01*
X40920827Y-45209397D01*
X41058683Y-45266498D01*
X41066503Y-45269737D01*
X41193528Y-45295004D01*
X41221153Y-45300499D01*
X41221156Y-45300500D01*
X41221158Y-45300500D01*
X41378844Y-45300500D01*
X41378845Y-45300499D01*
X41533497Y-45269737D01*
X41663639Y-45215831D01*
X41679172Y-45209397D01*
X41679172Y-45209396D01*
X41679179Y-45209394D01*
X41810289Y-45121789D01*
X41899150Y-45032928D01*
X42411096Y-45032928D01*
X42411096Y-45149408D01*
X42720295Y-45458608D01*
X42836774Y-45458608D01*
X43145974Y-45149408D01*
X43145974Y-45032929D01*
X43145973Y-45032928D01*
X43683888Y-45032928D01*
X43683888Y-45149408D01*
X43993087Y-45458608D01*
X44109566Y-45458608D01*
X44418766Y-45149408D01*
X44418766Y-45032929D01*
X44956680Y-45032929D01*
X44956680Y-45149408D01*
X45250720Y-45443448D01*
X45334499Y-45318065D01*
X45338015Y-45313074D01*
X45339478Y-45311102D01*
X45343211Y-45306319D01*
X45352497Y-45295004D01*
X45356481Y-45290386D01*
X45358130Y-45288567D01*
X45362318Y-45284169D01*
X45484169Y-45162318D01*
X45488567Y-45158130D01*
X45490386Y-45156481D01*
X45495004Y-45152497D01*
X45506319Y-45143211D01*
X45511102Y-45139478D01*
X45513074Y-45138015D01*
X45518065Y-45134499D01*
X45661346Y-45038761D01*
X45666499Y-45035498D01*
X45668605Y-45034236D01*
X45673893Y-45031241D01*
X45684305Y-45025676D01*
X45568873Y-44910244D01*
X46352156Y-44910244D01*
X46498813Y-44939417D01*
X46504780Y-44940757D01*
X46507161Y-44941354D01*
X46513002Y-44942971D01*
X46527011Y-44947221D01*
X46532763Y-44949121D01*
X46535073Y-44949947D01*
X46540775Y-44952146D01*
X46699981Y-45018091D01*
X46705524Y-45020547D01*
X46707743Y-45021596D01*
X46713197Y-45024341D01*
X46726107Y-45031241D01*
X46731395Y-45034236D01*
X46733501Y-45035498D01*
X46738654Y-45038761D01*
X46881935Y-45134499D01*
X46886926Y-45138015D01*
X46888898Y-45139478D01*
X46893681Y-45143211D01*
X46904996Y-45152497D01*
X46909614Y-45156481D01*
X46911433Y-45158130D01*
X46915831Y-45162318D01*
X46933636Y-45180123D01*
X46964351Y-45149408D01*
X46964351Y-45032929D01*
X47502264Y-45032929D01*
X47502264Y-45149408D01*
X47811464Y-45458608D01*
X47927943Y-45458608D01*
X48237143Y-45149408D01*
X48237143Y-45032929D01*
X48237142Y-45032928D01*
X48775057Y-45032928D01*
X48775057Y-45149408D01*
X49084256Y-45458608D01*
X49200735Y-45458608D01*
X49509935Y-45149408D01*
X49509935Y-45032929D01*
X49509934Y-45032928D01*
X50047849Y-45032928D01*
X50047849Y-45149408D01*
X50357048Y-45458608D01*
X50473528Y-45458608D01*
X50782727Y-45149408D01*
X50782727Y-45032928D01*
X50643512Y-44893713D01*
X51149500Y-44893713D01*
X51149500Y-45106286D01*
X51181939Y-45311102D01*
X51182754Y-45316243D01*
X51243937Y-45504545D01*
X51248444Y-45518414D01*
X51344951Y-45707820D01*
X51469890Y-45879786D01*
X51620213Y-46030109D01*
X51792179Y-46155048D01*
X51792181Y-46155049D01*
X51792184Y-46155051D01*
X51981588Y-46251557D01*
X52183757Y-46317246D01*
X52393713Y-46350500D01*
X52393714Y-46350500D01*
X52606286Y-46350500D01*
X52606287Y-46350500D01*
X52816243Y-46317246D01*
X52851713Y-46305721D01*
X53866225Y-46305721D01*
X53866225Y-46422200D01*
X53965358Y-46521333D01*
X54036500Y-46450190D01*
X54106532Y-46350173D01*
X54158123Y-46239536D01*
X54189719Y-46121616D01*
X54200666Y-45996521D01*
X54175425Y-45996521D01*
X53866225Y-46305721D01*
X52851713Y-46305721D01*
X53018412Y-46251557D01*
X53207816Y-46155051D01*
X53253836Y-46121616D01*
X53379786Y-46030109D01*
X53379788Y-46030106D01*
X53379792Y-46030104D01*
X53530104Y-45879792D01*
X53530106Y-45879788D01*
X53530109Y-45879786D01*
X53655048Y-45707820D01*
X53655047Y-45707820D01*
X53655051Y-45707816D01*
X53751557Y-45518412D01*
X53793494Y-45389345D01*
X54106162Y-45389345D01*
X54175425Y-45458608D01*
X54201500Y-45458608D01*
X54201500Y-44723729D01*
X54175426Y-44723729D01*
X54132145Y-44767008D01*
X54145746Y-44852876D01*
X54146411Y-44857679D01*
X54146642Y-44859628D01*
X54147121Y-44864490D01*
X54148040Y-44876162D01*
X54148328Y-44881035D01*
X54148405Y-44882998D01*
X54148500Y-44887858D01*
X54148500Y-45112142D01*
X54148405Y-45117002D01*
X54148328Y-45118965D01*
X54148040Y-45123838D01*
X54147121Y-45135510D01*
X54146642Y-45140372D01*
X54146411Y-45142321D01*
X54145746Y-45147124D01*
X54110661Y-45368643D01*
X54109807Y-45373430D01*
X54109424Y-45375356D01*
X54108377Y-45380125D01*
X54106162Y-45389345D01*
X53793494Y-45389345D01*
X53817246Y-45316243D01*
X53850500Y-45106287D01*
X53850500Y-44893713D01*
X53817246Y-44683757D01*
X53751557Y-44481588D01*
X53655051Y-44292184D01*
X53655049Y-44292181D01*
X53655048Y-44292179D01*
X53530109Y-44120213D01*
X53379786Y-43969890D01*
X53207820Y-43844951D01*
X53041363Y-43760137D01*
X53866225Y-43760137D01*
X53866225Y-43876615D01*
X54175425Y-44185815D01*
X54201500Y-44185815D01*
X54201500Y-43450937D01*
X54175425Y-43450937D01*
X53866225Y-43760137D01*
X53041363Y-43760137D01*
X53018414Y-43748444D01*
X53018413Y-43748443D01*
X53018412Y-43748443D01*
X52816243Y-43682754D01*
X52816241Y-43682753D01*
X52816240Y-43682753D01*
X52654957Y-43657208D01*
X52606287Y-43649500D01*
X52393713Y-43649500D01*
X52345042Y-43657208D01*
X52183760Y-43682753D01*
X51981585Y-43748444D01*
X51792179Y-43844951D01*
X51620213Y-43969890D01*
X51469890Y-44120213D01*
X51344951Y-44292179D01*
X51248444Y-44481585D01*
X51248443Y-44481587D01*
X51248443Y-44481588D01*
X51229866Y-44538761D01*
X51182753Y-44683760D01*
X51149500Y-44893713D01*
X50643512Y-44893713D01*
X50473528Y-44723729D01*
X50357048Y-44723729D01*
X50047849Y-45032928D01*
X49509934Y-45032928D01*
X49200735Y-44723729D01*
X49084256Y-44723729D01*
X48775057Y-45032928D01*
X48237142Y-45032928D01*
X47927943Y-44723729D01*
X47811464Y-44723729D01*
X47502264Y-45032929D01*
X46964351Y-45032929D01*
X46655151Y-44723729D01*
X46538672Y-44723729D01*
X46352156Y-44910244D01*
X45568873Y-44910244D01*
X45382359Y-44723729D01*
X45265880Y-44723729D01*
X44956680Y-45032929D01*
X44418766Y-45032929D01*
X44109566Y-44723729D01*
X43993087Y-44723729D01*
X43683888Y-45032928D01*
X43145973Y-45032928D01*
X42836774Y-44723729D01*
X42720295Y-44723729D01*
X42411096Y-45032928D01*
X41899150Y-45032928D01*
X41921789Y-45010289D01*
X42009394Y-44879179D01*
X42069737Y-44733497D01*
X42100500Y-44578842D01*
X42100500Y-44421158D01*
X42100500Y-44421155D01*
X42100499Y-44421153D01*
X42099044Y-44413839D01*
X42069737Y-44266503D01*
X42066649Y-44259047D01*
X42372092Y-44259047D01*
X42394202Y-44370199D01*
X42395245Y-44376211D01*
X42395605Y-44378640D01*
X42396348Y-44384663D01*
X42397783Y-44399231D01*
X42398232Y-44405326D01*
X42398352Y-44407778D01*
X42398500Y-44413839D01*
X42398500Y-44586161D01*
X42398352Y-44592222D01*
X42398232Y-44594674D01*
X42397783Y-44600769D01*
X42396348Y-44615337D01*
X42395605Y-44621360D01*
X42395245Y-44623789D01*
X42394498Y-44628091D01*
X42509578Y-44513012D01*
X42509578Y-44396533D01*
X42509577Y-44396532D01*
X43047492Y-44396532D01*
X43047492Y-44513012D01*
X43356691Y-44822212D01*
X43473170Y-44822212D01*
X43782370Y-44513012D01*
X43782370Y-44396533D01*
X43782369Y-44396532D01*
X44320284Y-44396532D01*
X44320284Y-44513012D01*
X44629483Y-44822212D01*
X44745963Y-44822212D01*
X45055162Y-44513012D01*
X45055162Y-44396533D01*
X45593076Y-44396533D01*
X45593076Y-44513012D01*
X45902276Y-44822212D01*
X46018755Y-44822212D01*
X46327954Y-44513012D01*
X46327954Y-44396533D01*
X46865868Y-44396533D01*
X46865868Y-44513012D01*
X47175068Y-44822212D01*
X47291547Y-44822212D01*
X47600747Y-44513012D01*
X47600747Y-44396533D01*
X48138660Y-44396533D01*
X48138660Y-44513012D01*
X48447860Y-44822212D01*
X48564339Y-44822212D01*
X48873539Y-44513012D01*
X48873539Y-44396533D01*
X48873538Y-44396532D01*
X49411453Y-44396532D01*
X49411453Y-44513012D01*
X49720652Y-44822212D01*
X49837131Y-44822212D01*
X50146331Y-44513012D01*
X50146331Y-44396533D01*
X50684245Y-44396533D01*
X50684245Y-44513012D01*
X50877477Y-44706244D01*
X50889339Y-44631357D01*
X50890193Y-44626570D01*
X50890576Y-44624644D01*
X50891623Y-44619875D01*
X50894357Y-44608490D01*
X50895589Y-44603771D01*
X50896122Y-44601882D01*
X50897531Y-44597237D01*
X50966837Y-44383934D01*
X50968429Y-44379344D01*
X50969108Y-44377503D01*
X50970885Y-44372959D01*
X50975365Y-44362143D01*
X50977320Y-44357676D01*
X50978143Y-44355891D01*
X50980265Y-44351515D01*
X51082086Y-44151679D01*
X51084400Y-44147353D01*
X51085360Y-44145640D01*
X51087801Y-44141476D01*
X51093918Y-44131493D01*
X51096542Y-44127393D01*
X51097633Y-44125760D01*
X51100420Y-44121760D01*
X51118906Y-44096315D01*
X51109924Y-44087333D01*
X50993445Y-44087333D01*
X50684245Y-44396533D01*
X50146331Y-44396533D01*
X49841644Y-44091846D01*
X49829802Y-44094202D01*
X49823789Y-44095245D01*
X49821360Y-44095605D01*
X49815337Y-44096348D01*
X49800769Y-44097783D01*
X49794674Y-44098232D01*
X49792222Y-44098352D01*
X49786161Y-44098500D01*
X49709485Y-44098500D01*
X49411453Y-44396532D01*
X48873538Y-44396532D01*
X48564339Y-44087333D01*
X48447860Y-44087333D01*
X48138660Y-44396533D01*
X47600747Y-44396533D01*
X47291547Y-44087333D01*
X47175068Y-44087333D01*
X46865868Y-44396533D01*
X46327954Y-44396533D01*
X46327954Y-44396532D01*
X46018755Y-44087333D01*
X45902276Y-44087333D01*
X45593076Y-44396533D01*
X45055162Y-44396533D01*
X45055162Y-44396532D01*
X44745963Y-44087333D01*
X44629483Y-44087333D01*
X44320284Y-44396532D01*
X43782369Y-44396532D01*
X43473170Y-44087333D01*
X43356691Y-44087333D01*
X43047492Y-44396532D01*
X42509577Y-44396532D01*
X42372092Y-44259047D01*
X42066649Y-44259047D01*
X42055343Y-44231753D01*
X42009397Y-44120827D01*
X42009390Y-44120814D01*
X41921789Y-43989711D01*
X41921786Y-43989707D01*
X41810292Y-43878213D01*
X41810288Y-43878210D01*
X41679185Y-43790609D01*
X41679172Y-43790602D01*
X41605619Y-43760136D01*
X42411096Y-43760136D01*
X42411096Y-43876616D01*
X42720295Y-44185815D01*
X42836774Y-44185815D01*
X43145974Y-43876615D01*
X43145974Y-43760137D01*
X43145973Y-43760136D01*
X43683888Y-43760136D01*
X43683888Y-43876616D01*
X43993087Y-44185815D01*
X44109566Y-44185815D01*
X44418766Y-43876615D01*
X44418766Y-43760137D01*
X44956680Y-43760137D01*
X44956680Y-43876615D01*
X45265880Y-44185815D01*
X45382359Y-44185815D01*
X45691558Y-43876616D01*
X45691558Y-43760137D01*
X46229472Y-43760137D01*
X46229472Y-43876615D01*
X46538672Y-44185815D01*
X46655151Y-44185815D01*
X46964351Y-43876615D01*
X46964351Y-43760137D01*
X47502264Y-43760137D01*
X47502264Y-43876615D01*
X47811464Y-44185815D01*
X47927943Y-44185815D01*
X48237143Y-43876615D01*
X48237143Y-43760137D01*
X48775057Y-43760137D01*
X48775057Y-43876616D01*
X49084256Y-44185815D01*
X49200735Y-44185815D01*
X49344708Y-44041841D01*
X49233137Y-43995627D01*
X50166860Y-43995627D01*
X50357048Y-44185815D01*
X50473528Y-44185815D01*
X50782727Y-43876616D01*
X50782727Y-43760137D01*
X51320641Y-43760137D01*
X51320641Y-43848028D01*
X51413629Y-43755040D01*
X51417174Y-43751632D01*
X51418615Y-43750301D01*
X51422207Y-43747110D01*
X51431109Y-43739505D01*
X51434893Y-43736400D01*
X51436437Y-43735183D01*
X51440312Y-43732250D01*
X51621760Y-43600421D01*
X51625760Y-43597633D01*
X51627393Y-43596542D01*
X51631493Y-43593918D01*
X51641476Y-43587801D01*
X51645640Y-43585360D01*
X51647353Y-43584400D01*
X51651679Y-43582086D01*
X51801256Y-43505873D01*
X51746320Y-43450937D01*
X51629841Y-43450937D01*
X51320641Y-43760137D01*
X50782727Y-43760137D01*
X50621186Y-43598596D01*
X50565501Y-43681935D01*
X50561985Y-43686926D01*
X50560522Y-43688898D01*
X50556789Y-43693681D01*
X50547503Y-43704996D01*
X50543519Y-43709614D01*
X50541870Y-43711433D01*
X50537682Y-43715831D01*
X50415831Y-43837682D01*
X50411433Y-43841870D01*
X50409614Y-43843519D01*
X50404996Y-43847503D01*
X50393681Y-43856789D01*
X50388898Y-43860522D01*
X50386926Y-43861985D01*
X50381935Y-43865501D01*
X50238654Y-43961239D01*
X50233501Y-43964502D01*
X50231395Y-43965764D01*
X50226107Y-43968759D01*
X50213197Y-43975659D01*
X50207743Y-43978404D01*
X50205524Y-43979453D01*
X50199981Y-43981909D01*
X50166860Y-43995627D01*
X49233137Y-43995627D01*
X49200019Y-43981909D01*
X49194476Y-43979453D01*
X49192257Y-43978404D01*
X49186803Y-43975659D01*
X49173893Y-43968759D01*
X49168605Y-43965764D01*
X49166499Y-43964502D01*
X49161346Y-43961239D01*
X49018065Y-43865501D01*
X49013074Y-43861985D01*
X49011102Y-43860522D01*
X49006319Y-43856789D01*
X48995004Y-43847503D01*
X48990386Y-43843519D01*
X48988567Y-43841870D01*
X48984169Y-43837682D01*
X48862318Y-43715831D01*
X48858130Y-43711433D01*
X48856481Y-43709614D01*
X48852497Y-43704996D01*
X48843211Y-43693681D01*
X48842466Y-43692727D01*
X48775057Y-43760137D01*
X48237143Y-43760137D01*
X47927943Y-43450937D01*
X47811464Y-43450937D01*
X47502264Y-43760137D01*
X46964351Y-43760137D01*
X46655151Y-43450937D01*
X46538672Y-43450937D01*
X46229472Y-43760137D01*
X45691558Y-43760137D01*
X45691558Y-43760136D01*
X45382359Y-43450937D01*
X45265880Y-43450937D01*
X44956680Y-43760137D01*
X44418766Y-43760137D01*
X44109566Y-43450937D01*
X43993087Y-43450937D01*
X43683888Y-43760136D01*
X43145973Y-43760136D01*
X42836774Y-43450937D01*
X42720295Y-43450937D01*
X42411096Y-43760136D01*
X41605619Y-43760136D01*
X41533501Y-43730264D01*
X41533489Y-43730261D01*
X41378845Y-43699500D01*
X41378842Y-43699500D01*
X41221158Y-43699500D01*
X41221155Y-43699500D01*
X41066510Y-43730261D01*
X41066498Y-43730264D01*
X40920827Y-43790602D01*
X40920814Y-43790609D01*
X40789711Y-43878210D01*
X40789707Y-43878213D01*
X40678213Y-43989707D01*
X40678210Y-43989711D01*
X40590609Y-44120814D01*
X40590602Y-44120827D01*
X40530264Y-44266498D01*
X40530261Y-44266510D01*
X40499500Y-44421153D01*
X39963993Y-44421153D01*
X39963993Y-44396532D01*
X39654794Y-44087333D01*
X39538315Y-44087333D01*
X39229115Y-44396533D01*
X38691201Y-44396533D01*
X38679069Y-44384401D01*
X38629802Y-44394202D01*
X38623789Y-44395245D01*
X38621360Y-44395605D01*
X38615337Y-44396348D01*
X38600769Y-44397783D01*
X38594674Y-44398232D01*
X38592222Y-44398352D01*
X38586161Y-44398500D01*
X38413839Y-44398500D01*
X38407778Y-44398352D01*
X38405326Y-44398232D01*
X38399231Y-44397783D01*
X38384663Y-44396348D01*
X38378640Y-44395605D01*
X38376211Y-44395245D01*
X38370199Y-44394202D01*
X38201187Y-44360583D01*
X38195220Y-44359243D01*
X38192839Y-44358646D01*
X38186998Y-44357029D01*
X38172989Y-44352779D01*
X38167237Y-44350879D01*
X38164927Y-44350053D01*
X38159225Y-44347854D01*
X38050172Y-44302683D01*
X37956323Y-44396533D01*
X37418409Y-44396533D01*
X37109209Y-44087333D01*
X36992730Y-44087333D01*
X36683531Y-44396532D01*
X36145616Y-44396532D01*
X35836417Y-44087333D01*
X35719938Y-44087333D01*
X35410738Y-44396533D01*
X34872825Y-44396533D01*
X34563625Y-44087333D01*
X34447146Y-44087333D01*
X34137946Y-44396533D01*
X33600032Y-44396533D01*
X33600032Y-44396532D01*
X33290833Y-44087333D01*
X33174354Y-44087333D01*
X32865154Y-44396533D01*
X32327240Y-44396533D01*
X32327240Y-44396532D01*
X32018041Y-44087333D01*
X31901561Y-44087333D01*
X31592362Y-44396532D01*
X31054447Y-44396532D01*
X30745248Y-44087333D01*
X30628769Y-44087333D01*
X30319570Y-44396532D01*
X29781655Y-44396532D01*
X29472456Y-44087333D01*
X29355977Y-44087333D01*
X29046777Y-44396533D01*
X28508864Y-44396533D01*
X28199664Y-44087333D01*
X28083185Y-44087333D01*
X27773985Y-44396533D01*
X27236071Y-44396533D01*
X27236071Y-44396532D01*
X26926872Y-44087333D01*
X26810393Y-44087333D01*
X26501193Y-44396533D01*
X25963279Y-44396533D01*
X25963279Y-44396532D01*
X25798500Y-44231753D01*
X25798500Y-44677791D01*
X25500500Y-44677791D01*
X25500500Y-43760137D01*
X25864797Y-43760137D01*
X25864797Y-43876615D01*
X26173997Y-44185815D01*
X26290476Y-44185815D01*
X26599675Y-43876616D01*
X26599675Y-43760137D01*
X27137589Y-43760137D01*
X27137589Y-43876615D01*
X27446789Y-44185815D01*
X27563268Y-44185815D01*
X27872467Y-43876616D01*
X27872467Y-43760137D01*
X28410381Y-43760137D01*
X28410381Y-43876615D01*
X28719581Y-44185815D01*
X28836060Y-44185815D01*
X29145260Y-43876615D01*
X29145260Y-43760137D01*
X29683173Y-43760137D01*
X29683173Y-43876615D01*
X29992373Y-44185815D01*
X30108852Y-44185815D01*
X30418052Y-43876615D01*
X30418052Y-43760137D01*
X30418051Y-43760136D01*
X30955966Y-43760136D01*
X30955966Y-43876616D01*
X31265165Y-44185815D01*
X31381644Y-44185815D01*
X31690844Y-43876615D01*
X31690844Y-43760137D01*
X32228758Y-43760137D01*
X32228758Y-43876615D01*
X32537958Y-44185815D01*
X32654437Y-44185815D01*
X32963636Y-43876616D01*
X32963636Y-43760137D01*
X33501550Y-43760137D01*
X33501550Y-43876615D01*
X33810750Y-44185815D01*
X33927229Y-44185815D01*
X34236429Y-43876615D01*
X34236429Y-43760137D01*
X34774342Y-43760137D01*
X34774342Y-43876615D01*
X35083542Y-44185815D01*
X35200021Y-44185815D01*
X35509221Y-43876615D01*
X35509221Y-43760137D01*
X36047134Y-43760137D01*
X36047134Y-43876615D01*
X36356334Y-44185815D01*
X36472813Y-44185815D01*
X36782013Y-43876615D01*
X36782013Y-43760137D01*
X36782012Y-43760136D01*
X37319927Y-43760136D01*
X37319927Y-43876616D01*
X37629126Y-44185815D01*
X37745605Y-44185815D01*
X37789082Y-44142337D01*
X37788567Y-44141870D01*
X37784169Y-44137682D01*
X37662318Y-44015831D01*
X37658130Y-44011433D01*
X37656481Y-44009614D01*
X37652497Y-44004996D01*
X37643211Y-43993681D01*
X37639478Y-43988898D01*
X37638015Y-43986926D01*
X37634499Y-43981935D01*
X37538761Y-43838654D01*
X37535498Y-43833501D01*
X37534236Y-43831395D01*
X37531241Y-43826107D01*
X37524341Y-43813197D01*
X37521596Y-43807743D01*
X37520547Y-43805524D01*
X37518091Y-43799981D01*
X37452146Y-43640775D01*
X37449947Y-43635073D01*
X37449121Y-43632763D01*
X37448668Y-43631394D01*
X37319927Y-43760136D01*
X36782012Y-43760136D01*
X36472813Y-43450937D01*
X36356334Y-43450937D01*
X36047134Y-43760137D01*
X35509221Y-43760137D01*
X35200021Y-43450937D01*
X35083542Y-43450937D01*
X34774342Y-43760137D01*
X34236429Y-43760137D01*
X33927229Y-43450937D01*
X33810750Y-43450937D01*
X33501550Y-43760137D01*
X32963636Y-43760137D01*
X32963636Y-43760136D01*
X32654437Y-43450937D01*
X32537958Y-43450937D01*
X32228758Y-43760137D01*
X31690844Y-43760137D01*
X31381644Y-43450937D01*
X31265165Y-43450937D01*
X30955966Y-43760136D01*
X30418051Y-43760136D01*
X30108852Y-43450937D01*
X29992373Y-43450937D01*
X29683173Y-43760137D01*
X29145260Y-43760137D01*
X28836060Y-43450937D01*
X28719581Y-43450937D01*
X28410381Y-43760137D01*
X27872467Y-43760137D01*
X27872467Y-43760136D01*
X27563268Y-43450937D01*
X27446789Y-43450937D01*
X27137589Y-43760137D01*
X26599675Y-43760137D01*
X26599675Y-43760136D01*
X26290476Y-43450937D01*
X26173997Y-43450937D01*
X25864797Y-43760137D01*
X25500500Y-43760137D01*
X25500500Y-43404999D01*
X25798500Y-43404999D01*
X25963279Y-43240220D01*
X25963279Y-43123741D01*
X26501193Y-43123741D01*
X26501193Y-43240219D01*
X26810393Y-43549419D01*
X26926872Y-43549419D01*
X27236071Y-43240220D01*
X27236071Y-43123741D01*
X27773985Y-43123741D01*
X27773985Y-43240219D01*
X28083185Y-43549419D01*
X28199664Y-43549419D01*
X28508864Y-43240219D01*
X28508864Y-43123741D01*
X29046777Y-43123741D01*
X29046777Y-43240219D01*
X29355977Y-43549419D01*
X29472456Y-43549419D01*
X29781656Y-43240219D01*
X29781656Y-43123741D01*
X30319570Y-43123741D01*
X30319570Y-43240220D01*
X30628769Y-43549419D01*
X30745248Y-43549419D01*
X31054448Y-43240219D01*
X31054448Y-43123741D01*
X31054447Y-43123740D01*
X31592362Y-43123740D01*
X31592362Y-43240220D01*
X31901561Y-43549419D01*
X32018041Y-43549419D01*
X32327240Y-43240220D01*
X32327240Y-43123741D01*
X32865154Y-43123741D01*
X32865154Y-43240219D01*
X33174354Y-43549419D01*
X33290833Y-43549419D01*
X33600032Y-43240220D01*
X33600032Y-43123741D01*
X34137946Y-43123741D01*
X34137946Y-43240219D01*
X34447146Y-43549419D01*
X34563625Y-43549419D01*
X34872825Y-43240219D01*
X34872825Y-43123741D01*
X35410738Y-43123741D01*
X35410738Y-43240219D01*
X35719938Y-43549419D01*
X35836417Y-43549419D01*
X36145617Y-43240219D01*
X36145617Y-43123741D01*
X36145616Y-43123740D01*
X36683531Y-43123740D01*
X36683531Y-43240220D01*
X36992730Y-43549419D01*
X37109209Y-43549419D01*
X37401500Y-43257128D01*
X37401500Y-43213839D01*
X37401648Y-43207778D01*
X37401768Y-43205326D01*
X37402217Y-43199231D01*
X37403652Y-43184663D01*
X37404395Y-43178640D01*
X37404755Y-43176211D01*
X37405798Y-43170199D01*
X37415598Y-43120930D01*
X37109209Y-42814541D01*
X36992730Y-42814541D01*
X36683531Y-43123740D01*
X36145616Y-43123740D01*
X35836417Y-42814541D01*
X35719938Y-42814541D01*
X35410738Y-43123741D01*
X34872825Y-43123741D01*
X34563625Y-42814541D01*
X34447146Y-42814541D01*
X34137946Y-43123741D01*
X33600032Y-43123741D01*
X33600032Y-43123740D01*
X33290833Y-42814541D01*
X33174354Y-42814541D01*
X32865154Y-43123741D01*
X32327240Y-43123741D01*
X32327240Y-43123740D01*
X32018041Y-42814541D01*
X31901561Y-42814541D01*
X31592362Y-43123740D01*
X31054447Y-43123740D01*
X30804377Y-42873670D01*
X30755761Y-42906156D01*
X30750608Y-42909419D01*
X30748502Y-42910681D01*
X30743214Y-42913676D01*
X30730304Y-42920576D01*
X30724850Y-42923321D01*
X30722631Y-42924370D01*
X30717088Y-42926826D01*
X30589730Y-42979580D01*
X30584056Y-42981769D01*
X30581745Y-42982596D01*
X30575957Y-42984508D01*
X30561948Y-42988757D01*
X30556103Y-42990375D01*
X30553721Y-42990972D01*
X30547766Y-42992309D01*
X30426975Y-43016335D01*
X30319570Y-43123741D01*
X29781656Y-43123741D01*
X29472456Y-42814541D01*
X29355977Y-42814541D01*
X29046777Y-43123741D01*
X28508864Y-43123741D01*
X28199664Y-42814541D01*
X28083185Y-42814541D01*
X27773985Y-43123741D01*
X27236071Y-43123741D01*
X27236071Y-43123740D01*
X26926872Y-42814541D01*
X26810393Y-42814541D01*
X26501193Y-43123741D01*
X25963279Y-43123741D01*
X25963279Y-43123740D01*
X25798500Y-42958961D01*
X25798500Y-43404999D01*
X25500500Y-43404999D01*
X25500500Y-42487345D01*
X25864797Y-42487345D01*
X25864797Y-42603823D01*
X26173997Y-42913023D01*
X26290476Y-42913023D01*
X26599675Y-42603824D01*
X26599675Y-42487345D01*
X27137589Y-42487345D01*
X27137589Y-42603823D01*
X27446789Y-42913023D01*
X27563268Y-42913023D01*
X27872467Y-42603824D01*
X27872467Y-42487345D01*
X28410381Y-42487345D01*
X28410381Y-42603823D01*
X28719581Y-42913023D01*
X28836060Y-42913023D01*
X29145260Y-42603823D01*
X29145260Y-42487345D01*
X28836060Y-42178145D01*
X28719581Y-42178145D01*
X28410381Y-42487345D01*
X27872467Y-42487345D01*
X27872467Y-42487344D01*
X27563268Y-42178145D01*
X27446789Y-42178145D01*
X27137589Y-42487345D01*
X26599675Y-42487345D01*
X26599675Y-42487344D01*
X26290476Y-42178145D01*
X26173997Y-42178145D01*
X25864797Y-42487345D01*
X25500500Y-42487345D01*
X25500500Y-42132207D01*
X25798500Y-42132207D01*
X25963279Y-41967428D01*
X25963279Y-41850948D01*
X26501193Y-41850948D01*
X26501193Y-41967427D01*
X26810393Y-42276627D01*
X26926872Y-42276627D01*
X27236071Y-41967428D01*
X27236071Y-41850948D01*
X27773985Y-41850948D01*
X27773985Y-41967427D01*
X28083185Y-42276627D01*
X28199664Y-42276627D01*
X28508864Y-41967427D01*
X28508864Y-41850948D01*
X29046777Y-41850948D01*
X29046777Y-41967427D01*
X29355977Y-42276627D01*
X29393541Y-42276627D01*
X29380798Y-42212563D01*
X29379756Y-42206559D01*
X29379396Y-42204131D01*
X29378652Y-42198100D01*
X29377217Y-42183533D01*
X29376768Y-42177438D01*
X29376648Y-42174986D01*
X29376500Y-42168925D01*
X29376500Y-42038389D01*
X29674500Y-42038389D01*
X29674500Y-42161610D01*
X29696290Y-42271155D01*
X29698537Y-42282452D01*
X29701913Y-42290602D01*
X29745687Y-42396283D01*
X29745692Y-42396292D01*
X29814141Y-42498732D01*
X29814144Y-42498736D01*
X29901263Y-42585855D01*
X29901267Y-42585858D01*
X30003707Y-42654307D01*
X30003713Y-42654310D01*
X30003714Y-42654311D01*
X30117548Y-42701463D01*
X30238389Y-42725499D01*
X30238393Y-42725500D01*
X30238394Y-42725500D01*
X30361607Y-42725500D01*
X30361608Y-42725499D01*
X30482452Y-42701463D01*
X30547512Y-42674514D01*
X31026656Y-42674514D01*
X31265165Y-42913023D01*
X31381644Y-42913023D01*
X31690844Y-42603823D01*
X31690844Y-42487345D01*
X32228758Y-42487345D01*
X32228758Y-42603823D01*
X32537958Y-42913023D01*
X32654437Y-42913023D01*
X32963636Y-42603824D01*
X32963636Y-42487345D01*
X33501550Y-42487345D01*
X33501550Y-42603823D01*
X33810750Y-42913023D01*
X33927229Y-42913023D01*
X34236429Y-42603823D01*
X34236429Y-42487345D01*
X34774342Y-42487345D01*
X34774342Y-42603823D01*
X35083542Y-42913023D01*
X35200021Y-42913023D01*
X35509221Y-42603823D01*
X35509221Y-42562999D01*
X36047134Y-42562999D01*
X36047134Y-42603823D01*
X36356334Y-42913023D01*
X36472813Y-42913023D01*
X36782013Y-42603823D01*
X36782013Y-42563498D01*
X37319927Y-42563498D01*
X37319927Y-42603824D01*
X37517514Y-42801411D01*
X37518091Y-42800019D01*
X37520547Y-42794476D01*
X37521596Y-42792257D01*
X37524341Y-42786803D01*
X37531241Y-42773893D01*
X37534236Y-42768605D01*
X37535498Y-42766499D01*
X37538761Y-42761346D01*
X37634499Y-42618065D01*
X37638015Y-42613074D01*
X37639478Y-42611102D01*
X37643211Y-42606319D01*
X37652497Y-42595004D01*
X37656481Y-42590386D01*
X37658130Y-42588567D01*
X37662318Y-42584169D01*
X37682988Y-42563498D01*
X37638135Y-42563499D01*
X37634805Y-42563454D01*
X37633465Y-42563418D01*
X37630146Y-42563285D01*
X37622175Y-42562857D01*
X37618902Y-42562637D01*
X37617569Y-42562530D01*
X37614228Y-42562217D01*
X37599993Y-42560685D01*
X37585769Y-42562216D01*
X37582428Y-42562529D01*
X37581095Y-42562636D01*
X37577823Y-42562856D01*
X37569854Y-42563284D01*
X37566534Y-42563417D01*
X37565194Y-42563453D01*
X37561864Y-42563498D01*
X37319927Y-42563498D01*
X36782013Y-42563498D01*
X36782013Y-42562562D01*
X36781097Y-42562636D01*
X36777825Y-42562856D01*
X36769856Y-42563284D01*
X36766536Y-42563417D01*
X36765196Y-42563453D01*
X36761866Y-42563498D01*
X36438138Y-42563499D01*
X36434808Y-42563454D01*
X36433468Y-42563418D01*
X36430149Y-42563285D01*
X36422179Y-42562857D01*
X36418914Y-42562638D01*
X36417580Y-42562531D01*
X36414232Y-42562217D01*
X36397654Y-42560433D01*
X36385727Y-42561717D01*
X36382377Y-42562031D01*
X36381043Y-42562138D01*
X36377778Y-42562357D01*
X36369808Y-42562785D01*
X36366489Y-42562918D01*
X36365149Y-42562954D01*
X36361819Y-42562999D01*
X36047134Y-42562999D01*
X35509221Y-42562999D01*
X35509221Y-42487345D01*
X35200021Y-42178145D01*
X35083542Y-42178145D01*
X34774342Y-42487345D01*
X34236429Y-42487345D01*
X33927229Y-42178145D01*
X33810750Y-42178145D01*
X33501550Y-42487345D01*
X32963636Y-42487345D01*
X32963636Y-42487344D01*
X32654437Y-42178145D01*
X32537958Y-42178145D01*
X32228758Y-42487345D01*
X31690844Y-42487345D01*
X31381644Y-42178145D01*
X31265165Y-42178145D01*
X31216335Y-42226974D01*
X31192309Y-42347766D01*
X31190972Y-42353721D01*
X31190375Y-42356103D01*
X31188757Y-42361948D01*
X31184508Y-42375957D01*
X31182596Y-42381745D01*
X31181769Y-42384056D01*
X31179580Y-42389730D01*
X31126826Y-42517088D01*
X31124370Y-42522631D01*
X31123321Y-42524850D01*
X31120576Y-42530304D01*
X31113676Y-42543214D01*
X31110681Y-42548502D01*
X31109419Y-42550608D01*
X31106156Y-42555761D01*
X31029570Y-42670379D01*
X31026656Y-42674514D01*
X30547512Y-42674514D01*
X30596286Y-42654311D01*
X30698733Y-42585858D01*
X30785858Y-42498733D01*
X30854311Y-42396286D01*
X30901463Y-42282452D01*
X30925500Y-42161606D01*
X30925500Y-42038394D01*
X30901463Y-41917548D01*
X30873876Y-41850948D01*
X31592362Y-41850948D01*
X31592362Y-41967428D01*
X31901561Y-42276627D01*
X32018041Y-42276627D01*
X32327240Y-41967428D01*
X32327240Y-41850948D01*
X32865154Y-41850948D01*
X32865154Y-41967427D01*
X33174354Y-42276627D01*
X33290833Y-42276627D01*
X33600032Y-41967428D01*
X33600032Y-41850948D01*
X34137946Y-41850948D01*
X34137946Y-41967427D01*
X34447146Y-42276627D01*
X34563625Y-42276627D01*
X34872825Y-41967427D01*
X34872825Y-41913317D01*
X34793797Y-41883841D01*
X34785642Y-41880463D01*
X34782393Y-41878980D01*
X34774453Y-41875007D01*
X34755750Y-41864794D01*
X34748144Y-41860282D01*
X34745139Y-41858351D01*
X34737863Y-41853298D01*
X34605705Y-41754364D01*
X34598807Y-41748806D01*
X34596108Y-41746467D01*
X34589636Y-41740440D01*
X34574569Y-41725373D01*
X34568542Y-41718901D01*
X34566203Y-41716202D01*
X34560645Y-41709304D01*
X34461711Y-41577146D01*
X34456658Y-41569870D01*
X34454727Y-41566865D01*
X34450215Y-41559259D01*
X34442946Y-41545948D01*
X34137946Y-41850948D01*
X33600032Y-41850948D01*
X33290833Y-41541749D01*
X33174354Y-41541749D01*
X32865154Y-41850948D01*
X32327240Y-41850948D01*
X32018041Y-41541749D01*
X31901561Y-41541749D01*
X31592362Y-41850948D01*
X30873876Y-41850948D01*
X30854311Y-41803714D01*
X30854310Y-41803713D01*
X30854307Y-41803707D01*
X30785858Y-41701267D01*
X30785855Y-41701263D01*
X30698736Y-41614144D01*
X30698732Y-41614141D01*
X30596292Y-41545692D01*
X30596283Y-41545687D01*
X30482454Y-41498538D01*
X30482455Y-41498538D01*
X30482452Y-41498537D01*
X30482448Y-41498536D01*
X30482444Y-41498535D01*
X30361610Y-41474500D01*
X30361606Y-41474500D01*
X30238394Y-41474500D01*
X30238389Y-41474500D01*
X30117555Y-41498535D01*
X30117545Y-41498538D01*
X30003716Y-41545687D01*
X30003707Y-41545692D01*
X29901267Y-41614141D01*
X29901263Y-41614144D01*
X29814144Y-41701263D01*
X29814141Y-41701267D01*
X29745692Y-41803707D01*
X29745687Y-41803716D01*
X29698538Y-41917545D01*
X29698535Y-41917555D01*
X29674500Y-42038389D01*
X29376500Y-42038389D01*
X29376500Y-42031075D01*
X29376648Y-42025014D01*
X29376768Y-42022562D01*
X29377217Y-42016467D01*
X29378652Y-42001900D01*
X29379396Y-41995869D01*
X29379756Y-41993441D01*
X29380798Y-41987437D01*
X29407691Y-41852234D01*
X29409028Y-41846279D01*
X29409625Y-41843897D01*
X29411243Y-41838052D01*
X29415492Y-41824043D01*
X29417404Y-41818255D01*
X29418231Y-41815944D01*
X29420420Y-41810270D01*
X29473174Y-41682912D01*
X29475630Y-41677369D01*
X29476679Y-41675150D01*
X29479424Y-41669696D01*
X29486324Y-41656786D01*
X29489319Y-41651498D01*
X29490581Y-41649392D01*
X29493844Y-41644239D01*
X29526329Y-41595622D01*
X29472456Y-41541749D01*
X29355977Y-41541749D01*
X29046777Y-41850948D01*
X28508864Y-41850948D01*
X28199664Y-41541749D01*
X28083185Y-41541749D01*
X27773985Y-41850948D01*
X27236071Y-41850948D01*
X26926872Y-41541749D01*
X26810393Y-41541749D01*
X26501193Y-41850948D01*
X25963279Y-41850948D01*
X25798500Y-41686169D01*
X25798500Y-42132207D01*
X25500500Y-42132207D01*
X25500500Y-41214552D01*
X25864797Y-41214552D01*
X25864797Y-41331031D01*
X26173997Y-41640231D01*
X26290476Y-41640231D01*
X26599675Y-41331031D01*
X26599675Y-41214552D01*
X27137589Y-41214552D01*
X27137589Y-41331031D01*
X27446789Y-41640231D01*
X27563268Y-41640231D01*
X27872467Y-41331031D01*
X27872467Y-41214552D01*
X28410381Y-41214552D01*
X28410381Y-41331031D01*
X28719581Y-41640231D01*
X28836060Y-41640231D01*
X29145260Y-41331031D01*
X29145260Y-41214552D01*
X29683173Y-41214552D01*
X29683173Y-41331031D01*
X29725485Y-41373343D01*
X29729621Y-41370430D01*
X29844239Y-41293844D01*
X29849392Y-41290581D01*
X29851498Y-41289319D01*
X29856786Y-41286324D01*
X29869696Y-41279424D01*
X29875150Y-41276679D01*
X29877369Y-41275630D01*
X29882912Y-41273174D01*
X30010270Y-41220420D01*
X30015944Y-41218231D01*
X30018255Y-41217404D01*
X30024043Y-41215492D01*
X30027142Y-41214552D01*
X30955966Y-41214552D01*
X30955966Y-41331031D01*
X31265165Y-41640231D01*
X31381644Y-41640231D01*
X31690844Y-41331031D01*
X31690844Y-41214552D01*
X32228758Y-41214552D01*
X32228758Y-41331031D01*
X32537958Y-41640231D01*
X32654437Y-41640231D01*
X32963636Y-41331031D01*
X32963636Y-41214552D01*
X33501550Y-41214552D01*
X33501550Y-41331031D01*
X33810750Y-41640231D01*
X33927229Y-41640231D01*
X34236429Y-41331031D01*
X34236429Y-41214552D01*
X34234721Y-41212844D01*
X34650009Y-41212844D01*
X34656410Y-41272372D01*
X34656412Y-41272379D01*
X34706654Y-41407086D01*
X34706658Y-41407093D01*
X34792818Y-41522187D01*
X34792821Y-41522190D01*
X34907915Y-41608350D01*
X34907922Y-41608354D01*
X35042629Y-41658596D01*
X35042636Y-41658598D01*
X35102164Y-41664999D01*
X35102181Y-41665000D01*
X35150009Y-41665000D01*
X35150009Y-40990000D01*
X34650009Y-40990000D01*
X34650009Y-41212844D01*
X34234721Y-41212844D01*
X33927229Y-40905353D01*
X33810750Y-40905353D01*
X33501550Y-41214552D01*
X32963636Y-41214552D01*
X32654437Y-40905353D01*
X32537958Y-40905353D01*
X32228758Y-41214552D01*
X31690844Y-41214552D01*
X31381644Y-40905353D01*
X31265165Y-40905353D01*
X30955966Y-41214552D01*
X30027142Y-41214552D01*
X30038052Y-41211243D01*
X30043897Y-41209625D01*
X30046279Y-41209028D01*
X30052234Y-41207691D01*
X30187437Y-41180798D01*
X30193441Y-41179756D01*
X30195869Y-41179396D01*
X30201900Y-41178652D01*
X30216467Y-41177217D01*
X30222562Y-41176768D01*
X30225014Y-41176648D01*
X30231075Y-41176500D01*
X30368925Y-41176500D01*
X30374986Y-41176648D01*
X30377438Y-41176768D01*
X30380492Y-41176993D01*
X30108852Y-40905353D01*
X29992373Y-40905353D01*
X29683173Y-41214552D01*
X29145260Y-41214552D01*
X28836060Y-40905353D01*
X28719581Y-40905353D01*
X28410381Y-41214552D01*
X27872467Y-41214552D01*
X27563268Y-40905353D01*
X27446789Y-40905353D01*
X27137589Y-41214552D01*
X26599675Y-41214552D01*
X26290476Y-40905353D01*
X26173997Y-40905353D01*
X25864797Y-41214552D01*
X25500500Y-41214552D01*
X25500500Y-40859414D01*
X25798500Y-40859414D01*
X25963279Y-40694635D01*
X25963279Y-40578156D01*
X26501193Y-40578156D01*
X26501193Y-40694635D01*
X26810393Y-41003835D01*
X26926872Y-41003835D01*
X27236071Y-40694635D01*
X27236071Y-40578156D01*
X27773985Y-40578156D01*
X27773985Y-40694635D01*
X28083185Y-41003835D01*
X28199664Y-41003835D01*
X28508864Y-40694635D01*
X28508864Y-40578156D01*
X29046777Y-40578156D01*
X29046777Y-40694635D01*
X29355977Y-41003835D01*
X29472456Y-41003835D01*
X29781656Y-40694635D01*
X29781656Y-40578156D01*
X30319570Y-40578156D01*
X30319570Y-40694635D01*
X30628769Y-41003835D01*
X30745248Y-41003835D01*
X31054448Y-40694635D01*
X31054448Y-40578156D01*
X31592362Y-40578156D01*
X31592362Y-40694635D01*
X31901561Y-41003835D01*
X32018041Y-41003835D01*
X32327240Y-40694635D01*
X32327240Y-40578156D01*
X32865154Y-40578156D01*
X32865154Y-40694635D01*
X33174354Y-41003835D01*
X33290833Y-41003835D01*
X33600032Y-40694635D01*
X33600032Y-40578156D01*
X34137946Y-40578156D01*
X34137946Y-40694635D01*
X34355326Y-40912015D01*
X34361448Y-40881239D01*
X34369060Y-40862862D01*
X34395940Y-40822634D01*
X34478574Y-40740000D01*
X34395940Y-40657366D01*
X34369060Y-40617138D01*
X34361448Y-40598761D01*
X34352009Y-40551308D01*
X34352009Y-40364093D01*
X34137946Y-40578156D01*
X33600032Y-40578156D01*
X33290833Y-40268957D01*
X33174354Y-40268957D01*
X32865154Y-40578156D01*
X32327240Y-40578156D01*
X32018041Y-40268957D01*
X31901561Y-40268957D01*
X31592362Y-40578156D01*
X31054448Y-40578156D01*
X30745248Y-40268957D01*
X30628769Y-40268957D01*
X30319570Y-40578156D01*
X29781656Y-40578156D01*
X29472456Y-40268957D01*
X29355977Y-40268957D01*
X29046777Y-40578156D01*
X28508864Y-40578156D01*
X28199664Y-40268957D01*
X28083185Y-40268957D01*
X27773985Y-40578156D01*
X27236071Y-40578156D01*
X26926872Y-40268957D01*
X26810393Y-40268957D01*
X26501193Y-40578156D01*
X25963279Y-40578156D01*
X25798500Y-40413377D01*
X25798500Y-40859414D01*
X25500500Y-40859414D01*
X25500500Y-39941760D01*
X25864797Y-39941760D01*
X25864797Y-40058239D01*
X26173997Y-40367439D01*
X26290476Y-40367439D01*
X26599675Y-40058239D01*
X26599675Y-39941760D01*
X27137589Y-39941760D01*
X27137589Y-40058239D01*
X27446789Y-40367439D01*
X27563268Y-40367439D01*
X27872467Y-40058239D01*
X27872467Y-39941760D01*
X28410381Y-39941760D01*
X28410381Y-40058239D01*
X28719581Y-40367439D01*
X28836060Y-40367439D01*
X29145260Y-40058239D01*
X29145260Y-39941760D01*
X29683173Y-39941760D01*
X29683173Y-40058239D01*
X29992373Y-40367439D01*
X30108852Y-40367439D01*
X30418052Y-40058239D01*
X30418052Y-39941760D01*
X30418051Y-39941759D01*
X30955966Y-39941759D01*
X30955966Y-40058239D01*
X31265165Y-40367439D01*
X31381644Y-40367439D01*
X31690844Y-40058239D01*
X31690844Y-39941760D01*
X32228758Y-39941760D01*
X32228758Y-40058239D01*
X32537958Y-40367439D01*
X32654437Y-40367439D01*
X32963636Y-40058239D01*
X32963636Y-39941760D01*
X33501550Y-39941760D01*
X33501550Y-40058239D01*
X33810750Y-40367439D01*
X33927229Y-40367439D01*
X34236429Y-40058239D01*
X34236429Y-39941760D01*
X34027513Y-39732844D01*
X34650009Y-39732844D01*
X34656410Y-39792372D01*
X34656412Y-39792379D01*
X34706654Y-39927086D01*
X34710906Y-39934872D01*
X34709350Y-39935721D01*
X34730025Y-39991153D01*
X34715173Y-40059426D01*
X34707495Y-40071373D01*
X34706654Y-40072913D01*
X34656412Y-40207620D01*
X34656410Y-40207627D01*
X34650009Y-40267155D01*
X34650009Y-40490000D01*
X35150009Y-40490000D01*
X35150009Y-39510000D01*
X34650009Y-39510000D01*
X34650009Y-39732844D01*
X34027513Y-39732844D01*
X33927229Y-39632560D01*
X33810750Y-39632560D01*
X33501550Y-39941760D01*
X32963636Y-39941760D01*
X32963636Y-39941759D01*
X32654437Y-39632560D01*
X32537958Y-39632560D01*
X32228758Y-39941760D01*
X31690844Y-39941760D01*
X31381644Y-39632560D01*
X31265165Y-39632560D01*
X30955966Y-39941759D01*
X30418051Y-39941759D01*
X30108852Y-39632560D01*
X29992373Y-39632560D01*
X29683173Y-39941760D01*
X29145260Y-39941760D01*
X28836060Y-39632560D01*
X28719581Y-39632560D01*
X28410381Y-39941760D01*
X27872467Y-39941760D01*
X27872467Y-39941759D01*
X27563268Y-39632560D01*
X27446789Y-39632560D01*
X27137589Y-39941760D01*
X26599675Y-39941760D01*
X26599675Y-39941759D01*
X26290476Y-39632560D01*
X26173997Y-39632560D01*
X25864797Y-39941760D01*
X25500500Y-39941760D01*
X25500500Y-39586622D01*
X25798500Y-39586622D01*
X25963279Y-39421843D01*
X25963279Y-39305364D01*
X26501193Y-39305364D01*
X26501193Y-39421843D01*
X26810393Y-39731043D01*
X26926872Y-39731043D01*
X27236071Y-39421843D01*
X27236071Y-39305364D01*
X27773985Y-39305364D01*
X27773985Y-39421843D01*
X28083185Y-39731043D01*
X28199664Y-39731043D01*
X28508864Y-39421843D01*
X28508864Y-39305364D01*
X29046777Y-39305364D01*
X29046777Y-39421843D01*
X29355977Y-39731043D01*
X29472456Y-39731043D01*
X29781656Y-39421843D01*
X29781656Y-39305364D01*
X29781655Y-39305363D01*
X30319570Y-39305363D01*
X30319570Y-39421843D01*
X30628769Y-39731043D01*
X30745248Y-39731043D01*
X31054448Y-39421843D01*
X31054448Y-39305364D01*
X31054447Y-39305363D01*
X31592362Y-39305363D01*
X31592362Y-39421843D01*
X31901561Y-39731043D01*
X32018041Y-39731043D01*
X32327240Y-39421843D01*
X32327240Y-39305364D01*
X32865154Y-39305364D01*
X32865154Y-39421843D01*
X33174354Y-39731043D01*
X33290833Y-39731043D01*
X33600032Y-39421843D01*
X33600032Y-39305364D01*
X34137946Y-39305364D01*
X34137946Y-39421843D01*
X34352009Y-39635906D01*
X34352009Y-39448692D01*
X34361448Y-39401239D01*
X34369060Y-39382862D01*
X34395940Y-39342634D01*
X34478574Y-39260000D01*
X34395940Y-39177366D01*
X34369060Y-39137138D01*
X34361448Y-39118761D01*
X34355326Y-39087983D01*
X34137946Y-39305364D01*
X33600032Y-39305364D01*
X33600032Y-39305363D01*
X33290833Y-38996164D01*
X33174354Y-38996164D01*
X32865154Y-39305364D01*
X32327240Y-39305364D01*
X32327240Y-39305363D01*
X32018041Y-38996164D01*
X31901561Y-38996164D01*
X31592362Y-39305363D01*
X31054447Y-39305363D01*
X30745248Y-38996164D01*
X30628769Y-38996164D01*
X30319570Y-39305363D01*
X29781655Y-39305363D01*
X29472456Y-38996164D01*
X29355977Y-38996164D01*
X29046777Y-39305364D01*
X28508864Y-39305364D01*
X28199664Y-38996164D01*
X28083185Y-38996164D01*
X27773985Y-39305364D01*
X27236071Y-39305364D01*
X27236071Y-39305363D01*
X26926872Y-38996164D01*
X26810393Y-38996164D01*
X26501193Y-39305364D01*
X25963279Y-39305364D01*
X25963279Y-39305363D01*
X25798500Y-39140584D01*
X25798500Y-39586622D01*
X25500500Y-39586622D01*
X25500500Y-38668968D01*
X25864797Y-38668968D01*
X25864797Y-38785447D01*
X26173997Y-39094647D01*
X26290476Y-39094647D01*
X26599675Y-38785447D01*
X26599675Y-38668968D01*
X27137589Y-38668968D01*
X27137589Y-38785447D01*
X27446789Y-39094647D01*
X27563268Y-39094647D01*
X27872467Y-38785447D01*
X27872467Y-38668968D01*
X28410381Y-38668968D01*
X28410381Y-38785447D01*
X28719581Y-39094647D01*
X28836060Y-39094647D01*
X29145260Y-38785447D01*
X29145260Y-38668968D01*
X29683173Y-38668968D01*
X29683173Y-38785447D01*
X29992373Y-39094647D01*
X30108852Y-39094647D01*
X30418052Y-38785447D01*
X30418052Y-38668968D01*
X30418051Y-38668967D01*
X30955966Y-38668967D01*
X30955966Y-38785447D01*
X31265165Y-39094647D01*
X31381644Y-39094647D01*
X31690844Y-38785447D01*
X31690844Y-38668968D01*
X32228758Y-38668968D01*
X32228758Y-38785447D01*
X32537958Y-39094647D01*
X32654437Y-39094647D01*
X32963636Y-38785447D01*
X32963636Y-38668968D01*
X33501550Y-38668968D01*
X33501550Y-38785447D01*
X33810750Y-39094647D01*
X33927229Y-39094647D01*
X34234721Y-38787155D01*
X34650009Y-38787155D01*
X34650009Y-39010000D01*
X35150009Y-39010000D01*
X35150009Y-38335000D01*
X35102164Y-38335000D01*
X35042636Y-38341401D01*
X35042629Y-38341403D01*
X34907922Y-38391645D01*
X34907915Y-38391649D01*
X34792821Y-38477809D01*
X34792818Y-38477812D01*
X34706658Y-38592906D01*
X34706654Y-38592913D01*
X34656412Y-38727620D01*
X34656410Y-38727627D01*
X34650009Y-38787155D01*
X34234721Y-38787155D01*
X34236429Y-38785447D01*
X34236429Y-38668968D01*
X33927229Y-38359768D01*
X33810750Y-38359768D01*
X33501550Y-38668968D01*
X32963636Y-38668968D01*
X32963636Y-38668967D01*
X32654437Y-38359768D01*
X32537958Y-38359768D01*
X32228758Y-38668968D01*
X31690844Y-38668968D01*
X31381644Y-38359768D01*
X31265165Y-38359768D01*
X30955966Y-38668967D01*
X30418051Y-38668967D01*
X30108852Y-38359768D01*
X29992373Y-38359768D01*
X29683173Y-38668968D01*
X29145260Y-38668968D01*
X28836060Y-38359768D01*
X28719581Y-38359768D01*
X28410381Y-38668968D01*
X27872467Y-38668968D01*
X27872467Y-38668967D01*
X27563268Y-38359768D01*
X27446789Y-38359768D01*
X27137589Y-38668968D01*
X26599675Y-38668968D01*
X26599675Y-38668967D01*
X26290476Y-38359768D01*
X26173997Y-38359768D01*
X25864797Y-38668968D01*
X25500500Y-38668968D01*
X25500500Y-38313830D01*
X25798500Y-38313830D01*
X25963279Y-38149051D01*
X25963279Y-38032572D01*
X26501193Y-38032572D01*
X26501193Y-38149051D01*
X26810393Y-38458251D01*
X26926872Y-38458251D01*
X27236071Y-38149051D01*
X27236071Y-38032572D01*
X27773985Y-38032572D01*
X27773985Y-38149051D01*
X28083185Y-38458251D01*
X28199664Y-38458251D01*
X28508864Y-38149051D01*
X28508864Y-38032572D01*
X29046777Y-38032572D01*
X29046777Y-38149051D01*
X29355977Y-38458251D01*
X29472456Y-38458251D01*
X29781656Y-38149051D01*
X29781656Y-38032572D01*
X29781655Y-38032571D01*
X30319570Y-38032571D01*
X30319570Y-38149051D01*
X30628769Y-38458251D01*
X30745248Y-38458251D01*
X31005271Y-38198227D01*
X30999231Y-38197783D01*
X30984663Y-38196348D01*
X30978640Y-38195605D01*
X30976211Y-38195245D01*
X30970199Y-38194202D01*
X30801187Y-38160583D01*
X30795220Y-38159243D01*
X30792839Y-38158646D01*
X30786998Y-38157029D01*
X30772989Y-38152779D01*
X30767237Y-38150879D01*
X30764927Y-38150053D01*
X30759225Y-38147854D01*
X30607636Y-38085064D01*
X31592362Y-38085064D01*
X31592362Y-38149051D01*
X31901561Y-38458251D01*
X32018041Y-38458251D01*
X32327240Y-38149051D01*
X32327240Y-38032572D01*
X32865154Y-38032572D01*
X32865154Y-38149051D01*
X33174354Y-38458251D01*
X33290833Y-38458251D01*
X33600032Y-38149051D01*
X33600032Y-38032572D01*
X34137946Y-38032572D01*
X34137946Y-38149051D01*
X34442946Y-38454051D01*
X34450215Y-38440741D01*
X34454727Y-38433135D01*
X34456658Y-38430130D01*
X34461711Y-38422854D01*
X34560645Y-38290696D01*
X34566203Y-38283798D01*
X34568542Y-38281099D01*
X34574569Y-38274627D01*
X34589636Y-38259560D01*
X34596108Y-38253533D01*
X34598807Y-38251194D01*
X34605705Y-38245636D01*
X34683824Y-38187156D01*
X35590000Y-38187156D01*
X35590000Y-38205000D01*
X35613690Y-38228690D01*
X35647175Y-38290013D01*
X35650009Y-38316371D01*
X35650009Y-41683629D01*
X35630324Y-41750668D01*
X35613690Y-41771310D01*
X35590000Y-41795000D01*
X35590000Y-41812843D01*
X35596401Y-41872371D01*
X35596403Y-41872378D01*
X35646645Y-42007085D01*
X35646649Y-42007092D01*
X35732809Y-42122186D01*
X35732812Y-42122189D01*
X35847906Y-42208349D01*
X35847913Y-42208353D01*
X35982620Y-42258595D01*
X35982627Y-42258597D01*
X36042155Y-42264998D01*
X36042172Y-42264999D01*
X36357819Y-42264999D01*
X36357833Y-42264998D01*
X36384396Y-42262142D01*
X36410906Y-42262142D01*
X36442129Y-42265499D01*
X36757874Y-42265498D01*
X36786745Y-42262394D01*
X36813251Y-42262394D01*
X36842128Y-42265499D01*
X37157873Y-42265498D01*
X37186744Y-42262394D01*
X37213250Y-42262394D01*
X37242127Y-42265499D01*
X37557872Y-42265498D01*
X37586743Y-42262394D01*
X37613249Y-42262394D01*
X37642126Y-42265499D01*
X37957871Y-42265498D01*
X37957874Y-42265497D01*
X37957882Y-42265497D01*
X37974775Y-42263680D01*
X37986743Y-42262394D01*
X38013251Y-42262394D01*
X38042128Y-42265499D01*
X38338571Y-42265498D01*
X38405610Y-42285182D01*
X38451365Y-42337986D01*
X38461309Y-42407145D01*
X38432284Y-42470700D01*
X38373506Y-42508475D01*
X38362763Y-42511115D01*
X38266508Y-42530261D01*
X38266498Y-42530264D01*
X38120827Y-42590602D01*
X38120814Y-42590609D01*
X37989711Y-42678210D01*
X37989707Y-42678213D01*
X37878213Y-42789707D01*
X37878210Y-42789711D01*
X37790609Y-42920814D01*
X37790602Y-42920827D01*
X37730264Y-43066498D01*
X37730261Y-43066510D01*
X37699500Y-43221153D01*
X37699500Y-43378846D01*
X37730261Y-43533489D01*
X37730264Y-43533501D01*
X37790602Y-43679172D01*
X37790609Y-43679185D01*
X37878210Y-43810288D01*
X37878213Y-43810292D01*
X37989707Y-43921786D01*
X37989711Y-43921789D01*
X38120814Y-44009390D01*
X38120827Y-44009397D01*
X38266498Y-44069735D01*
X38266503Y-44069737D01*
X38421153Y-44100499D01*
X38421156Y-44100500D01*
X38421158Y-44100500D01*
X38578844Y-44100500D01*
X38578845Y-44100499D01*
X38733497Y-44069737D01*
X38863639Y-44015831D01*
X38879172Y-44009397D01*
X38879172Y-44009396D01*
X38879179Y-44009394D01*
X39010289Y-43921789D01*
X39121789Y-43810289D01*
X39155300Y-43760137D01*
X39865511Y-43760137D01*
X39865511Y-43876615D01*
X40174711Y-44185815D01*
X40243330Y-44185815D01*
X40247221Y-44172989D01*
X40249121Y-44167237D01*
X40249947Y-44164927D01*
X40252146Y-44159225D01*
X40318091Y-44000019D01*
X40320547Y-43994476D01*
X40321596Y-43992257D01*
X40324341Y-43986803D01*
X40331241Y-43973893D01*
X40334236Y-43968605D01*
X40335498Y-43966499D01*
X40338761Y-43961346D01*
X40434499Y-43818065D01*
X40438015Y-43813074D01*
X40439478Y-43811102D01*
X40443211Y-43806319D01*
X40452497Y-43795004D01*
X40456481Y-43790386D01*
X40458130Y-43788567D01*
X40462318Y-43784169D01*
X40543370Y-43703117D01*
X40291190Y-43450937D01*
X40174711Y-43450937D01*
X39865511Y-43760137D01*
X39155300Y-43760137D01*
X39209394Y-43679179D01*
X39269737Y-43533497D01*
X39300500Y-43378842D01*
X39300500Y-43221158D01*
X39300500Y-43221155D01*
X39300499Y-43221153D01*
X39299044Y-43213839D01*
X39269737Y-43066503D01*
X39246120Y-43009486D01*
X39209397Y-42920827D01*
X39209390Y-42920814D01*
X39162189Y-42850173D01*
X39502683Y-42850173D01*
X39547854Y-42959225D01*
X39550053Y-42964927D01*
X39550879Y-42967237D01*
X39552779Y-42972989D01*
X39557029Y-42986998D01*
X39558646Y-42992839D01*
X39559243Y-42995220D01*
X39560583Y-43001187D01*
X39594202Y-43170199D01*
X39595245Y-43176211D01*
X39595605Y-43178640D01*
X39596348Y-43184663D01*
X39597783Y-43199231D01*
X39598232Y-43205326D01*
X39598352Y-43207778D01*
X39598500Y-43213839D01*
X39598500Y-43386161D01*
X39598352Y-43392222D01*
X39598232Y-43394674D01*
X39597783Y-43400769D01*
X39596348Y-43415337D01*
X39595605Y-43421360D01*
X39595245Y-43423789D01*
X39594202Y-43429801D01*
X39570408Y-43549419D01*
X39654794Y-43549419D01*
X39963993Y-43240220D01*
X39963993Y-43123741D01*
X40501907Y-43123741D01*
X40501907Y-43240219D01*
X40786298Y-43524610D01*
X40786803Y-43524341D01*
X40792257Y-43521596D01*
X40794476Y-43520547D01*
X40800019Y-43518091D01*
X40959225Y-43452146D01*
X40964927Y-43449947D01*
X40967237Y-43449121D01*
X40972989Y-43447221D01*
X40986998Y-43442971D01*
X40992839Y-43441354D01*
X40995220Y-43440757D01*
X41001185Y-43439417D01*
X41046625Y-43430377D01*
X41236786Y-43240218D01*
X41236786Y-43123741D01*
X41774699Y-43123741D01*
X41774699Y-43240219D01*
X42083899Y-43549419D01*
X42200378Y-43549419D01*
X42509578Y-43240219D01*
X42509578Y-43123741D01*
X42509577Y-43123740D01*
X43047492Y-43123740D01*
X43047492Y-43240220D01*
X43356691Y-43549419D01*
X43473170Y-43549419D01*
X43782370Y-43240219D01*
X43782370Y-43123741D01*
X43782369Y-43123740D01*
X44320284Y-43123740D01*
X44320284Y-43240220D01*
X44629483Y-43549419D01*
X44745963Y-43549419D01*
X45055162Y-43240220D01*
X45055162Y-43123741D01*
X45593076Y-43123741D01*
X45593076Y-43240219D01*
X45902276Y-43549419D01*
X46018755Y-43549419D01*
X46327954Y-43240220D01*
X46327954Y-43123741D01*
X46865868Y-43123741D01*
X46865868Y-43240219D01*
X47175068Y-43549419D01*
X47291547Y-43549419D01*
X47600747Y-43240219D01*
X47600747Y-43123741D01*
X48138660Y-43123741D01*
X48138660Y-43240219D01*
X48447860Y-43549419D01*
X48564339Y-43549419D01*
X48687538Y-43426219D01*
X48652146Y-43340775D01*
X48649947Y-43335073D01*
X48649121Y-43332763D01*
X48647221Y-43327011D01*
X48642971Y-43313002D01*
X48641354Y-43307161D01*
X48640757Y-43304780D01*
X48639417Y-43298813D01*
X48605798Y-43129801D01*
X48604755Y-43123789D01*
X48604395Y-43121360D01*
X48603652Y-43115337D01*
X48602217Y-43100769D01*
X48601768Y-43094674D01*
X48601648Y-43092222D01*
X48601500Y-43086161D01*
X48601500Y-42921153D01*
X48899500Y-42921153D01*
X48899500Y-43078846D01*
X48930261Y-43233489D01*
X48930264Y-43233501D01*
X48990602Y-43379172D01*
X48990609Y-43379185D01*
X49078210Y-43510288D01*
X49078213Y-43510292D01*
X49189707Y-43621786D01*
X49189711Y-43621789D01*
X49320814Y-43709390D01*
X49320827Y-43709397D01*
X49422793Y-43751632D01*
X49466503Y-43769737D01*
X49593528Y-43795004D01*
X49621153Y-43800499D01*
X49621156Y-43800500D01*
X49621158Y-43800500D01*
X49778844Y-43800500D01*
X49778845Y-43800499D01*
X49933497Y-43769737D01*
X50063639Y-43715831D01*
X50079172Y-43709397D01*
X50079172Y-43709396D01*
X50079179Y-43709394D01*
X50210289Y-43621789D01*
X50321789Y-43510289D01*
X50409394Y-43379179D01*
X50436805Y-43313003D01*
X50757028Y-43313003D01*
X50993445Y-43549419D01*
X51109924Y-43549419D01*
X51419123Y-43240220D01*
X51419123Y-43123741D01*
X51957037Y-43123741D01*
X51957037Y-43240219D01*
X52110654Y-43393837D01*
X52119875Y-43391623D01*
X52124644Y-43390576D01*
X52126570Y-43390193D01*
X52131357Y-43389339D01*
X52352876Y-43354254D01*
X52357679Y-43353589D01*
X52359628Y-43353358D01*
X52364490Y-43352879D01*
X52376162Y-43351960D01*
X52381035Y-43351672D01*
X52382998Y-43351595D01*
X52387858Y-43351500D01*
X52580634Y-43351500D01*
X52691915Y-43240219D01*
X52691915Y-43123741D01*
X53229829Y-43123741D01*
X53229829Y-43240219D01*
X53539029Y-43549419D01*
X53655508Y-43549419D01*
X53964708Y-43240219D01*
X53964708Y-43123741D01*
X53655508Y-42814541D01*
X53539029Y-42814541D01*
X53229829Y-43123741D01*
X52691915Y-43123741D01*
X52691915Y-43123740D01*
X52382716Y-42814541D01*
X52266237Y-42814541D01*
X51957037Y-43123741D01*
X51419123Y-43123741D01*
X51419123Y-43123740D01*
X51109924Y-42814541D01*
X50993445Y-42814541D01*
X50798500Y-43009486D01*
X50798500Y-43086161D01*
X50798352Y-43092222D01*
X50798232Y-43094674D01*
X50797783Y-43100769D01*
X50796348Y-43115337D01*
X50795605Y-43121360D01*
X50795245Y-43123789D01*
X50794202Y-43129801D01*
X50760583Y-43298813D01*
X50759243Y-43304780D01*
X50758646Y-43307161D01*
X50757029Y-43313002D01*
X50757028Y-43313003D01*
X50436805Y-43313003D01*
X50469737Y-43233497D01*
X50500500Y-43078842D01*
X50500500Y-42921158D01*
X50500500Y-42921155D01*
X50500499Y-42921153D01*
X50498165Y-42909419D01*
X50469737Y-42766503D01*
X50442796Y-42701461D01*
X50409397Y-42620827D01*
X50409390Y-42620814D01*
X50321789Y-42489711D01*
X50321786Y-42489707D01*
X50210292Y-42378213D01*
X50210288Y-42378210D01*
X50079185Y-42290609D01*
X50079172Y-42290602D01*
X49933501Y-42230264D01*
X49933489Y-42230261D01*
X49778845Y-42199500D01*
X49778842Y-42199500D01*
X49621158Y-42199500D01*
X49621155Y-42199500D01*
X49466510Y-42230261D01*
X49466498Y-42230264D01*
X49320827Y-42290602D01*
X49320814Y-42290609D01*
X49189711Y-42378210D01*
X49189707Y-42378213D01*
X49078213Y-42489707D01*
X49078210Y-42489711D01*
X48990609Y-42620814D01*
X48990602Y-42620827D01*
X48930264Y-42766498D01*
X48930261Y-42766510D01*
X48899500Y-42921153D01*
X48601500Y-42921153D01*
X48601500Y-42913839D01*
X48601648Y-42907778D01*
X48601768Y-42905326D01*
X48602217Y-42899231D01*
X48603652Y-42884663D01*
X48604395Y-42878640D01*
X48604755Y-42876211D01*
X48605798Y-42870199D01*
X48608153Y-42858355D01*
X48564339Y-42814541D01*
X48447860Y-42814541D01*
X48138660Y-43123741D01*
X47600747Y-43123741D01*
X47291547Y-42814541D01*
X47175068Y-42814541D01*
X46865868Y-43123741D01*
X46327954Y-43123741D01*
X46327954Y-43123740D01*
X46018755Y-42814541D01*
X45902276Y-42814541D01*
X45593076Y-43123741D01*
X45055162Y-43123741D01*
X45055162Y-43123740D01*
X44745963Y-42814541D01*
X44629483Y-42814541D01*
X44320284Y-43123740D01*
X43782369Y-43123740D01*
X43473170Y-42814541D01*
X43356691Y-42814541D01*
X43047492Y-43123740D01*
X42509577Y-43123740D01*
X42200378Y-42814541D01*
X42083899Y-42814541D01*
X41774699Y-43123741D01*
X41236786Y-43123741D01*
X40927586Y-42814541D01*
X40811107Y-42814541D01*
X40501907Y-43123741D01*
X39963993Y-43123741D01*
X39963993Y-43123740D01*
X39654794Y-42814541D01*
X39538316Y-42814541D01*
X39502683Y-42850173D01*
X39162189Y-42850173D01*
X39121789Y-42789711D01*
X39121786Y-42789707D01*
X39010292Y-42678213D01*
X39010288Y-42678210D01*
X38879185Y-42590609D01*
X38879172Y-42590602D01*
X38813736Y-42563498D01*
X39865511Y-42563498D01*
X39865511Y-42603823D01*
X40174711Y-42913023D01*
X40291190Y-42913023D01*
X40600390Y-42603823D01*
X40600390Y-42563498D01*
X41138303Y-42563498D01*
X41138303Y-42603823D01*
X41447503Y-42913023D01*
X41563982Y-42913023D01*
X41873182Y-42603823D01*
X41873182Y-42563498D01*
X41638135Y-42563499D01*
X41634805Y-42563454D01*
X41633465Y-42563418D01*
X41630146Y-42563285D01*
X41622175Y-42562857D01*
X41618902Y-42562637D01*
X41617569Y-42562530D01*
X41614228Y-42562217D01*
X41611087Y-42561879D01*
X42411096Y-42561879D01*
X42411096Y-42603824D01*
X42720295Y-42913023D01*
X42836774Y-42913023D01*
X43145974Y-42603823D01*
X43145974Y-42563498D01*
X42838135Y-42563499D01*
X42834805Y-42563454D01*
X42833465Y-42563418D01*
X42830146Y-42563285D01*
X42824820Y-42562999D01*
X43683888Y-42562999D01*
X43683888Y-42603824D01*
X43993087Y-42913023D01*
X44109566Y-42913023D01*
X44418766Y-42603823D01*
X44418766Y-42487345D01*
X44956680Y-42487345D01*
X44956680Y-42603823D01*
X45265880Y-42913023D01*
X45382359Y-42913023D01*
X45691558Y-42603824D01*
X45691558Y-42487344D01*
X46229472Y-42487344D01*
X46229472Y-42603823D01*
X46538672Y-42913023D01*
X46655151Y-42913023D01*
X46964351Y-42603823D01*
X46964351Y-42487345D01*
X47502264Y-42487345D01*
X47502264Y-42603823D01*
X47811464Y-42913023D01*
X47927943Y-42913023D01*
X48237143Y-42603823D01*
X48237143Y-42487345D01*
X47927943Y-42178145D01*
X47811464Y-42178145D01*
X47502264Y-42487345D01*
X46964351Y-42487345D01*
X46670942Y-42193936D01*
X46540775Y-42247854D01*
X46535073Y-42250053D01*
X46532763Y-42250879D01*
X46527011Y-42252779D01*
X46513002Y-42257029D01*
X46507161Y-42258646D01*
X46504780Y-42259243D01*
X46498813Y-42260583D01*
X46445660Y-42271155D01*
X46229472Y-42487344D01*
X45691558Y-42487344D01*
X45382359Y-42178145D01*
X45265880Y-42178145D01*
X44956680Y-42487345D01*
X44418766Y-42487345D01*
X44357930Y-42426509D01*
X44322147Y-42453297D01*
X44314870Y-42458350D01*
X44311865Y-42460281D01*
X44304259Y-42464793D01*
X44285556Y-42475006D01*
X44277616Y-42478979D01*
X44274367Y-42480462D01*
X44266212Y-42483840D01*
X44112784Y-42541066D01*
X44105423Y-42543551D01*
X44102431Y-42544458D01*
X44094968Y-42546469D01*
X44076830Y-42550754D01*
X44069278Y-42552292D01*
X44066199Y-42552820D01*
X44058496Y-42553893D01*
X43985715Y-42561718D01*
X43982444Y-42562026D01*
X43981107Y-42562134D01*
X43977742Y-42562360D01*
X43969773Y-42562786D01*
X43966494Y-42562918D01*
X43965158Y-42562954D01*
X43961818Y-42562999D01*
X43683888Y-42562999D01*
X42824820Y-42562999D01*
X42822175Y-42562857D01*
X42818902Y-42562637D01*
X42817569Y-42562530D01*
X42814228Y-42562217D01*
X42799993Y-42560685D01*
X42785769Y-42562216D01*
X42782428Y-42562529D01*
X42781095Y-42562636D01*
X42777823Y-42562856D01*
X42769854Y-42563284D01*
X42766534Y-42563417D01*
X42765194Y-42563453D01*
X42761864Y-42563498D01*
X42438136Y-42563499D01*
X42434806Y-42563454D01*
X42433466Y-42563418D01*
X42430147Y-42563285D01*
X42422176Y-42562857D01*
X42418903Y-42562637D01*
X42417570Y-42562530D01*
X42414229Y-42562217D01*
X42411096Y-42561879D01*
X41611087Y-42561879D01*
X41599993Y-42560685D01*
X41585769Y-42562216D01*
X41582428Y-42562529D01*
X41581095Y-42562636D01*
X41577823Y-42562856D01*
X41569854Y-42563284D01*
X41566534Y-42563417D01*
X41565194Y-42563453D01*
X41561864Y-42563498D01*
X41238136Y-42563499D01*
X41234806Y-42563454D01*
X41233466Y-42563418D01*
X41230147Y-42563285D01*
X41222176Y-42562857D01*
X41218903Y-42562637D01*
X41217570Y-42562530D01*
X41214229Y-42562217D01*
X41199994Y-42560685D01*
X41185770Y-42562216D01*
X41182429Y-42562529D01*
X41181096Y-42562636D01*
X41177824Y-42562856D01*
X41169855Y-42563284D01*
X41166535Y-42563417D01*
X41165195Y-42563453D01*
X41161865Y-42563498D01*
X41138303Y-42563498D01*
X40600390Y-42563498D01*
X40438137Y-42563499D01*
X40434807Y-42563454D01*
X40433467Y-42563418D01*
X40430148Y-42563285D01*
X40422177Y-42562857D01*
X40418904Y-42562637D01*
X40417571Y-42562530D01*
X40414232Y-42562217D01*
X40399998Y-42560686D01*
X40385759Y-42562217D01*
X40382434Y-42562529D01*
X40381102Y-42562636D01*
X40377823Y-42562856D01*
X40369854Y-42563284D01*
X40366534Y-42563417D01*
X40365194Y-42563453D01*
X40361864Y-42563498D01*
X40038136Y-42563499D01*
X40034806Y-42563454D01*
X40033466Y-42563418D01*
X40030147Y-42563285D01*
X40022176Y-42562857D01*
X40018903Y-42562637D01*
X40017570Y-42562530D01*
X40014231Y-42562217D01*
X39999998Y-42560686D01*
X39985759Y-42562217D01*
X39982434Y-42562529D01*
X39981102Y-42562636D01*
X39977823Y-42562856D01*
X39969854Y-42563284D01*
X39966534Y-42563417D01*
X39965194Y-42563453D01*
X39961864Y-42563498D01*
X39865511Y-42563498D01*
X38813736Y-42563498D01*
X38733501Y-42530264D01*
X38733491Y-42530261D01*
X38637237Y-42511115D01*
X38575326Y-42478730D01*
X38540752Y-42418014D01*
X38544492Y-42348245D01*
X38585359Y-42291573D01*
X38650377Y-42265991D01*
X38661422Y-42265498D01*
X38757872Y-42265498D01*
X38786743Y-42262394D01*
X38813249Y-42262394D01*
X38842126Y-42265499D01*
X39157871Y-42265498D01*
X39157874Y-42265497D01*
X39157882Y-42265497D01*
X39174775Y-42263680D01*
X39186743Y-42262394D01*
X39213251Y-42262394D01*
X39242128Y-42265499D01*
X39557873Y-42265498D01*
X39586744Y-42262394D01*
X39613250Y-42262394D01*
X39642127Y-42265499D01*
X39957872Y-42265498D01*
X39986752Y-42262393D01*
X40013250Y-42262393D01*
X40042127Y-42265499D01*
X40357872Y-42265498D01*
X40386752Y-42262393D01*
X40413250Y-42262393D01*
X40442128Y-42265499D01*
X40757873Y-42265498D01*
X40786753Y-42262393D01*
X40813251Y-42262393D01*
X40842128Y-42265499D01*
X41157873Y-42265498D01*
X41186744Y-42262394D01*
X41213250Y-42262394D01*
X41242127Y-42265499D01*
X41557872Y-42265498D01*
X41586743Y-42262394D01*
X41613249Y-42262394D01*
X41642126Y-42265499D01*
X41957871Y-42265498D01*
X41957874Y-42265497D01*
X41957882Y-42265497D01*
X41974775Y-42263680D01*
X41986743Y-42262394D01*
X42013251Y-42262394D01*
X42042128Y-42265499D01*
X42357873Y-42265498D01*
X42386744Y-42262394D01*
X42413250Y-42262394D01*
X42442127Y-42265499D01*
X42757872Y-42265498D01*
X42786743Y-42262394D01*
X42813249Y-42262394D01*
X42842126Y-42265499D01*
X43157871Y-42265498D01*
X43157874Y-42265497D01*
X43157882Y-42265497D01*
X43174775Y-42263680D01*
X43186743Y-42262394D01*
X43213251Y-42262394D01*
X43242128Y-42265499D01*
X43557873Y-42265498D01*
X43557874Y-42265497D01*
X43557886Y-42265497D01*
X43580111Y-42263107D01*
X43589092Y-42262142D01*
X43615605Y-42262142D01*
X43642167Y-42264998D01*
X43642182Y-42264999D01*
X43957828Y-42264999D01*
X43957844Y-42264998D01*
X44017372Y-42258597D01*
X44017379Y-42258595D01*
X44131039Y-42216203D01*
X44569059Y-42216203D01*
X44629483Y-42276627D01*
X44745963Y-42276627D01*
X44995054Y-42027536D01*
X46925976Y-42027536D01*
X47175068Y-42276627D01*
X47291547Y-42276627D01*
X47600747Y-41967427D01*
X47600747Y-41850948D01*
X48138660Y-41850948D01*
X48138660Y-41967427D01*
X48447860Y-42276627D01*
X48564339Y-42276627D01*
X48662821Y-42178145D01*
X50431658Y-42178145D01*
X50537682Y-42284169D01*
X50541870Y-42288567D01*
X50543519Y-42290386D01*
X50547503Y-42295004D01*
X50556789Y-42306319D01*
X50560522Y-42311102D01*
X50561985Y-42313074D01*
X50565501Y-42318065D01*
X50661239Y-42461346D01*
X50664502Y-42466499D01*
X50665764Y-42468605D01*
X50668759Y-42473893D01*
X50675659Y-42486803D01*
X50678404Y-42492257D01*
X50679453Y-42494476D01*
X50681909Y-42500019D01*
X50741841Y-42644709D01*
X50782727Y-42603823D01*
X50782727Y-42487345D01*
X51320641Y-42487345D01*
X51320641Y-42603823D01*
X51629841Y-42913023D01*
X51746320Y-42913023D01*
X52055519Y-42603824D01*
X52055519Y-42487345D01*
X52593433Y-42487345D01*
X52593433Y-42603823D01*
X52902633Y-42913023D01*
X53019112Y-42913023D01*
X53328312Y-42603823D01*
X53328312Y-42487345D01*
X53866225Y-42487345D01*
X53866225Y-42603823D01*
X54175425Y-42913023D01*
X54201500Y-42913023D01*
X54201500Y-42178145D01*
X54175425Y-42178145D01*
X53866225Y-42487345D01*
X53328312Y-42487345D01*
X53019112Y-42178145D01*
X52902633Y-42178145D01*
X52593433Y-42487345D01*
X52055519Y-42487345D01*
X52055519Y-42487344D01*
X51746320Y-42178145D01*
X51629841Y-42178145D01*
X51320641Y-42487345D01*
X50782727Y-42487345D01*
X50782727Y-42487344D01*
X50473528Y-42178145D01*
X50431658Y-42178145D01*
X48662821Y-42178145D01*
X48873539Y-41967427D01*
X48873539Y-41850948D01*
X49411453Y-41850948D01*
X49411453Y-41937374D01*
X49570199Y-41905798D01*
X49576211Y-41904755D01*
X49578640Y-41904395D01*
X49584663Y-41903652D01*
X49599231Y-41902217D01*
X49605326Y-41901768D01*
X49607778Y-41901648D01*
X49613839Y-41901500D01*
X49786161Y-41901500D01*
X49792222Y-41901648D01*
X49794674Y-41901768D01*
X49800769Y-41902217D01*
X49815337Y-41903652D01*
X49821360Y-41904395D01*
X49823789Y-41904755D01*
X49829801Y-41905798D01*
X49998813Y-41939417D01*
X50004780Y-41940757D01*
X50007161Y-41941354D01*
X50013002Y-41942971D01*
X50027011Y-41947221D01*
X50032763Y-41949121D01*
X50035073Y-41949947D01*
X50040775Y-41952146D01*
X50126219Y-41987538D01*
X50146331Y-41967426D01*
X50146331Y-41850948D01*
X50684245Y-41850948D01*
X50684245Y-41967427D01*
X50993445Y-42276627D01*
X51109924Y-42276627D01*
X51419123Y-41967428D01*
X51419123Y-41850948D01*
X51957037Y-41850948D01*
X51957037Y-41967427D01*
X52266237Y-42276627D01*
X52382716Y-42276627D01*
X52691915Y-41967428D01*
X52691915Y-41850948D01*
X53229829Y-41850948D01*
X53229829Y-41967427D01*
X53539029Y-42276627D01*
X53655508Y-42276627D01*
X53964708Y-41967427D01*
X53964708Y-41850948D01*
X53655508Y-41541749D01*
X53539029Y-41541749D01*
X53229829Y-41850948D01*
X52691915Y-41850948D01*
X52382716Y-41541749D01*
X52266237Y-41541749D01*
X51957037Y-41850948D01*
X51419123Y-41850948D01*
X51109924Y-41541749D01*
X50993445Y-41541749D01*
X50684245Y-41850948D01*
X50146331Y-41850948D01*
X49837131Y-41541749D01*
X49720652Y-41541749D01*
X49411453Y-41850948D01*
X48873539Y-41850948D01*
X48564339Y-41541749D01*
X48447860Y-41541749D01*
X48138660Y-41850948D01*
X47600747Y-41850948D01*
X47291547Y-41541749D01*
X47247451Y-41541749D01*
X47181909Y-41699981D01*
X47179453Y-41705524D01*
X47178404Y-41707743D01*
X47175659Y-41713197D01*
X47168759Y-41726107D01*
X47165764Y-41731395D01*
X47164502Y-41733501D01*
X47161239Y-41738654D01*
X47065501Y-41881935D01*
X47061985Y-41886926D01*
X47060522Y-41888898D01*
X47056789Y-41893681D01*
X47047503Y-41904996D01*
X47043519Y-41909614D01*
X47041870Y-41911433D01*
X47037682Y-41915831D01*
X46925976Y-42027536D01*
X44995054Y-42027536D01*
X45055162Y-41967428D01*
X45055162Y-41940179D01*
X45052784Y-41941066D01*
X45045423Y-41943552D01*
X45042431Y-41944459D01*
X45034968Y-41946470D01*
X45016830Y-41950755D01*
X45009278Y-41952293D01*
X45006199Y-41952821D01*
X44998496Y-41953894D01*
X44925715Y-41961719D01*
X44922444Y-41962027D01*
X44921107Y-41962135D01*
X44917742Y-41962361D01*
X44909773Y-41962787D01*
X44906494Y-41962919D01*
X44905158Y-41962955D01*
X44901818Y-41963000D01*
X44788692Y-41963000D01*
X44741239Y-41953561D01*
X44722862Y-41945949D01*
X44696470Y-41928314D01*
X44695755Y-41931829D01*
X44691470Y-41949967D01*
X44689459Y-41957430D01*
X44688552Y-41960422D01*
X44686067Y-41967783D01*
X44628841Y-42121211D01*
X44625463Y-42129366D01*
X44623980Y-42132615D01*
X44620007Y-42140555D01*
X44609794Y-42159258D01*
X44605282Y-42166864D01*
X44603351Y-42169869D01*
X44598298Y-42177146D01*
X44569059Y-42216203D01*
X44131039Y-42216203D01*
X44152086Y-42208353D01*
X44152093Y-42208349D01*
X44267187Y-42122189D01*
X44267190Y-42122186D01*
X44353350Y-42007092D01*
X44353354Y-42007085D01*
X44403596Y-41872378D01*
X44403598Y-41872371D01*
X44409999Y-41812843D01*
X44410000Y-41812826D01*
X44410000Y-41795000D01*
X44386319Y-41771319D01*
X44352834Y-41709996D01*
X44350000Y-41683638D01*
X44350000Y-40990000D01*
X44850000Y-40990000D01*
X44850000Y-41665000D01*
X44897828Y-41665000D01*
X44897844Y-41664999D01*
X44957372Y-41658598D01*
X44957379Y-41658596D01*
X45092086Y-41608354D01*
X45092093Y-41608350D01*
X45207186Y-41522191D01*
X45243954Y-41473076D01*
X45299888Y-41431205D01*
X45369579Y-41426221D01*
X45430902Y-41459706D01*
X45457782Y-41499935D01*
X45490602Y-41579172D01*
X45490609Y-41579185D01*
X45578210Y-41710288D01*
X45578213Y-41710292D01*
X45689707Y-41821786D01*
X45689711Y-41821789D01*
X45820814Y-41909390D01*
X45820827Y-41909397D01*
X45966498Y-41969735D01*
X45966503Y-41969737D01*
X46097877Y-41995869D01*
X46121153Y-42000499D01*
X46121156Y-42000500D01*
X46121158Y-42000500D01*
X46278844Y-42000500D01*
X46278845Y-42000499D01*
X46433497Y-41969737D01*
X46546166Y-41923067D01*
X46579172Y-41909397D01*
X46579172Y-41909396D01*
X46579179Y-41909394D01*
X46710289Y-41821789D01*
X46821789Y-41710289D01*
X46909394Y-41579179D01*
X46969737Y-41433497D01*
X47000500Y-41278842D01*
X47000500Y-41214552D01*
X47502264Y-41214552D01*
X47502264Y-41331031D01*
X47811464Y-41640231D01*
X47927943Y-41640231D01*
X48237143Y-41331031D01*
X48237143Y-41214552D01*
X48775057Y-41214552D01*
X48775057Y-41331031D01*
X49084256Y-41640231D01*
X49200735Y-41640231D01*
X49509935Y-41331031D01*
X49509935Y-41214552D01*
X50047849Y-41214552D01*
X50047849Y-41331031D01*
X50357048Y-41640231D01*
X50473528Y-41640231D01*
X50782727Y-41331031D01*
X50782727Y-41214552D01*
X51320641Y-41214552D01*
X51320641Y-41331031D01*
X51629841Y-41640231D01*
X51746320Y-41640231D01*
X52055519Y-41331031D01*
X52055519Y-41214552D01*
X52593433Y-41214552D01*
X52593433Y-41331031D01*
X52902633Y-41640231D01*
X53019112Y-41640231D01*
X53328312Y-41331031D01*
X53328312Y-41214552D01*
X53866225Y-41214552D01*
X53866225Y-41331031D01*
X54175425Y-41640231D01*
X54201500Y-41640231D01*
X54201500Y-40905353D01*
X54175425Y-40905353D01*
X53866225Y-41214552D01*
X53328312Y-41214552D01*
X53019112Y-40905353D01*
X52902633Y-40905353D01*
X52593433Y-41214552D01*
X52055519Y-41214552D01*
X51746320Y-40905353D01*
X51629841Y-40905353D01*
X51320641Y-41214552D01*
X50782727Y-41214552D01*
X50473528Y-40905353D01*
X50357048Y-40905353D01*
X50047849Y-41214552D01*
X49509935Y-41214552D01*
X49200735Y-40905353D01*
X49084256Y-40905353D01*
X48775057Y-41214552D01*
X48237143Y-41214552D01*
X47927943Y-40905353D01*
X47811464Y-40905353D01*
X47502264Y-41214552D01*
X47000500Y-41214552D01*
X47000500Y-41121158D01*
X47000500Y-41121155D01*
X47000499Y-41121153D01*
X46969738Y-40966510D01*
X46969737Y-40966503D01*
X46944408Y-40905353D01*
X46909397Y-40820827D01*
X46909390Y-40820814D01*
X46821789Y-40689711D01*
X46821786Y-40689707D01*
X46710292Y-40578213D01*
X46710288Y-40578210D01*
X46579185Y-40490609D01*
X46579172Y-40490602D01*
X46469693Y-40445255D01*
X46998768Y-40445255D01*
X47037682Y-40484169D01*
X47041870Y-40488567D01*
X47043519Y-40490386D01*
X47047503Y-40495004D01*
X47056789Y-40506319D01*
X47060522Y-40511102D01*
X47061985Y-40513074D01*
X47065501Y-40518065D01*
X47161239Y-40661346D01*
X47164502Y-40666499D01*
X47165764Y-40668605D01*
X47168759Y-40673893D01*
X47175659Y-40686803D01*
X47178404Y-40692257D01*
X47179453Y-40694476D01*
X47181909Y-40700019D01*
X47247854Y-40859225D01*
X47250053Y-40864927D01*
X47250879Y-40867237D01*
X47252779Y-40872989D01*
X47257029Y-40886998D01*
X47258646Y-40892839D01*
X47259243Y-40895220D01*
X47260583Y-40901187D01*
X47281001Y-41003835D01*
X47291547Y-41003835D01*
X47600747Y-40694635D01*
X47600747Y-40578156D01*
X48138660Y-40578156D01*
X48138660Y-40694635D01*
X48447860Y-41003835D01*
X48564339Y-41003835D01*
X48873539Y-40694635D01*
X48873539Y-40578156D01*
X49411453Y-40578156D01*
X49411453Y-40694635D01*
X49720652Y-41003835D01*
X49837131Y-41003835D01*
X50146331Y-40694635D01*
X50146331Y-40578156D01*
X50684245Y-40578156D01*
X50684245Y-40694635D01*
X50993445Y-41003835D01*
X51109924Y-41003835D01*
X51419123Y-40694635D01*
X51419123Y-40578156D01*
X51957037Y-40578156D01*
X51957037Y-40694635D01*
X52266237Y-41003835D01*
X52382716Y-41003835D01*
X52691915Y-40694635D01*
X52691915Y-40578156D01*
X53229829Y-40578156D01*
X53229829Y-40694635D01*
X53539029Y-41003835D01*
X53655508Y-41003835D01*
X53964708Y-40694635D01*
X53964708Y-40578156D01*
X53655508Y-40268957D01*
X53539029Y-40268957D01*
X53229829Y-40578156D01*
X52691915Y-40578156D01*
X52382716Y-40268957D01*
X52266237Y-40268957D01*
X51957037Y-40578156D01*
X51419123Y-40578156D01*
X51109924Y-40268957D01*
X50993445Y-40268957D01*
X50684245Y-40578156D01*
X50146331Y-40578156D01*
X49837131Y-40268957D01*
X49720652Y-40268957D01*
X49411453Y-40578156D01*
X48873539Y-40578156D01*
X48564339Y-40268957D01*
X48447860Y-40268957D01*
X48138660Y-40578156D01*
X47600747Y-40578156D01*
X47291547Y-40268957D01*
X47175068Y-40268957D01*
X46998768Y-40445255D01*
X46469693Y-40445255D01*
X46433501Y-40430264D01*
X46433489Y-40430261D01*
X46278845Y-40399500D01*
X46278842Y-40399500D01*
X46121158Y-40399500D01*
X46121155Y-40399500D01*
X45966510Y-40430261D01*
X45966498Y-40430264D01*
X45820827Y-40490602D01*
X45820814Y-40490609D01*
X45689711Y-40578210D01*
X45689707Y-40578213D01*
X45578213Y-40689707D01*
X45578210Y-40689711D01*
X45490609Y-40820814D01*
X45490602Y-40820827D01*
X45452237Y-40913452D01*
X45408397Y-40967856D01*
X45342103Y-40989921D01*
X45337676Y-40990000D01*
X44850000Y-40990000D01*
X44350000Y-40990000D01*
X44350000Y-40490000D01*
X44850000Y-40490000D01*
X45350000Y-40490000D01*
X45350000Y-40267172D01*
X45349999Y-40267155D01*
X45343598Y-40207627D01*
X45343597Y-40207623D01*
X45293350Y-40072906D01*
X45289101Y-40065124D01*
X45290658Y-40064273D01*
X45269984Y-40008857D01*
X45284574Y-39941760D01*
X46229472Y-39941760D01*
X46229472Y-40058239D01*
X46272733Y-40101500D01*
X46286161Y-40101500D01*
X46292222Y-40101648D01*
X46294674Y-40101768D01*
X46300769Y-40102217D01*
X46315337Y-40103652D01*
X46321360Y-40104395D01*
X46323789Y-40104755D01*
X46329801Y-40105798D01*
X46498813Y-40139417D01*
X46504780Y-40140757D01*
X46507161Y-40141354D01*
X46513002Y-40142971D01*
X46527011Y-40147221D01*
X46532763Y-40149121D01*
X46535073Y-40149947D01*
X46540775Y-40152146D01*
X46699981Y-40218091D01*
X46705524Y-40220547D01*
X46707743Y-40221596D01*
X46713197Y-40224341D01*
X46726107Y-40231241D01*
X46731395Y-40234236D01*
X46733501Y-40235498D01*
X46738654Y-40238761D01*
X46765733Y-40256855D01*
X46964351Y-40058238D01*
X46964351Y-39941760D01*
X47502264Y-39941760D01*
X47502264Y-40058239D01*
X47811464Y-40367439D01*
X47927943Y-40367439D01*
X48237143Y-40058239D01*
X48237143Y-39941760D01*
X48237142Y-39941759D01*
X48775057Y-39941759D01*
X48775057Y-40058239D01*
X49084256Y-40367439D01*
X49200735Y-40367439D01*
X49509935Y-40058239D01*
X49509935Y-39941760D01*
X49509934Y-39941759D01*
X50047849Y-39941759D01*
X50047849Y-40058239D01*
X50357048Y-40367439D01*
X50473528Y-40367439D01*
X50782727Y-40058239D01*
X50782727Y-39941760D01*
X51320641Y-39941760D01*
X51320641Y-40058239D01*
X51629841Y-40367439D01*
X51746320Y-40367439D01*
X52055519Y-40058239D01*
X52055519Y-39941760D01*
X52593433Y-39941760D01*
X52593433Y-40058239D01*
X52902633Y-40367439D01*
X53019112Y-40367439D01*
X53328312Y-40058239D01*
X53328312Y-39941760D01*
X53866225Y-39941760D01*
X53866225Y-40058239D01*
X54175425Y-40367439D01*
X54201500Y-40367439D01*
X54201500Y-39632560D01*
X54175425Y-39632560D01*
X53866225Y-39941760D01*
X53328312Y-39941760D01*
X53019112Y-39632560D01*
X52902633Y-39632560D01*
X52593433Y-39941760D01*
X52055519Y-39941760D01*
X52055519Y-39941759D01*
X51746320Y-39632560D01*
X51629841Y-39632560D01*
X51320641Y-39941760D01*
X50782727Y-39941760D01*
X50782727Y-39941759D01*
X50473528Y-39632560D01*
X50357048Y-39632560D01*
X50047849Y-39941759D01*
X49509934Y-39941759D01*
X49200735Y-39632560D01*
X49084256Y-39632560D01*
X48775057Y-39941759D01*
X48237142Y-39941759D01*
X47927943Y-39632560D01*
X47811464Y-39632560D01*
X47502264Y-39941760D01*
X46964351Y-39941760D01*
X46655151Y-39632560D01*
X46538672Y-39632560D01*
X46229472Y-39941760D01*
X45284574Y-39941760D01*
X45284830Y-39940583D01*
X45292514Y-39928625D01*
X45293350Y-39927093D01*
X45343597Y-39792376D01*
X45343598Y-39792372D01*
X45349999Y-39732844D01*
X45350000Y-39732827D01*
X45350000Y-39510000D01*
X44850000Y-39510000D01*
X44850000Y-40490000D01*
X44350000Y-40490000D01*
X44350000Y-39305364D01*
X45593076Y-39305364D01*
X45593076Y-39331641D01*
X45604069Y-39342634D01*
X45630949Y-39382862D01*
X45638561Y-39401239D01*
X45648000Y-39448692D01*
X45648000Y-39476767D01*
X45902276Y-39731043D01*
X46018755Y-39731043D01*
X46327954Y-39421843D01*
X46327954Y-39305364D01*
X46865868Y-39305364D01*
X46865868Y-39421843D01*
X47175068Y-39731043D01*
X47291547Y-39731043D01*
X47600747Y-39421843D01*
X47600747Y-39305364D01*
X48138660Y-39305364D01*
X48138660Y-39421843D01*
X48447860Y-39731043D01*
X48564339Y-39731043D01*
X48873539Y-39421843D01*
X48873539Y-39305364D01*
X48873538Y-39305363D01*
X49411453Y-39305363D01*
X49411453Y-39421843D01*
X49720652Y-39731043D01*
X49837131Y-39731043D01*
X50146331Y-39421843D01*
X50146331Y-39305364D01*
X50684245Y-39305364D01*
X50684245Y-39421843D01*
X50993445Y-39731043D01*
X51109924Y-39731043D01*
X51419123Y-39421843D01*
X51419123Y-39305364D01*
X51957037Y-39305364D01*
X51957037Y-39421843D01*
X52266237Y-39731043D01*
X52382716Y-39731043D01*
X52691915Y-39421843D01*
X52691915Y-39305364D01*
X53229829Y-39305364D01*
X53229829Y-39421843D01*
X53539029Y-39731043D01*
X53655508Y-39731043D01*
X53964708Y-39421843D01*
X53964708Y-39305364D01*
X53655508Y-38996164D01*
X53539029Y-38996164D01*
X53229829Y-39305364D01*
X52691915Y-39305364D01*
X52691915Y-39305363D01*
X52382716Y-38996164D01*
X52266237Y-38996164D01*
X51957037Y-39305364D01*
X51419123Y-39305364D01*
X51419123Y-39305363D01*
X51109924Y-38996164D01*
X50993445Y-38996164D01*
X50684245Y-39305364D01*
X50146331Y-39305364D01*
X49837131Y-38996164D01*
X49720652Y-38996164D01*
X49411453Y-39305363D01*
X48873538Y-39305363D01*
X48564339Y-38996164D01*
X48447860Y-38996164D01*
X48138660Y-39305364D01*
X47600747Y-39305364D01*
X47291547Y-38996164D01*
X47175068Y-38996164D01*
X46865868Y-39305364D01*
X46327954Y-39305364D01*
X46327954Y-39305363D01*
X46018755Y-38996164D01*
X45902276Y-38996164D01*
X45593076Y-39305364D01*
X44350000Y-39305364D01*
X44350000Y-39010000D01*
X44850000Y-39010000D01*
X45350000Y-39010000D01*
X45350000Y-38787172D01*
X45349999Y-38787155D01*
X45343598Y-38727627D01*
X45343596Y-38727620D01*
X45293354Y-38592913D01*
X45293350Y-38592906D01*
X45288465Y-38586381D01*
X45608971Y-38586381D01*
X45626067Y-38632216D01*
X45628552Y-38639577D01*
X45629459Y-38642569D01*
X45631470Y-38650032D01*
X45635755Y-38668170D01*
X45637293Y-38675722D01*
X45637821Y-38678801D01*
X45638894Y-38686504D01*
X45646719Y-38759285D01*
X45647027Y-38762556D01*
X45647135Y-38763893D01*
X45647361Y-38767258D01*
X45647787Y-38775227D01*
X45647919Y-38778506D01*
X45647955Y-38779842D01*
X45648000Y-38783182D01*
X45648000Y-38829005D01*
X45691558Y-38785447D01*
X45691558Y-38668968D01*
X46229472Y-38668968D01*
X46229472Y-38785447D01*
X46538672Y-39094647D01*
X46655151Y-39094647D01*
X46964351Y-38785447D01*
X46964351Y-38668968D01*
X47502264Y-38668968D01*
X47502264Y-38785447D01*
X47811464Y-39094647D01*
X47927943Y-39094647D01*
X48237143Y-38785447D01*
X48237143Y-38668968D01*
X48237142Y-38668967D01*
X48775057Y-38668967D01*
X48775057Y-38785447D01*
X49084256Y-39094647D01*
X49200735Y-39094647D01*
X49509935Y-38785447D01*
X49509935Y-38668968D01*
X49509934Y-38668967D01*
X50047849Y-38668967D01*
X50047849Y-38785447D01*
X50357048Y-39094647D01*
X50473528Y-39094647D01*
X50782727Y-38785447D01*
X50782727Y-38668968D01*
X51320641Y-38668968D01*
X51320641Y-38785447D01*
X51629841Y-39094647D01*
X51746320Y-39094647D01*
X52055519Y-38785447D01*
X52055519Y-38668968D01*
X52593433Y-38668968D01*
X52593433Y-38785447D01*
X52902633Y-39094647D01*
X53019112Y-39094647D01*
X53328312Y-38785447D01*
X53328312Y-38668968D01*
X53866225Y-38668968D01*
X53866225Y-38785447D01*
X54175425Y-39094647D01*
X54201500Y-39094647D01*
X54201500Y-38359768D01*
X54175425Y-38359768D01*
X53866225Y-38668968D01*
X53328312Y-38668968D01*
X53019112Y-38359768D01*
X52902633Y-38359768D01*
X52593433Y-38668968D01*
X52055519Y-38668968D01*
X52055519Y-38668967D01*
X51746320Y-38359768D01*
X51629841Y-38359768D01*
X51320641Y-38668968D01*
X50782727Y-38668968D01*
X50782727Y-38668967D01*
X50473528Y-38359768D01*
X50357048Y-38359768D01*
X50047849Y-38668967D01*
X49509934Y-38668967D01*
X49200735Y-38359768D01*
X49084256Y-38359768D01*
X48775057Y-38668967D01*
X48237142Y-38668967D01*
X47927943Y-38359768D01*
X47811464Y-38359768D01*
X47502264Y-38668968D01*
X46964351Y-38668968D01*
X46655151Y-38359768D01*
X46538672Y-38359768D01*
X46229472Y-38668968D01*
X45691558Y-38668968D01*
X45691558Y-38668967D01*
X45608971Y-38586381D01*
X45288465Y-38586381D01*
X45207190Y-38477812D01*
X45207187Y-38477809D01*
X45092093Y-38391649D01*
X45092086Y-38391645D01*
X44957379Y-38341403D01*
X44957372Y-38341401D01*
X44897844Y-38335000D01*
X44850000Y-38335000D01*
X44850000Y-39010000D01*
X44350000Y-39010000D01*
X44350000Y-38316362D01*
X44369685Y-38249323D01*
X44386319Y-38228681D01*
X44410000Y-38205000D01*
X44410000Y-38187173D01*
X44409999Y-38187156D01*
X44403598Y-38127628D01*
X44403596Y-38127621D01*
X44353354Y-37992914D01*
X44353350Y-37992907D01*
X44267190Y-37877813D01*
X44267187Y-37877810D01*
X44152093Y-37791650D01*
X44152086Y-37791646D01*
X44131039Y-37783796D01*
X44569058Y-37783796D01*
X44598298Y-37822855D01*
X44603351Y-37830131D01*
X44605282Y-37833136D01*
X44609794Y-37840742D01*
X44620007Y-37859445D01*
X44623980Y-37867385D01*
X44625463Y-37870634D01*
X44628841Y-37878789D01*
X44686067Y-38032217D01*
X44688552Y-38039578D01*
X44689459Y-38042570D01*
X44691470Y-38050033D01*
X44695755Y-38068171D01*
X44696470Y-38071685D01*
X44722862Y-38054051D01*
X44741239Y-38046439D01*
X44788692Y-38037000D01*
X44901818Y-38037000D01*
X44905158Y-38037045D01*
X44906494Y-38037081D01*
X44909773Y-38037213D01*
X44917742Y-38037639D01*
X44921107Y-38037865D01*
X44922444Y-38037973D01*
X44925715Y-38038281D01*
X44998496Y-38046106D01*
X45006199Y-38047179D01*
X45009278Y-38047707D01*
X45016830Y-38049245D01*
X45034968Y-38053530D01*
X45042431Y-38055541D01*
X45045423Y-38056448D01*
X45052784Y-38058933D01*
X45055162Y-38059819D01*
X45055162Y-38032572D01*
X45593076Y-38032572D01*
X45593076Y-38149051D01*
X45902276Y-38458251D01*
X46018755Y-38458251D01*
X46327954Y-38149051D01*
X46327954Y-38032572D01*
X46865868Y-38032572D01*
X46865868Y-38149051D01*
X47175068Y-38458251D01*
X47291547Y-38458251D01*
X47600747Y-38149051D01*
X47600747Y-38032572D01*
X48138660Y-38032572D01*
X48138660Y-38149051D01*
X48447860Y-38458251D01*
X48564339Y-38458251D01*
X48873539Y-38149051D01*
X48873539Y-38032572D01*
X48873538Y-38032571D01*
X49411453Y-38032571D01*
X49411453Y-38149051D01*
X49720652Y-38458251D01*
X49837131Y-38458251D01*
X50146331Y-38149051D01*
X50146331Y-38032572D01*
X50684245Y-38032572D01*
X50684245Y-38149051D01*
X50993445Y-38458251D01*
X51109924Y-38458251D01*
X51419123Y-38149051D01*
X51419123Y-38032572D01*
X51957037Y-38032572D01*
X51957037Y-38149051D01*
X52266237Y-38458251D01*
X52382716Y-38458251D01*
X52691915Y-38149051D01*
X52691915Y-38032572D01*
X53229829Y-38032572D01*
X53229829Y-38149051D01*
X53539029Y-38458251D01*
X53655508Y-38458251D01*
X53964708Y-38149051D01*
X53964708Y-38032572D01*
X53655508Y-37723372D01*
X53539029Y-37723372D01*
X53229829Y-38032572D01*
X52691915Y-38032572D01*
X52691915Y-38032571D01*
X52382716Y-37723372D01*
X52266237Y-37723372D01*
X51957037Y-38032572D01*
X51419123Y-38032572D01*
X51419123Y-38032571D01*
X51109924Y-37723372D01*
X50993445Y-37723372D01*
X50684245Y-38032572D01*
X50146331Y-38032572D01*
X49837131Y-37723372D01*
X49720652Y-37723372D01*
X49411453Y-38032571D01*
X48873538Y-38032571D01*
X48564339Y-37723372D01*
X48447860Y-37723372D01*
X48138660Y-38032572D01*
X47600747Y-38032572D01*
X47291547Y-37723372D01*
X47175068Y-37723372D01*
X46865868Y-38032572D01*
X46327954Y-38032572D01*
X46327954Y-38032571D01*
X46018755Y-37723372D01*
X45902276Y-37723372D01*
X45593076Y-38032572D01*
X45055162Y-38032572D01*
X45055162Y-38032571D01*
X44745963Y-37723372D01*
X44629483Y-37723372D01*
X44569058Y-37783796D01*
X44131039Y-37783796D01*
X44017379Y-37741404D01*
X44017372Y-37741402D01*
X43957844Y-37735001D01*
X43642165Y-37735001D01*
X43615599Y-37737857D01*
X43589093Y-37737857D01*
X43557874Y-37734501D01*
X43242132Y-37734501D01*
X43242120Y-37734502D01*
X43213254Y-37737605D01*
X43186750Y-37737605D01*
X43157873Y-37734501D01*
X42842130Y-37734501D01*
X42842118Y-37734502D01*
X42813254Y-37737605D01*
X42786749Y-37737605D01*
X42757874Y-37734501D01*
X42442131Y-37734501D01*
X42442119Y-37734502D01*
X42413255Y-37737605D01*
X42386750Y-37737605D01*
X42357875Y-37734501D01*
X42042132Y-37734501D01*
X42042120Y-37734502D01*
X42013254Y-37737605D01*
X41986750Y-37737605D01*
X41957873Y-37734501D01*
X41642130Y-37734501D01*
X41642118Y-37734502D01*
X41613254Y-37737605D01*
X41586749Y-37737605D01*
X41557874Y-37734501D01*
X41242131Y-37734501D01*
X41242119Y-37734502D01*
X41213255Y-37737605D01*
X41186750Y-37737605D01*
X41157875Y-37734501D01*
X40842132Y-37734501D01*
X40842120Y-37734502D01*
X40813255Y-37737605D01*
X40786750Y-37737605D01*
X40757876Y-37734501D01*
X40484500Y-37734501D01*
X40417461Y-37714816D01*
X40371706Y-37662012D01*
X40360500Y-37610501D01*
X40360500Y-37396176D01*
X41138303Y-37396176D01*
X41138303Y-37436501D01*
X41161862Y-37436501D01*
X41165200Y-37436546D01*
X41166537Y-37436582D01*
X41169817Y-37436714D01*
X41177787Y-37437140D01*
X41181160Y-37437366D01*
X41182496Y-37437474D01*
X41185754Y-37437781D01*
X41200002Y-37439312D01*
X41214254Y-37437781D01*
X41217501Y-37437476D01*
X41218836Y-37437368D01*
X41222215Y-37437141D01*
X41230183Y-37436715D01*
X41233463Y-37436583D01*
X41234799Y-37436547D01*
X41238139Y-37436502D01*
X41561861Y-37436501D01*
X41565199Y-37436546D01*
X41566536Y-37436582D01*
X41569816Y-37436714D01*
X41577786Y-37437140D01*
X41581159Y-37437366D01*
X41582495Y-37437474D01*
X41585753Y-37437781D01*
X41600001Y-37439312D01*
X41614253Y-37437781D01*
X41617500Y-37437476D01*
X41618835Y-37437368D01*
X41622214Y-37437141D01*
X41630182Y-37436715D01*
X41633462Y-37436583D01*
X41634798Y-37436547D01*
X41638138Y-37436502D01*
X41873182Y-37436501D01*
X41873182Y-37396176D01*
X41873181Y-37396175D01*
X42411096Y-37396175D01*
X42411096Y-37438120D01*
X42414254Y-37437781D01*
X42417501Y-37437476D01*
X42418836Y-37437368D01*
X42422215Y-37437141D01*
X42430183Y-37436715D01*
X42433463Y-37436583D01*
X42434799Y-37436547D01*
X42438139Y-37436502D01*
X42761861Y-37436501D01*
X42765199Y-37436546D01*
X42766536Y-37436582D01*
X42769816Y-37436714D01*
X42777786Y-37437140D01*
X42781159Y-37437366D01*
X42782495Y-37437474D01*
X42785753Y-37437781D01*
X42800001Y-37439312D01*
X42814253Y-37437781D01*
X42817500Y-37437476D01*
X42818835Y-37437368D01*
X42822214Y-37437141D01*
X42830182Y-37436715D01*
X42833462Y-37436583D01*
X42834798Y-37436547D01*
X42838138Y-37436502D01*
X43145974Y-37436501D01*
X43145974Y-37396176D01*
X43145973Y-37396175D01*
X43683888Y-37396175D01*
X43683888Y-37437001D01*
X43961818Y-37437001D01*
X43965158Y-37437046D01*
X43966494Y-37437082D01*
X43969773Y-37437214D01*
X43977742Y-37437640D01*
X43981107Y-37437866D01*
X43982444Y-37437974D01*
X43985715Y-37438282D01*
X44058496Y-37446107D01*
X44066199Y-37447180D01*
X44069278Y-37447708D01*
X44076830Y-37449246D01*
X44094968Y-37453531D01*
X44102431Y-37455542D01*
X44105423Y-37456449D01*
X44112784Y-37458934D01*
X44266212Y-37516160D01*
X44274367Y-37519538D01*
X44277616Y-37521021D01*
X44285556Y-37524994D01*
X44304259Y-37535207D01*
X44311865Y-37539719D01*
X44314870Y-37541650D01*
X44322146Y-37546702D01*
X44357930Y-37573490D01*
X44418766Y-37512654D01*
X44418766Y-37396176D01*
X44956680Y-37396176D01*
X44956680Y-37512654D01*
X45265880Y-37821854D01*
X45382359Y-37821854D01*
X45691558Y-37512655D01*
X45691558Y-37396176D01*
X46229472Y-37396176D01*
X46229472Y-37512654D01*
X46538672Y-37821854D01*
X46655151Y-37821854D01*
X46964351Y-37512654D01*
X46964351Y-37396176D01*
X47502264Y-37396176D01*
X47502264Y-37512654D01*
X47811464Y-37821854D01*
X47927943Y-37821854D01*
X48237143Y-37512654D01*
X48237143Y-37396176D01*
X48237142Y-37396175D01*
X48775057Y-37396175D01*
X48775057Y-37512655D01*
X49084256Y-37821854D01*
X49200735Y-37821854D01*
X49509935Y-37512654D01*
X49509935Y-37396176D01*
X49509934Y-37396175D01*
X50047849Y-37396175D01*
X50047849Y-37512655D01*
X50357048Y-37821854D01*
X50473528Y-37821854D01*
X50782727Y-37512655D01*
X50782727Y-37396176D01*
X51320641Y-37396176D01*
X51320641Y-37512654D01*
X51629841Y-37821854D01*
X51746320Y-37821854D01*
X52055519Y-37512655D01*
X52055519Y-37396176D01*
X52593433Y-37396176D01*
X52593433Y-37512654D01*
X52902633Y-37821854D01*
X53019112Y-37821854D01*
X53328312Y-37512654D01*
X53328312Y-37396176D01*
X53866225Y-37396176D01*
X53866225Y-37512654D01*
X54175425Y-37821854D01*
X54201500Y-37821854D01*
X54201500Y-37086976D01*
X54175425Y-37086976D01*
X53866225Y-37396176D01*
X53328312Y-37396176D01*
X53019112Y-37086976D01*
X52902633Y-37086976D01*
X52593433Y-37396176D01*
X52055519Y-37396176D01*
X52055519Y-37396175D01*
X51757844Y-37098500D01*
X51713839Y-37098500D01*
X51707778Y-37098352D01*
X51705326Y-37098232D01*
X51699231Y-37097783D01*
X51684663Y-37096348D01*
X51678640Y-37095605D01*
X51676211Y-37095245D01*
X51670198Y-37094202D01*
X51633871Y-37086976D01*
X51629841Y-37086976D01*
X51320641Y-37396176D01*
X50782727Y-37396176D01*
X50782727Y-37396175D01*
X50473528Y-37086976D01*
X50357048Y-37086976D01*
X50047849Y-37396175D01*
X49509934Y-37396175D01*
X49200735Y-37086976D01*
X49084256Y-37086976D01*
X48775057Y-37396175D01*
X48237142Y-37396175D01*
X47927943Y-37086976D01*
X47811464Y-37086976D01*
X47502264Y-37396176D01*
X46964351Y-37396176D01*
X46655151Y-37086976D01*
X46538672Y-37086976D01*
X46229472Y-37396176D01*
X45691558Y-37396176D01*
X45691558Y-37396175D01*
X45382359Y-37086976D01*
X45265880Y-37086976D01*
X44956680Y-37396176D01*
X44418766Y-37396176D01*
X44109566Y-37086976D01*
X43993087Y-37086976D01*
X43683888Y-37396175D01*
X43145973Y-37396175D01*
X42836774Y-37086976D01*
X42720295Y-37086976D01*
X42411096Y-37396175D01*
X41873181Y-37396175D01*
X41563982Y-37086976D01*
X41447503Y-37086976D01*
X41138303Y-37396176D01*
X40360500Y-37396176D01*
X40360500Y-37383528D01*
X40380185Y-37316489D01*
X40396819Y-37295847D01*
X40455847Y-37236819D01*
X40517170Y-37203334D01*
X40543528Y-37200500D01*
X40578844Y-37200500D01*
X40578845Y-37200499D01*
X40733497Y-37169737D01*
X40879179Y-37109394D01*
X41010289Y-37021789D01*
X41121789Y-36910289D01*
X41209394Y-36779179D01*
X41217429Y-36759780D01*
X41774699Y-36759780D01*
X41774699Y-36876258D01*
X42083899Y-37185458D01*
X42200378Y-37185458D01*
X42509578Y-36876258D01*
X42509578Y-36759780D01*
X42509577Y-36759779D01*
X43047492Y-36759779D01*
X43047492Y-36876259D01*
X43356691Y-37185458D01*
X43473170Y-37185458D01*
X43782370Y-36876258D01*
X43782370Y-36759780D01*
X43782369Y-36759779D01*
X44320284Y-36759779D01*
X44320284Y-36876259D01*
X44629483Y-37185458D01*
X44745963Y-37185458D01*
X45055162Y-36876259D01*
X45055162Y-36759780D01*
X45593076Y-36759780D01*
X45593076Y-36876258D01*
X45902276Y-37185458D01*
X46018755Y-37185458D01*
X46327954Y-36876259D01*
X46327954Y-36759780D01*
X46865868Y-36759780D01*
X46865868Y-36876258D01*
X47175068Y-37185458D01*
X47291547Y-37185458D01*
X47600747Y-36876258D01*
X47600747Y-36759780D01*
X48138660Y-36759780D01*
X48138660Y-36876258D01*
X48447860Y-37185458D01*
X48564339Y-37185458D01*
X48873539Y-36876258D01*
X48873539Y-36759780D01*
X48873538Y-36759779D01*
X49411453Y-36759779D01*
X49411453Y-36876259D01*
X49720652Y-37185458D01*
X49837131Y-37185458D01*
X50146331Y-36876258D01*
X50146331Y-36759780D01*
X50146330Y-36759779D01*
X50684245Y-36759779D01*
X50684245Y-36876258D01*
X50993445Y-37185458D01*
X51109924Y-37185458D01*
X51244228Y-37051153D01*
X52131931Y-37051153D01*
X52266237Y-37185458D01*
X52382716Y-37185458D01*
X52691915Y-36876259D01*
X52691915Y-36759780D01*
X53229829Y-36759780D01*
X53229829Y-36876258D01*
X53539029Y-37185458D01*
X53655508Y-37185458D01*
X53964708Y-36876258D01*
X53964708Y-36759780D01*
X53655508Y-36450580D01*
X53539029Y-36450580D01*
X53229829Y-36759780D01*
X52691915Y-36759780D01*
X52691915Y-36759779D01*
X52642677Y-36710542D01*
X52641870Y-36711433D01*
X52637682Y-36715831D01*
X52515831Y-36837682D01*
X52511433Y-36841870D01*
X52509614Y-36843519D01*
X52504996Y-36847503D01*
X52493681Y-36856789D01*
X52488898Y-36860522D01*
X52486926Y-36861985D01*
X52481935Y-36865501D01*
X52338654Y-36961239D01*
X52333501Y-36964502D01*
X52331395Y-36965764D01*
X52326107Y-36968759D01*
X52313197Y-36975659D01*
X52307743Y-36978404D01*
X52305524Y-36979453D01*
X52299981Y-36981909D01*
X52140775Y-37047854D01*
X52135073Y-37050053D01*
X52132763Y-37050879D01*
X52131931Y-37051153D01*
X51244228Y-37051153D01*
X51309531Y-36985849D01*
X51300019Y-36981909D01*
X51294476Y-36979453D01*
X51292257Y-36978404D01*
X51286803Y-36975659D01*
X51273893Y-36968759D01*
X51268605Y-36965764D01*
X51266499Y-36964502D01*
X51261346Y-36961239D01*
X51118065Y-36865501D01*
X51113074Y-36861985D01*
X51111102Y-36860522D01*
X51106319Y-36856789D01*
X51095004Y-36847503D01*
X51090386Y-36843519D01*
X51088567Y-36841870D01*
X51084169Y-36837682D01*
X50962318Y-36715831D01*
X50958130Y-36711433D01*
X50956481Y-36709614D01*
X50952497Y-36704996D01*
X50943211Y-36693681D01*
X50939478Y-36688898D01*
X50938015Y-36686926D01*
X50934499Y-36681935D01*
X50865441Y-36578583D01*
X50684245Y-36759779D01*
X50146330Y-36759779D01*
X49837131Y-36450580D01*
X49720652Y-36450580D01*
X49411453Y-36759779D01*
X48873538Y-36759779D01*
X48564339Y-36450580D01*
X48447860Y-36450580D01*
X48138660Y-36759780D01*
X47600747Y-36759780D01*
X47291547Y-36450580D01*
X47175068Y-36450580D01*
X46865868Y-36759780D01*
X46327954Y-36759780D01*
X46327954Y-36759779D01*
X46018755Y-36450580D01*
X45902276Y-36450580D01*
X45593076Y-36759780D01*
X45055162Y-36759780D01*
X45055162Y-36759779D01*
X44745963Y-36450580D01*
X44629483Y-36450580D01*
X44320284Y-36759779D01*
X43782369Y-36759779D01*
X43585767Y-36563177D01*
X43429801Y-36594202D01*
X43423789Y-36595245D01*
X43421360Y-36595605D01*
X43415337Y-36596348D01*
X43400769Y-36597783D01*
X43394674Y-36598232D01*
X43392222Y-36598352D01*
X43386161Y-36598500D01*
X43213839Y-36598500D01*
X43208891Y-36598379D01*
X43047492Y-36759779D01*
X42509577Y-36759779D01*
X42200378Y-36450580D01*
X42083899Y-36450580D01*
X41774699Y-36759780D01*
X41217429Y-36759780D01*
X41269737Y-36633497D01*
X41300500Y-36478842D01*
X41300500Y-36321158D01*
X41300500Y-36321155D01*
X41300499Y-36321153D01*
X41298878Y-36313002D01*
X41269737Y-36166503D01*
X41267557Y-36161239D01*
X41209397Y-36020827D01*
X41209390Y-36020814D01*
X41121789Y-35889711D01*
X41121786Y-35889707D01*
X41056919Y-35824840D01*
X41436846Y-35824840D01*
X41461239Y-35861346D01*
X41464502Y-35866499D01*
X41465764Y-35868605D01*
X41468759Y-35873893D01*
X41475659Y-35886803D01*
X41478404Y-35892257D01*
X41479453Y-35894476D01*
X41481909Y-35900019D01*
X41547854Y-36059225D01*
X41550053Y-36064927D01*
X41550879Y-36067237D01*
X41552779Y-36072989D01*
X41557029Y-36086998D01*
X41558646Y-36092839D01*
X41559243Y-36095220D01*
X41560583Y-36101187D01*
X41594202Y-36270199D01*
X41595245Y-36276211D01*
X41595605Y-36278640D01*
X41596348Y-36284663D01*
X41597783Y-36299231D01*
X41598232Y-36305326D01*
X41598352Y-36307778D01*
X41598500Y-36313839D01*
X41598500Y-36486161D01*
X41598352Y-36492222D01*
X41598232Y-36494674D01*
X41597783Y-36500769D01*
X41596348Y-36515337D01*
X41596156Y-36516887D01*
X41873181Y-36239863D01*
X42411096Y-36239863D01*
X42720295Y-36549062D01*
X42836774Y-36549062D01*
X42873493Y-36512342D01*
X42800019Y-36481909D01*
X42794476Y-36479453D01*
X42792257Y-36478404D01*
X42786803Y-36475659D01*
X42773893Y-36468759D01*
X42768605Y-36465764D01*
X42766499Y-36464502D01*
X42761346Y-36461239D01*
X42721415Y-36434558D01*
X43878583Y-36434558D01*
X43993087Y-36549062D01*
X44109566Y-36549062D01*
X44418766Y-36239862D01*
X44418766Y-36123383D01*
X44956680Y-36123383D01*
X44956680Y-36239862D01*
X45265880Y-36549062D01*
X45382359Y-36549062D01*
X45691558Y-36239863D01*
X45691558Y-36123383D01*
X46229472Y-36123383D01*
X46229472Y-36239862D01*
X46538672Y-36549062D01*
X46655151Y-36549062D01*
X46964351Y-36239862D01*
X46964351Y-36123383D01*
X47502264Y-36123383D01*
X47502264Y-36239862D01*
X47811464Y-36549062D01*
X47927943Y-36549062D01*
X48237143Y-36239862D01*
X48237143Y-36123383D01*
X48775057Y-36123383D01*
X48775057Y-36239863D01*
X49084256Y-36549062D01*
X49200735Y-36549062D01*
X49509935Y-36239862D01*
X49509935Y-36123383D01*
X50047849Y-36123383D01*
X50047849Y-36239863D01*
X50357048Y-36549062D01*
X50473528Y-36549062D01*
X50736821Y-36285767D01*
X50705798Y-36129801D01*
X50704755Y-36123789D01*
X50704395Y-36121360D01*
X50703652Y-36115337D01*
X50702217Y-36100769D01*
X50701768Y-36094674D01*
X50701648Y-36092222D01*
X50701500Y-36086161D01*
X50701500Y-36042156D01*
X50580497Y-35921153D01*
X50999500Y-35921153D01*
X50999500Y-36078846D01*
X51030261Y-36233489D01*
X51030264Y-36233501D01*
X51090602Y-36379172D01*
X51090609Y-36379185D01*
X51178210Y-36510288D01*
X51178213Y-36510292D01*
X51289707Y-36621786D01*
X51289711Y-36621789D01*
X51420814Y-36709390D01*
X51420827Y-36709397D01*
X51560467Y-36767237D01*
X51566503Y-36769737D01*
X51682644Y-36792839D01*
X51721153Y-36800499D01*
X51721156Y-36800500D01*
X51721158Y-36800500D01*
X51878844Y-36800500D01*
X51878845Y-36800499D01*
X52033497Y-36769737D01*
X52151592Y-36720821D01*
X52179172Y-36709397D01*
X52179172Y-36709396D01*
X52179179Y-36709394D01*
X52310289Y-36621789D01*
X52421789Y-36510289D01*
X52462527Y-36449321D01*
X52802892Y-36449321D01*
X52902633Y-36549062D01*
X53019112Y-36549062D01*
X53328312Y-36239862D01*
X53328312Y-36123383D01*
X53866225Y-36123383D01*
X53866225Y-36239862D01*
X54175425Y-36549062D01*
X54201500Y-36549062D01*
X54201500Y-35814184D01*
X54175425Y-35814184D01*
X53866225Y-36123383D01*
X53328312Y-36123383D01*
X53019112Y-35814184D01*
X52902634Y-35814184D01*
X52886307Y-35830510D01*
X52894202Y-35870198D01*
X52895245Y-35876211D01*
X52895605Y-35878640D01*
X52896348Y-35884663D01*
X52897783Y-35899231D01*
X52898232Y-35905326D01*
X52898352Y-35907778D01*
X52898500Y-35913839D01*
X52898500Y-36086161D01*
X52898352Y-36092222D01*
X52898232Y-36094674D01*
X52897783Y-36100769D01*
X52896348Y-36115337D01*
X52895605Y-36121360D01*
X52895245Y-36123789D01*
X52894202Y-36129801D01*
X52860583Y-36298813D01*
X52859243Y-36304780D01*
X52858646Y-36307161D01*
X52857029Y-36313002D01*
X52852779Y-36327011D01*
X52850879Y-36332763D01*
X52850053Y-36335073D01*
X52847854Y-36340775D01*
X52802892Y-36449321D01*
X52462527Y-36449321D01*
X52509394Y-36379179D01*
X52569737Y-36233497D01*
X52600500Y-36078842D01*
X52600500Y-35921158D01*
X52600500Y-35921155D01*
X52600499Y-35921153D01*
X52598142Y-35909305D01*
X52569737Y-35766503D01*
X52562923Y-35750053D01*
X52509397Y-35620827D01*
X52509390Y-35620814D01*
X52421789Y-35489711D01*
X52421786Y-35489707D01*
X52419066Y-35486987D01*
X53229829Y-35486987D01*
X53229829Y-35603466D01*
X53539029Y-35912666D01*
X53655508Y-35912666D01*
X53964708Y-35603466D01*
X53964708Y-35486987D01*
X53655508Y-35177788D01*
X53539029Y-35177788D01*
X53229829Y-35486987D01*
X52419066Y-35486987D01*
X52310292Y-35378213D01*
X52310288Y-35378210D01*
X52179185Y-35290609D01*
X52179172Y-35290602D01*
X52033501Y-35230264D01*
X52033489Y-35230261D01*
X51878845Y-35199500D01*
X51878842Y-35199500D01*
X51721158Y-35199500D01*
X51721155Y-35199500D01*
X51566510Y-35230261D01*
X51566498Y-35230264D01*
X51420827Y-35290602D01*
X51420814Y-35290609D01*
X51289711Y-35378210D01*
X51289707Y-35378213D01*
X51178213Y-35489707D01*
X51178210Y-35489711D01*
X51090609Y-35620814D01*
X51090602Y-35620827D01*
X51030264Y-35766498D01*
X51030261Y-35766510D01*
X50999500Y-35921153D01*
X50580497Y-35921153D01*
X50473528Y-35814184D01*
X50357048Y-35814184D01*
X50047849Y-36123383D01*
X49509935Y-36123383D01*
X49200735Y-35814184D01*
X49084256Y-35814184D01*
X48775057Y-36123383D01*
X48237143Y-36123383D01*
X47927943Y-35814184D01*
X47811464Y-35814184D01*
X47502264Y-36123383D01*
X46964351Y-36123383D01*
X46655151Y-35814184D01*
X46538672Y-35814184D01*
X46229472Y-36123383D01*
X45691558Y-36123383D01*
X45382359Y-35814184D01*
X45265880Y-35814184D01*
X44956680Y-36123383D01*
X44418766Y-36123383D01*
X44285849Y-35990467D01*
X44281909Y-35999981D01*
X44279453Y-36005524D01*
X44278404Y-36007743D01*
X44275659Y-36013197D01*
X44268759Y-36026107D01*
X44265764Y-36031395D01*
X44264502Y-36033501D01*
X44261239Y-36038654D01*
X44165501Y-36181935D01*
X44161985Y-36186926D01*
X44160522Y-36188898D01*
X44156789Y-36193681D01*
X44147503Y-36204996D01*
X44143519Y-36209614D01*
X44141870Y-36211433D01*
X44137682Y-36215831D01*
X44015831Y-36337682D01*
X44011433Y-36341870D01*
X44009614Y-36343519D01*
X44004996Y-36347503D01*
X43993681Y-36356789D01*
X43988898Y-36360522D01*
X43986926Y-36361985D01*
X43981935Y-36365501D01*
X43878583Y-36434558D01*
X42721415Y-36434558D01*
X42618065Y-36365501D01*
X42613074Y-36361985D01*
X42611102Y-36360522D01*
X42606319Y-36356789D01*
X42595004Y-36347503D01*
X42590386Y-36343519D01*
X42588567Y-36341870D01*
X42584169Y-36337682D01*
X42462318Y-36215831D01*
X42458130Y-36211433D01*
X42456481Y-36209614D01*
X42452497Y-36204996D01*
X42443211Y-36193681D01*
X42439478Y-36188898D01*
X42438015Y-36186926D01*
X42434499Y-36181935D01*
X42411096Y-36146910D01*
X42411096Y-36239863D01*
X41873181Y-36239863D01*
X41873182Y-36239862D01*
X41873182Y-36123383D01*
X41563982Y-35814184D01*
X41447504Y-35814184D01*
X41436846Y-35824840D01*
X41056919Y-35824840D01*
X41010292Y-35778213D01*
X41010288Y-35778210D01*
X40879185Y-35690609D01*
X40879172Y-35690602D01*
X40733501Y-35630264D01*
X40733489Y-35630261D01*
X40578845Y-35599500D01*
X40578842Y-35599500D01*
X40494168Y-35599500D01*
X40427129Y-35579815D01*
X40381374Y-35527011D01*
X40371430Y-35457853D01*
X40391067Y-35406608D01*
X40409389Y-35379187D01*
X40409390Y-35379184D01*
X40409394Y-35379179D01*
X40429740Y-35330059D01*
X40751771Y-35330059D01*
X40798813Y-35339417D01*
X40804780Y-35340757D01*
X40807161Y-35341354D01*
X40813002Y-35342971D01*
X40827011Y-35347221D01*
X40832763Y-35349121D01*
X40835073Y-35349947D01*
X40840775Y-35352146D01*
X40999981Y-35418091D01*
X41005524Y-35420547D01*
X41007743Y-35421596D01*
X41013197Y-35424341D01*
X41026107Y-35431241D01*
X41031395Y-35434236D01*
X41033501Y-35435498D01*
X41038654Y-35438761D01*
X41181935Y-35534499D01*
X41186926Y-35538015D01*
X41188898Y-35539478D01*
X41193681Y-35543211D01*
X41204996Y-35552497D01*
X41209614Y-35556481D01*
X41211433Y-35558130D01*
X41215831Y-35562318D01*
X41236786Y-35583273D01*
X41236786Y-35486987D01*
X41774699Y-35486987D01*
X41774699Y-35603466D01*
X42083899Y-35912666D01*
X42200377Y-35912666D01*
X42258039Y-35855002D01*
X42252146Y-35840774D01*
X42249947Y-35835073D01*
X42249121Y-35832763D01*
X42247221Y-35827011D01*
X42242971Y-35813002D01*
X42241354Y-35807161D01*
X42240757Y-35804780D01*
X42239417Y-35798813D01*
X42205798Y-35629801D01*
X42204755Y-35623789D01*
X42204395Y-35621360D01*
X42203652Y-35615337D01*
X42202217Y-35600769D01*
X42201768Y-35594674D01*
X42201648Y-35592222D01*
X42201500Y-35586161D01*
X42201500Y-35421153D01*
X42499500Y-35421153D01*
X42499500Y-35578846D01*
X42530261Y-35733489D01*
X42530264Y-35733501D01*
X42590602Y-35879172D01*
X42590609Y-35879185D01*
X42678210Y-36010288D01*
X42678213Y-36010292D01*
X42789707Y-36121786D01*
X42789711Y-36121789D01*
X42920814Y-36209390D01*
X42920827Y-36209397D01*
X43044403Y-36260583D01*
X43066503Y-36269737D01*
X43212677Y-36298813D01*
X43221153Y-36300499D01*
X43221156Y-36300500D01*
X43221158Y-36300500D01*
X43378844Y-36300500D01*
X43378845Y-36300499D01*
X43533497Y-36269737D01*
X43663639Y-36215831D01*
X43679172Y-36209397D01*
X43679172Y-36209396D01*
X43679179Y-36209394D01*
X43810289Y-36121789D01*
X43921789Y-36010289D01*
X44009394Y-35879179D01*
X44069737Y-35733497D01*
X44082469Y-35669489D01*
X44386307Y-35669489D01*
X44629483Y-35912666D01*
X44745963Y-35912666D01*
X45055162Y-35603466D01*
X45055162Y-35486987D01*
X45055161Y-35486986D01*
X45593076Y-35486986D01*
X45593076Y-35603466D01*
X45902276Y-35912666D01*
X46018755Y-35912666D01*
X46177325Y-35754094D01*
X46172989Y-35752779D01*
X46167237Y-35750879D01*
X46164927Y-35750053D01*
X46159225Y-35747854D01*
X46039383Y-35698214D01*
X46960616Y-35698214D01*
X47175068Y-35912666D01*
X47291547Y-35912666D01*
X47600747Y-35603466D01*
X47600747Y-35486987D01*
X48138660Y-35486987D01*
X48138660Y-35603466D01*
X48447860Y-35912666D01*
X48564339Y-35912666D01*
X48873539Y-35603466D01*
X48873539Y-35486987D01*
X49411453Y-35486987D01*
X49411453Y-35603466D01*
X49720652Y-35912666D01*
X49837131Y-35912666D01*
X50146331Y-35603466D01*
X50146331Y-35486987D01*
X50684245Y-35486987D01*
X50684245Y-35603466D01*
X50748846Y-35668067D01*
X50749121Y-35667237D01*
X50749947Y-35664927D01*
X50752146Y-35659225D01*
X50818091Y-35500019D01*
X50820547Y-35494476D01*
X50821596Y-35492257D01*
X50824341Y-35486803D01*
X50831241Y-35473893D01*
X50834236Y-35468605D01*
X50835498Y-35466499D01*
X50838761Y-35461346D01*
X50934499Y-35318065D01*
X50938015Y-35313074D01*
X50939478Y-35311102D01*
X50943211Y-35306319D01*
X50952497Y-35295004D01*
X50956481Y-35290386D01*
X50958130Y-35288567D01*
X50962318Y-35284169D01*
X51068699Y-35177788D01*
X50993445Y-35177788D01*
X50684245Y-35486987D01*
X50146331Y-35486987D01*
X49837131Y-35177788D01*
X49720652Y-35177788D01*
X49411453Y-35486987D01*
X48873539Y-35486987D01*
X48564339Y-35177788D01*
X48447860Y-35177788D01*
X48138660Y-35486987D01*
X47600747Y-35486987D01*
X47417649Y-35303890D01*
X47365501Y-35381935D01*
X47361985Y-35386926D01*
X47360522Y-35388898D01*
X47356789Y-35393681D01*
X47347503Y-35404996D01*
X47343519Y-35409614D01*
X47341870Y-35411433D01*
X47337682Y-35415831D01*
X47215831Y-35537682D01*
X47211433Y-35541870D01*
X47209614Y-35543519D01*
X47204996Y-35547503D01*
X47193681Y-35556789D01*
X47188898Y-35560522D01*
X47186926Y-35561985D01*
X47181935Y-35565501D01*
X47038654Y-35661239D01*
X47033501Y-35664502D01*
X47031395Y-35665764D01*
X47026107Y-35668759D01*
X47013197Y-35675659D01*
X47007743Y-35678404D01*
X47005524Y-35679453D01*
X46999981Y-35681909D01*
X46960616Y-35698214D01*
X46039383Y-35698214D01*
X46000019Y-35681909D01*
X45994476Y-35679453D01*
X45992257Y-35678404D01*
X45986803Y-35675659D01*
X45973893Y-35668759D01*
X45968605Y-35665764D01*
X45966499Y-35664502D01*
X45961346Y-35661239D01*
X45818065Y-35565501D01*
X45813074Y-35561985D01*
X45811102Y-35560522D01*
X45806319Y-35556789D01*
X45795004Y-35547503D01*
X45790386Y-35543519D01*
X45788567Y-35541870D01*
X45784169Y-35537682D01*
X45663274Y-35416787D01*
X45593076Y-35486986D01*
X45055161Y-35486986D01*
X44745963Y-35177788D01*
X44629483Y-35177788D01*
X44398379Y-35408890D01*
X44398500Y-35413839D01*
X44398500Y-35586161D01*
X44398352Y-35592222D01*
X44398232Y-35594674D01*
X44397783Y-35600769D01*
X44396348Y-35615337D01*
X44395605Y-35621360D01*
X44395245Y-35623789D01*
X44394202Y-35629803D01*
X44386307Y-35669489D01*
X44082469Y-35669489D01*
X44100500Y-35578842D01*
X44100500Y-35421158D01*
X44100500Y-35421155D01*
X44100499Y-35421153D01*
X44098060Y-35408890D01*
X44069737Y-35266503D01*
X44056062Y-35233489D01*
X44009397Y-35120827D01*
X44009390Y-35120814D01*
X43921789Y-34989711D01*
X43921786Y-34989707D01*
X43810292Y-34878213D01*
X43810288Y-34878210D01*
X43679185Y-34790609D01*
X43679172Y-34790602D01*
X43533501Y-34730264D01*
X43533489Y-34730261D01*
X43378845Y-34699500D01*
X43378842Y-34699500D01*
X43221158Y-34699500D01*
X43221155Y-34699500D01*
X43066510Y-34730261D01*
X43066498Y-34730264D01*
X42920827Y-34790602D01*
X42920814Y-34790609D01*
X42789711Y-34878210D01*
X42789707Y-34878213D01*
X42678213Y-34989707D01*
X42678210Y-34989711D01*
X42590609Y-35120814D01*
X42590602Y-35120827D01*
X42530264Y-35266498D01*
X42530261Y-35266510D01*
X42499500Y-35421153D01*
X42201500Y-35421153D01*
X42201500Y-35413839D01*
X42201648Y-35407778D01*
X42201768Y-35405326D01*
X42202217Y-35399231D01*
X42203652Y-35384663D01*
X42204395Y-35378640D01*
X42204755Y-35376211D01*
X42205798Y-35370199D01*
X42236822Y-35214232D01*
X42200378Y-35177788D01*
X42083899Y-35177788D01*
X41774699Y-35486987D01*
X41236786Y-35486987D01*
X40927586Y-35177788D01*
X40811108Y-35177788D01*
X40778088Y-35210806D01*
X40760583Y-35298813D01*
X40759243Y-35304780D01*
X40758646Y-35307161D01*
X40757029Y-35313002D01*
X40752779Y-35327011D01*
X40751771Y-35330059D01*
X40429740Y-35330059D01*
X40469737Y-35233497D01*
X40500500Y-35078842D01*
X40500500Y-34921158D01*
X40500500Y-34921155D01*
X40500499Y-34921153D01*
X40491957Y-34878210D01*
X40486463Y-34850591D01*
X41138303Y-34850591D01*
X41138303Y-34967070D01*
X41447503Y-35276270D01*
X41563982Y-35276270D01*
X41873182Y-34967070D01*
X41873182Y-34850591D01*
X41563982Y-34541392D01*
X41447503Y-34541392D01*
X41138303Y-34850591D01*
X40486463Y-34850591D01*
X40469737Y-34766503D01*
X40464705Y-34754355D01*
X40409397Y-34620827D01*
X40409390Y-34620814D01*
X40321789Y-34489711D01*
X40321786Y-34489707D01*
X40210292Y-34378213D01*
X40210288Y-34378210D01*
X40079185Y-34290609D01*
X40079172Y-34290602D01*
X39933501Y-34230264D01*
X39933489Y-34230261D01*
X39852721Y-34214195D01*
X40501907Y-34214195D01*
X40501907Y-34248394D01*
X40537682Y-34284169D01*
X40541870Y-34288567D01*
X40543519Y-34290386D01*
X40547503Y-34295004D01*
X40556789Y-34306319D01*
X40560522Y-34311102D01*
X40561985Y-34313074D01*
X40565501Y-34318065D01*
X40661239Y-34461346D01*
X40664502Y-34466499D01*
X40665764Y-34468605D01*
X40668759Y-34473893D01*
X40675659Y-34486803D01*
X40678404Y-34492257D01*
X40679453Y-34494476D01*
X40681910Y-34500021D01*
X40689444Y-34518211D01*
X40811107Y-34639874D01*
X40927586Y-34639874D01*
X41236786Y-34330674D01*
X41236786Y-34214195D01*
X41774699Y-34214195D01*
X41774699Y-34330674D01*
X42083899Y-34639874D01*
X42200378Y-34639874D01*
X42238580Y-34601672D01*
X43932806Y-34601672D01*
X43981935Y-34634499D01*
X43986926Y-34638015D01*
X43988898Y-34639478D01*
X43993681Y-34643211D01*
X44004996Y-34652497D01*
X44009614Y-34656481D01*
X44011433Y-34658130D01*
X44015831Y-34662318D01*
X44137682Y-34784169D01*
X44141870Y-34788567D01*
X44143519Y-34790386D01*
X44147503Y-34795004D01*
X44156789Y-34806319D01*
X44160522Y-34811102D01*
X44161985Y-34813074D01*
X44165501Y-34818065D01*
X44261239Y-34961346D01*
X44264502Y-34966499D01*
X44265764Y-34968605D01*
X44268759Y-34973893D01*
X44275659Y-34986803D01*
X44278404Y-34992257D01*
X44279453Y-34994476D01*
X44281909Y-35000019D01*
X44312342Y-35073492D01*
X44418766Y-34967069D01*
X44418766Y-34850591D01*
X44956680Y-34850591D01*
X44956680Y-34967070D01*
X45265880Y-35276270D01*
X45382358Y-35276270D01*
X45500679Y-35157946D01*
X45452146Y-35040775D01*
X45449947Y-35035073D01*
X45449121Y-35032763D01*
X45447221Y-35027011D01*
X45442971Y-35013002D01*
X45441354Y-35007161D01*
X45440757Y-35004780D01*
X45439417Y-34998813D01*
X45405798Y-34829801D01*
X45404755Y-34823789D01*
X45404395Y-34821360D01*
X45403652Y-34815337D01*
X45402217Y-34800769D01*
X45401768Y-34794674D01*
X45401648Y-34792222D01*
X45401500Y-34786161D01*
X45401500Y-34621153D01*
X45699500Y-34621153D01*
X45699500Y-34778846D01*
X45730261Y-34933489D01*
X45730264Y-34933501D01*
X45790602Y-35079172D01*
X45790609Y-35079185D01*
X45878210Y-35210288D01*
X45878213Y-35210292D01*
X45989707Y-35321786D01*
X45989711Y-35321789D01*
X46120814Y-35409390D01*
X46120827Y-35409397D01*
X46263770Y-35468605D01*
X46266503Y-35469737D01*
X46379718Y-35492257D01*
X46421153Y-35500499D01*
X46421156Y-35500500D01*
X46421158Y-35500500D01*
X46578844Y-35500500D01*
X46578845Y-35500499D01*
X46733497Y-35469737D01*
X46852253Y-35420547D01*
X46879172Y-35409397D01*
X46879172Y-35409396D01*
X46879179Y-35409394D01*
X47010289Y-35321789D01*
X47121789Y-35210289D01*
X47209394Y-35079179D01*
X47233998Y-35019779D01*
X47554973Y-35019779D01*
X47811464Y-35276270D01*
X47927943Y-35276270D01*
X48237143Y-34967070D01*
X48237143Y-34850591D01*
X48775057Y-34850591D01*
X48775057Y-34967070D01*
X49084256Y-35276270D01*
X49200735Y-35276270D01*
X49509935Y-34967070D01*
X49509935Y-34850591D01*
X50047849Y-34850591D01*
X50047849Y-34967070D01*
X50357048Y-35276270D01*
X50473528Y-35276270D01*
X50782727Y-34967070D01*
X50782727Y-34850591D01*
X51320641Y-34850591D01*
X51320641Y-34967070D01*
X51350678Y-34997107D01*
X51459225Y-34952146D01*
X51464927Y-34949947D01*
X51467237Y-34949121D01*
X51472989Y-34947221D01*
X51486998Y-34942971D01*
X51492839Y-34941354D01*
X51495220Y-34940757D01*
X51501187Y-34939417D01*
X51670199Y-34905798D01*
X51676211Y-34904755D01*
X51678640Y-34904395D01*
X51684663Y-34903652D01*
X51699231Y-34902217D01*
X51705326Y-34901768D01*
X51707778Y-34901648D01*
X51713839Y-34901500D01*
X51886161Y-34901500D01*
X51892222Y-34901648D01*
X51894674Y-34901768D01*
X51900769Y-34902217D01*
X51915337Y-34903652D01*
X51921360Y-34904395D01*
X51923789Y-34904755D01*
X51929801Y-34905798D01*
X52055519Y-34930805D01*
X52055519Y-34850591D01*
X52593433Y-34850591D01*
X52593433Y-34967070D01*
X52902633Y-35276270D01*
X53019112Y-35276270D01*
X53328312Y-34967070D01*
X53328312Y-34850591D01*
X53866225Y-34850591D01*
X53866225Y-34967070D01*
X54175425Y-35276270D01*
X54201500Y-35276270D01*
X54201500Y-34541392D01*
X54175425Y-34541392D01*
X53866225Y-34850591D01*
X53328312Y-34850591D01*
X53019112Y-34541392D01*
X52902633Y-34541392D01*
X52593433Y-34850591D01*
X52055519Y-34850591D01*
X51746320Y-34541392D01*
X51629841Y-34541392D01*
X51320641Y-34850591D01*
X50782727Y-34850591D01*
X50473528Y-34541392D01*
X50357048Y-34541392D01*
X50047849Y-34850591D01*
X49509935Y-34850591D01*
X49200735Y-34541392D01*
X49084256Y-34541392D01*
X48775057Y-34850591D01*
X48237143Y-34850591D01*
X47927943Y-34541392D01*
X47811464Y-34541392D01*
X47598500Y-34754355D01*
X47598500Y-34786161D01*
X47598352Y-34792222D01*
X47598232Y-34794674D01*
X47597783Y-34800769D01*
X47596348Y-34815337D01*
X47595605Y-34821360D01*
X47595245Y-34823789D01*
X47594202Y-34829801D01*
X47560583Y-34998813D01*
X47559243Y-35004780D01*
X47558646Y-35007161D01*
X47557029Y-35013002D01*
X47554973Y-35019779D01*
X47233998Y-35019779D01*
X47269737Y-34933497D01*
X47300500Y-34778842D01*
X47300500Y-34621158D01*
X47300500Y-34621155D01*
X47300499Y-34621153D01*
X47299044Y-34613839D01*
X47269737Y-34466503D01*
X47258518Y-34439417D01*
X47209397Y-34320827D01*
X47209390Y-34320814D01*
X47121789Y-34189711D01*
X47121786Y-34189707D01*
X47010292Y-34078213D01*
X47010288Y-34078210D01*
X46879185Y-33990609D01*
X46879172Y-33990602D01*
X46733501Y-33930264D01*
X46733489Y-33930261D01*
X46606475Y-33904996D01*
X47258509Y-33904996D01*
X47337682Y-33984169D01*
X47341870Y-33988567D01*
X47343519Y-33990386D01*
X47347503Y-33995004D01*
X47356789Y-34006319D01*
X47360522Y-34011102D01*
X47361985Y-34013074D01*
X47365501Y-34018065D01*
X47461239Y-34161346D01*
X47464502Y-34166499D01*
X47465764Y-34168605D01*
X47468759Y-34173893D01*
X47475659Y-34186803D01*
X47478404Y-34192257D01*
X47479453Y-34194476D01*
X47481909Y-34200019D01*
X47547854Y-34359225D01*
X47550053Y-34364927D01*
X47550879Y-34367237D01*
X47552779Y-34372989D01*
X47554094Y-34377326D01*
X47600747Y-34330674D01*
X47600747Y-34214195D01*
X48138660Y-34214195D01*
X48138660Y-34330674D01*
X48447860Y-34639874D01*
X48564339Y-34639874D01*
X48873539Y-34330674D01*
X48873539Y-34214195D01*
X49411453Y-34214195D01*
X49411453Y-34330674D01*
X49720652Y-34639874D01*
X49837131Y-34639874D01*
X50146331Y-34330674D01*
X50146331Y-34214195D01*
X50684245Y-34214195D01*
X50684245Y-34330674D01*
X50993445Y-34639874D01*
X51109924Y-34639874D01*
X51419123Y-34330674D01*
X51419123Y-34214195D01*
X51957037Y-34214195D01*
X51957037Y-34330674D01*
X52266237Y-34639874D01*
X52382716Y-34639874D01*
X52691915Y-34330674D01*
X52691915Y-34214195D01*
X53229829Y-34214195D01*
X53229829Y-34330674D01*
X53539029Y-34639874D01*
X53655508Y-34639874D01*
X53964708Y-34330674D01*
X53964708Y-34214195D01*
X53655508Y-33904996D01*
X53539029Y-33904996D01*
X53229829Y-34214195D01*
X52691915Y-34214195D01*
X52382716Y-33904996D01*
X52266237Y-33904996D01*
X51957037Y-34214195D01*
X51419123Y-34214195D01*
X51109924Y-33904996D01*
X50993445Y-33904996D01*
X50684245Y-34214195D01*
X50146331Y-34214195D01*
X49837131Y-33904996D01*
X49720652Y-33904996D01*
X49411453Y-34214195D01*
X48873539Y-34214195D01*
X48564339Y-33904996D01*
X48447860Y-33904996D01*
X48138660Y-34214195D01*
X47600747Y-34214195D01*
X47291547Y-33904996D01*
X47258509Y-33904996D01*
X46606475Y-33904996D01*
X46578845Y-33899500D01*
X46578842Y-33899500D01*
X46421158Y-33899500D01*
X46421155Y-33899500D01*
X46266510Y-33930261D01*
X46266498Y-33930264D01*
X46120827Y-33990602D01*
X46120814Y-33990609D01*
X45989711Y-34078210D01*
X45989707Y-34078213D01*
X45878213Y-34189707D01*
X45878210Y-34189711D01*
X45790609Y-34320814D01*
X45790602Y-34320827D01*
X45730264Y-34466498D01*
X45730261Y-34466510D01*
X45699500Y-34621153D01*
X45401500Y-34621153D01*
X45401500Y-34613839D01*
X45401648Y-34607778D01*
X45401768Y-34605326D01*
X45402217Y-34599231D01*
X45403652Y-34584663D01*
X45404395Y-34578640D01*
X45404755Y-34576211D01*
X45405798Y-34570199D01*
X45406688Y-34565721D01*
X45382359Y-34541392D01*
X45265880Y-34541392D01*
X44956680Y-34850591D01*
X44418766Y-34850591D01*
X44109566Y-34541392D01*
X43993087Y-34541392D01*
X43932806Y-34601672D01*
X42238580Y-34601672D01*
X42509578Y-34330674D01*
X42509578Y-34214195D01*
X43047492Y-34214195D01*
X43047492Y-34330673D01*
X43130510Y-34413692D01*
X43170199Y-34405798D01*
X43176211Y-34404755D01*
X43178640Y-34404395D01*
X43184663Y-34403652D01*
X43199231Y-34402217D01*
X43205326Y-34401768D01*
X43207778Y-34401648D01*
X43213839Y-34401500D01*
X43386161Y-34401500D01*
X43392222Y-34401648D01*
X43394674Y-34401768D01*
X43400769Y-34402217D01*
X43415337Y-34403652D01*
X43421360Y-34404395D01*
X43423789Y-34404755D01*
X43429801Y-34405798D01*
X43598813Y-34439417D01*
X43604780Y-34440757D01*
X43607161Y-34441354D01*
X43613002Y-34442971D01*
X43627011Y-34447221D01*
X43632763Y-34449121D01*
X43635073Y-34449947D01*
X43640774Y-34452146D01*
X43655003Y-34458039D01*
X43782370Y-34330673D01*
X43782370Y-34214195D01*
X44320284Y-34214195D01*
X44320284Y-34330674D01*
X44629483Y-34639874D01*
X44745963Y-34639874D01*
X45055162Y-34330674D01*
X45055162Y-34214195D01*
X44745963Y-33904996D01*
X44629483Y-33904996D01*
X44320284Y-34214195D01*
X43782370Y-34214195D01*
X43473170Y-33904996D01*
X43356691Y-33904996D01*
X43047492Y-34214195D01*
X42509578Y-34214195D01*
X42200378Y-33904996D01*
X42083899Y-33904996D01*
X41774699Y-34214195D01*
X41236786Y-34214195D01*
X40927586Y-33904996D01*
X40811107Y-33904996D01*
X40501907Y-34214195D01*
X39852721Y-34214195D01*
X39778845Y-34199500D01*
X39778842Y-34199500D01*
X39621158Y-34199500D01*
X39621155Y-34199500D01*
X39466510Y-34230261D01*
X39466498Y-34230264D01*
X39320827Y-34290602D01*
X39320814Y-34290609D01*
X39189711Y-34378210D01*
X39189707Y-34378213D01*
X39078213Y-34489707D01*
X39078210Y-34489711D01*
X38990609Y-34620814D01*
X38990602Y-34620827D01*
X38930264Y-34766498D01*
X38930261Y-34766510D01*
X38899500Y-34921153D01*
X38899500Y-35078846D01*
X38930261Y-35233489D01*
X38930264Y-35233501D01*
X38990602Y-35379172D01*
X38990609Y-35379185D01*
X39078210Y-35510288D01*
X39078213Y-35510292D01*
X39189707Y-35621786D01*
X39189711Y-35621789D01*
X39320814Y-35709390D01*
X39320827Y-35709397D01*
X39391461Y-35738654D01*
X39466503Y-35769737D01*
X39612677Y-35798813D01*
X39621153Y-35800499D01*
X39621156Y-35800500D01*
X39705832Y-35800500D01*
X39772871Y-35820185D01*
X39818626Y-35872989D01*
X39828570Y-35942147D01*
X39808933Y-35993392D01*
X39790610Y-36020812D01*
X39790602Y-36020827D01*
X39730264Y-36166498D01*
X39730261Y-36166510D01*
X39699500Y-36321153D01*
X39699500Y-36356471D01*
X39679815Y-36423510D01*
X39663181Y-36444152D01*
X39351489Y-36755843D01*
X39351487Y-36755846D01*
X39343467Y-36769738D01*
X39287600Y-36866503D01*
X39277697Y-36883655D01*
X39277696Y-36883657D01*
X39257443Y-36959241D01*
X39240686Y-37021786D01*
X39239703Y-37025454D01*
X39239690Y-37025502D01*
X39239500Y-37026209D01*
X39239500Y-37610501D01*
X39219815Y-37677540D01*
X39167011Y-37723295D01*
X39115500Y-37734501D01*
X38842130Y-37734501D01*
X38842118Y-37734502D01*
X38813254Y-37737605D01*
X38786749Y-37737605D01*
X38757874Y-37734501D01*
X38442131Y-37734501D01*
X38442119Y-37734502D01*
X38413255Y-37737605D01*
X38386750Y-37737605D01*
X38357875Y-37734501D01*
X38042132Y-37734501D01*
X38042120Y-37734502D01*
X38013254Y-37737605D01*
X37986750Y-37737605D01*
X37957873Y-37734501D01*
X37642130Y-37734501D01*
X37642118Y-37734502D01*
X37613254Y-37737605D01*
X37586749Y-37737605D01*
X37557874Y-37734501D01*
X37242131Y-37734501D01*
X37242119Y-37734502D01*
X37213255Y-37737605D01*
X37186750Y-37737605D01*
X37157875Y-37734501D01*
X36842132Y-37734501D01*
X36842120Y-37734502D01*
X36813256Y-37737605D01*
X36786751Y-37737605D01*
X36757876Y-37734501D01*
X36442134Y-37734501D01*
X36442116Y-37734502D01*
X36410905Y-37737857D01*
X36384406Y-37737857D01*
X36357839Y-37735001D01*
X36042155Y-37735001D01*
X35982627Y-37741402D01*
X35982620Y-37741404D01*
X35847913Y-37791646D01*
X35847906Y-37791650D01*
X35732812Y-37877810D01*
X35732809Y-37877813D01*
X35646649Y-37992907D01*
X35646645Y-37992914D01*
X35596403Y-38127621D01*
X35596401Y-38127628D01*
X35590000Y-38187156D01*
X34683824Y-38187156D01*
X34737863Y-38146702D01*
X34745139Y-38141649D01*
X34748144Y-38139718D01*
X34755750Y-38135206D01*
X34774453Y-38124993D01*
X34782393Y-38121020D01*
X34785642Y-38119537D01*
X34793797Y-38116159D01*
X34872825Y-38086682D01*
X34872825Y-38032572D01*
X34563625Y-37723372D01*
X34447146Y-37723372D01*
X34137946Y-38032572D01*
X33600032Y-38032572D01*
X33600032Y-38032571D01*
X33290833Y-37723372D01*
X33174354Y-37723372D01*
X32865154Y-38032572D01*
X32327240Y-38032572D01*
X32327240Y-38032571D01*
X32018041Y-37723372D01*
X32004632Y-37723372D01*
X31965501Y-37781935D01*
X31961985Y-37786926D01*
X31960522Y-37788898D01*
X31956789Y-37793681D01*
X31947503Y-37804996D01*
X31943519Y-37809614D01*
X31941870Y-37811433D01*
X31937682Y-37815831D01*
X31815831Y-37937682D01*
X31811433Y-37941870D01*
X31809614Y-37943519D01*
X31804996Y-37947503D01*
X31793681Y-37956789D01*
X31788898Y-37960522D01*
X31786926Y-37961985D01*
X31781935Y-37965501D01*
X31638654Y-38061239D01*
X31633501Y-38064502D01*
X31631395Y-38065764D01*
X31626107Y-38068759D01*
X31613197Y-38075659D01*
X31607743Y-38078404D01*
X31605524Y-38079453D01*
X31599980Y-38081909D01*
X31592362Y-38085064D01*
X30607636Y-38085064D01*
X30600019Y-38081909D01*
X30594476Y-38079453D01*
X30592257Y-38078404D01*
X30586803Y-38075659D01*
X30573893Y-38068759D01*
X30568605Y-38065764D01*
X30566499Y-38064502D01*
X30561346Y-38061239D01*
X30418065Y-37965501D01*
X30413074Y-37961985D01*
X30411102Y-37960522D01*
X30406319Y-37956789D01*
X30400295Y-37951845D01*
X30319570Y-38032571D01*
X29781655Y-38032571D01*
X29472456Y-37723372D01*
X29355977Y-37723372D01*
X29046777Y-38032572D01*
X28508864Y-38032572D01*
X28199664Y-37723372D01*
X28083185Y-37723372D01*
X27773985Y-38032572D01*
X27236071Y-38032572D01*
X27236071Y-38032571D01*
X26926872Y-37723372D01*
X26810393Y-37723372D01*
X26501193Y-38032572D01*
X25963279Y-38032572D01*
X25963279Y-38032571D01*
X25798500Y-37867792D01*
X25798500Y-38313830D01*
X25500500Y-38313830D01*
X25500500Y-37396176D01*
X25864797Y-37396176D01*
X25864797Y-37512654D01*
X26173997Y-37821854D01*
X26290476Y-37821854D01*
X26599675Y-37512655D01*
X26599675Y-37396176D01*
X27137589Y-37396176D01*
X27137589Y-37512654D01*
X27446789Y-37821854D01*
X27563268Y-37821854D01*
X27872467Y-37512655D01*
X27872467Y-37396176D01*
X28410381Y-37396176D01*
X28410381Y-37512654D01*
X28719581Y-37821854D01*
X28836060Y-37821854D01*
X29145260Y-37512654D01*
X29145260Y-37396176D01*
X29683173Y-37396176D01*
X29683173Y-37512654D01*
X29992373Y-37821854D01*
X30108852Y-37821854D01*
X30200160Y-37730544D01*
X30138761Y-37638654D01*
X30135498Y-37633501D01*
X30134236Y-37631395D01*
X30131241Y-37626107D01*
X30124341Y-37613197D01*
X30121596Y-37607743D01*
X30120547Y-37605524D01*
X30118091Y-37599981D01*
X30052146Y-37440775D01*
X30049947Y-37435073D01*
X30049121Y-37432763D01*
X30047221Y-37427011D01*
X30042971Y-37413002D01*
X30041354Y-37407161D01*
X30040757Y-37404780D01*
X30039417Y-37398813D01*
X30005798Y-37229801D01*
X30004755Y-37223789D01*
X30004395Y-37221360D01*
X30003652Y-37215337D01*
X30002217Y-37200769D01*
X30001768Y-37194674D01*
X30001648Y-37192222D01*
X30001500Y-37186161D01*
X30001500Y-37086976D01*
X29992373Y-37086976D01*
X29683173Y-37396176D01*
X29145260Y-37396176D01*
X28836060Y-37086976D01*
X28719581Y-37086976D01*
X28410381Y-37396176D01*
X27872467Y-37396176D01*
X27872467Y-37396175D01*
X27563268Y-37086976D01*
X27446789Y-37086976D01*
X27137589Y-37396176D01*
X26599675Y-37396176D01*
X26599675Y-37396175D01*
X26290476Y-37086976D01*
X26173997Y-37086976D01*
X25864797Y-37396176D01*
X25500500Y-37396176D01*
X25500500Y-37041038D01*
X25798500Y-37041038D01*
X25963279Y-36876259D01*
X25963279Y-36759779D01*
X26501193Y-36759779D01*
X26501193Y-36876258D01*
X26810393Y-37185458D01*
X26926872Y-37185458D01*
X27236071Y-36876259D01*
X27236071Y-36759780D01*
X27236070Y-36759779D01*
X27773985Y-36759779D01*
X27773985Y-36876258D01*
X28083185Y-37185458D01*
X28199664Y-37185458D01*
X28508864Y-36876258D01*
X28508864Y-36759780D01*
X29046777Y-36759780D01*
X29046777Y-36876258D01*
X29355977Y-37185458D01*
X29472456Y-37185458D01*
X29636761Y-37021153D01*
X30299500Y-37021153D01*
X30299500Y-37178846D01*
X30330261Y-37333489D01*
X30330264Y-37333501D01*
X30390602Y-37479172D01*
X30390609Y-37479185D01*
X30478210Y-37610288D01*
X30478213Y-37610292D01*
X30589707Y-37721786D01*
X30589711Y-37721789D01*
X30720814Y-37809390D01*
X30720827Y-37809397D01*
X30860825Y-37867385D01*
X30866503Y-37869737D01*
X31021153Y-37900499D01*
X31021156Y-37900500D01*
X31021158Y-37900500D01*
X31178844Y-37900500D01*
X31178845Y-37900499D01*
X31333497Y-37869737D01*
X31463639Y-37815831D01*
X31479172Y-37809397D01*
X31479172Y-37809396D01*
X31479179Y-37809394D01*
X31610289Y-37721789D01*
X31721789Y-37610289D01*
X31809394Y-37479179D01*
X31843775Y-37396176D01*
X32228758Y-37396176D01*
X32228758Y-37512654D01*
X32537958Y-37821854D01*
X32654437Y-37821854D01*
X32963636Y-37512655D01*
X32963636Y-37396176D01*
X33501550Y-37396176D01*
X33501550Y-37512654D01*
X33810750Y-37821854D01*
X33927229Y-37821854D01*
X34236429Y-37512654D01*
X34236429Y-37396176D01*
X34774342Y-37396176D01*
X34774342Y-37512654D01*
X35083542Y-37821854D01*
X35200021Y-37821854D01*
X35509221Y-37512654D01*
X35509221Y-37396176D01*
X36047134Y-37396176D01*
X36047134Y-37437001D01*
X36361817Y-37437001D01*
X36365157Y-37437046D01*
X36366493Y-37437082D01*
X36369773Y-37437214D01*
X36377741Y-37437640D01*
X36381120Y-37437867D01*
X36382455Y-37437975D01*
X36385700Y-37438280D01*
X36397656Y-37439564D01*
X36414260Y-37437781D01*
X36417504Y-37437476D01*
X36418839Y-37437368D01*
X36422216Y-37437141D01*
X36430182Y-37436715D01*
X36433466Y-37436583D01*
X36434803Y-37436547D01*
X36438141Y-37436502D01*
X36761863Y-37436501D01*
X36765201Y-37436546D01*
X36766538Y-37436582D01*
X36769818Y-37436714D01*
X36777788Y-37437140D01*
X36781161Y-37437366D01*
X36782013Y-37437434D01*
X36782013Y-37396176D01*
X36782012Y-37396175D01*
X37319927Y-37396175D01*
X37319927Y-37436501D01*
X37561861Y-37436501D01*
X37565199Y-37436546D01*
X37566536Y-37436582D01*
X37569816Y-37436714D01*
X37577786Y-37437140D01*
X37581159Y-37437366D01*
X37582495Y-37437474D01*
X37585753Y-37437781D01*
X37600001Y-37439312D01*
X37614253Y-37437781D01*
X37617500Y-37437476D01*
X37618835Y-37437368D01*
X37622214Y-37437141D01*
X37630182Y-37436715D01*
X37633462Y-37436583D01*
X37634798Y-37436547D01*
X37638138Y-37436502D01*
X37961860Y-37436501D01*
X37965198Y-37436546D01*
X37966535Y-37436582D01*
X37969816Y-37436714D01*
X37977785Y-37437140D01*
X37981157Y-37437366D01*
X37982493Y-37437474D01*
X37985750Y-37437781D01*
X38000001Y-37439312D01*
X38014256Y-37437781D01*
X38017502Y-37437476D01*
X38018837Y-37437368D01*
X38022216Y-37437141D01*
X38030184Y-37436715D01*
X38033464Y-37436583D01*
X38034800Y-37436547D01*
X38038139Y-37436502D01*
X38054805Y-37436501D01*
X38054805Y-37396176D01*
X38592719Y-37396176D01*
X38592719Y-37436501D01*
X38761861Y-37436501D01*
X38765199Y-37436546D01*
X38766536Y-37436582D01*
X38769816Y-37436714D01*
X38777786Y-37437140D01*
X38781159Y-37437366D01*
X38782495Y-37437474D01*
X38785753Y-37437781D01*
X38800001Y-37439312D01*
X38814253Y-37437781D01*
X38817500Y-37437476D01*
X38818835Y-37437368D01*
X38822214Y-37437141D01*
X38830182Y-37436715D01*
X38833462Y-37436583D01*
X38834798Y-37436547D01*
X38838137Y-37436502D01*
X38941500Y-37436501D01*
X38941500Y-37086976D01*
X38901919Y-37086976D01*
X38592719Y-37396176D01*
X38054805Y-37396176D01*
X37745605Y-37086976D01*
X37629126Y-37086976D01*
X37319927Y-37396175D01*
X36782012Y-37396175D01*
X36472813Y-37086976D01*
X36356334Y-37086976D01*
X36047134Y-37396176D01*
X35509221Y-37396176D01*
X35200021Y-37086976D01*
X35083542Y-37086976D01*
X34774342Y-37396176D01*
X34236429Y-37396176D01*
X33927229Y-37086976D01*
X33810750Y-37086976D01*
X33501550Y-37396176D01*
X32963636Y-37396176D01*
X32963636Y-37396175D01*
X32654437Y-37086976D01*
X32537958Y-37086976D01*
X32228758Y-37396176D01*
X31843775Y-37396176D01*
X31869737Y-37333497D01*
X31900500Y-37178842D01*
X31900500Y-37021158D01*
X31900500Y-37021155D01*
X31900499Y-37021153D01*
X31896138Y-36999231D01*
X31869737Y-36866503D01*
X31857799Y-36837682D01*
X31809397Y-36720827D01*
X31809390Y-36720814D01*
X31721789Y-36589711D01*
X31721786Y-36589707D01*
X31610292Y-36478213D01*
X31610288Y-36478210D01*
X31568937Y-36450580D01*
X31987227Y-36450580D01*
X32061239Y-36561346D01*
X32064502Y-36566499D01*
X32065764Y-36568605D01*
X32068759Y-36573893D01*
X32075659Y-36586803D01*
X32078404Y-36592257D01*
X32079453Y-36594476D01*
X32081909Y-36600019D01*
X32147854Y-36759225D01*
X32150053Y-36764927D01*
X32150879Y-36767237D01*
X32152779Y-36772989D01*
X32157029Y-36786998D01*
X32158646Y-36792839D01*
X32159243Y-36795220D01*
X32160583Y-36801187D01*
X32194202Y-36970199D01*
X32195245Y-36976211D01*
X32195605Y-36978640D01*
X32196348Y-36984663D01*
X32197783Y-36999231D01*
X32198227Y-37005271D01*
X32327240Y-36876259D01*
X32327240Y-36759780D01*
X32865154Y-36759780D01*
X32865154Y-36876258D01*
X33174354Y-37185458D01*
X33290833Y-37185458D01*
X33600032Y-36876259D01*
X33600032Y-36759780D01*
X34137946Y-36759780D01*
X34137946Y-36876258D01*
X34447146Y-37185458D01*
X34563625Y-37185458D01*
X34872825Y-36876258D01*
X34872825Y-36759780D01*
X35410738Y-36759780D01*
X35410738Y-36876258D01*
X35719938Y-37185458D01*
X35836417Y-37185458D01*
X36145617Y-36876258D01*
X36145617Y-36759780D01*
X36145616Y-36759779D01*
X36683531Y-36759779D01*
X36683531Y-36876259D01*
X36992730Y-37185458D01*
X37109209Y-37185458D01*
X37418409Y-36876258D01*
X37418409Y-36759780D01*
X37418408Y-36759779D01*
X37956323Y-36759779D01*
X37956323Y-36876259D01*
X38265522Y-37185458D01*
X38382002Y-37185458D01*
X38691201Y-36876259D01*
X38691201Y-36759779D01*
X38382002Y-36450580D01*
X38265522Y-36450580D01*
X37956323Y-36759779D01*
X37418408Y-36759779D01*
X37109209Y-36450580D01*
X36992730Y-36450580D01*
X36683531Y-36759779D01*
X36145616Y-36759779D01*
X35836417Y-36450580D01*
X35719938Y-36450580D01*
X35410738Y-36759780D01*
X34872825Y-36759780D01*
X34563625Y-36450580D01*
X34447146Y-36450580D01*
X34137946Y-36759780D01*
X33600032Y-36759780D01*
X33600032Y-36759779D01*
X33290833Y-36450580D01*
X33174354Y-36450580D01*
X32865154Y-36759780D01*
X32327240Y-36759780D01*
X32327240Y-36759779D01*
X32018041Y-36450580D01*
X31987227Y-36450580D01*
X31568937Y-36450580D01*
X31479185Y-36390609D01*
X31479172Y-36390602D01*
X31333501Y-36330264D01*
X31333489Y-36330261D01*
X31178845Y-36299500D01*
X31178842Y-36299500D01*
X31021158Y-36299500D01*
X31021155Y-36299500D01*
X30866510Y-36330261D01*
X30866498Y-36330264D01*
X30720827Y-36390602D01*
X30720814Y-36390609D01*
X30589711Y-36478210D01*
X30589707Y-36478213D01*
X30478213Y-36589707D01*
X30478210Y-36589711D01*
X30390609Y-36720814D01*
X30390602Y-36720827D01*
X30330264Y-36866498D01*
X30330261Y-36866510D01*
X30299500Y-37021153D01*
X29636761Y-37021153D01*
X29781656Y-36876258D01*
X29781656Y-36759780D01*
X29472456Y-36450580D01*
X29355977Y-36450580D01*
X29046777Y-36759780D01*
X28508864Y-36759780D01*
X28228201Y-36479117D01*
X28148485Y-36519735D01*
X28144109Y-36521857D01*
X28142324Y-36522680D01*
X28137857Y-36524635D01*
X28127041Y-36529115D01*
X28122497Y-36530892D01*
X28120656Y-36531571D01*
X28116066Y-36533163D01*
X27945028Y-36588735D01*
X27773985Y-36759779D01*
X27236070Y-36759779D01*
X27069866Y-36593575D01*
X26883934Y-36533163D01*
X26879344Y-36531571D01*
X26877503Y-36530892D01*
X26872959Y-36529115D01*
X26862143Y-36524635D01*
X26857676Y-36522680D01*
X26855891Y-36521857D01*
X26851515Y-36519735D01*
X26778460Y-36482511D01*
X26501193Y-36759779D01*
X25963279Y-36759779D01*
X25798500Y-36595000D01*
X25798500Y-37041038D01*
X25500500Y-37041038D01*
X25500500Y-36123383D01*
X25864797Y-36123383D01*
X25864797Y-36239862D01*
X26173997Y-36549062D01*
X26290476Y-36549062D01*
X26516461Y-36323075D01*
X26440312Y-36267750D01*
X26436437Y-36264817D01*
X26434893Y-36263600D01*
X26431109Y-36260495D01*
X26422207Y-36252890D01*
X26418615Y-36249699D01*
X26417174Y-36248368D01*
X26413629Y-36244960D01*
X26255040Y-36086371D01*
X26251632Y-36082826D01*
X26250301Y-36081385D01*
X26247110Y-36077793D01*
X26239505Y-36068891D01*
X26236400Y-36065107D01*
X26235183Y-36063563D01*
X26232250Y-36059688D01*
X26104426Y-35883753D01*
X25864797Y-36123383D01*
X25500500Y-36123383D01*
X25500500Y-35768245D01*
X25798500Y-35768245D01*
X25962874Y-35603870D01*
X25906423Y-35430131D01*
X25798500Y-35322208D01*
X25798500Y-35768245D01*
X25500500Y-35768245D01*
X25500500Y-34893713D01*
X26149500Y-34893713D01*
X26149500Y-35106286D01*
X26182610Y-35315337D01*
X26182754Y-35316243D01*
X26246685Y-35513002D01*
X26248444Y-35518414D01*
X26344951Y-35707820D01*
X26469890Y-35879786D01*
X26620213Y-36030109D01*
X26792179Y-36155048D01*
X26792181Y-36155049D01*
X26792184Y-36155051D01*
X26981588Y-36251557D01*
X27183757Y-36317246D01*
X27393713Y-36350500D01*
X27393714Y-36350500D01*
X27606286Y-36350500D01*
X27606287Y-36350500D01*
X27806154Y-36318844D01*
X28489362Y-36318844D01*
X28719581Y-36549062D01*
X28836060Y-36549062D01*
X29145260Y-36239862D01*
X29145260Y-36123383D01*
X29683173Y-36123383D01*
X29683173Y-36239862D01*
X29992373Y-36549062D01*
X30108851Y-36549062D01*
X30223727Y-36434184D01*
X30234501Y-36418062D01*
X30238015Y-36413074D01*
X30239478Y-36411102D01*
X30243211Y-36406319D01*
X30252497Y-36395004D01*
X30256481Y-36390386D01*
X30258130Y-36388567D01*
X30262318Y-36384169D01*
X30384169Y-36262318D01*
X30388567Y-36258130D01*
X30390386Y-36256481D01*
X30395004Y-36252497D01*
X30406319Y-36243211D01*
X30411102Y-36239478D01*
X30413074Y-36238015D01*
X30418052Y-36234507D01*
X30418052Y-36123383D01*
X30296169Y-36001500D01*
X31077849Y-36001500D01*
X31186161Y-36001500D01*
X31192222Y-36001648D01*
X31194674Y-36001768D01*
X31200769Y-36002217D01*
X31215337Y-36003652D01*
X31221360Y-36004395D01*
X31223789Y-36004755D01*
X31229801Y-36005798D01*
X31398813Y-36039417D01*
X31404780Y-36040757D01*
X31407161Y-36041354D01*
X31413002Y-36042971D01*
X31427011Y-36047221D01*
X31432763Y-36049121D01*
X31435073Y-36049947D01*
X31440775Y-36052146D01*
X31599981Y-36118091D01*
X31605524Y-36120547D01*
X31607743Y-36121596D01*
X31613197Y-36124341D01*
X31626107Y-36131241D01*
X31631395Y-36134236D01*
X31633501Y-36135498D01*
X31638654Y-36138761D01*
X31690844Y-36173633D01*
X31690844Y-36123383D01*
X32228758Y-36123383D01*
X32228758Y-36239862D01*
X32537958Y-36549062D01*
X32654437Y-36549062D01*
X32904999Y-36298500D01*
X33560187Y-36298500D01*
X33810750Y-36549062D01*
X33927229Y-36549062D01*
X34236429Y-36239862D01*
X34236429Y-36123383D01*
X34774342Y-36123383D01*
X34774342Y-36239862D01*
X35083542Y-36549062D01*
X35200021Y-36549062D01*
X35509221Y-36239862D01*
X35509221Y-36123383D01*
X36047134Y-36123383D01*
X36047134Y-36239862D01*
X36356334Y-36549062D01*
X36472813Y-36549062D01*
X36782013Y-36239862D01*
X36782013Y-36123383D01*
X37319927Y-36123383D01*
X37319927Y-36239863D01*
X37629126Y-36549062D01*
X37745605Y-36549062D01*
X38054805Y-36239862D01*
X38054805Y-36123383D01*
X38592719Y-36123383D01*
X38592719Y-36239862D01*
X38901919Y-36549062D01*
X39018398Y-36549062D01*
X39327597Y-36239863D01*
X39327597Y-36123383D01*
X39171771Y-35967557D01*
X39168605Y-35965764D01*
X39166499Y-35964502D01*
X39161346Y-35961239D01*
X39018065Y-35865501D01*
X39013074Y-35861985D01*
X39011102Y-35860522D01*
X39006319Y-35856789D01*
X38995004Y-35847503D01*
X38990386Y-35843519D01*
X38988567Y-35841870D01*
X38984169Y-35837682D01*
X38960671Y-35814184D01*
X38901919Y-35814184D01*
X38592719Y-36123383D01*
X38054805Y-36123383D01*
X37745605Y-35814184D01*
X37629126Y-35814184D01*
X37319927Y-36123383D01*
X36782013Y-36123383D01*
X36472813Y-35814184D01*
X36356334Y-35814184D01*
X36047134Y-36123383D01*
X35509221Y-36123383D01*
X35200021Y-35814184D01*
X35083542Y-35814184D01*
X34774342Y-36123383D01*
X34236429Y-36123383D01*
X34219958Y-36106912D01*
X34138654Y-36161239D01*
X34133501Y-36164502D01*
X34131395Y-36165764D01*
X34126107Y-36168759D01*
X34113197Y-36175659D01*
X34107743Y-36178404D01*
X34105524Y-36179453D01*
X34099981Y-36181909D01*
X33940775Y-36247854D01*
X33935073Y-36250053D01*
X33932763Y-36250879D01*
X33927011Y-36252779D01*
X33913002Y-36257029D01*
X33907161Y-36258646D01*
X33904780Y-36259243D01*
X33898813Y-36260583D01*
X33729801Y-36294202D01*
X33723789Y-36295245D01*
X33721360Y-36295605D01*
X33715337Y-36296348D01*
X33700769Y-36297783D01*
X33694674Y-36298232D01*
X33692222Y-36298352D01*
X33686161Y-36298500D01*
X33560187Y-36298500D01*
X32904999Y-36298500D01*
X32963636Y-36239863D01*
X32963636Y-36123383D01*
X32654437Y-35814184D01*
X32537958Y-35814184D01*
X32228758Y-36123383D01*
X31690844Y-36123383D01*
X31381644Y-35814184D01*
X31265165Y-35814184D01*
X31077849Y-36001500D01*
X30296169Y-36001500D01*
X30108852Y-35814184D01*
X29992373Y-35814184D01*
X29683173Y-36123383D01*
X29145260Y-36123383D01*
X28899799Y-35877923D01*
X28899579Y-35878240D01*
X28767750Y-36059688D01*
X28764817Y-36063563D01*
X28763600Y-36065107D01*
X28760495Y-36068891D01*
X28752890Y-36077793D01*
X28749699Y-36081385D01*
X28748368Y-36082826D01*
X28744960Y-36086371D01*
X28586371Y-36244960D01*
X28582826Y-36248368D01*
X28581385Y-36249699D01*
X28577793Y-36252890D01*
X28568891Y-36260495D01*
X28565107Y-36263600D01*
X28563563Y-36264817D01*
X28559688Y-36267750D01*
X28489362Y-36318844D01*
X27806154Y-36318844D01*
X27816243Y-36317246D01*
X28018412Y-36251557D01*
X28207816Y-36155051D01*
X28255307Y-36120547D01*
X28379786Y-36030109D01*
X28379788Y-36030106D01*
X28379792Y-36030104D01*
X28530104Y-35879792D01*
X28530106Y-35879788D01*
X28530109Y-35879786D01*
X28641762Y-35726107D01*
X28655051Y-35707816D01*
X28723149Y-35574165D01*
X29046777Y-35574165D01*
X29046777Y-35603466D01*
X29355977Y-35912666D01*
X29472456Y-35912666D01*
X29781656Y-35603466D01*
X29781656Y-35486987D01*
X30319570Y-35486987D01*
X30319570Y-35603466D01*
X30628769Y-35912666D01*
X30745248Y-35912666D01*
X31054448Y-35603466D01*
X31054448Y-35486987D01*
X31592362Y-35486987D01*
X31592362Y-35603466D01*
X31901561Y-35912666D01*
X32018041Y-35912666D01*
X32327240Y-35603466D01*
X32327240Y-35486987D01*
X32018041Y-35177788D01*
X31901561Y-35177788D01*
X31592362Y-35486987D01*
X31054448Y-35486987D01*
X30745248Y-35177788D01*
X30628769Y-35177788D01*
X30319570Y-35486987D01*
X29781656Y-35486987D01*
X29472456Y-35177788D01*
X29355978Y-35177788D01*
X29088735Y-35445028D01*
X29046777Y-35574165D01*
X28723149Y-35574165D01*
X28751557Y-35518412D01*
X28817246Y-35316243D01*
X28850500Y-35106287D01*
X28850500Y-34893713D01*
X28843670Y-34850591D01*
X29683173Y-34850591D01*
X29683173Y-34967070D01*
X29992373Y-35276270D01*
X30108852Y-35276270D01*
X30418052Y-34967070D01*
X30418052Y-34850591D01*
X30955966Y-34850591D01*
X30955966Y-34967070D01*
X31265165Y-35276270D01*
X31381644Y-35276270D01*
X31690844Y-34967070D01*
X31690844Y-34850591D01*
X32228758Y-34850591D01*
X32228758Y-34967070D01*
X32501500Y-35239812D01*
X32501500Y-35121153D01*
X32799500Y-35121153D01*
X32799500Y-35278846D01*
X32830261Y-35433489D01*
X32830264Y-35433501D01*
X32890602Y-35579172D01*
X32890609Y-35579185D01*
X32978210Y-35710288D01*
X32978213Y-35710292D01*
X33089707Y-35821786D01*
X33089711Y-35821789D01*
X33220814Y-35909390D01*
X33220827Y-35909397D01*
X33299894Y-35942147D01*
X33366503Y-35969737D01*
X33485424Y-35993392D01*
X33521153Y-36000499D01*
X33521156Y-36000500D01*
X33521158Y-36000500D01*
X33678844Y-36000500D01*
X33678845Y-36000499D01*
X33833497Y-35969737D01*
X33979179Y-35909394D01*
X33979312Y-35909305D01*
X34443785Y-35909305D01*
X34447146Y-35912666D01*
X34563625Y-35912666D01*
X34872825Y-35603466D01*
X34872825Y-35486987D01*
X35410738Y-35486987D01*
X35410738Y-35603466D01*
X35719938Y-35912666D01*
X35836417Y-35912666D01*
X36145617Y-35603466D01*
X36145617Y-35486987D01*
X36683531Y-35486987D01*
X36683531Y-35603466D01*
X36992730Y-35912666D01*
X37109209Y-35912666D01*
X37418409Y-35603466D01*
X37418409Y-35486987D01*
X37956323Y-35486987D01*
X37956323Y-35603466D01*
X38265522Y-35912666D01*
X38382002Y-35912666D01*
X38691201Y-35603466D01*
X38691201Y-35486987D01*
X38382002Y-35177788D01*
X38265522Y-35177788D01*
X37956323Y-35486987D01*
X37418409Y-35486987D01*
X37109209Y-35177788D01*
X36992730Y-35177788D01*
X36683531Y-35486987D01*
X36145617Y-35486987D01*
X35836417Y-35177788D01*
X35719938Y-35177788D01*
X35410738Y-35486987D01*
X34872825Y-35486987D01*
X34696780Y-35310943D01*
X34696348Y-35315337D01*
X34695605Y-35321360D01*
X34695245Y-35323789D01*
X34694202Y-35329801D01*
X34660583Y-35498813D01*
X34659243Y-35504780D01*
X34658646Y-35507161D01*
X34657029Y-35513002D01*
X34652779Y-35527011D01*
X34650879Y-35532763D01*
X34650053Y-35535073D01*
X34647854Y-35540775D01*
X34581909Y-35699981D01*
X34579453Y-35705524D01*
X34578404Y-35707743D01*
X34575659Y-35713197D01*
X34568759Y-35726107D01*
X34565764Y-35731395D01*
X34564502Y-35733501D01*
X34561239Y-35738654D01*
X34465501Y-35881935D01*
X34461985Y-35886926D01*
X34460522Y-35888898D01*
X34456789Y-35893681D01*
X34447503Y-35904996D01*
X34443785Y-35909305D01*
X33979312Y-35909305D01*
X34110289Y-35821789D01*
X34221789Y-35710289D01*
X34309394Y-35579179D01*
X34369737Y-35433497D01*
X34400500Y-35278842D01*
X34400500Y-35121158D01*
X34400500Y-35121155D01*
X34400499Y-35121153D01*
X34399044Y-35113839D01*
X34369737Y-34966503D01*
X34350955Y-34921158D01*
X34321726Y-34850591D01*
X34774342Y-34850591D01*
X34774342Y-34967070D01*
X35083542Y-35276270D01*
X35200021Y-35276270D01*
X35509221Y-34967070D01*
X35509221Y-34850591D01*
X36047134Y-34850591D01*
X36047134Y-34967070D01*
X36356334Y-35276270D01*
X36472813Y-35276270D01*
X36782013Y-34967070D01*
X36782013Y-34850591D01*
X37319927Y-34850591D01*
X37319927Y-34967070D01*
X37629126Y-35276270D01*
X37745605Y-35276270D01*
X38054805Y-34967070D01*
X38054805Y-34850591D01*
X37745605Y-34541392D01*
X37629126Y-34541392D01*
X37319927Y-34850591D01*
X36782013Y-34850591D01*
X36472813Y-34541392D01*
X36356334Y-34541392D01*
X36047134Y-34850591D01*
X35509221Y-34850591D01*
X35200021Y-34541392D01*
X35083542Y-34541392D01*
X34774342Y-34850591D01*
X34321726Y-34850591D01*
X34309397Y-34820827D01*
X34309390Y-34820814D01*
X34221789Y-34689711D01*
X34221786Y-34689707D01*
X34110292Y-34578213D01*
X34110288Y-34578210D01*
X33979185Y-34490609D01*
X33979172Y-34490602D01*
X33833501Y-34430264D01*
X33833489Y-34430261D01*
X33678845Y-34399500D01*
X33678842Y-34399500D01*
X33521158Y-34399500D01*
X33521155Y-34399500D01*
X33366510Y-34430261D01*
X33366498Y-34430264D01*
X33220827Y-34490602D01*
X33220814Y-34490609D01*
X33089711Y-34578210D01*
X33089707Y-34578213D01*
X32978213Y-34689707D01*
X32978210Y-34689711D01*
X32890609Y-34820814D01*
X32890602Y-34820827D01*
X32830264Y-34966498D01*
X32830261Y-34966510D01*
X32799500Y-35121153D01*
X32501500Y-35121153D01*
X32501500Y-35113839D01*
X32501648Y-35107778D01*
X32501768Y-35105326D01*
X32502217Y-35099231D01*
X32503652Y-35084663D01*
X32504395Y-35078640D01*
X32504755Y-35076211D01*
X32505798Y-35070199D01*
X32539417Y-34901187D01*
X32540757Y-34895220D01*
X32541354Y-34892839D01*
X32542971Y-34886998D01*
X32547221Y-34872989D01*
X32549121Y-34867237D01*
X32549947Y-34864927D01*
X32552146Y-34859225D01*
X32618091Y-34700019D01*
X32620547Y-34694476D01*
X32621596Y-34692257D01*
X32624341Y-34686803D01*
X32631241Y-34673893D01*
X32634236Y-34668605D01*
X32635498Y-34666499D01*
X32638761Y-34661346D01*
X32693086Y-34580041D01*
X32654437Y-34541392D01*
X32537958Y-34541392D01*
X32228758Y-34850591D01*
X31690844Y-34850591D01*
X31381644Y-34541392D01*
X31265165Y-34541392D01*
X30955966Y-34850591D01*
X30418052Y-34850591D01*
X30108852Y-34541392D01*
X29992373Y-34541392D01*
X29683173Y-34850591D01*
X28843670Y-34850591D01*
X28817246Y-34683757D01*
X28751557Y-34481588D01*
X28655051Y-34292184D01*
X28655049Y-34292181D01*
X28655048Y-34292179D01*
X28598390Y-34214195D01*
X29046777Y-34214195D01*
X29046777Y-34330674D01*
X29355977Y-34639874D01*
X29472456Y-34639874D01*
X29781656Y-34330674D01*
X29781656Y-34214195D01*
X30319570Y-34214195D01*
X30319570Y-34330674D01*
X30628769Y-34639874D01*
X30745248Y-34639874D01*
X31054448Y-34330674D01*
X31054448Y-34214195D01*
X31592362Y-34214195D01*
X31592362Y-34330674D01*
X31901561Y-34639874D01*
X32018041Y-34639874D01*
X32327240Y-34330674D01*
X32327240Y-34214195D01*
X32865154Y-34214195D01*
X32865154Y-34330674D01*
X32890694Y-34356214D01*
X32895004Y-34352497D01*
X32906319Y-34343211D01*
X32911102Y-34339478D01*
X32913074Y-34338015D01*
X32918065Y-34334499D01*
X33061346Y-34238761D01*
X33066499Y-34235498D01*
X33068605Y-34234236D01*
X33073893Y-34231241D01*
X33086803Y-34224341D01*
X33092257Y-34221596D01*
X33094476Y-34220547D01*
X33100019Y-34218091D01*
X33109425Y-34214195D01*
X34137946Y-34214195D01*
X34137946Y-34238312D01*
X34138654Y-34238761D01*
X34281935Y-34334499D01*
X34286926Y-34338015D01*
X34288898Y-34339478D01*
X34293681Y-34343211D01*
X34304996Y-34352497D01*
X34309614Y-34356481D01*
X34311433Y-34358130D01*
X34315831Y-34362318D01*
X34437682Y-34484169D01*
X34441870Y-34488567D01*
X34443519Y-34490386D01*
X34447503Y-34495004D01*
X34456789Y-34506319D01*
X34460522Y-34511102D01*
X34461985Y-34513074D01*
X34465501Y-34518065D01*
X34546892Y-34639874D01*
X34563625Y-34639874D01*
X34872825Y-34330674D01*
X34872825Y-34214195D01*
X35410738Y-34214195D01*
X35410738Y-34330674D01*
X35719938Y-34639874D01*
X35836417Y-34639874D01*
X36145617Y-34330674D01*
X36145617Y-34214195D01*
X36683531Y-34214195D01*
X36683531Y-34330674D01*
X36992730Y-34639874D01*
X37109209Y-34639874D01*
X37418409Y-34330674D01*
X37418409Y-34214195D01*
X37956323Y-34214195D01*
X37956323Y-34330674D01*
X38265522Y-34639874D01*
X38382002Y-34639874D01*
X38691201Y-34330674D01*
X38691201Y-34214195D01*
X38382002Y-33904996D01*
X38265522Y-33904996D01*
X37956323Y-34214195D01*
X37418409Y-34214195D01*
X37109209Y-33904996D01*
X36992730Y-33904996D01*
X36683531Y-34214195D01*
X36145617Y-34214195D01*
X35836417Y-33904996D01*
X35719938Y-33904996D01*
X35410738Y-34214195D01*
X34872825Y-34214195D01*
X34563625Y-33904996D01*
X34447146Y-33904996D01*
X34137946Y-34214195D01*
X33109425Y-34214195D01*
X33259225Y-34152146D01*
X33264927Y-34149947D01*
X33267237Y-34149121D01*
X33272989Y-34147221D01*
X33286998Y-34142971D01*
X33292839Y-34141354D01*
X33295220Y-34140757D01*
X33301187Y-34139417D01*
X33470199Y-34105798D01*
X33476211Y-34104755D01*
X33478640Y-34104395D01*
X33484663Y-34103652D01*
X33489056Y-34103219D01*
X33290833Y-33904996D01*
X33174354Y-33904996D01*
X32865154Y-34214195D01*
X32327240Y-34214195D01*
X32018041Y-33904996D01*
X31901561Y-33904996D01*
X31592362Y-34214195D01*
X31054448Y-34214195D01*
X30745248Y-33904996D01*
X30628769Y-33904996D01*
X30319570Y-34214195D01*
X29781656Y-34214195D01*
X29472456Y-33904996D01*
X29355977Y-33904996D01*
X29046777Y-34214195D01*
X28598390Y-34214195D01*
X28530109Y-34120213D01*
X28379786Y-33969890D01*
X28207820Y-33844951D01*
X28018414Y-33748444D01*
X28018413Y-33748443D01*
X28018412Y-33748443D01*
X27816243Y-33682754D01*
X27816241Y-33682753D01*
X27816240Y-33682753D01*
X27654957Y-33657208D01*
X27606287Y-33649500D01*
X27393713Y-33649500D01*
X27345042Y-33657208D01*
X27183760Y-33682753D01*
X26981585Y-33748444D01*
X26792179Y-33844951D01*
X26620213Y-33969890D01*
X26469890Y-34120213D01*
X26344951Y-34292179D01*
X26248444Y-34481585D01*
X26182753Y-34683760D01*
X26149500Y-34893713D01*
X25500500Y-34893713D01*
X25500500Y-34495453D01*
X25798500Y-34495453D01*
X25963279Y-34330674D01*
X25963279Y-34214195D01*
X25798500Y-34049416D01*
X25798500Y-34495453D01*
X25500500Y-34495453D01*
X25500500Y-34005413D01*
X25500972Y-33994606D01*
X25506601Y-33930263D01*
X25514739Y-33837242D01*
X25518490Y-33815966D01*
X25549645Y-33699692D01*
X25870211Y-33699692D01*
X26173997Y-34003478D01*
X26186357Y-34003478D01*
X26232250Y-33940312D01*
X26235183Y-33936437D01*
X26236400Y-33934893D01*
X26239505Y-33931109D01*
X26247110Y-33922207D01*
X26250301Y-33918615D01*
X26251632Y-33917174D01*
X26255040Y-33913629D01*
X26413629Y-33755040D01*
X26417174Y-33751632D01*
X26418615Y-33750301D01*
X26422207Y-33747110D01*
X26431109Y-33739505D01*
X26434893Y-33736400D01*
X26436437Y-33735183D01*
X26440312Y-33732250D01*
X26599675Y-33616466D01*
X26599675Y-33577799D01*
X28410381Y-33577799D01*
X28410381Y-33623772D01*
X28559688Y-33732250D01*
X28563563Y-33735183D01*
X28565107Y-33736400D01*
X28568891Y-33739505D01*
X28577793Y-33747110D01*
X28581385Y-33750301D01*
X28582826Y-33751632D01*
X28586371Y-33755040D01*
X28744960Y-33913629D01*
X28748368Y-33917174D01*
X28749699Y-33918615D01*
X28752890Y-33922207D01*
X28760495Y-33931109D01*
X28763600Y-33934893D01*
X28764817Y-33936437D01*
X28767750Y-33940312D01*
X28813643Y-34003478D01*
X28836060Y-34003478D01*
X29145260Y-33694278D01*
X29145260Y-33577799D01*
X29683173Y-33577799D01*
X29683173Y-33694278D01*
X29992373Y-34003478D01*
X30108852Y-34003478D01*
X30418052Y-33694278D01*
X30418052Y-33577799D01*
X30418051Y-33577798D01*
X30955966Y-33577798D01*
X30955966Y-33694278D01*
X31265165Y-34003478D01*
X31381644Y-34003478D01*
X31690844Y-33694278D01*
X31690844Y-33577799D01*
X32228758Y-33577799D01*
X32228758Y-33694278D01*
X32537958Y-34003478D01*
X32654437Y-34003478D01*
X32963636Y-33694278D01*
X32963636Y-33577799D01*
X33501550Y-33577799D01*
X33501550Y-33694278D01*
X33810750Y-34003478D01*
X33927229Y-34003478D01*
X34236429Y-33694278D01*
X34236429Y-33577799D01*
X34774342Y-33577799D01*
X34774342Y-33694278D01*
X35083542Y-34003478D01*
X35200021Y-34003478D01*
X35509221Y-33694278D01*
X35509221Y-33577799D01*
X36047134Y-33577799D01*
X36047134Y-33694278D01*
X36356334Y-34003478D01*
X36472813Y-34003478D01*
X36782013Y-33694278D01*
X36782013Y-33577799D01*
X36782012Y-33577798D01*
X37319927Y-33577798D01*
X37319927Y-33694278D01*
X37629126Y-34003478D01*
X37745605Y-34003478D01*
X38054805Y-33694278D01*
X38054805Y-33577799D01*
X38592719Y-33577799D01*
X38592719Y-33694278D01*
X38901919Y-34003478D01*
X39018398Y-34003478D01*
X39327597Y-33694278D01*
X39327597Y-33577799D01*
X39865511Y-33577799D01*
X39865511Y-33694278D01*
X40174711Y-34003478D01*
X40291190Y-34003478D01*
X40600390Y-33694278D01*
X40600390Y-33577799D01*
X41138303Y-33577799D01*
X41138303Y-33694278D01*
X41447503Y-34003478D01*
X41563982Y-34003478D01*
X41873182Y-33694278D01*
X41873182Y-33577799D01*
X41873181Y-33577798D01*
X42411096Y-33577798D01*
X42411096Y-33694278D01*
X42720295Y-34003478D01*
X42836774Y-34003478D01*
X43145974Y-33694278D01*
X43145974Y-33577799D01*
X43145973Y-33577798D01*
X43683888Y-33577798D01*
X43683888Y-33694278D01*
X43993087Y-34003478D01*
X44109566Y-34003478D01*
X44418766Y-33694278D01*
X44418766Y-33577799D01*
X44956680Y-33577799D01*
X44956680Y-33694278D01*
X45265880Y-34003478D01*
X45382359Y-34003478D01*
X45691558Y-33694278D01*
X45691558Y-33577799D01*
X46229472Y-33577799D01*
X46229472Y-33633790D01*
X46370199Y-33605798D01*
X46376211Y-33604755D01*
X46378640Y-33604395D01*
X46384663Y-33603652D01*
X46399231Y-33602217D01*
X46405326Y-33601768D01*
X46407778Y-33601648D01*
X46413839Y-33601500D01*
X46586161Y-33601500D01*
X46592222Y-33601648D01*
X46594674Y-33601768D01*
X46600769Y-33602217D01*
X46615337Y-33603652D01*
X46621360Y-33604395D01*
X46623789Y-33604755D01*
X46629801Y-33605798D01*
X46798813Y-33639417D01*
X46804780Y-33640757D01*
X46807161Y-33641354D01*
X46813002Y-33642971D01*
X46827011Y-33647221D01*
X46832763Y-33649121D01*
X46835073Y-33649947D01*
X46840775Y-33652146D01*
X46957947Y-33700680D01*
X46964351Y-33694276D01*
X46964351Y-33577799D01*
X47502264Y-33577799D01*
X47502264Y-33694278D01*
X47811464Y-34003478D01*
X47927943Y-34003478D01*
X48237143Y-33694278D01*
X48237143Y-33577799D01*
X48237142Y-33577798D01*
X48775057Y-33577798D01*
X48775057Y-33694278D01*
X49084256Y-34003478D01*
X49200735Y-34003478D01*
X49509935Y-33694278D01*
X49509935Y-33577799D01*
X49509934Y-33577798D01*
X50047849Y-33577798D01*
X50047849Y-33694278D01*
X50357048Y-34003478D01*
X50473528Y-34003478D01*
X50782727Y-33694278D01*
X50782727Y-33577799D01*
X51320641Y-33577799D01*
X51320641Y-33694278D01*
X51629841Y-34003478D01*
X51746320Y-34003478D01*
X52055519Y-33694278D01*
X52055519Y-33577799D01*
X52593433Y-33577799D01*
X52593433Y-33694278D01*
X52902633Y-34003478D01*
X53019112Y-34003478D01*
X53328312Y-33694278D01*
X53328312Y-33577799D01*
X53328311Y-33577798D01*
X53866225Y-33577798D01*
X53866225Y-33694278D01*
X54175425Y-34003478D01*
X54200666Y-34003478D01*
X54189719Y-33878381D01*
X54158123Y-33760461D01*
X54106532Y-33649824D01*
X54036500Y-33549807D01*
X53965358Y-33478665D01*
X53866225Y-33577798D01*
X53328311Y-33577798D01*
X53049013Y-33298500D01*
X52872732Y-33298500D01*
X52593433Y-33577799D01*
X52055519Y-33577799D01*
X52055519Y-33577798D01*
X51776221Y-33298500D01*
X51599940Y-33298500D01*
X51320641Y-33577799D01*
X50782727Y-33577799D01*
X50782727Y-33577798D01*
X50503429Y-33298500D01*
X50327147Y-33298500D01*
X50047849Y-33577798D01*
X49509934Y-33577798D01*
X49230636Y-33298500D01*
X49054355Y-33298500D01*
X48775057Y-33577798D01*
X48237142Y-33577798D01*
X47957844Y-33298500D01*
X47781563Y-33298500D01*
X47502264Y-33577799D01*
X46964351Y-33577799D01*
X46685052Y-33298500D01*
X46508771Y-33298500D01*
X46229472Y-33577799D01*
X45691558Y-33577799D01*
X45691558Y-33577798D01*
X45412260Y-33298500D01*
X45235979Y-33298500D01*
X44956680Y-33577799D01*
X44418766Y-33577799D01*
X44139467Y-33298500D01*
X43963186Y-33298500D01*
X43683888Y-33577798D01*
X43145973Y-33577798D01*
X42866675Y-33298500D01*
X42690394Y-33298500D01*
X42411096Y-33577798D01*
X41873181Y-33577798D01*
X41593883Y-33298500D01*
X41417602Y-33298500D01*
X41138303Y-33577799D01*
X40600390Y-33577799D01*
X40321091Y-33298500D01*
X40144810Y-33298500D01*
X39865511Y-33577799D01*
X39327597Y-33577799D01*
X39327597Y-33577798D01*
X39048299Y-33298500D01*
X38872018Y-33298500D01*
X38592719Y-33577799D01*
X38054805Y-33577799D01*
X37775506Y-33298500D01*
X37599225Y-33298500D01*
X37319927Y-33577798D01*
X36782012Y-33577798D01*
X36502714Y-33298500D01*
X36326433Y-33298500D01*
X36047134Y-33577799D01*
X35509221Y-33577799D01*
X35229922Y-33298500D01*
X35053641Y-33298500D01*
X34774342Y-33577799D01*
X34236429Y-33577799D01*
X33957130Y-33298500D01*
X33780849Y-33298500D01*
X33501550Y-33577799D01*
X32963636Y-33577799D01*
X32963636Y-33577798D01*
X32684338Y-33298500D01*
X32508057Y-33298500D01*
X32228758Y-33577799D01*
X31690844Y-33577799D01*
X31411545Y-33298500D01*
X31235264Y-33298500D01*
X30955966Y-33577798D01*
X30418051Y-33577798D01*
X30138753Y-33298500D01*
X29962472Y-33298500D01*
X29683173Y-33577799D01*
X29145260Y-33577799D01*
X28865961Y-33298500D01*
X28689680Y-33298500D01*
X28410381Y-33577799D01*
X26599675Y-33577799D01*
X26599675Y-33577798D01*
X26341923Y-33320046D01*
X26260461Y-33341874D01*
X26149824Y-33393465D01*
X26049807Y-33463497D01*
X25963497Y-33549807D01*
X25893465Y-33649824D01*
X25870211Y-33699692D01*
X25549645Y-33699692D01*
X25557969Y-33668627D01*
X25565362Y-33648318D01*
X25565874Y-33647221D01*
X25629823Y-33510081D01*
X25640629Y-33491366D01*
X25728119Y-33366417D01*
X25742007Y-33349865D01*
X25849865Y-33242007D01*
X25866417Y-33228119D01*
X25991366Y-33140629D01*
X26010081Y-33129823D01*
X26148320Y-33065361D01*
X26168627Y-33057969D01*
X26315966Y-33018490D01*
X26337242Y-33014739D01*
X26469885Y-33003134D01*
X26494606Y-33000972D01*
X26505413Y-33000500D01*
X26565892Y-33000500D01*
X53434108Y-33000500D01*
X53494587Y-33000500D01*
X53505394Y-33000972D01*
G37*
%TD.AperFunction*%
%TD*%
M02*
