%TF.GenerationSoftware,KiCad,Pcbnew,9.0.2*%
%TF.CreationDate,2025-06-09T11:48:46-05:00*%
%TF.ProjectId,ICEBATS384,49434542-4154-4533-9338-342e6b696361,rev?*%
%TF.SameCoordinates,Original*%
%TF.FileFunction,Legend,Bot*%
%TF.FilePolarity,Positive*%
%FSLAX46Y46*%
G04 Gerber Fmt 4.6, Leading zero omitted, Abs format (unit mm)*
G04 Created by KiCad (PCBNEW 9.0.2) date 2025-06-09 11:48:46*
%MOMM*%
%LPD*%
G01*
G04 APERTURE LIST*
%ADD10C,0.150000*%
%ADD11C,0.152400*%
%ADD12R,0.220000X0.900000*%
%ADD13R,0.500000X0.850000*%
%ADD14C,2.200000*%
G04 APERTURE END LIST*
D10*
X40333333Y-34374819D02*
X40333333Y-35089104D01*
X40333333Y-35089104D02*
X40380952Y-35231961D01*
X40380952Y-35231961D02*
X40476190Y-35327200D01*
X40476190Y-35327200D02*
X40619047Y-35374819D01*
X40619047Y-35374819D02*
X40714285Y-35374819D01*
X39904761Y-34470057D02*
X39857142Y-34422438D01*
X39857142Y-34422438D02*
X39761904Y-34374819D01*
X39761904Y-34374819D02*
X39523809Y-34374819D01*
X39523809Y-34374819D02*
X39428571Y-34422438D01*
X39428571Y-34422438D02*
X39380952Y-34470057D01*
X39380952Y-34470057D02*
X39333333Y-34565295D01*
X39333333Y-34565295D02*
X39333333Y-34660533D01*
X39333333Y-34660533D02*
X39380952Y-34803390D01*
X39380952Y-34803390D02*
X39952380Y-35374819D01*
X39952380Y-35374819D02*
X39333333Y-35374819D01*
X44047619Y-31834820D02*
X44523809Y-31834820D01*
X44523809Y-31834820D02*
X44571428Y-32311010D01*
X44571428Y-32311010D02*
X44523809Y-32263391D01*
X44523809Y-32263391D02*
X44428571Y-32215772D01*
X44428571Y-32215772D02*
X44190476Y-32215772D01*
X44190476Y-32215772D02*
X44095238Y-32263391D01*
X44095238Y-32263391D02*
X44047619Y-32311010D01*
X44047619Y-32311010D02*
X44000000Y-32406248D01*
X44000000Y-32406248D02*
X44000000Y-32644343D01*
X44000000Y-32644343D02*
X44047619Y-32739581D01*
X44047619Y-32739581D02*
X44095238Y-32787201D01*
X44095238Y-32787201D02*
X44190476Y-32834820D01*
X44190476Y-32834820D02*
X44428571Y-32834820D01*
X44428571Y-32834820D02*
X44523809Y-32787201D01*
X44523809Y-32787201D02*
X44571428Y-32739581D01*
X43380952Y-31834820D02*
X43285714Y-31834820D01*
X43285714Y-31834820D02*
X43190476Y-31882439D01*
X43190476Y-31882439D02*
X43142857Y-31930058D01*
X43142857Y-31930058D02*
X43095238Y-32025296D01*
X43095238Y-32025296D02*
X43047619Y-32215772D01*
X43047619Y-32215772D02*
X43047619Y-32453867D01*
X43047619Y-32453867D02*
X43095238Y-32644343D01*
X43095238Y-32644343D02*
X43142857Y-32739581D01*
X43142857Y-32739581D02*
X43190476Y-32787201D01*
X43190476Y-32787201D02*
X43285714Y-32834820D01*
X43285714Y-32834820D02*
X43380952Y-32834820D01*
X43380952Y-32834820D02*
X43476190Y-32787201D01*
X43476190Y-32787201D02*
X43523809Y-32739581D01*
X43523809Y-32739581D02*
X43571428Y-32644343D01*
X43571428Y-32644343D02*
X43619047Y-32453867D01*
X43619047Y-32453867D02*
X43619047Y-32215772D01*
X43619047Y-32215772D02*
X43571428Y-32025296D01*
X43571428Y-32025296D02*
X43523809Y-31930058D01*
X43523809Y-31930058D02*
X43476190Y-31882439D01*
X43476190Y-31882439D02*
X43380952Y-31834820D01*
X42095238Y-32834820D02*
X42666666Y-32834820D01*
X42380952Y-32834820D02*
X42380952Y-31834820D01*
X42380952Y-31834820D02*
X42476190Y-31977677D01*
X42476190Y-31977677D02*
X42571428Y-32072915D01*
X42571428Y-32072915D02*
X42666666Y-32120534D01*
X41761904Y-31834820D02*
X41095238Y-31834820D01*
X41095238Y-31834820D02*
X41523809Y-32834820D01*
X40285714Y-32168153D02*
X40285714Y-32834820D01*
X40523809Y-31787201D02*
X40761904Y-32501486D01*
X40761904Y-32501486D02*
X40142857Y-32501486D01*
X39285714Y-31834820D02*
X39761904Y-31834820D01*
X39761904Y-31834820D02*
X39809523Y-32311010D01*
X39809523Y-32311010D02*
X39761904Y-32263391D01*
X39761904Y-32263391D02*
X39666666Y-32215772D01*
X39666666Y-32215772D02*
X39428571Y-32215772D01*
X39428571Y-32215772D02*
X39333333Y-32263391D01*
X39333333Y-32263391D02*
X39285714Y-32311010D01*
X39285714Y-32311010D02*
X39238095Y-32406248D01*
X39238095Y-32406248D02*
X39238095Y-32644343D01*
X39238095Y-32644343D02*
X39285714Y-32739581D01*
X39285714Y-32739581D02*
X39333333Y-32787201D01*
X39333333Y-32787201D02*
X39428571Y-32834820D01*
X39428571Y-32834820D02*
X39666666Y-32834820D01*
X39666666Y-32834820D02*
X39761904Y-32787201D01*
X39761904Y-32787201D02*
X39809523Y-32739581D01*
X38619047Y-31834820D02*
X38523809Y-31834820D01*
X38523809Y-31834820D02*
X38428571Y-31882439D01*
X38428571Y-31882439D02*
X38380952Y-31930058D01*
X38380952Y-31930058D02*
X38333333Y-32025296D01*
X38333333Y-32025296D02*
X38285714Y-32215772D01*
X38285714Y-32215772D02*
X38285714Y-32453867D01*
X38285714Y-32453867D02*
X38333333Y-32644343D01*
X38333333Y-32644343D02*
X38380952Y-32739581D01*
X38380952Y-32739581D02*
X38428571Y-32787201D01*
X38428571Y-32787201D02*
X38523809Y-32834820D01*
X38523809Y-32834820D02*
X38619047Y-32834820D01*
X38619047Y-32834820D02*
X38714285Y-32787201D01*
X38714285Y-32787201D02*
X38761904Y-32739581D01*
X38761904Y-32739581D02*
X38809523Y-32644343D01*
X38809523Y-32644343D02*
X38857142Y-32453867D01*
X38857142Y-32453867D02*
X38857142Y-32215772D01*
X38857142Y-32215772D02*
X38809523Y-32025296D01*
X38809523Y-32025296D02*
X38761904Y-31930058D01*
X38761904Y-31930058D02*
X38714285Y-31882439D01*
X38714285Y-31882439D02*
X38619047Y-31834820D01*
X37428571Y-32168153D02*
X37428571Y-32834820D01*
X37666666Y-31787201D02*
X37904761Y-32501486D01*
X37904761Y-32501486D02*
X37285714Y-32501486D01*
X36714285Y-31834820D02*
X36619047Y-31834820D01*
X36619047Y-31834820D02*
X36523809Y-31882439D01*
X36523809Y-31882439D02*
X36476190Y-31930058D01*
X36476190Y-31930058D02*
X36428571Y-32025296D01*
X36428571Y-32025296D02*
X36380952Y-32215772D01*
X36380952Y-32215772D02*
X36380952Y-32453867D01*
X36380952Y-32453867D02*
X36428571Y-32644343D01*
X36428571Y-32644343D02*
X36476190Y-32739581D01*
X36476190Y-32739581D02*
X36523809Y-32787201D01*
X36523809Y-32787201D02*
X36619047Y-32834820D01*
X36619047Y-32834820D02*
X36714285Y-32834820D01*
X36714285Y-32834820D02*
X36809523Y-32787201D01*
X36809523Y-32787201D02*
X36857142Y-32739581D01*
X36857142Y-32739581D02*
X36904761Y-32644343D01*
X36904761Y-32644343D02*
X36952380Y-32453867D01*
X36952380Y-32453867D02*
X36952380Y-32215772D01*
X36952380Y-32215772D02*
X36904761Y-32025296D01*
X36904761Y-32025296D02*
X36857142Y-31930058D01*
X36857142Y-31930058D02*
X36809523Y-31882439D01*
X36809523Y-31882439D02*
X36714285Y-31834820D01*
X35428571Y-32834820D02*
X35999999Y-32834820D01*
X35714285Y-32834820D02*
X35714285Y-31834820D01*
X35714285Y-31834820D02*
X35809523Y-31977677D01*
X35809523Y-31977677D02*
X35904761Y-32072915D01*
X35904761Y-32072915D02*
X35999999Y-32120534D01*
D11*
%TO.C,J2*%
X46523990Y-38050000D02*
X46523990Y-39320000D01*
X46523990Y-39320000D02*
X45253990Y-38685000D01*
X45253990Y-38685000D02*
X46523990Y-38050000D01*
X44999990Y-41565000D02*
X44230040Y-41565000D01*
X44230040Y-38435001D02*
X44999990Y-38435001D01*
X35769960Y-41565000D02*
X35000010Y-41565000D01*
X35000010Y-38435001D02*
X35769960Y-38435001D01*
%TD*%
%LPC*%
D12*
%TO.C,J2*%
X43800000Y-38685001D03*
X43400001Y-38685001D03*
X42999999Y-38685001D03*
X42600000Y-38685001D03*
X42200001Y-38685001D03*
X41799999Y-38685001D03*
X41400000Y-38685001D03*
X41000001Y-38685001D03*
X40600001Y-38685001D03*
X40200000Y-38685001D03*
X39800000Y-38685001D03*
X39400001Y-38685001D03*
X38999999Y-38685001D03*
X38600000Y-38685001D03*
X38200001Y-38685001D03*
X37799999Y-38685001D03*
X37400000Y-38685001D03*
X37000001Y-38685001D03*
X36600002Y-38685001D03*
X36200000Y-38685001D03*
X43800000Y-41314999D03*
X43400001Y-41314999D03*
X42999999Y-41314999D03*
X42600000Y-41314999D03*
X42200001Y-41314999D03*
X41799999Y-41314999D03*
X41400000Y-41314999D03*
X41000001Y-41314999D03*
X40600001Y-41314999D03*
X40200000Y-41314999D03*
X39800000Y-41314999D03*
X39400001Y-41314999D03*
X38999999Y-41314999D03*
X38600000Y-41314999D03*
X38200001Y-41314999D03*
X37799999Y-41314999D03*
X37400000Y-41314999D03*
X37000001Y-41314999D03*
X36600002Y-41314999D03*
X36200000Y-41314999D03*
D13*
X44600000Y-40740000D03*
X35400009Y-40740000D03*
X44600000Y-39260000D03*
X35400009Y-39260000D03*
%TD*%
D14*
%TO.C,REF\u002A\u002A*%
X52500000Y-45000000D03*
%TD*%
%TO.C,REF\u002A\u002A*%
X27500000Y-35000000D03*
%TD*%
%LPD*%
M02*
