%TF.GenerationSoftware,KiCad,Pcbnew,9.0.2*%
%TF.CreationDate,2025-06-09T11:48:46-05:00*%
%TF.ProjectId,ICEBATS384,49434542-4154-4533-9338-342e6b696361,rev?*%
%TF.SameCoordinates,Original*%
%TF.FileFunction,Copper,L1,Top*%
%TF.FilePolarity,Positive*%
%FSLAX46Y46*%
G04 Gerber Fmt 4.6, Leading zero omitted, Abs format (unit mm)*
G04 Created by KiCad (PCBNEW 9.0.2) date 2025-06-09 11:48:46*
%MOMM*%
%LPD*%
G01*
G04 APERTURE LIST*
G04 Aperture macros list*
%AMRoundRect*
0 Rectangle with rounded corners*
0 $1 Rounding radius*
0 $2 $3 $4 $5 $6 $7 $8 $9 X,Y pos of 4 corners*
0 Add a 4 corners polygon primitive as box body*
4,1,4,$2,$3,$4,$5,$6,$7,$8,$9,$2,$3,0*
0 Add four circle primitives for the rounded corners*
1,1,$1+$1,$2,$3*
1,1,$1+$1,$4,$5*
1,1,$1+$1,$6,$7*
1,1,$1+$1,$8,$9*
0 Add four rect primitives between the rounded corners*
20,1,$1+$1,$2,$3,$4,$5,0*
20,1,$1+$1,$4,$5,$6,$7,0*
20,1,$1+$1,$6,$7,$8,$9,0*
20,1,$1+$1,$8,$9,$2,$3,0*%
%AMRotRect*
0 Rectangle, with rotation*
0 The origin of the aperture is its center*
0 $1 length*
0 $2 width*
0 $3 Rotation angle, in degrees counterclockwise*
0 Add horizontal line*
21,1,$1,$2,0,0,$3*%
%AMFreePoly0*
4,1,6,0.130000,0.115000,0.130000,-0.115000,-0.130000,-0.115000,-0.130000,0.275000,-0.020000,0.275000,0.130000,0.115000,0.130000,0.115000,$1*%
%AMFreePoly1*
4,1,6,0.130000,-0.115000,-0.130000,-0.115000,-0.130000,0.115000,0.020000,0.275000,0.130000,0.275000,0.130000,-0.115000,0.130000,-0.115000,$1*%
G04 Aperture macros list end*
%TA.AperFunction,SMDPad,CuDef*%
%ADD10RoundRect,0.140000X0.170000X-0.140000X0.170000X0.140000X-0.170000X0.140000X-0.170000X-0.140000X0*%
%TD*%
%TA.AperFunction,SMDPad,CuDef*%
%ADD11RoundRect,0.147500X-0.172500X0.147500X-0.172500X-0.147500X0.172500X-0.147500X0.172500X0.147500X0*%
%TD*%
%TA.AperFunction,SMDPad,CuDef*%
%ADD12RoundRect,0.075000X0.075000X-0.247500X0.075000X0.247500X-0.075000X0.247500X-0.075000X-0.247500X0*%
%TD*%
%TA.AperFunction,HeatsinkPad*%
%ADD13R,1.700000X1.010000*%
%TD*%
%TA.AperFunction,SMDPad,CuDef*%
%ADD14RoundRect,0.225000X-0.225000X-0.250000X0.225000X-0.250000X0.225000X0.250000X-0.225000X0.250000X0*%
%TD*%
%TA.AperFunction,SMDPad,CuDef*%
%ADD15RoundRect,0.140000X-0.140000X-0.170000X0.140000X-0.170000X0.140000X0.170000X-0.140000X0.170000X0*%
%TD*%
%TA.AperFunction,SMDPad,CuDef*%
%ADD16RoundRect,0.062500X-0.387500X-0.062500X0.387500X-0.062500X0.387500X0.062500X-0.387500X0.062500X0*%
%TD*%
%TA.AperFunction,HeatsinkPad*%
%ADD17R,0.200000X1.600000*%
%TD*%
%TA.AperFunction,SMDPad,CuDef*%
%ADD18RoundRect,0.062500X-0.220971X-0.309359X0.309359X0.220971X0.220971X0.309359X-0.309359X-0.220971X0*%
%TD*%
%TA.AperFunction,SMDPad,CuDef*%
%ADD19RoundRect,0.062500X0.220971X-0.309359X0.309359X-0.220971X-0.220971X0.309359X-0.309359X0.220971X0*%
%TD*%
%TA.AperFunction,HeatsinkPad*%
%ADD20RotRect,3.100000X3.100000X45.000000*%
%TD*%
%TA.AperFunction,SMDPad,CuDef*%
%ADD21RoundRect,0.135000X0.135000X0.185000X-0.135000X0.185000X-0.135000X-0.185000X0.135000X-0.185000X0*%
%TD*%
%TA.AperFunction,SMDPad,CuDef*%
%ADD22RoundRect,0.140000X0.140000X0.170000X-0.140000X0.170000X-0.140000X-0.170000X0.140000X-0.170000X0*%
%TD*%
%TA.AperFunction,SMDPad,CuDef*%
%ADD23RoundRect,0.140000X-0.170000X0.140000X-0.170000X-0.140000X0.170000X-0.140000X0.170000X0.140000X0*%
%TD*%
%TA.AperFunction,SMDPad,CuDef*%
%ADD24RoundRect,0.135000X0.185000X-0.135000X0.185000X0.135000X-0.185000X0.135000X-0.185000X-0.135000X0*%
%TD*%
%TA.AperFunction,SMDPad,CuDef*%
%ADD25RoundRect,0.112500X-0.237500X0.112500X-0.237500X-0.112500X0.237500X-0.112500X0.237500X0.112500X0*%
%TD*%
%TA.AperFunction,SMDPad,CuDef*%
%ADD26FreePoly0,0.000000*%
%TD*%
%TA.AperFunction,SMDPad,CuDef*%
%ADD27FreePoly1,0.000000*%
%TD*%
%TA.AperFunction,SMDPad,CuDef*%
%ADD28FreePoly0,180.000000*%
%TD*%
%TA.AperFunction,SMDPad,CuDef*%
%ADD29FreePoly1,180.000000*%
%TD*%
%TA.AperFunction,SMDPad,CuDef*%
%ADD30RotRect,0.520000X0.520000X225.000000*%
%TD*%
%TA.AperFunction,SMDPad,CuDef*%
%ADD31R,0.700000X0.220000*%
%TD*%
%TA.AperFunction,SMDPad,CuDef*%
%ADD32R,0.500000X1.000000*%
%TD*%
%TA.AperFunction,SMDPad,CuDef*%
%ADD33RoundRect,0.250000X0.300000X-0.400000X0.300000X0.400000X-0.300000X0.400000X-0.300000X-0.400000X0*%
%TD*%
%TA.AperFunction,ViaPad*%
%ADD34C,0.250000*%
%TD*%
%TA.AperFunction,ViaPad*%
%ADD35C,0.600000*%
%TD*%
%TA.AperFunction,Conductor*%
%ADD36C,0.120000*%
%TD*%
%TA.AperFunction,Conductor*%
%ADD37C,0.200000*%
%TD*%
G04 APERTURE END LIST*
D10*
%TO.P,C7,1*%
%TO.N,+1V2*%
X41500000Y-35480000D03*
%TO.P,C7,2*%
%TO.N,GND*%
X41500000Y-34520000D03*
%TD*%
D11*
%TO.P,D4,1,K*%
%TO.N,Net-(D4-K)*%
X36500000Y-44515000D03*
%TO.P,D4,2,A*%
%TO.N,+3V3*%
X36500000Y-45485000D03*
%TD*%
D12*
%TO.P,Q1,1,S1*%
%TO.N,GND*%
X32350000Y-41000000D03*
%TO.P,Q1,2,G1*%
%TO.N,F_|CRST*%
X33000000Y-41000000D03*
%TO.P,Q1,3,D2*%
%TO.N,Net-(Q1-D2)*%
X33650000Y-41000000D03*
%TO.P,Q1,4,S2*%
%TO.N,GND*%
X33650000Y-38945000D03*
%TO.P,Q1,5,G2*%
%TO.N,F_CDONE*%
X33000000Y-38945000D03*
%TO.P,Q1,6,D1*%
%TO.N,Net-(Q1-D1)*%
X32350000Y-38945000D03*
D13*
%TO.P,Q1,7*%
%TO.N,N/C*%
X33000000Y-39972500D03*
%TD*%
D14*
%TO.P,C9,1*%
%TO.N,+3V3*%
X31950000Y-34000000D03*
%TO.P,C9,2*%
%TO.N,GND*%
X33500000Y-34000000D03*
%TD*%
D12*
%TO.P,Q2,1,S1*%
%TO.N,GND*%
X35200000Y-41000000D03*
%TO.P,Q2,2,G1*%
%TO.N,F_IO31*%
X35850000Y-41000000D03*
%TO.P,Q2,3,D2*%
%TO.N,Net-(Q2-D2)*%
X36500000Y-41000000D03*
%TO.P,Q2,4,S2*%
%TO.N,GND*%
X36500000Y-38945000D03*
%TO.P,Q2,5,G2*%
%TO.N,F_IO32*%
X35850000Y-38945000D03*
%TO.P,Q2,6,D1*%
%TO.N,Net-(Q2-D1)*%
X35200000Y-38945000D03*
D13*
%TO.P,Q2,7*%
%TO.N,N/C*%
X35850000Y-39972500D03*
%TD*%
D15*
%TO.P,C11,1*%
%TO.N,+3V3*%
X35040000Y-37500000D03*
%TO.P,C11,2*%
%TO.N,GND*%
X36000000Y-37500000D03*
%TD*%
D16*
%TO.P,U2,1,/CS*%
%TO.N,F_|SS*%
X45650000Y-35500000D03*
%TO.P,U2,2,DO_(IO\u002C)*%
%TO.N,F_SI*%
X45650000Y-36000000D03*
%TO.P,U2,3,/WP*%
%TO.N,+3V3*%
X45650000Y-36500000D03*
%TO.P,U2,4,GND*%
%TO.N,GND*%
X45650000Y-37000000D03*
%TO.P,U2,5,DI(IO0*%
%TO.N,F_SO*%
X48500000Y-37000000D03*
%TO.P,U2,6,CLK*%
%TO.N,F_SCK*%
X48500000Y-36500000D03*
%TO.P,U2,7,/HOLD*%
%TO.N,W_|HOLD*%
X48500000Y-36000000D03*
%TO.P,U2,8,VCC*%
%TO.N,+3V3*%
X48500000Y-35500000D03*
D17*
%TO.P,U2,9,EPAD*%
%TO.N,GND*%
X47075000Y-36250000D03*
%TD*%
D18*
%TO.P,U1,1,IOL_2B*%
%TO.N,F_IO1*%
X38538990Y-40486136D03*
%TO.P,U1,2,IOL_2A*%
%TO.N,F_IO2*%
X38892544Y-40839689D03*
%TO.P,U1,3,GND*%
%TO.N,GND*%
X39246097Y-41193243D03*
%TO.P,U1,4,VCCIO_3*%
%TO.N,+3V3*%
X39599651Y-41546796D03*
%TO.P,U1,5,IOL_4A*%
%TO.N,F_IO5*%
X39953204Y-41900349D03*
%TO.P,U1,6,IOL_4B_GBIN7*%
%TO.N,F_IO6*%
X40306757Y-42253903D03*
%TO.P,U1,7,IOL_5B*%
%TO.N,F_IO7*%
X40660311Y-42607456D03*
%TO.P,U1,8,IOL_5A_GBIN6*%
%TO.N,F_IO8*%
X41013864Y-42961010D03*
D19*
%TO.P,U1,9,VCCIO_2*%
%TO.N,+3V3*%
X41986136Y-42961010D03*
%TO.P,U1,10,CRESET_B*%
%TO.N,F_|CRST*%
X42339689Y-42607456D03*
%TO.P,U1,11,CDONE*%
%TO.N,F_CDONE*%
X42693243Y-42253903D03*
%TO.P,U1,12,IOB_24_SDO*%
%TO.N,F_IO12*%
X43046796Y-41900349D03*
%TO.P,U1,13,IOB_25_SDI*%
%TO.N,F_IO13*%
X43400349Y-41546796D03*
%TO.P,U1,14,IOB_27_SS*%
%TO.N,F_IO14*%
X43753903Y-41193243D03*
%TO.P,U1,15,IOB_26_SCK*%
%TO.N,F_IO15*%
X44107456Y-40839689D03*
%TO.P,U1,16,VCC_SPI*%
%TO.N,+3V3*%
X44461010Y-40486136D03*
D18*
%TO.P,U1,17,VCCIO_1*%
X44461010Y-39513864D03*
%TO.P,U1,18,IOR_34*%
%TO.N,F_IO18*%
X44107456Y-39160311D03*
%TO.P,U1,19,IOR_35_GBIN3*%
%TO.N,F_IO19*%
X43753903Y-38806757D03*
%TO.P,U1,20,IOR_36_GBIN2*%
%TO.N,F_IO20*%
X43400349Y-38453204D03*
%TO.P,U1,21,GND*%
%TO.N,GND*%
X43046796Y-38099651D03*
%TO.P,U1,22,IOR_38*%
%TO.N,F_IO22*%
X42693243Y-37746097D03*
%TO.P,U1,23,IOR_39*%
%TO.N,F_IO23*%
X42339689Y-37392544D03*
%TO.P,U1,24,VPP_2V5*%
%TO.N,+3V3*%
X41986136Y-37038990D03*
D19*
%TO.P,U1,25,VCC*%
%TO.N,+1V2*%
X41013864Y-37038990D03*
%TO.P,U1,26,IOT_45*%
%TO.N,F_IO26*%
X40660311Y-37392544D03*
%TO.P,U1,27,IOT_47*%
%TO.N,F_IO27*%
X40306757Y-37746097D03*
%TO.P,U1,28,VCCIO_0*%
%TO.N,+3V3*%
X39953204Y-38099651D03*
%TO.P,U1,29,IOT_49_GBIN0*%
%TO.N,F_IO29*%
X39599651Y-38453204D03*
%TO.P,U1,30,IOT_50_GBIN1*%
%TO.N,F_IO30*%
X39246097Y-38806757D03*
%TO.P,U1,31,IOT_53*%
%TO.N,F_IO31*%
X38892544Y-39160311D03*
%TO.P,U1,32,IOT_52*%
%TO.N,F_IO32*%
X38538990Y-39513864D03*
D20*
%TO.P,U1,33,33*%
%TO.N,GND*%
X41500000Y-40000000D03*
%TD*%
D21*
%TO.P,R3,1*%
%TO.N,+3V3*%
X45800000Y-44300000D03*
%TO.P,R3,2*%
%TO.N,F_CDONE*%
X44780000Y-44300000D03*
%TD*%
%TO.P,R1,1*%
%TO.N,+3V3*%
X45800000Y-43300000D03*
%TO.P,R1,2*%
%TO.N,F_SS*%
X44780000Y-43300000D03*
%TD*%
D22*
%TO.P,C5,1*%
%TO.N,+3V3*%
X38500000Y-42500000D03*
%TO.P,C5,2*%
%TO.N,GND*%
X37540000Y-42500000D03*
%TD*%
D21*
%TO.P,R4,1*%
%TO.N,+3V3*%
X51010000Y-36000000D03*
%TO.P,R4,2*%
%TO.N,W_|HOLD*%
X49990000Y-36000000D03*
%TD*%
D11*
%TO.P,D2,1,K*%
%TO.N,Net-(D2-K)*%
X34000000Y-44515000D03*
%TO.P,D2,2,A*%
%TO.N,+3V3*%
X34000000Y-45485000D03*
%TD*%
D23*
%TO.P,C4,1*%
%TO.N,+3V3*%
X42000000Y-44500000D03*
%TO.P,C4,2*%
%TO.N,GND*%
X42000000Y-45460000D03*
%TD*%
D22*
%TO.P,C8,1*%
%TO.N,+3V3*%
X48500000Y-34500000D03*
%TO.P,C8,2*%
%TO.N,GND*%
X47540000Y-34500000D03*
%TD*%
D11*
%TO.P,D3,1,K*%
%TO.N,Net-(D3-K)*%
X35500000Y-44515000D03*
%TO.P,D3,2,A*%
%TO.N,+3V3*%
X35500000Y-45485000D03*
%TD*%
D24*
%TO.P,R6,1*%
%TO.N,Net-(D2-K)*%
X33686790Y-43153711D03*
%TO.P,R6,2*%
%TO.N,Net-(Q1-D2)*%
X33686790Y-42133711D03*
%TD*%
D15*
%TO.P,C3,1*%
%TO.N,+3V3*%
X46040000Y-39500000D03*
%TO.P,C3,2*%
%TO.N,GND*%
X47000000Y-39500000D03*
%TD*%
D23*
%TO.P,C12,1*%
%TO.N,+3V3*%
X48900000Y-43000000D03*
%TO.P,C12,2*%
%TO.N,GND*%
X48900000Y-43960000D03*
%TD*%
D24*
%TO.P,R5,1*%
%TO.N,Net-(D1-K)*%
X32686790Y-43153711D03*
%TO.P,R5,2*%
%TO.N,Net-(Q1-D1)*%
X32686790Y-42133711D03*
%TD*%
D11*
%TO.P,D1,1,K*%
%TO.N,Net-(D1-K)*%
X33000000Y-44515000D03*
%TO.P,D1,2,A*%
%TO.N,+3V3*%
X33000000Y-45485000D03*
%TD*%
D14*
%TO.P,C10,1*%
%TO.N,+1V2*%
X31950000Y-37500000D03*
%TO.P,C10,2*%
%TO.N,GND*%
X33500000Y-37500000D03*
%TD*%
D25*
%TO.P,U3,1,|RST*%
%TO.N,F_|CRST*%
X35000000Y-34850000D03*
%TO.P,U3,2,VDD*%
%TO.N,+3V3*%
X35000000Y-36150000D03*
%TO.P,U3,3,VSS*%
%TO.N,GND*%
X37000000Y-35500000D03*
%TD*%
D26*
%TO.P,U4,1,OUT*%
%TO.N,+1V2*%
X32039627Y-36240502D03*
D27*
%TO.P,U4,2,GND*%
%TO.N,GND*%
X32689627Y-36240502D03*
D28*
%TO.P,U4,3,EN*%
%TO.N,+3V3*%
X32689627Y-35270502D03*
D29*
%TO.P,U4,4,IN*%
X32039627Y-35270502D03*
D30*
%TO.P,U4,5,GND*%
%TO.N,GND*%
X32364627Y-35755502D03*
%TD*%
D24*
%TO.P,R8,1*%
%TO.N,Net-(D4-K)*%
X35686790Y-43153711D03*
%TO.P,R8,2*%
%TO.N,Net-(Q2-D2)*%
X35686790Y-42133711D03*
%TD*%
D31*
%TO.P,J1,1,1*%
%TO.N,GND*%
X29549999Y-42550005D03*
%TO.P,J1,2,2*%
%TO.N,+3V3*%
X29549999Y-42150003D03*
%TO.P,J1,3,3*%
%TO.N,F_IO15*%
X29549999Y-41750004D03*
%TO.P,J1,4,4*%
%TO.N,F_IO14*%
X29549999Y-41350005D03*
%TO.P,J1,5,5*%
%TO.N,F_IO12*%
X29549999Y-40950003D03*
%TO.P,J1,6,6*%
%TO.N,F_IO13*%
X26450001Y-42550005D03*
%TO.P,J1,7,7*%
%TO.N,F_|CRST*%
X26450001Y-42150003D03*
%TO.P,J1,8,8*%
%TO.N,W_|HOLD*%
X26450001Y-41750004D03*
%TO.P,J1,9,9*%
%TO.N,unconnected-(J1-Pad9)*%
X26450001Y-41350005D03*
%TO.P,J1,10,10*%
%TO.N,GND*%
X26450001Y-40950003D03*
D32*
%TO.P,J1,P1,P1*%
X29500000Y-43500000D03*
%TO.P,J1,P2,P2*%
X29500000Y-40000008D03*
%TO.P,J1,P3,P3*%
X26500000Y-43500000D03*
%TO.P,J1,P4,P4*%
X26500000Y-40000008D03*
%TD*%
D15*
%TO.P,C2,1*%
%TO.N,+3V3*%
X46040000Y-40500000D03*
%TO.P,C2,2*%
%TO.N,GND*%
X47000000Y-40500000D03*
%TD*%
D10*
%TO.P,C1,1*%
%TO.N,+3V3*%
X42500000Y-35480000D03*
%TO.P,C1,2*%
%TO.N,GND*%
X42500000Y-34520000D03*
%TD*%
D24*
%TO.P,R7,1*%
%TO.N,Net-(D3-K)*%
X34686790Y-43153711D03*
%TO.P,R7,2*%
%TO.N,Net-(Q2-D1)*%
X34686790Y-42133711D03*
%TD*%
D21*
%TO.P,R2,1*%
%TO.N,+3V3*%
X45800000Y-45300000D03*
%TO.P,R2,2*%
%TO.N,F_|CRST*%
X44780000Y-45300000D03*
%TD*%
D33*
%TO.P,Y1,1,Tri-State*%
%TO.N,CLOCK_EN*%
X50599651Y-41453204D03*
%TO.P,Y1,2,GND*%
%TO.N,GND*%
X50599651Y-39353204D03*
%TO.P,Y1,3,OUT*%
%TO.N,CLOCK*%
X48949651Y-39353204D03*
%TO.P,Y1,4,VDD*%
%TO.N,+3V3*%
X48949651Y-41453204D03*
%TD*%
D10*
%TO.P,C6,1*%
%TO.N,+3V3*%
X40500000Y-35480000D03*
%TO.P,C6,2*%
%TO.N,GND*%
X40500000Y-34520000D03*
%TD*%
D34*
%TO.N,+3V3*%
X30300000Y-42100000D03*
D35*
%TO.N,+1V2*%
X40500000Y-36400000D03*
X31100000Y-37100000D03*
%TO.N,+3V3*%
X39700000Y-35000000D03*
X43300000Y-35500000D03*
X51800000Y-36000000D03*
X49700000Y-43000000D03*
X46200000Y-46000000D03*
X46200000Y-41200000D03*
X46500000Y-34700000D03*
X37300000Y-45500000D03*
X41300000Y-44500000D03*
X38500000Y-43300000D03*
X33600000Y-35200000D03*
%TD*%
D36*
%TO.N,+3V3*%
X30249997Y-42150003D02*
X30300000Y-42100000D01*
X29549999Y-42150003D02*
X30249997Y-42150003D01*
D37*
X38700000Y-36100000D02*
X39320000Y-35480000D01*
%TO.N,+1V2*%
X40500000Y-36525126D02*
X41013864Y-37038990D01*
X40500000Y-36400000D02*
X40500000Y-36525126D01*
X31500000Y-37500000D02*
X31100000Y-37100000D01*
X31950000Y-37500000D02*
X31500000Y-37500000D01*
%TO.N,+3V3*%
X39700000Y-35480000D02*
X39700000Y-35000000D01*
X39700000Y-35480000D02*
X40500000Y-35480000D01*
X43280000Y-35480000D02*
X43300000Y-35500000D01*
X42500000Y-35480000D02*
X43280000Y-35480000D01*
X51010000Y-36000000D02*
X51800000Y-36000000D01*
X48900000Y-43000000D02*
X49700000Y-43000000D01*
X45800000Y-45600000D02*
X46200000Y-46000000D01*
X45800000Y-45300000D02*
X45800000Y-45600000D01*
X45800000Y-44300000D02*
X45800000Y-45300000D01*
X45800000Y-43300000D02*
X45800000Y-44300000D01*
X46040000Y-41040000D02*
X46200000Y-41200000D01*
X46040000Y-40500000D02*
X46040000Y-41040000D01*
X46040000Y-39500000D02*
X46040000Y-40500000D01*
X46040000Y-39500000D02*
X44474874Y-39500000D01*
X46040000Y-40500000D02*
X44474874Y-40500000D01*
X46674000Y-34874000D02*
X46500000Y-34700000D01*
X46674000Y-35149000D02*
X46674000Y-34874000D01*
X34000000Y-45485000D02*
X33000000Y-45485000D01*
X35500000Y-45485000D02*
X36500000Y-45485000D01*
X34000000Y-45485000D02*
X35500000Y-45485000D01*
X37285000Y-45485000D02*
X37300000Y-45500000D01*
X36500000Y-45485000D02*
X37285000Y-45485000D01*
X42000000Y-44500000D02*
X41300000Y-44500000D01*
X38500000Y-42500000D02*
X38500000Y-43300000D01*
X34050000Y-35200000D02*
X35000000Y-36150000D01*
X33600000Y-35200000D02*
X34050000Y-35200000D01*
X33529498Y-35270502D02*
X33600000Y-35200000D01*
X32689627Y-35270502D02*
X33529498Y-35270502D01*
X32505931Y-35086806D02*
X32223323Y-35086806D01*
X32223323Y-35086806D02*
X32039627Y-35270502D01*
X32689627Y-35270502D02*
X32505931Y-35086806D01*
X31950000Y-35180875D02*
X32039627Y-35270502D01*
X31950000Y-34000000D02*
X31950000Y-35180875D01*
%TO.N,+1V2*%
X31950000Y-36330129D02*
X32039627Y-36240502D01*
X31950000Y-37500000D02*
X31950000Y-36330129D01*
%TO.N,+3V3*%
X35040000Y-36190000D02*
X35000000Y-36150000D01*
X35040000Y-37500000D02*
X35040000Y-36190000D01*
X48149000Y-35149000D02*
X47851000Y-35149000D01*
X48500000Y-35500000D02*
X48149000Y-35149000D01*
X47851000Y-35149000D02*
X48500000Y-34500000D01*
X46674000Y-35149000D02*
X47851000Y-35149000D01*
X46500000Y-35323000D02*
X46674000Y-35149000D01*
X46500000Y-36500000D02*
X46500000Y-35323000D01*
X45650000Y-36500000D02*
X46500000Y-36500000D01*
%TO.N,+1V2*%
X41500000Y-36552854D02*
X41500000Y-35480000D01*
X41013864Y-37038990D02*
X41500000Y-36552854D01*
%TO.N,+3V3*%
X41986136Y-37038990D02*
X41986136Y-35993864D01*
X41986136Y-35993864D02*
X42500000Y-35480000D01*
X38700000Y-36846447D02*
X38700000Y-36100000D01*
X39953204Y-38099651D02*
X38700000Y-36846447D01*
X39320000Y-35480000D02*
X39700000Y-35480000D01*
X38646447Y-42500000D02*
X39599651Y-41546796D01*
X38500000Y-42500000D02*
X38646447Y-42500000D01*
X42000000Y-42974874D02*
X41986136Y-42961010D01*
X42000000Y-44500000D02*
X42000000Y-42974874D01*
X44474874Y-39500000D02*
X44461010Y-39513864D01*
X44474874Y-40500000D02*
X44461010Y-40486136D01*
X48900000Y-41502855D02*
X48949651Y-41453204D01*
X48900000Y-43000000D02*
X48900000Y-41502855D01*
%TD*%
%TA.AperFunction,Conductor*%
%TO.N,GND*%
G36*
X41588713Y-37964259D02*
G01*
X41598372Y-37975405D01*
X41606136Y-37985523D01*
X41606138Y-37985525D01*
X41606141Y-37985528D01*
X41746703Y-38126090D01*
X41746713Y-38126099D01*
X41785705Y-38156019D01*
X41834789Y-38193683D01*
X41834791Y-38193684D01*
X41841828Y-38197747D01*
X41840118Y-38200707D01*
X41882217Y-38234582D01*
X41887507Y-38244261D01*
X41888038Y-38243955D01*
X41892104Y-38250998D01*
X41917811Y-38284499D01*
X41959690Y-38339076D01*
X41959694Y-38339080D01*
X41959695Y-38339081D01*
X42100257Y-38479643D01*
X42100267Y-38479652D01*
X42166323Y-38530339D01*
X42188343Y-38547236D01*
X42188345Y-38547237D01*
X42195382Y-38551300D01*
X42193776Y-38554080D01*
X42236446Y-38588439D01*
X42241469Y-38597586D01*
X42242031Y-38597262D01*
X42246093Y-38604298D01*
X42297878Y-38671787D01*
X42317763Y-38651904D01*
X42321129Y-38650065D01*
X42323165Y-38646817D01*
X42351545Y-38633457D01*
X42379086Y-38618419D01*
X42383918Y-38618218D01*
X42386381Y-38617059D01*
X42421661Y-38616651D01*
X42422925Y-38616817D01*
X42486809Y-38645105D01*
X42525260Y-38703442D01*
X42529643Y-38723632D01*
X42529807Y-38724883D01*
X42525803Y-38750460D01*
X42526068Y-38773307D01*
X42520949Y-38781478D01*
X42519003Y-38793912D01*
X42494541Y-38828682D01*
X42474657Y-38848565D01*
X42474657Y-38848566D01*
X42542148Y-38900353D01*
X42549185Y-38904416D01*
X42547343Y-38907605D01*
X42588650Y-38940461D01*
X42594642Y-38951351D01*
X42595144Y-38951062D01*
X42599210Y-38958105D01*
X42606036Y-38967000D01*
X42666796Y-39046183D01*
X42666800Y-39046187D01*
X42666801Y-39046188D01*
X42807363Y-39186750D01*
X42807373Y-39186759D01*
X42862688Y-39229204D01*
X42895449Y-39254343D01*
X42895451Y-39254344D01*
X42902488Y-39258407D01*
X42900778Y-39261367D01*
X42942877Y-39295242D01*
X42948167Y-39304921D01*
X42948698Y-39304615D01*
X42952764Y-39311658D01*
X42969539Y-39333519D01*
X43020350Y-39399736D01*
X43020354Y-39399740D01*
X43020355Y-39399741D01*
X43160917Y-39540303D01*
X43160927Y-39540312D01*
X43208506Y-39576821D01*
X43249003Y-39607896D01*
X43249005Y-39607897D01*
X43256042Y-39611960D01*
X43254338Y-39614910D01*
X43296473Y-39648857D01*
X43301732Y-39658476D01*
X43302255Y-39658175D01*
X43306317Y-39665212D01*
X43338647Y-39707344D01*
X43373903Y-39753290D01*
X43373907Y-39753294D01*
X43373908Y-39753295D01*
X43514470Y-39893857D01*
X43514474Y-39893860D01*
X43514477Y-39893863D01*
X43524589Y-39901622D01*
X43565793Y-39958049D01*
X43569948Y-40027795D01*
X43535737Y-40088716D01*
X43524597Y-40098370D01*
X43514478Y-40106135D01*
X43514471Y-40106141D01*
X43373906Y-40246706D01*
X43306315Y-40334791D01*
X43302255Y-40341824D01*
X43299323Y-40340131D01*
X43265242Y-40382338D01*
X43255745Y-40387527D01*
X43256041Y-40388040D01*
X43249004Y-40392102D01*
X43160928Y-40459687D01*
X43160918Y-40459695D01*
X43020353Y-40600260D01*
X42952762Y-40688345D01*
X42948702Y-40695378D01*
X42945780Y-40693691D01*
X42911627Y-40735934D01*
X42902192Y-40741082D01*
X42902487Y-40741593D01*
X42895450Y-40745655D01*
X42807374Y-40813240D01*
X42807364Y-40813248D01*
X42666799Y-40953813D01*
X42599208Y-41041898D01*
X42595146Y-41048934D01*
X42592209Y-41047238D01*
X42558160Y-41089426D01*
X42548638Y-41094625D01*
X42548938Y-41095144D01*
X42541894Y-41099210D01*
X42453821Y-41166793D01*
X42453811Y-41166801D01*
X42313246Y-41307366D01*
X42245655Y-41395451D01*
X42241595Y-41402484D01*
X42238663Y-41400791D01*
X42204582Y-41442998D01*
X42195085Y-41448187D01*
X42195381Y-41448700D01*
X42188344Y-41452762D01*
X42100268Y-41520347D01*
X42100258Y-41520355D01*
X41959693Y-41660920D01*
X41892102Y-41749005D01*
X41888042Y-41756038D01*
X41885120Y-41754351D01*
X41850967Y-41796594D01*
X41841532Y-41801742D01*
X41841827Y-41802253D01*
X41834790Y-41806315D01*
X41746714Y-41873900D01*
X41746704Y-41873908D01*
X41606142Y-42014470D01*
X41606134Y-42014479D01*
X41598373Y-42024594D01*
X41541944Y-42065795D01*
X41472198Y-42069947D01*
X41411279Y-42035733D01*
X41401626Y-42024593D01*
X41393865Y-42014479D01*
X41393864Y-42014477D01*
X41325012Y-41945625D01*
X41253293Y-41873906D01*
X41165211Y-41806317D01*
X41158178Y-41802257D01*
X41159870Y-41799326D01*
X41117661Y-41765242D01*
X41112480Y-41755741D01*
X41111960Y-41756042D01*
X41107895Y-41749001D01*
X41078189Y-41710289D01*
X41040310Y-41660924D01*
X40971512Y-41592126D01*
X40899739Y-41520353D01*
X40842945Y-41476773D01*
X40811657Y-41452764D01*
X40811656Y-41452763D01*
X40811654Y-41452762D01*
X40804619Y-41448700D01*
X40806320Y-41445753D01*
X40764169Y-41411776D01*
X40758935Y-41402182D01*
X40758407Y-41402488D01*
X40754342Y-41395447D01*
X40718787Y-41349112D01*
X40686757Y-41307370D01*
X40619129Y-41239742D01*
X40546189Y-41166802D01*
X40546179Y-41166793D01*
X40458104Y-41099210D01*
X40451065Y-41095146D01*
X40452754Y-41092218D01*
X40410531Y-41058098D01*
X40405370Y-41048638D01*
X40404855Y-41048936D01*
X40400790Y-41041896D01*
X40371085Y-41003184D01*
X40333204Y-40953817D01*
X40279791Y-40900404D01*
X40192635Y-40813248D01*
X40192626Y-40813240D01*
X40104552Y-40745657D01*
X40097509Y-40741591D01*
X40099105Y-40738825D01*
X40056379Y-40704357D01*
X40051438Y-40695299D01*
X40050862Y-40695632D01*
X40046799Y-40688595D01*
X39995012Y-40621104D01*
X39995011Y-40621104D01*
X39975128Y-40640988D01*
X39971805Y-40642802D01*
X39969800Y-40646009D01*
X39941381Y-40659413D01*
X39913804Y-40674472D01*
X39909035Y-40674671D01*
X39906608Y-40675817D01*
X39871316Y-40676252D01*
X39870066Y-40676088D01*
X39806157Y-40647850D01*
X39767660Y-40589543D01*
X39763262Y-40569356D01*
X39763097Y-40568102D01*
X39767079Y-40542524D01*
X39766798Y-40519679D01*
X39771909Y-40511505D01*
X39773846Y-40499068D01*
X39798351Y-40464209D01*
X39818234Y-40444326D01*
X39750742Y-40392538D01*
X39743706Y-40388476D01*
X39745447Y-40385460D01*
X39703480Y-40351337D01*
X39698178Y-40341573D01*
X39697744Y-40341824D01*
X39693684Y-40334793D01*
X39693683Y-40334789D01*
X39626097Y-40246710D01*
X39600933Y-40221546D01*
X39485529Y-40106142D01*
X39485521Y-40106135D01*
X39475409Y-40098376D01*
X39434206Y-40041948D01*
X39430051Y-39972202D01*
X39464263Y-39911282D01*
X39475399Y-39901632D01*
X39485523Y-39893864D01*
X39626096Y-39753290D01*
X39693683Y-39665211D01*
X39693685Y-39665204D01*
X39697747Y-39658172D01*
X39700716Y-39659886D01*
X39734521Y-39617825D01*
X39744270Y-39612503D01*
X39743957Y-39611961D01*
X39750993Y-39607897D01*
X39750997Y-39607896D01*
X39839076Y-39540310D01*
X39979649Y-39399736D01*
X40047236Y-39311657D01*
X40047239Y-39311649D01*
X40051298Y-39304620D01*
X40054272Y-39306337D01*
X40088047Y-39264290D01*
X40097833Y-39258944D01*
X40097520Y-39258402D01*
X40104547Y-39254344D01*
X40104551Y-39254343D01*
X40192630Y-39186757D01*
X40333203Y-39046183D01*
X40400790Y-38958104D01*
X40400793Y-38958096D01*
X40404856Y-38951061D01*
X40407831Y-38952778D01*
X40441602Y-38910737D01*
X40451378Y-38905394D01*
X40451066Y-38904853D01*
X40458098Y-38900792D01*
X40458104Y-38900790D01*
X40546183Y-38833204D01*
X40686756Y-38692630D01*
X40754343Y-38604551D01*
X40754345Y-38604544D01*
X40758407Y-38597512D01*
X40761376Y-38599226D01*
X40795181Y-38557165D01*
X40804930Y-38551843D01*
X40804617Y-38551301D01*
X40811653Y-38547237D01*
X40811657Y-38547236D01*
X40899736Y-38479650D01*
X41040309Y-38339076D01*
X41107896Y-38250997D01*
X41107899Y-38250989D01*
X41111958Y-38243960D01*
X41114932Y-38245677D01*
X41148707Y-38203630D01*
X41158493Y-38198284D01*
X41158180Y-38197742D01*
X41165207Y-38193684D01*
X41165211Y-38193683D01*
X41253290Y-38126097D01*
X41393863Y-37985523D01*
X41401621Y-37975412D01*
X41458045Y-37934208D01*
X41527791Y-37930050D01*
X41588713Y-37964259D01*
G37*
%TD.AperFunction*%
%TA.AperFunction,Conductor*%
G36*
X31216165Y-33020185D02*
G01*
X31261920Y-33072989D01*
X31271864Y-33142147D01*
X31242839Y-33205703D01*
X31236807Y-33212181D01*
X31152032Y-33296955D01*
X31152029Y-33296959D01*
X31063001Y-33441294D01*
X31062996Y-33441305D01*
X31009651Y-33602290D01*
X30999500Y-33701647D01*
X30999500Y-34298337D01*
X30999501Y-34298355D01*
X31009650Y-34397707D01*
X31009651Y-34397710D01*
X31062996Y-34558694D01*
X31063001Y-34558705D01*
X31152029Y-34703040D01*
X31152032Y-34703044D01*
X31271956Y-34822968D01*
X31290596Y-34834465D01*
X31297419Y-34842051D01*
X31306703Y-34846291D01*
X31320390Y-34867589D01*
X31337321Y-34886412D01*
X31339965Y-34898048D01*
X31344477Y-34905069D01*
X31349500Y-34940004D01*
X31349500Y-35094205D01*
X31349499Y-35094223D01*
X31349499Y-35259929D01*
X31349498Y-35259929D01*
X31354423Y-35278309D01*
X31387191Y-35400599D01*
X31390424Y-35412662D01*
X31393533Y-35420168D01*
X31391137Y-35421160D01*
X31404127Y-35469621D01*
X31404127Y-35545504D01*
X31409272Y-35617444D01*
X31438993Y-35718665D01*
X31438993Y-35788535D01*
X31432813Y-35805106D01*
X31424602Y-35823085D01*
X31404127Y-35965501D01*
X31404127Y-36041381D01*
X31399298Y-36075649D01*
X31395102Y-36090238D01*
X31390423Y-36098344D01*
X31358313Y-36218175D01*
X31357999Y-36219270D01*
X31339866Y-36247835D01*
X31322237Y-36276757D01*
X31321182Y-36277269D01*
X31320554Y-36278259D01*
X31289840Y-36292493D01*
X31259390Y-36307285D01*
X31257971Y-36307263D01*
X31257162Y-36307639D01*
X31254020Y-36307205D01*
X31214638Y-36306620D01*
X31178842Y-36299500D01*
X31021158Y-36299500D01*
X31021155Y-36299500D01*
X30866510Y-36330261D01*
X30866498Y-36330264D01*
X30720827Y-36390602D01*
X30720814Y-36390609D01*
X30589711Y-36478210D01*
X30589707Y-36478213D01*
X30478213Y-36589707D01*
X30478210Y-36589711D01*
X30390609Y-36720814D01*
X30390602Y-36720827D01*
X30330264Y-36866498D01*
X30330261Y-36866510D01*
X30299500Y-37021153D01*
X30299500Y-37178846D01*
X30330261Y-37333489D01*
X30330264Y-37333501D01*
X30390602Y-37479172D01*
X30390609Y-37479185D01*
X30478210Y-37610288D01*
X30478213Y-37610292D01*
X30589707Y-37721786D01*
X30589711Y-37721789D01*
X30720814Y-37809390D01*
X30720827Y-37809397D01*
X30786138Y-37836449D01*
X30845663Y-37861105D01*
X30866501Y-37869736D01*
X30866503Y-37869737D01*
X30939024Y-37884162D01*
X31000933Y-37916546D01*
X31032537Y-37966775D01*
X31062996Y-38058694D01*
X31063001Y-38058705D01*
X31152029Y-38203040D01*
X31152032Y-38203044D01*
X31271955Y-38322967D01*
X31271959Y-38322970D01*
X31416294Y-38411998D01*
X31416297Y-38411999D01*
X31416303Y-38412003D01*
X31577292Y-38465349D01*
X31596135Y-38467274D01*
X31660827Y-38493670D01*
X31700978Y-38550850D01*
X31706472Y-38606816D01*
X31699501Y-38659767D01*
X31699500Y-38659786D01*
X31699500Y-39220770D01*
X31691682Y-39264102D01*
X31691612Y-39264290D01*
X31655908Y-39360017D01*
X31649501Y-39419616D01*
X31649501Y-39419623D01*
X31649500Y-39419635D01*
X31649500Y-40525370D01*
X31649501Y-40525376D01*
X31655908Y-40584981D01*
X31655909Y-40584983D01*
X31692182Y-40682237D01*
X31700000Y-40725568D01*
X31700000Y-40850000D01*
X31771158Y-40850000D01*
X31792382Y-40856232D01*
X31814444Y-40857801D01*
X31833916Y-40868427D01*
X31838197Y-40869685D01*
X31845428Y-40874703D01*
X31845465Y-40874731D01*
X31845468Y-40874732D01*
X31907669Y-40921296D01*
X31907774Y-40921335D01*
X31914951Y-40926703D01*
X31930839Y-40947909D01*
X31949561Y-40966661D01*
X31951462Y-40975434D01*
X31956845Y-40982619D01*
X31958746Y-41009047D01*
X31964358Y-41034945D01*
X31961213Y-41043354D01*
X31961858Y-41052309D01*
X31949167Y-41075572D01*
X31939888Y-41100390D01*
X31932697Y-41105764D01*
X31928398Y-41113645D01*
X31905148Y-41126352D01*
X31883921Y-41142217D01*
X31872294Y-41144309D01*
X31867089Y-41147155D01*
X31859489Y-41146614D01*
X31840681Y-41150000D01*
X31700000Y-41150000D01*
X31700000Y-41285197D01*
X31714800Y-41397604D01*
X31714801Y-41397608D01*
X31772736Y-41537478D01*
X31864909Y-41657599D01*
X31870555Y-41663245D01*
X31904040Y-41724568D01*
X31901950Y-41785521D01*
X31869125Y-41898502D01*
X31869124Y-41898508D01*
X31866290Y-41934522D01*
X31866290Y-42332880D01*
X31866291Y-42332902D01*
X31869125Y-42368916D01*
X31913919Y-42523099D01*
X31913922Y-42523106D01*
X31947918Y-42580592D01*
X31965099Y-42648316D01*
X31947918Y-42706830D01*
X31913922Y-42764315D01*
X31913919Y-42764322D01*
X31869125Y-42918502D01*
X31869124Y-42918508D01*
X31866290Y-42954522D01*
X31866290Y-43352880D01*
X31866291Y-43352902D01*
X31869125Y-43388916D01*
X31913919Y-43543099D01*
X31913921Y-43543104D01*
X31995653Y-43681306D01*
X31995659Y-43681314D01*
X32109186Y-43794841D01*
X32109190Y-43794844D01*
X32109192Y-43794846D01*
X32109195Y-43794847D01*
X32109198Y-43794850D01*
X32227786Y-43864982D01*
X32275470Y-43916050D01*
X32287974Y-43984792D01*
X32271399Y-44034833D01*
X32228069Y-44108102D01*
X32228066Y-44108107D01*
X32182391Y-44265320D01*
X32182390Y-44265326D01*
X32179500Y-44302052D01*
X32179500Y-44727947D01*
X32182390Y-44764673D01*
X32182391Y-44764679D01*
X32228067Y-44921894D01*
X32236931Y-44936883D01*
X32254110Y-45004608D01*
X32236931Y-45063117D01*
X32228067Y-45078105D01*
X32182391Y-45235320D01*
X32182390Y-45235326D01*
X32179500Y-45272052D01*
X32179500Y-45697947D01*
X32182390Y-45734673D01*
X32182391Y-45734679D01*
X32228066Y-45891892D01*
X32228068Y-45891895D01*
X32311408Y-46032817D01*
X32311414Y-46032825D01*
X32427174Y-46148585D01*
X32427178Y-46148588D01*
X32427180Y-46148590D01*
X32568103Y-46231931D01*
X32568104Y-46231931D01*
X32568107Y-46231933D01*
X32725320Y-46277608D01*
X32725323Y-46277608D01*
X32725325Y-46277609D01*
X32762060Y-46280500D01*
X32762068Y-46280500D01*
X33237932Y-46280500D01*
X33237940Y-46280500D01*
X33274675Y-46277609D01*
X33274677Y-46277608D01*
X33274679Y-46277608D01*
X33431892Y-46231933D01*
X33431893Y-46231932D01*
X33431897Y-46231931D01*
X33436877Y-46228985D01*
X33504600Y-46211801D01*
X33563122Y-46228985D01*
X33568103Y-46231931D01*
X33568104Y-46231931D01*
X33568107Y-46231933D01*
X33725320Y-46277608D01*
X33725323Y-46277608D01*
X33725325Y-46277609D01*
X33762060Y-46280500D01*
X33762068Y-46280500D01*
X34237932Y-46280500D01*
X34237940Y-46280500D01*
X34274675Y-46277609D01*
X34274677Y-46277608D01*
X34274679Y-46277608D01*
X34431892Y-46231933D01*
X34431893Y-46231932D01*
X34431897Y-46231931D01*
X34572820Y-46148590D01*
X34572825Y-46148585D01*
X34599592Y-46121819D01*
X34626519Y-46107115D01*
X34652338Y-46090523D01*
X34658538Y-46089631D01*
X34660915Y-46088334D01*
X34687273Y-46085500D01*
X34812727Y-46085500D01*
X34879766Y-46105185D01*
X34900408Y-46121819D01*
X34927174Y-46148585D01*
X34927178Y-46148588D01*
X34927180Y-46148590D01*
X35068103Y-46231931D01*
X35068104Y-46231931D01*
X35068107Y-46231933D01*
X35225320Y-46277608D01*
X35225323Y-46277608D01*
X35225325Y-46277609D01*
X35262060Y-46280500D01*
X35262068Y-46280500D01*
X35737932Y-46280500D01*
X35737940Y-46280500D01*
X35774675Y-46277609D01*
X35774677Y-46277608D01*
X35774679Y-46277608D01*
X35931892Y-46231933D01*
X35931893Y-46231932D01*
X35931897Y-46231931D01*
X35936877Y-46228985D01*
X36004600Y-46211801D01*
X36063122Y-46228985D01*
X36068103Y-46231931D01*
X36068104Y-46231931D01*
X36068107Y-46231933D01*
X36225320Y-46277608D01*
X36225323Y-46277608D01*
X36225325Y-46277609D01*
X36262060Y-46280500D01*
X36262068Y-46280500D01*
X36737932Y-46280500D01*
X36737940Y-46280500D01*
X36774675Y-46277609D01*
X36915551Y-46236680D01*
X36985418Y-46236879D01*
X36997584Y-46241190D01*
X37066503Y-46269737D01*
X37221153Y-46300499D01*
X37221156Y-46300500D01*
X37221158Y-46300500D01*
X37378844Y-46300500D01*
X37378845Y-46300499D01*
X37533497Y-46269737D01*
X37679179Y-46209394D01*
X37810289Y-46121789D01*
X37921789Y-46010289D01*
X38009394Y-45879179D01*
X38069737Y-45733497D01*
X38074411Y-45710000D01*
X41195496Y-45710000D01*
X41237968Y-45856195D01*
X41320278Y-45995374D01*
X41320285Y-45995383D01*
X41434616Y-46109714D01*
X41434625Y-46109721D01*
X41573804Y-46192031D01*
X41729089Y-46237145D01*
X41750000Y-46238789D01*
X42250000Y-46238789D01*
X42270910Y-46237145D01*
X42426195Y-46192031D01*
X42565374Y-46109721D01*
X42565383Y-46109714D01*
X42679714Y-45995383D01*
X42679721Y-45995374D01*
X42762031Y-45856195D01*
X42804504Y-45710000D01*
X42250000Y-45710000D01*
X42250000Y-46238789D01*
X41750000Y-46238789D01*
X41750000Y-45710000D01*
X41195496Y-45710000D01*
X38074411Y-45710000D01*
X38092151Y-45620814D01*
X38100500Y-45578844D01*
X38100500Y-45421155D01*
X38100499Y-45421153D01*
X38071953Y-45277643D01*
X38069737Y-45266503D01*
X38055650Y-45232494D01*
X38009397Y-45120827D01*
X38009390Y-45120814D01*
X37921789Y-44989711D01*
X37921786Y-44989707D01*
X37810292Y-44878213D01*
X37810288Y-44878210D01*
X37679185Y-44790609D01*
X37679172Y-44790602D01*
X37533501Y-44730264D01*
X37533491Y-44730261D01*
X37420308Y-44707747D01*
X37358397Y-44675362D01*
X37323823Y-44614646D01*
X37320500Y-44586130D01*
X37320500Y-44302067D01*
X37320499Y-44302052D01*
X37319968Y-44295310D01*
X37317609Y-44265325D01*
X37315774Y-44259008D01*
X37271933Y-44108107D01*
X37271931Y-44108104D01*
X37271931Y-44108103D01*
X37188590Y-43967180D01*
X37188588Y-43967178D01*
X37188585Y-43967174D01*
X37072825Y-43851414D01*
X37072817Y-43851408D01*
X36978127Y-43795409D01*
X36931897Y-43768069D01*
X36931896Y-43768068D01*
X36931895Y-43768068D01*
X36931892Y-43768066D01*
X36774679Y-43722391D01*
X36774673Y-43722390D01*
X36737947Y-43719500D01*
X36737940Y-43719500D01*
X36572097Y-43719500D01*
X36505058Y-43699815D01*
X36459303Y-43647011D01*
X36449359Y-43577853D01*
X36458297Y-43546249D01*
X36459651Y-43543115D01*
X36459659Y-43543104D01*
X36497557Y-43412659D01*
X36504454Y-43388919D01*
X36504454Y-43388917D01*
X36504455Y-43388915D01*
X36507290Y-43352892D01*
X36507289Y-42954531D01*
X36504455Y-42918507D01*
X36459659Y-42764318D01*
X36451191Y-42750000D01*
X36761210Y-42750000D01*
X36762854Y-42770910D01*
X36807968Y-42926195D01*
X36890278Y-43065374D01*
X36890285Y-43065383D01*
X37004616Y-43179714D01*
X37004625Y-43179721D01*
X37143804Y-43262031D01*
X37290000Y-43304504D01*
X37290000Y-42750000D01*
X36761210Y-42750000D01*
X36451191Y-42750000D01*
X36425659Y-42706828D01*
X36408478Y-42639109D01*
X36425659Y-42580593D01*
X36459659Y-42523104D01*
X36466740Y-42498733D01*
X36504454Y-42368919D01*
X36504454Y-42368917D01*
X36504455Y-42368915D01*
X36507290Y-42332892D01*
X36507289Y-41945624D01*
X36526973Y-41878586D01*
X36579777Y-41832831D01*
X36615101Y-41822686D01*
X36725236Y-41808187D01*
X36725239Y-41808185D01*
X36732680Y-41807206D01*
X36801715Y-41817971D01*
X36853971Y-41864351D01*
X36872857Y-41931620D01*
X36855598Y-41993265D01*
X36807970Y-42073800D01*
X36807966Y-42073809D01*
X36762855Y-42229081D01*
X36762854Y-42229087D01*
X36761209Y-42249999D01*
X36761210Y-42250000D01*
X37290000Y-42250000D01*
X37290000Y-41695494D01*
X37289998Y-41695493D01*
X37221682Y-41715341D01*
X37151812Y-41715142D01*
X37093142Y-41677200D01*
X37064299Y-41613561D01*
X37074440Y-41544431D01*
X37076864Y-41539746D01*
X37077698Y-41537733D01*
X37135687Y-41397736D01*
X37150500Y-41285220D01*
X37150500Y-40724228D01*
X37158318Y-40680894D01*
X37166330Y-40659413D01*
X37194091Y-40584983D01*
X37200500Y-40525373D01*
X37200499Y-39419628D01*
X37194091Y-39360017D01*
X37169055Y-39292893D01*
X37661773Y-39292893D01*
X37675838Y-39399732D01*
X37681122Y-39439864D01*
X37737850Y-39576821D01*
X37737851Y-39576824D01*
X37805430Y-39664893D01*
X37805438Y-39664902D01*
X38052854Y-39912318D01*
X38086339Y-39973641D01*
X38081355Y-40043333D01*
X38052855Y-40087680D01*
X37805432Y-40335105D01*
X37805429Y-40335108D01*
X37737853Y-40423172D01*
X37737851Y-40423177D01*
X37695520Y-40525376D01*
X37681121Y-40560138D01*
X37661773Y-40707105D01*
X37661773Y-40707108D01*
X37681121Y-40854077D01*
X37681123Y-40854082D01*
X37737849Y-40991034D01*
X37737851Y-40991037D01*
X37747186Y-41003202D01*
X37805437Y-41079115D01*
X37805441Y-41079119D01*
X37805442Y-41079120D01*
X37946004Y-41219682D01*
X37946014Y-41219691D01*
X38001192Y-41262031D01*
X38034090Y-41287275D01*
X38034092Y-41287276D01*
X38041129Y-41291339D01*
X38040592Y-41292267D01*
X38044785Y-41293414D01*
X38061751Y-41312268D01*
X38081518Y-41328174D01*
X38085695Y-41338495D01*
X38087339Y-41337547D01*
X38091405Y-41344590D01*
X38116768Y-41377643D01*
X38158991Y-41432668D01*
X38158995Y-41432672D01*
X38158996Y-41432673D01*
X38234473Y-41508150D01*
X38267958Y-41569473D01*
X38262974Y-41639165D01*
X38221102Y-41695098D01*
X38181388Y-41714907D01*
X38103607Y-41737504D01*
X38103604Y-41737506D01*
X38082628Y-41749911D01*
X38051997Y-41757681D01*
X38021833Y-41767156D01*
X38018376Y-41766210D01*
X38014903Y-41767092D01*
X37956389Y-41749911D01*
X37936191Y-41737966D01*
X37936190Y-41737965D01*
X37790001Y-41695493D01*
X37790000Y-41695494D01*
X37790000Y-42001645D01*
X37772734Y-42064763D01*
X37767507Y-42073600D01*
X37767504Y-42073608D01*
X37722357Y-42229002D01*
X37722356Y-42229008D01*
X37719500Y-42265302D01*
X37719500Y-42734697D01*
X37722356Y-42770989D01*
X37722356Y-42770992D01*
X37722357Y-42770993D01*
X37729420Y-42795302D01*
X37763928Y-42914081D01*
X37763728Y-42983951D01*
X37759413Y-42996127D01*
X37730264Y-43066502D01*
X37730262Y-43066506D01*
X37730260Y-43066511D01*
X37699500Y-43221153D01*
X37699500Y-43378846D01*
X37730261Y-43533489D01*
X37730264Y-43533501D01*
X37790602Y-43679172D01*
X37790609Y-43679185D01*
X37878210Y-43810288D01*
X37878213Y-43810292D01*
X37989707Y-43921786D01*
X37989711Y-43921789D01*
X38120814Y-44009390D01*
X38120827Y-44009397D01*
X38220857Y-44050830D01*
X38266503Y-44069737D01*
X38421153Y-44100499D01*
X38421156Y-44100500D01*
X38421158Y-44100500D01*
X38578844Y-44100500D01*
X38578845Y-44100499D01*
X38733497Y-44069737D01*
X38866137Y-44014796D01*
X38879172Y-44009397D01*
X38879172Y-44009396D01*
X38879179Y-44009394D01*
X39010289Y-43921789D01*
X39121789Y-43810289D01*
X39209394Y-43679179D01*
X39269737Y-43533497D01*
X39300500Y-43378842D01*
X39300500Y-43221158D01*
X39300500Y-43221155D01*
X39300499Y-43221153D01*
X39278858Y-43112356D01*
X39269737Y-43066503D01*
X39240587Y-42996129D01*
X39238008Y-42972148D01*
X39231149Y-42949031D01*
X39233629Y-42931417D01*
X39233118Y-42926659D01*
X39236071Y-42914082D01*
X39275209Y-42779369D01*
X39312814Y-42720487D01*
X39376286Y-42691280D01*
X39445473Y-42701026D01*
X39498407Y-42746629D01*
X39501670Y-42751965D01*
X39505618Y-42758804D01*
X39521402Y-42779373D01*
X39573204Y-42846882D01*
X39573208Y-42846886D01*
X39573209Y-42846887D01*
X39713771Y-42987449D01*
X39713781Y-42987458D01*
X39749410Y-43014797D01*
X39801857Y-43055042D01*
X39801859Y-43055043D01*
X39808896Y-43059106D01*
X39807186Y-43062066D01*
X39849285Y-43095941D01*
X39854575Y-43105620D01*
X39855106Y-43105314D01*
X39859172Y-43112357D01*
X39859174Y-43112359D01*
X39926758Y-43200435D01*
X39926762Y-43200439D01*
X39926763Y-43200440D01*
X40067325Y-43341002D01*
X40067335Y-43341011D01*
X40129764Y-43388915D01*
X40155411Y-43408595D01*
X40155413Y-43408596D01*
X40162450Y-43412659D01*
X40160746Y-43415609D01*
X40202881Y-43449556D01*
X40208140Y-43459175D01*
X40208663Y-43458874D01*
X40212725Y-43465911D01*
X40245055Y-43508043D01*
X40280311Y-43553989D01*
X40280315Y-43553993D01*
X40280316Y-43553994D01*
X40420878Y-43694556D01*
X40420888Y-43694565D01*
X40508962Y-43762148D01*
X40508968Y-43762151D01*
X40621020Y-43808564D01*
X40675424Y-43852404D01*
X40697489Y-43918698D01*
X40680210Y-43986398D01*
X40676670Y-43992016D01*
X40590609Y-44120814D01*
X40590602Y-44120827D01*
X40530264Y-44266498D01*
X40530261Y-44266510D01*
X40499500Y-44421153D01*
X40499500Y-44578846D01*
X40530261Y-44733489D01*
X40530264Y-44733501D01*
X40590602Y-44879172D01*
X40590609Y-44879185D01*
X40678210Y-45010288D01*
X40678213Y-45010292D01*
X40789707Y-45121786D01*
X40789711Y-45121789D01*
X40920814Y-45209390D01*
X40920827Y-45209397D01*
X41066498Y-45269735D01*
X41066503Y-45269737D01*
X41171418Y-45290606D01*
X41221153Y-45300499D01*
X41221156Y-45300500D01*
X41221158Y-45300500D01*
X41378844Y-45300500D01*
X41378845Y-45300499D01*
X41533497Y-45269737D01*
X41562646Y-45257662D01*
X41632112Y-45250193D01*
X41644685Y-45253144D01*
X41729007Y-45277643D01*
X41765310Y-45280500D01*
X41765318Y-45280500D01*
X42234682Y-45280500D01*
X42234690Y-45280500D01*
X42270993Y-45277643D01*
X42270995Y-45277642D01*
X42270997Y-45277642D01*
X42426389Y-45232496D01*
X42426389Y-45232495D01*
X42426395Y-45232494D01*
X42435233Y-45227267D01*
X42498352Y-45210000D01*
X42804504Y-45210000D01*
X42762031Y-45063803D01*
X42750090Y-45043613D01*
X42732906Y-44975889D01*
X42750089Y-44917369D01*
X42762494Y-44896395D01*
X42799571Y-44768777D01*
X42807642Y-44740997D01*
X42807643Y-44740991D01*
X42807946Y-44737145D01*
X42810500Y-44704690D01*
X42810500Y-44295310D01*
X42807643Y-44259007D01*
X42762494Y-44103605D01*
X42680117Y-43964313D01*
X42680115Y-43964311D01*
X42680112Y-43964307D01*
X42636819Y-43921014D01*
X42622115Y-43894086D01*
X42605523Y-43868268D01*
X42604631Y-43862067D01*
X42603334Y-43859691D01*
X42600500Y-43833333D01*
X42600500Y-43724539D01*
X42620185Y-43657500D01*
X42636819Y-43636858D01*
X42651891Y-43621786D01*
X42719688Y-43553989D01*
X42787275Y-43465910D01*
X42787277Y-43465903D01*
X42791339Y-43458871D01*
X42794308Y-43460585D01*
X42828113Y-43418524D01*
X42837862Y-43413202D01*
X42837549Y-43412660D01*
X42844585Y-43408596D01*
X42844589Y-43408595D01*
X42932668Y-43341009D01*
X43073241Y-43200435D01*
X43140828Y-43112356D01*
X43140831Y-43112348D01*
X43144890Y-43105319D01*
X43147864Y-43107036D01*
X43181639Y-43064989D01*
X43191425Y-43059643D01*
X43191112Y-43059101D01*
X43198139Y-43055043D01*
X43198143Y-43055042D01*
X43286222Y-42987456D01*
X43426795Y-42846882D01*
X43494382Y-42758803D01*
X43494384Y-42758796D01*
X43498446Y-42751764D01*
X43501415Y-42753478D01*
X43535220Y-42711417D01*
X43544969Y-42706095D01*
X43544656Y-42705553D01*
X43551692Y-42701489D01*
X43551696Y-42701488D01*
X43639775Y-42633902D01*
X43780348Y-42493328D01*
X43847935Y-42405249D01*
X43847938Y-42405241D01*
X43852001Y-42398206D01*
X43854976Y-42399923D01*
X43888747Y-42357882D01*
X43898523Y-42352539D01*
X43898211Y-42351998D01*
X43905243Y-42347937D01*
X43905249Y-42347935D01*
X43993328Y-42280349D01*
X44133901Y-42139775D01*
X44201488Y-42051696D01*
X44201491Y-42051688D01*
X44205550Y-42044659D01*
X44208524Y-42046376D01*
X44242299Y-42004329D01*
X44252085Y-41998983D01*
X44251772Y-41998441D01*
X44258799Y-41994383D01*
X44258803Y-41994382D01*
X44346882Y-41926796D01*
X44487455Y-41786222D01*
X44555042Y-41698143D01*
X44555044Y-41698136D01*
X44559106Y-41691104D01*
X44562075Y-41692818D01*
X44595880Y-41650757D01*
X44605629Y-41645435D01*
X44605316Y-41644893D01*
X44612352Y-41640829D01*
X44612356Y-41640828D01*
X44700435Y-41573242D01*
X44841008Y-41432668D01*
X44908595Y-41344589D01*
X44908598Y-41344581D01*
X44912657Y-41337552D01*
X44915631Y-41339269D01*
X44949406Y-41297222D01*
X44959192Y-41291876D01*
X44958879Y-41291334D01*
X44965906Y-41287276D01*
X44965910Y-41287275D01*
X45053989Y-41219689D01*
X45112768Y-41160910D01*
X45136859Y-41136819D01*
X45163786Y-41122115D01*
X45189605Y-41105523D01*
X45195805Y-41104631D01*
X45198182Y-41103334D01*
X45224540Y-41100500D01*
X45275500Y-41100500D01*
X45342539Y-41120185D01*
X45388294Y-41172989D01*
X45399500Y-41224500D01*
X45399500Y-41278846D01*
X45430261Y-41433489D01*
X45430264Y-41433501D01*
X45490602Y-41579172D01*
X45490609Y-41579185D01*
X45578210Y-41710288D01*
X45578213Y-41710292D01*
X45689707Y-41821786D01*
X45689711Y-41821789D01*
X45820814Y-41909390D01*
X45820827Y-41909397D01*
X45966498Y-41969735D01*
X45966503Y-41969737D01*
X46090401Y-41994382D01*
X46121153Y-42000499D01*
X46121156Y-42000500D01*
X46121158Y-42000500D01*
X46278844Y-42000500D01*
X46278845Y-42000499D01*
X46433497Y-41969737D01*
X46546166Y-41923067D01*
X46579172Y-41909397D01*
X46579172Y-41909396D01*
X46579179Y-41909394D01*
X46710289Y-41821789D01*
X46821789Y-41710289D01*
X46909394Y-41579179D01*
X46969737Y-41433497D01*
X47000500Y-41278842D01*
X47000500Y-41121158D01*
X47000500Y-41121155D01*
X47000499Y-41121153D01*
X46991432Y-41075572D01*
X46969737Y-40966503D01*
X46962035Y-40947909D01*
X46909397Y-40820827D01*
X46909390Y-40820814D01*
X46841398Y-40719057D01*
X46820520Y-40652379D01*
X46820500Y-40650166D01*
X46820500Y-40265317D01*
X46820499Y-40265302D01*
X46819036Y-40246714D01*
X46817643Y-40229007D01*
X46815855Y-40222854D01*
X46772495Y-40073608D01*
X46772492Y-40073600D01*
X46767266Y-40064763D01*
X46762916Y-40048862D01*
X46755023Y-40036580D01*
X46750000Y-40001645D01*
X46750000Y-39998352D01*
X46767267Y-39935233D01*
X46772494Y-39926395D01*
X46779692Y-39901622D01*
X46817642Y-39770997D01*
X46817643Y-39770991D01*
X46820500Y-39734690D01*
X46820500Y-39265310D01*
X46817643Y-39229007D01*
X46814861Y-39219432D01*
X46772495Y-39073608D01*
X46772492Y-39073600D01*
X46767266Y-39064763D01*
X46750000Y-39001645D01*
X46750000Y-38695494D01*
X47250000Y-38695494D01*
X47250000Y-40250000D01*
X47778790Y-40250000D01*
X47777144Y-40229084D01*
X47776007Y-40222854D01*
X47778832Y-40222338D01*
X47778990Y-40164909D01*
X47816926Y-40106235D01*
X47880562Y-40077385D01*
X47949693Y-40087519D01*
X48002370Y-40133419D01*
X48003410Y-40135075D01*
X48056938Y-40221859D01*
X48150602Y-40315523D01*
X48184087Y-40376846D01*
X48179103Y-40446538D01*
X48150602Y-40490885D01*
X48056940Y-40584546D01*
X47970148Y-40725259D01*
X47918200Y-40771983D01*
X47849237Y-40783206D01*
X47785155Y-40755362D01*
X47779514Y-40750000D01*
X47250000Y-40750000D01*
X47250000Y-41304503D01*
X47396195Y-41262031D01*
X47535374Y-41179721D01*
X47535383Y-41179714D01*
X47649714Y-41065383D01*
X47649720Y-41065375D01*
X47668419Y-41033758D01*
X47719488Y-40986075D01*
X47788229Y-40973571D01*
X47852819Y-41000216D01*
X47892749Y-41057551D01*
X47899151Y-41096879D01*
X47899151Y-41903205D01*
X47899152Y-41903223D01*
X47909651Y-42006000D01*
X47909652Y-42006003D01*
X47932118Y-42073800D01*
X47964837Y-42172538D01*
X48048319Y-42307885D01*
X48056940Y-42321861D01*
X48144255Y-42409176D01*
X48177740Y-42470499D01*
X48172756Y-42540191D01*
X48163307Y-42559976D01*
X48137506Y-42603604D01*
X48137504Y-42603609D01*
X48092357Y-42759002D01*
X48092356Y-42759008D01*
X48089500Y-42795302D01*
X48089500Y-43204697D01*
X48092356Y-43240991D01*
X48092357Y-43240997D01*
X48137504Y-43396390D01*
X48137507Y-43396397D01*
X48149910Y-43417370D01*
X48167093Y-43485094D01*
X48149912Y-43543608D01*
X48137968Y-43563804D01*
X48095496Y-43710000D01*
X48401648Y-43710000D01*
X48464766Y-43727267D01*
X48473605Y-43732494D01*
X48473608Y-43732494D01*
X48473610Y-43732496D01*
X48629002Y-43777642D01*
X48629005Y-43777642D01*
X48629007Y-43777643D01*
X48665310Y-43780500D01*
X48665318Y-43780500D01*
X49134682Y-43780500D01*
X49134690Y-43780500D01*
X49170993Y-43777643D01*
X49170995Y-43777642D01*
X49170997Y-43777642D01*
X49314081Y-43736072D01*
X49383950Y-43736271D01*
X49396129Y-43740587D01*
X49466503Y-43769737D01*
X49592734Y-43794846D01*
X49621153Y-43800499D01*
X49621156Y-43800500D01*
X49621158Y-43800500D01*
X49778844Y-43800500D01*
X49778845Y-43800499D01*
X49933497Y-43769737D01*
X50047804Y-43722390D01*
X50079172Y-43709397D01*
X50079172Y-43709396D01*
X50079179Y-43709394D01*
X50210289Y-43621789D01*
X50321789Y-43510289D01*
X50409394Y-43379179D01*
X50469737Y-43233497D01*
X50500500Y-43078842D01*
X50500500Y-42921158D01*
X50500500Y-42921155D01*
X50500499Y-42921153D01*
X50469738Y-42766506D01*
X50468886Y-42763697D01*
X50468872Y-42762152D01*
X50468549Y-42760528D01*
X50468857Y-42760466D01*
X50468263Y-42693830D01*
X50505512Y-42634718D01*
X50568806Y-42605127D01*
X50587547Y-42603703D01*
X50949653Y-42603703D01*
X50949659Y-42603703D01*
X50950619Y-42603605D01*
X51001014Y-42598457D01*
X51052448Y-42593203D01*
X51218985Y-42538018D01*
X51368307Y-42445916D01*
X51492363Y-42321860D01*
X51584465Y-42172538D01*
X51639650Y-42006001D01*
X51650151Y-41903213D01*
X51650150Y-41003196D01*
X51646402Y-40966510D01*
X51639650Y-40900407D01*
X51639649Y-40900404D01*
X51631142Y-40874731D01*
X51584465Y-40733870D01*
X51492363Y-40584548D01*
X51398346Y-40490531D01*
X51364861Y-40429208D01*
X51369845Y-40359516D01*
X51398346Y-40315168D01*
X51491968Y-40221546D01*
X51584007Y-40072328D01*
X51584009Y-40072323D01*
X51639156Y-39905901D01*
X51639157Y-39905894D01*
X51649650Y-39803190D01*
X51649651Y-39803177D01*
X51649651Y-39603204D01*
X50723651Y-39603204D01*
X50656612Y-39583519D01*
X50610857Y-39530715D01*
X50599651Y-39479204D01*
X50599651Y-39353204D01*
X50473651Y-39353204D01*
X50406612Y-39333519D01*
X50360857Y-39280715D01*
X50349651Y-39229204D01*
X50349651Y-39103204D01*
X50849651Y-39103204D01*
X51649650Y-39103204D01*
X51649650Y-38903232D01*
X51649649Y-38903217D01*
X51639156Y-38800506D01*
X51584009Y-38634084D01*
X51584007Y-38634079D01*
X51491966Y-38484858D01*
X51367996Y-38360888D01*
X51218775Y-38268847D01*
X51218770Y-38268845D01*
X51052348Y-38213698D01*
X51052341Y-38213697D01*
X50949637Y-38203204D01*
X50849651Y-38203204D01*
X50849651Y-39103204D01*
X50349651Y-39103204D01*
X50349651Y-38203203D01*
X50249679Y-38203204D01*
X50249663Y-38203205D01*
X50146953Y-38213698D01*
X49980531Y-38268845D01*
X49980526Y-38268847D01*
X49840224Y-38355387D01*
X49772831Y-38373827D01*
X49710031Y-38355387D01*
X49568991Y-38268393D01*
X49568986Y-38268391D01*
X49568985Y-38268390D01*
X49402448Y-38213205D01*
X49402446Y-38213204D01*
X49299661Y-38202704D01*
X48599649Y-38202704D01*
X48599631Y-38202705D01*
X48496854Y-38213204D01*
X48496851Y-38213205D01*
X48330319Y-38268389D01*
X48330314Y-38268391D01*
X48180993Y-38360493D01*
X48056940Y-38484546D01*
X47964838Y-38633867D01*
X47964836Y-38633872D01*
X47951481Y-38674175D01*
X47909652Y-38800407D01*
X47909652Y-38800408D01*
X47909651Y-38800408D01*
X47899151Y-38903187D01*
X47898991Y-38906343D01*
X47898830Y-38906334D01*
X47898830Y-38906336D01*
X47898806Y-38906333D01*
X47898216Y-38906303D01*
X47879466Y-38970159D01*
X47826662Y-39015914D01*
X47757504Y-39025858D01*
X47693948Y-38996833D01*
X47668419Y-38966242D01*
X47649718Y-38934622D01*
X47649714Y-38934616D01*
X47535383Y-38820285D01*
X47535374Y-38820278D01*
X47396193Y-38737967D01*
X47396190Y-38737965D01*
X47250001Y-38695493D01*
X47250000Y-38695494D01*
X46750000Y-38695494D01*
X46749998Y-38695493D01*
X46603809Y-38737965D01*
X46603806Y-38737967D01*
X46583608Y-38749912D01*
X46515884Y-38767092D01*
X46457370Y-38749910D01*
X46436397Y-38737507D01*
X46436390Y-38737504D01*
X46280997Y-38692357D01*
X46280991Y-38692356D01*
X46244697Y-38689500D01*
X46244690Y-38689500D01*
X45835310Y-38689500D01*
X45835302Y-38689500D01*
X45799008Y-38692356D01*
X45799002Y-38692357D01*
X45643609Y-38737504D01*
X45643606Y-38737505D01*
X45504315Y-38819881D01*
X45504307Y-38819887D01*
X45461016Y-38863180D01*
X45434087Y-38877884D01*
X45408269Y-38894477D01*
X45402069Y-38895368D01*
X45399693Y-38896666D01*
X45373334Y-38899500D01*
X45224541Y-38899500D01*
X45157502Y-38879815D01*
X45136860Y-38863182D01*
X45053989Y-38780312D01*
X44965910Y-38712725D01*
X44958877Y-38708665D01*
X44960569Y-38705734D01*
X44918360Y-38671650D01*
X44913179Y-38662149D01*
X44912659Y-38662450D01*
X44908594Y-38655409D01*
X44880210Y-38618419D01*
X44841009Y-38567332D01*
X44820912Y-38547235D01*
X44700438Y-38426761D01*
X44614592Y-38360888D01*
X44612356Y-38359172D01*
X44612355Y-38359171D01*
X44612353Y-38359170D01*
X44605318Y-38355108D01*
X44607019Y-38352161D01*
X44564868Y-38318184D01*
X44559634Y-38308590D01*
X44559106Y-38308896D01*
X44555041Y-38301855D01*
X44519074Y-38254983D01*
X44487456Y-38213778D01*
X44419534Y-38145856D01*
X44346885Y-38073207D01*
X44258803Y-38005618D01*
X44251770Y-38001558D01*
X44253462Y-37998627D01*
X44211253Y-37964543D01*
X44206072Y-37955042D01*
X44205552Y-37955343D01*
X44201487Y-37948302D01*
X44173349Y-37911633D01*
X44133902Y-37860225D01*
X44072022Y-37798345D01*
X43993331Y-37719654D01*
X43905249Y-37652065D01*
X43898216Y-37648005D01*
X43899812Y-37645239D01*
X43857088Y-37610779D01*
X43852127Y-37601712D01*
X43851561Y-37602040D01*
X43847498Y-37595003D01*
X43795711Y-37527512D01*
X43795710Y-37527512D01*
X43775827Y-37547396D01*
X43772504Y-37549210D01*
X43770499Y-37552417D01*
X43742080Y-37565821D01*
X43714503Y-37580880D01*
X43709734Y-37581079D01*
X43707307Y-37582225D01*
X43672015Y-37582660D01*
X43670765Y-37582496D01*
X43606856Y-37554258D01*
X43568359Y-37495951D01*
X43563961Y-37475764D01*
X43563796Y-37474510D01*
X43567778Y-37448932D01*
X43567497Y-37426087D01*
X43572608Y-37417913D01*
X43574545Y-37405476D01*
X43599050Y-37370617D01*
X43618933Y-37350734D01*
X43551441Y-37298946D01*
X43544405Y-37294884D01*
X43546146Y-37291868D01*
X43504179Y-37257745D01*
X43498877Y-37247981D01*
X43498443Y-37248232D01*
X43494383Y-37241201D01*
X43494382Y-37241197D01*
X43426796Y-37153118D01*
X43373078Y-37099400D01*
X43286352Y-37012674D01*
X43286348Y-37012671D01*
X43286222Y-37012545D01*
X43198143Y-36944958D01*
X43190961Y-36941983D01*
X43178691Y-36932890D01*
X43166421Y-36916664D01*
X43150593Y-36903883D01*
X43145412Y-36894382D01*
X43144892Y-36894683D01*
X43140827Y-36887642D01*
X43099916Y-36834327D01*
X43073242Y-36799565D01*
X43003800Y-36730123D01*
X42932671Y-36658994D01*
X42867482Y-36608972D01*
X42844589Y-36591405D01*
X42844588Y-36591404D01*
X42844586Y-36591403D01*
X42837551Y-36587341D01*
X42839130Y-36584605D01*
X42799312Y-36553501D01*
X42790240Y-36541249D01*
X42787275Y-36534090D01*
X42720626Y-36447232D01*
X42720021Y-36446415D01*
X42708338Y-36414586D01*
X42696106Y-36382945D01*
X42696328Y-36381862D01*
X42695947Y-36380824D01*
X42703332Y-36347708D01*
X42710144Y-36314500D01*
X42710916Y-36313709D01*
X42711157Y-36312629D01*
X42735273Y-36288763D01*
X42758957Y-36264509D01*
X42760392Y-36263906D01*
X42760820Y-36263484D01*
X42761993Y-36263235D01*
X42785077Y-36253550D01*
X42885703Y-36224316D01*
X42955569Y-36224515D01*
X42967735Y-36228826D01*
X43066503Y-36269737D01*
X43216131Y-36299500D01*
X43221153Y-36300499D01*
X43221156Y-36300500D01*
X43221158Y-36300500D01*
X43378844Y-36300500D01*
X43378845Y-36300499D01*
X43533497Y-36269737D01*
X43678991Y-36209472D01*
X43679172Y-36209397D01*
X43679172Y-36209396D01*
X43679179Y-36209394D01*
X43810289Y-36121789D01*
X43921789Y-36010289D01*
X44009394Y-35879179D01*
X44069737Y-35733497D01*
X44100500Y-35578842D01*
X44100500Y-35421158D01*
X44100500Y-35421155D01*
X44100499Y-35421153D01*
X44098742Y-35412319D01*
X44096411Y-35400598D01*
X44699500Y-35400598D01*
X44699500Y-35599403D01*
X44713989Y-35709468D01*
X44716094Y-35717322D01*
X44712814Y-35718200D01*
X44718581Y-35772073D01*
X44715517Y-35782522D01*
X44716095Y-35782677D01*
X44713990Y-35790529D01*
X44699500Y-35900598D01*
X44699500Y-36099403D01*
X44713989Y-36209468D01*
X44716094Y-36217322D01*
X44712814Y-36218200D01*
X44718581Y-36272073D01*
X44715517Y-36282522D01*
X44716095Y-36282677D01*
X44713990Y-36290529D01*
X44699500Y-36400598D01*
X44699500Y-36599403D01*
X44713989Y-36709468D01*
X44716094Y-36717322D01*
X44713010Y-36718148D01*
X44718849Y-36772737D01*
X44716014Y-36782653D01*
X44716582Y-36782806D01*
X44714478Y-36790658D01*
X44703373Y-36875000D01*
X44731494Y-36875000D01*
X44735145Y-36876072D01*
X44738854Y-36875219D01*
X44768403Y-36885837D01*
X44798533Y-36894685D01*
X44802066Y-36897934D01*
X44804607Y-36898848D01*
X44829862Y-36923503D01*
X44831397Y-36925503D01*
X44856598Y-36990669D01*
X44842567Y-37059116D01*
X44793759Y-37109111D01*
X44733029Y-37125000D01*
X44703374Y-37125000D01*
X44714478Y-37209340D01*
X44714478Y-37209342D01*
X44771156Y-37346175D01*
X44861320Y-37463679D01*
X44978824Y-37553843D01*
X45115658Y-37610521D01*
X45225622Y-37624999D01*
X45225637Y-37625000D01*
X45525000Y-37625000D01*
X45525000Y-37249499D01*
X45527550Y-37240813D01*
X45526262Y-37231852D01*
X45537240Y-37207811D01*
X45544685Y-37182460D01*
X45551525Y-37176532D01*
X45555287Y-37168296D01*
X45577521Y-37154006D01*
X45597489Y-37136705D01*
X45608003Y-37134417D01*
X45614065Y-37130522D01*
X45648996Y-37125499D01*
X45651001Y-37125499D01*
X45718039Y-37145184D01*
X45763794Y-37197988D01*
X45775000Y-37249499D01*
X45775000Y-37625000D01*
X46074363Y-37625000D01*
X46074377Y-37624999D01*
X46184341Y-37610521D01*
X46184342Y-37610521D01*
X46321175Y-37553843D01*
X46438679Y-37463679D01*
X46528843Y-37346175D01*
X46585520Y-37209344D01*
X46589795Y-37176872D01*
X46618060Y-37112974D01*
X46676384Y-37074502D01*
X46680597Y-37073292D01*
X46731784Y-37059577D01*
X46868716Y-36980520D01*
X46980520Y-36868716D01*
X47059577Y-36731784D01*
X47100500Y-36579057D01*
X47100500Y-35873500D01*
X47103050Y-35864814D01*
X47101762Y-35855853D01*
X47112740Y-35831812D01*
X47120185Y-35806461D01*
X47127025Y-35800533D01*
X47130787Y-35792297D01*
X47153021Y-35778007D01*
X47172989Y-35760706D01*
X47183503Y-35758418D01*
X47189565Y-35754523D01*
X47224500Y-35749500D01*
X47427998Y-35749500D01*
X47495037Y-35769185D01*
X47540792Y-35821989D01*
X47550937Y-35889687D01*
X47549500Y-35900600D01*
X47549500Y-36099403D01*
X47563989Y-36209468D01*
X47566094Y-36217322D01*
X47562814Y-36218200D01*
X47568581Y-36272073D01*
X47565517Y-36282522D01*
X47566095Y-36282677D01*
X47563990Y-36290529D01*
X47549500Y-36400598D01*
X47549500Y-36599403D01*
X47563989Y-36709468D01*
X47566094Y-36717322D01*
X47562814Y-36718200D01*
X47568581Y-36772073D01*
X47565517Y-36782522D01*
X47566095Y-36782677D01*
X47563990Y-36790529D01*
X47549500Y-36900598D01*
X47549500Y-37099403D01*
X47563988Y-37209463D01*
X47563991Y-37209472D01*
X47620615Y-37346175D01*
X47620721Y-37346429D01*
X47710964Y-37464036D01*
X47828571Y-37554279D01*
X47965528Y-37611009D01*
X48075599Y-37625500D01*
X48924400Y-37625499D01*
X48924403Y-37625499D01*
X49034463Y-37611011D01*
X49034467Y-37611009D01*
X49034472Y-37611009D01*
X49171429Y-37554279D01*
X49289036Y-37464036D01*
X49379279Y-37346429D01*
X49436009Y-37209472D01*
X49450500Y-37099401D01*
X49450499Y-36900600D01*
X49450499Y-36900598D01*
X49450499Y-36896542D01*
X49451958Y-36896541D01*
X49465862Y-36834327D01*
X49515546Y-36785202D01*
X49583902Y-36770737D01*
X49608949Y-36775292D01*
X49637729Y-36783654D01*
X49754791Y-36817664D01*
X49754794Y-36817664D01*
X49754796Y-36817665D01*
X49790819Y-36820500D01*
X50189180Y-36820499D01*
X50225204Y-36817665D01*
X50379393Y-36772869D01*
X50436882Y-36738869D01*
X50504602Y-36721688D01*
X50563117Y-36738869D01*
X50620607Y-36772869D01*
X50620610Y-36772869D01*
X50620612Y-36772871D01*
X50774791Y-36817664D01*
X50774794Y-36817664D01*
X50774796Y-36817665D01*
X50810819Y-36820500D01*
X51209180Y-36820499D01*
X51245204Y-36817665D01*
X51399393Y-36772869D01*
X51418006Y-36761860D01*
X51485730Y-36744676D01*
X51528582Y-36754030D01*
X51560827Y-36767386D01*
X51566503Y-36769737D01*
X51716478Y-36799569D01*
X51721153Y-36800499D01*
X51721156Y-36800500D01*
X51721158Y-36800500D01*
X51878844Y-36800500D01*
X51878845Y-36800499D01*
X52033497Y-36769737D01*
X52151592Y-36720821D01*
X52179172Y-36709397D01*
X52179172Y-36709396D01*
X52179179Y-36709394D01*
X52310289Y-36621789D01*
X52421789Y-36510289D01*
X52509394Y-36379179D01*
X52569737Y-36233497D01*
X52600500Y-36078842D01*
X52600500Y-35921158D01*
X52600500Y-35921155D01*
X52600499Y-35921153D01*
X52596411Y-35900600D01*
X52569737Y-35766503D01*
X52556062Y-35733489D01*
X52509397Y-35620827D01*
X52509390Y-35620814D01*
X52421789Y-35489711D01*
X52421786Y-35489707D01*
X52310292Y-35378213D01*
X52310288Y-35378210D01*
X52179185Y-35290609D01*
X52179172Y-35290602D01*
X52033501Y-35230264D01*
X52033489Y-35230261D01*
X51878845Y-35199500D01*
X51878842Y-35199500D01*
X51721158Y-35199500D01*
X51721155Y-35199500D01*
X51566511Y-35230260D01*
X51566506Y-35230262D01*
X51566504Y-35230262D01*
X51566503Y-35230263D01*
X51566501Y-35230264D01*
X51528579Y-35245971D01*
X51459110Y-35253437D01*
X51418011Y-35238141D01*
X51399396Y-35227132D01*
X51399388Y-35227129D01*
X51245208Y-35182335D01*
X51245202Y-35182334D01*
X51209181Y-35179500D01*
X50810830Y-35179500D01*
X50810808Y-35179501D01*
X50774794Y-35182335D01*
X50620611Y-35227129D01*
X50620604Y-35227132D01*
X50563119Y-35261128D01*
X50495395Y-35278309D01*
X50436881Y-35261128D01*
X50379395Y-35227132D01*
X50379388Y-35227129D01*
X50225208Y-35182335D01*
X50225202Y-35182334D01*
X50189181Y-35179500D01*
X49790830Y-35179500D01*
X49790808Y-35179501D01*
X49754794Y-35182335D01*
X49600611Y-35227129D01*
X49600607Y-35227130D01*
X49570299Y-35245055D01*
X49502574Y-35262236D01*
X49436312Y-35240076D01*
X49392618Y-35185774D01*
X49379279Y-35153571D01*
X49289036Y-35035964D01*
X49288600Y-35035629D01*
X49284000Y-35032099D01*
X49242800Y-34975670D01*
X49238648Y-34905923D01*
X49240415Y-34899132D01*
X49277642Y-34770997D01*
X49277643Y-34770991D01*
X49279080Y-34752732D01*
X49280500Y-34734690D01*
X49280500Y-34265310D01*
X49277643Y-34229007D01*
X49269070Y-34199500D01*
X49232495Y-34073609D01*
X49232494Y-34073606D01*
X49232494Y-34073605D01*
X49150117Y-33934313D01*
X49150115Y-33934311D01*
X49150112Y-33934307D01*
X49035692Y-33819887D01*
X49035684Y-33819881D01*
X48946422Y-33767092D01*
X48896395Y-33737506D01*
X48896394Y-33737505D01*
X48896393Y-33737505D01*
X48896390Y-33737504D01*
X48740997Y-33692357D01*
X48740991Y-33692356D01*
X48704697Y-33689500D01*
X48704690Y-33689500D01*
X48295310Y-33689500D01*
X48295302Y-33689500D01*
X48259008Y-33692356D01*
X48259002Y-33692357D01*
X48103609Y-33737504D01*
X48103604Y-33737506D01*
X48082628Y-33749911D01*
X48014903Y-33767092D01*
X47956389Y-33749911D01*
X47936191Y-33737966D01*
X47936190Y-33737965D01*
X47790001Y-33695493D01*
X47790000Y-33695494D01*
X47790000Y-34001645D01*
X47772734Y-34064763D01*
X47767507Y-34073600D01*
X47767504Y-34073608D01*
X47722357Y-34229002D01*
X47722356Y-34229008D01*
X47719500Y-34265302D01*
X47719500Y-34376000D01*
X47716949Y-34384685D01*
X47718238Y-34393647D01*
X47707259Y-34417687D01*
X47699815Y-34443039D01*
X47692974Y-34448966D01*
X47689213Y-34457203D01*
X47666978Y-34471492D01*
X47647011Y-34488794D01*
X47636496Y-34491081D01*
X47630435Y-34494977D01*
X47595500Y-34500000D01*
X47414000Y-34500000D01*
X47346961Y-34480315D01*
X47301206Y-34427511D01*
X47290000Y-34376000D01*
X47290000Y-33695494D01*
X47289998Y-33695493D01*
X47143809Y-33737965D01*
X47143806Y-33737967D01*
X47004625Y-33820278D01*
X47004620Y-33820282D01*
X46906028Y-33918874D01*
X46844705Y-33952358D01*
X46775013Y-33947374D01*
X46770912Y-33945760D01*
X46733497Y-33930263D01*
X46733492Y-33930262D01*
X46733489Y-33930261D01*
X46578845Y-33899500D01*
X46578842Y-33899500D01*
X46421158Y-33899500D01*
X46421155Y-33899500D01*
X46266510Y-33930261D01*
X46266498Y-33930264D01*
X46120827Y-33990602D01*
X46120814Y-33990609D01*
X45989711Y-34078210D01*
X45989707Y-34078213D01*
X45878213Y-34189707D01*
X45878210Y-34189711D01*
X45790609Y-34320814D01*
X45790602Y-34320827D01*
X45730264Y-34466498D01*
X45730261Y-34466510D01*
X45699500Y-34621153D01*
X45699500Y-34750500D01*
X45679815Y-34817539D01*
X45627011Y-34863294D01*
X45575500Y-34874500D01*
X45225596Y-34874500D01*
X45115536Y-34888988D01*
X45115527Y-34888991D01*
X44978574Y-34945719D01*
X44978571Y-34945720D01*
X44978571Y-34945721D01*
X44860964Y-35035964D01*
X44795847Y-35120827D01*
X44770719Y-35153574D01*
X44713991Y-35290527D01*
X44713990Y-35290529D01*
X44699500Y-35400598D01*
X44096411Y-35400598D01*
X44069737Y-35266503D01*
X44064325Y-35253437D01*
X44009397Y-35120827D01*
X44009390Y-35120814D01*
X43921789Y-34989711D01*
X43921786Y-34989707D01*
X43810292Y-34878213D01*
X43810288Y-34878210D01*
X43679185Y-34790609D01*
X43679172Y-34790602D01*
X43533501Y-34730264D01*
X43533489Y-34730261D01*
X43378845Y-34699500D01*
X43378842Y-34699500D01*
X43221158Y-34699500D01*
X43221155Y-34699500D01*
X43066505Y-34730261D01*
X43066497Y-34730264D01*
X43023064Y-34748254D01*
X42953594Y-34755721D01*
X42926687Y-34747590D01*
X42770997Y-34702357D01*
X42770991Y-34702356D01*
X42734697Y-34699500D01*
X42734690Y-34699500D01*
X42265310Y-34699500D01*
X42265302Y-34699500D01*
X42229008Y-34702356D01*
X42229002Y-34702357D01*
X42073608Y-34747504D01*
X42073600Y-34747507D01*
X42064767Y-34752732D01*
X42048865Y-34757082D01*
X42036581Y-34764977D01*
X42001646Y-34770000D01*
X41998354Y-34770000D01*
X41935233Y-34752732D01*
X41926399Y-34747507D01*
X41926391Y-34747504D01*
X41770997Y-34702357D01*
X41770991Y-34702356D01*
X41734697Y-34699500D01*
X41734690Y-34699500D01*
X41265310Y-34699500D01*
X41265302Y-34699500D01*
X41229008Y-34702356D01*
X41229002Y-34702357D01*
X41073608Y-34747504D01*
X41073600Y-34747507D01*
X41064767Y-34752732D01*
X41048865Y-34757082D01*
X41036581Y-34764977D01*
X41001646Y-34770000D01*
X40998354Y-34770000D01*
X40935233Y-34752732D01*
X40926399Y-34747507D01*
X40926391Y-34747504D01*
X40770997Y-34702357D01*
X40770991Y-34702356D01*
X40734697Y-34699500D01*
X40734690Y-34699500D01*
X40624000Y-34699500D01*
X40556961Y-34679815D01*
X40511206Y-34627011D01*
X40500000Y-34575500D01*
X40500000Y-34520000D01*
X40403441Y-34520000D01*
X40374000Y-34511355D01*
X40344014Y-34504832D01*
X40338998Y-34501077D01*
X40336402Y-34500315D01*
X40315760Y-34483681D01*
X40286319Y-34454240D01*
X40252834Y-34392917D01*
X40250000Y-34366559D01*
X40250000Y-33741210D01*
X40249999Y-33741209D01*
X40750000Y-33741209D01*
X40750000Y-34270000D01*
X41250000Y-34270000D01*
X41250000Y-33741210D01*
X41249999Y-33741209D01*
X41750000Y-33741209D01*
X41750000Y-34270000D01*
X42250000Y-34270000D01*
X42750000Y-34270000D01*
X43304504Y-34270000D01*
X43262031Y-34123804D01*
X43179721Y-33984625D01*
X43179714Y-33984616D01*
X43065383Y-33870285D01*
X43065374Y-33870278D01*
X42926195Y-33787968D01*
X42926190Y-33787966D01*
X42770918Y-33742855D01*
X42770912Y-33742854D01*
X42750000Y-33741209D01*
X42750000Y-34270000D01*
X42250000Y-34270000D01*
X42250000Y-33741210D01*
X42249999Y-33741209D01*
X42229087Y-33742854D01*
X42229081Y-33742855D01*
X42073809Y-33787966D01*
X42073803Y-33787968D01*
X42063118Y-33794288D01*
X41995393Y-33811468D01*
X41936882Y-33794288D01*
X41926196Y-33787968D01*
X41926190Y-33787966D01*
X41770918Y-33742855D01*
X41770912Y-33742854D01*
X41750000Y-33741209D01*
X41249999Y-33741209D01*
X41229087Y-33742854D01*
X41229081Y-33742855D01*
X41073809Y-33787966D01*
X41073803Y-33787968D01*
X41063118Y-33794288D01*
X40995393Y-33811468D01*
X40936882Y-33794288D01*
X40926196Y-33787968D01*
X40926190Y-33787966D01*
X40770918Y-33742855D01*
X40770912Y-33742854D01*
X40750000Y-33741209D01*
X40249999Y-33741209D01*
X40229087Y-33742854D01*
X40229081Y-33742855D01*
X40073809Y-33787966D01*
X40073804Y-33787968D01*
X39934625Y-33870278D01*
X39934616Y-33870285D01*
X39820285Y-33984616D01*
X39820278Y-33984625D01*
X39737968Y-34123803D01*
X39737559Y-34124751D01*
X39737039Y-34125374D01*
X39733997Y-34130520D01*
X39733166Y-34130028D01*
X39692866Y-34178457D01*
X39626233Y-34199475D01*
X39623759Y-34199500D01*
X39621155Y-34199500D01*
X39466510Y-34230261D01*
X39466498Y-34230264D01*
X39320827Y-34290602D01*
X39320814Y-34290609D01*
X39189711Y-34378210D01*
X39189707Y-34378213D01*
X39078213Y-34489707D01*
X39078210Y-34489711D01*
X38990609Y-34620814D01*
X38990602Y-34620827D01*
X38930264Y-34766498D01*
X38930261Y-34766510D01*
X38899500Y-34921153D01*
X38899500Y-34999902D01*
X38879815Y-35066941D01*
X38863181Y-35087583D01*
X38219481Y-35731282D01*
X38219479Y-35731285D01*
X38202493Y-35760706D01*
X38175115Y-35808127D01*
X38147755Y-35855515D01*
X38142387Y-35864814D01*
X38140423Y-35868215D01*
X38099499Y-36020943D01*
X38099499Y-36020945D01*
X38099499Y-36189046D01*
X38099500Y-36189059D01*
X38099500Y-36759777D01*
X38099499Y-36759795D01*
X38099499Y-36925501D01*
X38099498Y-36925501D01*
X38101943Y-36934625D01*
X38140423Y-37078232D01*
X38167786Y-37125626D01*
X38167786Y-37125627D01*
X38219475Y-37215156D01*
X38219481Y-37215164D01*
X38338349Y-37334032D01*
X38338355Y-37334037D01*
X38788528Y-37784210D01*
X38803111Y-37810918D01*
X38819674Y-37836449D01*
X38819694Y-37841287D01*
X38822013Y-37845533D01*
X38819842Y-37875887D01*
X38819972Y-37906318D01*
X38817285Y-37911633D01*
X38817029Y-37915225D01*
X38805447Y-37938485D01*
X38802526Y-37943072D01*
X38798512Y-37948304D01*
X38797238Y-37951377D01*
X38791419Y-37960519D01*
X38772867Y-37976733D01*
X38757375Y-37995895D01*
X38747940Y-38001043D01*
X38748235Y-38001554D01*
X38741198Y-38005616D01*
X38653122Y-38073201D01*
X38653112Y-38073209D01*
X38512547Y-38213774D01*
X38444956Y-38301859D01*
X38440896Y-38308892D01*
X38437964Y-38307199D01*
X38403883Y-38349406D01*
X38394386Y-38354595D01*
X38394682Y-38355108D01*
X38387645Y-38359170D01*
X38299569Y-38426755D01*
X38299559Y-38426763D01*
X38158994Y-38567328D01*
X38091403Y-38655413D01*
X38087343Y-38662446D01*
X38084421Y-38660759D01*
X38050268Y-38703002D01*
X38040833Y-38708150D01*
X38041128Y-38708661D01*
X38034091Y-38712723D01*
X37946015Y-38780308D01*
X37946005Y-38780316D01*
X37805443Y-38920878D01*
X37805434Y-38920888D01*
X37737851Y-39008962D01*
X37737848Y-39008968D01*
X37681123Y-39145917D01*
X37681121Y-39145922D01*
X37664638Y-39271130D01*
X37661773Y-39292893D01*
X37169055Y-39292893D01*
X37157817Y-39262762D01*
X37150000Y-39219432D01*
X37150000Y-39095000D01*
X37078842Y-39095000D01*
X37057617Y-39088767D01*
X37035556Y-39087199D01*
X37016083Y-39076572D01*
X37011803Y-39075315D01*
X37004572Y-39070297D01*
X37004534Y-39070268D01*
X37004531Y-39070267D01*
X37003500Y-39069495D01*
X37003283Y-39069333D01*
X36942331Y-39023704D01*
X36942225Y-39023664D01*
X36935049Y-39018297D01*
X36919160Y-38997090D01*
X36900439Y-38978339D01*
X36898537Y-38969565D01*
X36893155Y-38962381D01*
X36891253Y-38935952D01*
X36885642Y-38910055D01*
X36888786Y-38901645D01*
X36888142Y-38892691D01*
X36900832Y-38869427D01*
X36910112Y-38844610D01*
X36917302Y-38839235D01*
X36921602Y-38831355D01*
X36944851Y-38818647D01*
X36966079Y-38802783D01*
X36977705Y-38800690D01*
X36982911Y-38797845D01*
X36990510Y-38798385D01*
X37009319Y-38795000D01*
X37150000Y-38795000D01*
X37150000Y-38659816D01*
X37149999Y-38659802D01*
X37135199Y-38547395D01*
X37135198Y-38547391D01*
X37077263Y-38407521D01*
X36985094Y-38287405D01*
X36864978Y-38195236D01*
X36762407Y-38152751D01*
X36708003Y-38108911D01*
X36685938Y-38042617D01*
X36703128Y-37975068D01*
X36732030Y-37926197D01*
X36732033Y-37926190D01*
X36777144Y-37770918D01*
X36777145Y-37770912D01*
X36778790Y-37750000D01*
X36124000Y-37750000D01*
X36056961Y-37730315D01*
X36011206Y-37677511D01*
X36000000Y-37626000D01*
X36000000Y-37500000D01*
X35944500Y-37500000D01*
X35877461Y-37480315D01*
X35831706Y-37427511D01*
X35820500Y-37376000D01*
X35820500Y-37265317D01*
X35820499Y-37265302D01*
X35819904Y-37257745D01*
X35817643Y-37229007D01*
X35813621Y-37215164D01*
X35772495Y-37073608D01*
X35772492Y-37073600D01*
X35767266Y-37064763D01*
X35750000Y-37001645D01*
X35750000Y-36695494D01*
X36250000Y-36695494D01*
X36250000Y-37250000D01*
X36778790Y-37250000D01*
X36777145Y-37229089D01*
X36732031Y-37073804D01*
X36649721Y-36934625D01*
X36649714Y-36934616D01*
X36535383Y-36820285D01*
X36535374Y-36820278D01*
X36396193Y-36737967D01*
X36396190Y-36737965D01*
X36250001Y-36695493D01*
X36250000Y-36695494D01*
X35750000Y-36695494D01*
X35750000Y-36634056D01*
X35752741Y-36624032D01*
X35751570Y-36615888D01*
X35754004Y-36608972D01*
X35753803Y-36603582D01*
X35767255Y-36570957D01*
X35767568Y-36570428D01*
X35767571Y-36570425D01*
X35767573Y-36570419D01*
X35804555Y-36507887D01*
X35847765Y-36359156D01*
X35850500Y-36324405D01*
X35850499Y-35975596D01*
X35847765Y-35940844D01*
X35804555Y-35792113D01*
X35796213Y-35778007D01*
X35787467Y-35763218D01*
X35787466Y-35763217D01*
X35764865Y-35725001D01*
X36157358Y-35725001D01*
X36195906Y-35857681D01*
X36195907Y-35857684D01*
X36274682Y-35990885D01*
X36274688Y-35990894D01*
X36384105Y-36100311D01*
X36384114Y-36100317D01*
X36517315Y-36179092D01*
X36517318Y-36179093D01*
X36665915Y-36222265D01*
X36665927Y-36222267D01*
X36700646Y-36224999D01*
X37225000Y-36224999D01*
X37299342Y-36224999D01*
X37299363Y-36224998D01*
X37334078Y-36222266D01*
X37482681Y-36179093D01*
X37482684Y-36179092D01*
X37615885Y-36100317D01*
X37615894Y-36100311D01*
X37725311Y-35990894D01*
X37725317Y-35990885D01*
X37804092Y-35857684D01*
X37804093Y-35857681D01*
X37842641Y-35725001D01*
X37842640Y-35725000D01*
X37225000Y-35725000D01*
X37225000Y-36224999D01*
X36700646Y-36224999D01*
X36774999Y-36224998D01*
X36775000Y-36224998D01*
X36775000Y-35725000D01*
X36157360Y-35725000D01*
X36157358Y-35725001D01*
X35764865Y-35725001D01*
X35725717Y-35658805D01*
X35725710Y-35658796D01*
X35654595Y-35587681D01*
X35621110Y-35526358D01*
X35626094Y-35456666D01*
X35654595Y-35412319D01*
X35725710Y-35341203D01*
X35725715Y-35341198D01*
X35764866Y-35274998D01*
X36157358Y-35274998D01*
X36157360Y-35275000D01*
X36775000Y-35275000D01*
X37225000Y-35275000D01*
X37842640Y-35275000D01*
X37842641Y-35274998D01*
X37804093Y-35142318D01*
X37804092Y-35142315D01*
X37725317Y-35009114D01*
X37725311Y-35009105D01*
X37615894Y-34899688D01*
X37615885Y-34899682D01*
X37482684Y-34820907D01*
X37482681Y-34820906D01*
X37334084Y-34777734D01*
X37334073Y-34777732D01*
X37299359Y-34775000D01*
X37225000Y-34775000D01*
X37225000Y-35275000D01*
X36775000Y-35275000D01*
X36775000Y-34775000D01*
X36774999Y-34774999D01*
X36700659Y-34775000D01*
X36700635Y-34775001D01*
X36665921Y-34777733D01*
X36517318Y-34820906D01*
X36517315Y-34820907D01*
X36384114Y-34899682D01*
X36384105Y-34899688D01*
X36274688Y-35009105D01*
X36274682Y-35009114D01*
X36195907Y-35142315D01*
X36195906Y-35142318D01*
X36157358Y-35274998D01*
X35764866Y-35274998D01*
X35782574Y-35245055D01*
X35787466Y-35236783D01*
X35787467Y-35236781D01*
X35791323Y-35230261D01*
X35804555Y-35207887D01*
X35847765Y-35059156D01*
X35850500Y-35024405D01*
X35850499Y-34675596D01*
X35847765Y-34640844D01*
X35804555Y-34492113D01*
X35737195Y-34378213D01*
X35725717Y-34358805D01*
X35725710Y-34358796D01*
X35616203Y-34249289D01*
X35616194Y-34249282D01*
X35515457Y-34189707D01*
X35482887Y-34170445D01*
X35334156Y-34127235D01*
X35334153Y-34127234D01*
X35334151Y-34127234D01*
X35302594Y-34124751D01*
X35299405Y-34124500D01*
X35299404Y-34124500D01*
X34700606Y-34124500D01*
X34700584Y-34124501D01*
X34665847Y-34127234D01*
X34665844Y-34127235D01*
X34517113Y-34170445D01*
X34517111Y-34170445D01*
X34517111Y-34170446D01*
X34411791Y-34232732D01*
X34348670Y-34250000D01*
X33624000Y-34250000D01*
X33556961Y-34230315D01*
X33511206Y-34177511D01*
X33500000Y-34126000D01*
X33500000Y-33874000D01*
X33519685Y-33806961D01*
X33572489Y-33761206D01*
X33624000Y-33750000D01*
X34449999Y-33750000D01*
X34449999Y-33701692D01*
X34449998Y-33701677D01*
X34439855Y-33602392D01*
X34386547Y-33441518D01*
X34386542Y-33441507D01*
X34297575Y-33297271D01*
X34297572Y-33297267D01*
X34212486Y-33212181D01*
X34179001Y-33150858D01*
X34183985Y-33081166D01*
X34225857Y-33025233D01*
X34291321Y-33000816D01*
X34300167Y-33000500D01*
X53434108Y-33000500D01*
X53494587Y-33000500D01*
X53505394Y-33000972D01*
X53535721Y-33003625D01*
X53662755Y-33014739D01*
X53684035Y-33018491D01*
X53801188Y-33049882D01*
X53831369Y-33057969D01*
X53851681Y-33065362D01*
X53989915Y-33129822D01*
X54008633Y-33140629D01*
X54133582Y-33228119D01*
X54150140Y-33242013D01*
X54257986Y-33349859D01*
X54271880Y-33366417D01*
X54359370Y-33491366D01*
X54370177Y-33510084D01*
X54434637Y-33648318D01*
X54442030Y-33668630D01*
X54481507Y-33815961D01*
X54485260Y-33837246D01*
X54499028Y-33994605D01*
X54499500Y-34005413D01*
X54499500Y-45994586D01*
X54499028Y-46005393D01*
X54499028Y-46005394D01*
X54485260Y-46162753D01*
X54481507Y-46184038D01*
X54442030Y-46331369D01*
X54434637Y-46351681D01*
X54370177Y-46489915D01*
X54359370Y-46508633D01*
X54271880Y-46633582D01*
X54257986Y-46650140D01*
X54150140Y-46757986D01*
X54133582Y-46771880D01*
X54008633Y-46859370D01*
X53989915Y-46870177D01*
X53851681Y-46934637D01*
X53831369Y-46942030D01*
X53684038Y-46981507D01*
X53662753Y-46985260D01*
X53505395Y-46999028D01*
X53494587Y-46999500D01*
X46502190Y-46999500D01*
X46435151Y-46979815D01*
X46389396Y-46927011D01*
X46379452Y-46857853D01*
X46408477Y-46794297D01*
X46454738Y-46760939D01*
X46579172Y-46709397D01*
X46579172Y-46709396D01*
X46579179Y-46709394D01*
X46710289Y-46621789D01*
X46821789Y-46510289D01*
X46909394Y-46379179D01*
X46969737Y-46233497D01*
X47000500Y-46078842D01*
X47000500Y-45921158D01*
X47000500Y-45921155D01*
X47000499Y-45921153D01*
X46992272Y-45879792D01*
X46969737Y-45766503D01*
X46945428Y-45707816D01*
X46909397Y-45620827D01*
X46909390Y-45620814D01*
X46821789Y-45489711D01*
X46821786Y-45489707D01*
X46710292Y-45378213D01*
X46710288Y-45378210D01*
X46625608Y-45321628D01*
X46580803Y-45268015D01*
X46570499Y-45218526D01*
X46570499Y-45050831D01*
X46570498Y-45050806D01*
X46567665Y-45014798D01*
X46567665Y-45014797D01*
X46567665Y-45014796D01*
X46532487Y-44893713D01*
X51149500Y-44893713D01*
X51149500Y-45106286D01*
X51180260Y-45300500D01*
X51182754Y-45316243D01*
X51239117Y-45489711D01*
X51248444Y-45518414D01*
X51344951Y-45707820D01*
X51469890Y-45879786D01*
X51620213Y-46030109D01*
X51792179Y-46155048D01*
X51792181Y-46155049D01*
X51792184Y-46155051D01*
X51981588Y-46251557D01*
X52183757Y-46317246D01*
X52393713Y-46350500D01*
X52393714Y-46350500D01*
X52606286Y-46350500D01*
X52606287Y-46350500D01*
X52816243Y-46317246D01*
X53018412Y-46251557D01*
X53207816Y-46155051D01*
X53255373Y-46120499D01*
X53379786Y-46030109D01*
X53379788Y-46030106D01*
X53379792Y-46030104D01*
X53530104Y-45879792D01*
X53530106Y-45879788D01*
X53530109Y-45879786D01*
X53655048Y-45707820D01*
X53655047Y-45707820D01*
X53655051Y-45707816D01*
X53751557Y-45518412D01*
X53817246Y-45316243D01*
X53850500Y-45106287D01*
X53850500Y-44893713D01*
X53817246Y-44683757D01*
X53751557Y-44481588D01*
X53655051Y-44292184D01*
X53655049Y-44292181D01*
X53655048Y-44292179D01*
X53530109Y-44120213D01*
X53379786Y-43969890D01*
X53207820Y-43844951D01*
X53018414Y-43748444D01*
X53018413Y-43748443D01*
X53018412Y-43748443D01*
X52816243Y-43682754D01*
X52816241Y-43682753D01*
X52816240Y-43682753D01*
X52654957Y-43657208D01*
X52606287Y-43649500D01*
X52393713Y-43649500D01*
X52345042Y-43657208D01*
X52183760Y-43682753D01*
X51981585Y-43748444D01*
X51792179Y-43844951D01*
X51620213Y-43969890D01*
X51469890Y-44120213D01*
X51344951Y-44292179D01*
X51248444Y-44481585D01*
X51248443Y-44481587D01*
X51248443Y-44481588D01*
X51226481Y-44549180D01*
X51182753Y-44683760D01*
X51149500Y-44893713D01*
X46532487Y-44893713D01*
X46522869Y-44860607D01*
X46517464Y-44851468D01*
X46513252Y-44838613D01*
X46512570Y-44816677D01*
X46507172Y-44795409D01*
X46511456Y-44780818D01*
X46511082Y-44768777D01*
X46518743Y-44755999D01*
X46521321Y-44747219D01*
X46519772Y-44746549D01*
X46522864Y-44739400D01*
X46522869Y-44739393D01*
X46567665Y-44585204D01*
X46570500Y-44549181D01*
X46570499Y-44210000D01*
X48095496Y-44210000D01*
X48137968Y-44356195D01*
X48220278Y-44495374D01*
X48220285Y-44495383D01*
X48334616Y-44609714D01*
X48334625Y-44609721D01*
X48473804Y-44692031D01*
X48629089Y-44737145D01*
X48650000Y-44738789D01*
X49150000Y-44738789D01*
X49170910Y-44737145D01*
X49326195Y-44692031D01*
X49465374Y-44609721D01*
X49465383Y-44609714D01*
X49579714Y-44495383D01*
X49579721Y-44495374D01*
X49662031Y-44356195D01*
X49704504Y-44210000D01*
X49150000Y-44210000D01*
X49150000Y-44738789D01*
X48650000Y-44738789D01*
X48650000Y-44210000D01*
X48095496Y-44210000D01*
X46570499Y-44210000D01*
X46570499Y-44050820D01*
X46567665Y-44014796D01*
X46522869Y-43860607D01*
X46522866Y-43860602D01*
X46519772Y-43853451D01*
X46521693Y-43852619D01*
X46507172Y-43795409D01*
X46521321Y-43747219D01*
X46519772Y-43746549D01*
X46522864Y-43739400D01*
X46522869Y-43739393D01*
X46567665Y-43585204D01*
X46570500Y-43549181D01*
X46570499Y-43050820D01*
X46567665Y-43014796D01*
X46522869Y-42860607D01*
X46441135Y-42722402D01*
X46441133Y-42722400D01*
X46441130Y-42722396D01*
X46327603Y-42608869D01*
X46327595Y-42608863D01*
X46189393Y-42527131D01*
X46189388Y-42527129D01*
X46035208Y-42482335D01*
X46035202Y-42482334D01*
X45999181Y-42479500D01*
X45600830Y-42479500D01*
X45600808Y-42479501D01*
X45564794Y-42482335D01*
X45410611Y-42527129D01*
X45410604Y-42527132D01*
X45353119Y-42561128D01*
X45285395Y-42578309D01*
X45226881Y-42561128D01*
X45169395Y-42527132D01*
X45169388Y-42527129D01*
X45015208Y-42482335D01*
X45015202Y-42482334D01*
X44979181Y-42479500D01*
X44580830Y-42479500D01*
X44580808Y-42479501D01*
X44544794Y-42482335D01*
X44390611Y-42527129D01*
X44390606Y-42527131D01*
X44252404Y-42608863D01*
X44252396Y-42608869D01*
X44138869Y-42722396D01*
X44138863Y-42722404D01*
X44057131Y-42860606D01*
X44057129Y-42860611D01*
X44012335Y-43014791D01*
X44012334Y-43014797D01*
X44009500Y-43050811D01*
X44009500Y-43549169D01*
X44009501Y-43549191D01*
X44012335Y-43585205D01*
X44057129Y-43739388D01*
X44060230Y-43746554D01*
X44058313Y-43747383D01*
X44072825Y-43804626D01*
X44058686Y-43852777D01*
X44060230Y-43853446D01*
X44057129Y-43860611D01*
X44012335Y-44014791D01*
X44012334Y-44014797D01*
X44009500Y-44050811D01*
X44009500Y-44549169D01*
X44009501Y-44549191D01*
X44012335Y-44585205D01*
X44057129Y-44739388D01*
X44060230Y-44746554D01*
X44058313Y-44747383D01*
X44072825Y-44804626D01*
X44058686Y-44852777D01*
X44060230Y-44853446D01*
X44057129Y-44860611D01*
X44012335Y-45014791D01*
X44012334Y-45014797D01*
X44009500Y-45050811D01*
X44009500Y-45549169D01*
X44009501Y-45549191D01*
X44012335Y-45585205D01*
X44057129Y-45739388D01*
X44057131Y-45739393D01*
X44138863Y-45877595D01*
X44138869Y-45877603D01*
X44252396Y-45991130D01*
X44252400Y-45991133D01*
X44252402Y-45991135D01*
X44390607Y-46072869D01*
X44411166Y-46078842D01*
X44544791Y-46117664D01*
X44544794Y-46117664D01*
X44544796Y-46117665D01*
X44580819Y-46120500D01*
X44979180Y-46120499D01*
X45015204Y-46117665D01*
X45169393Y-46072869D01*
X45223615Y-46040801D01*
X45291335Y-46023619D01*
X45357598Y-46045778D01*
X45401362Y-46100243D01*
X45408351Y-46123342D01*
X45430261Y-46233491D01*
X45430264Y-46233501D01*
X45490602Y-46379172D01*
X45490609Y-46379185D01*
X45578210Y-46510288D01*
X45578213Y-46510292D01*
X45689707Y-46621786D01*
X45689711Y-46621789D01*
X45820814Y-46709390D01*
X45820827Y-46709397D01*
X45945262Y-46760939D01*
X45999666Y-46804779D01*
X46021731Y-46871074D01*
X46004452Y-46938773D01*
X45953315Y-46986384D01*
X45897810Y-46999500D01*
X26505413Y-46999500D01*
X26494605Y-46999028D01*
X26337246Y-46985260D01*
X26315961Y-46981507D01*
X26168630Y-46942030D01*
X26148318Y-46934637D01*
X26010084Y-46870177D01*
X25991366Y-46859370D01*
X25866417Y-46771880D01*
X25849859Y-46757986D01*
X25742013Y-46650140D01*
X25728119Y-46633582D01*
X25640629Y-46508633D01*
X25629822Y-46489915D01*
X25565362Y-46351681D01*
X25557969Y-46331369D01*
X25533807Y-46241195D01*
X25518491Y-46184035D01*
X25514739Y-46162752D01*
X25514065Y-46155051D01*
X25503372Y-46032825D01*
X25500972Y-46005393D01*
X25500500Y-45994586D01*
X25500500Y-44047844D01*
X25750000Y-44047844D01*
X25756401Y-44107372D01*
X25756403Y-44107379D01*
X25806645Y-44242086D01*
X25806649Y-44242093D01*
X25892809Y-44357187D01*
X25892812Y-44357190D01*
X26007906Y-44443350D01*
X26007913Y-44443354D01*
X26142620Y-44493596D01*
X26142627Y-44493598D01*
X26202155Y-44499999D01*
X26202172Y-44500000D01*
X26250000Y-44500000D01*
X26750000Y-44500000D01*
X26797828Y-44500000D01*
X26797844Y-44499999D01*
X26857372Y-44493598D01*
X26857379Y-44493596D01*
X26992086Y-44443354D01*
X26992093Y-44443350D01*
X27107187Y-44357190D01*
X27107190Y-44357187D01*
X27193350Y-44242093D01*
X27193354Y-44242086D01*
X27243596Y-44107379D01*
X27243598Y-44107372D01*
X27249999Y-44047844D01*
X28750000Y-44047844D01*
X28756401Y-44107372D01*
X28756403Y-44107379D01*
X28806645Y-44242086D01*
X28806649Y-44242093D01*
X28892809Y-44357187D01*
X28892812Y-44357190D01*
X29007906Y-44443350D01*
X29007913Y-44443354D01*
X29142620Y-44493596D01*
X29142627Y-44493598D01*
X29202155Y-44499999D01*
X29202172Y-44500000D01*
X29250000Y-44500000D01*
X29750000Y-44500000D01*
X29797828Y-44500000D01*
X29797844Y-44499999D01*
X29857372Y-44493598D01*
X29857379Y-44493596D01*
X29992086Y-44443354D01*
X29992093Y-44443350D01*
X30107187Y-44357190D01*
X30107190Y-44357187D01*
X30193350Y-44242093D01*
X30193354Y-44242086D01*
X30243596Y-44107379D01*
X30243598Y-44107372D01*
X30249999Y-44047844D01*
X30250000Y-44047827D01*
X30250000Y-43750000D01*
X29750000Y-43750000D01*
X29750000Y-44500000D01*
X29250000Y-44500000D01*
X29250000Y-43750000D01*
X28750000Y-43750000D01*
X28750000Y-44047844D01*
X27249999Y-44047844D01*
X27250000Y-44047827D01*
X27250000Y-43750000D01*
X26750000Y-43750000D01*
X26750000Y-44500000D01*
X26250000Y-44500000D01*
X26250000Y-43750000D01*
X25750000Y-43750000D01*
X25750000Y-44047844D01*
X25500500Y-44047844D01*
X25500500Y-43066898D01*
X25520185Y-42999859D01*
X25572989Y-42954104D01*
X25642147Y-42944160D01*
X25705703Y-42973185D01*
X25723753Y-42992569D01*
X25725253Y-42994572D01*
X25749682Y-43060032D01*
X25750000Y-43068901D01*
X25750000Y-43250000D01*
X27250000Y-43250000D01*
X27250000Y-42952172D01*
X27249999Y-42952171D01*
X27247585Y-42929709D01*
X27254692Y-42873123D01*
X27294092Y-42767488D01*
X27300501Y-42707878D01*
X27300500Y-42392133D01*
X27300500Y-42392132D01*
X27300499Y-42392119D01*
X27297396Y-42363259D01*
X27297396Y-42336752D01*
X27300501Y-42307876D01*
X27300500Y-41992131D01*
X27297395Y-41963250D01*
X27297395Y-41936752D01*
X27300501Y-41907877D01*
X27300500Y-41592132D01*
X27297395Y-41563251D01*
X27297395Y-41536753D01*
X27300501Y-41507878D01*
X27300500Y-41192133D01*
X27297777Y-41166801D01*
X27297144Y-41160910D01*
X27297144Y-41134398D01*
X27300000Y-41107835D01*
X27300001Y-41107821D01*
X27300001Y-40804720D01*
X27296717Y-40792130D01*
X28699499Y-40792130D01*
X28699499Y-40792137D01*
X28699499Y-40792138D01*
X28699499Y-41107871D01*
X28699500Y-41107883D01*
X28702603Y-41136749D01*
X28702603Y-41163252D01*
X28699499Y-41192125D01*
X28699499Y-41507873D01*
X28699500Y-41507883D01*
X28702603Y-41536748D01*
X28702603Y-41563253D01*
X28699499Y-41592126D01*
X28699499Y-41907872D01*
X28699500Y-41907882D01*
X28702603Y-41936747D01*
X28702603Y-41963252D01*
X28699499Y-41992125D01*
X28699499Y-42307870D01*
X28699500Y-42307885D01*
X28702855Y-42339097D01*
X28702855Y-42365597D01*
X28699999Y-42392165D01*
X28699999Y-42707849D01*
X28706400Y-42767377D01*
X28706402Y-42767384D01*
X28745426Y-42872012D01*
X28752534Y-42928598D01*
X28750000Y-42952167D01*
X28750000Y-43250000D01*
X30250000Y-43250000D01*
X30250000Y-43068067D01*
X30269685Y-43001028D01*
X30274734Y-42993755D01*
X30343351Y-42902094D01*
X30343353Y-42902091D01*
X30388866Y-42780064D01*
X30430737Y-42724131D01*
X30476739Y-42703618D01*
X30476622Y-42703231D01*
X30479704Y-42702295D01*
X30480864Y-42701778D01*
X30482452Y-42701463D01*
X30596286Y-42654311D01*
X30698733Y-42585858D01*
X30785858Y-42498733D01*
X30854311Y-42396286D01*
X30901463Y-42282452D01*
X30925500Y-42161606D01*
X30925500Y-42038394D01*
X30901463Y-41917548D01*
X30861797Y-41821786D01*
X30854312Y-41803716D01*
X30854307Y-41803707D01*
X30785858Y-41701267D01*
X30785855Y-41701263D01*
X30698736Y-41614144D01*
X30698732Y-41614141D01*
X30596292Y-41545692D01*
X30596282Y-41545687D01*
X30477045Y-41496297D01*
X30462254Y-41484378D01*
X30444849Y-41476773D01*
X30435612Y-41462908D01*
X30422642Y-41452456D01*
X30416643Y-41434434D01*
X30406112Y-41418625D01*
X30401672Y-41389451D01*
X30400577Y-41386161D01*
X30400515Y-41383777D01*
X30400498Y-41382744D01*
X30400498Y-41192133D01*
X30396792Y-41157665D01*
X30396700Y-41152043D01*
X30397394Y-41149526D01*
X30397394Y-41136749D01*
X30400499Y-41107876D01*
X30400498Y-40792131D01*
X30394090Y-40732520D01*
X30392728Y-40728869D01*
X30343796Y-40597674D01*
X30343795Y-40597673D01*
X30343795Y-40597672D01*
X30274733Y-40505417D01*
X30250316Y-40439953D01*
X30250000Y-40431106D01*
X30250000Y-40250008D01*
X28750000Y-40250008D01*
X28750000Y-40547844D01*
X28752414Y-40570300D01*
X28745306Y-40626883D01*
X28705909Y-40732514D01*
X28705908Y-40732518D01*
X28705908Y-40732520D01*
X28699499Y-40792130D01*
X27296717Y-40792130D01*
X27250768Y-40615954D01*
X27251215Y-40601263D01*
X27247465Y-40571400D01*
X27249999Y-40547833D01*
X27250000Y-40547827D01*
X27250000Y-40250008D01*
X25750000Y-40250008D01*
X25750000Y-40431940D01*
X25743762Y-40453182D01*
X25742184Y-40475267D01*
X25731568Y-40494710D01*
X25730315Y-40498979D01*
X25725271Y-40506245D01*
X25723771Y-40508249D01*
X25667840Y-40550123D01*
X25598149Y-40555112D01*
X25536824Y-40521630D01*
X25503335Y-40460309D01*
X25500500Y-40433944D01*
X25500500Y-39452163D01*
X25750000Y-39452163D01*
X25750000Y-39750008D01*
X26250000Y-39750008D01*
X26750000Y-39750008D01*
X27250000Y-39750008D01*
X27250000Y-39452180D01*
X27249999Y-39452163D01*
X28750000Y-39452163D01*
X28750000Y-39750008D01*
X29250000Y-39750008D01*
X29750000Y-39750008D01*
X30250000Y-39750008D01*
X30250000Y-39452180D01*
X30249999Y-39452163D01*
X30243598Y-39392635D01*
X30243596Y-39392628D01*
X30193354Y-39257921D01*
X30193350Y-39257914D01*
X30107190Y-39142820D01*
X30107187Y-39142817D01*
X29992093Y-39056657D01*
X29992086Y-39056653D01*
X29857379Y-39006411D01*
X29857372Y-39006409D01*
X29797844Y-39000008D01*
X29750000Y-39000008D01*
X29750000Y-39750008D01*
X29250000Y-39750008D01*
X29250000Y-39000008D01*
X29202155Y-39000008D01*
X29142627Y-39006409D01*
X29142620Y-39006411D01*
X29007913Y-39056653D01*
X29007906Y-39056657D01*
X28892812Y-39142817D01*
X28892809Y-39142820D01*
X28806649Y-39257914D01*
X28806645Y-39257921D01*
X28756403Y-39392628D01*
X28756401Y-39392635D01*
X28750000Y-39452163D01*
X27249999Y-39452163D01*
X27243598Y-39392635D01*
X27243596Y-39392628D01*
X27193354Y-39257921D01*
X27193350Y-39257914D01*
X27107190Y-39142820D01*
X27107187Y-39142817D01*
X26992093Y-39056657D01*
X26992086Y-39056653D01*
X26857379Y-39006411D01*
X26857372Y-39006409D01*
X26797844Y-39000008D01*
X26750000Y-39000008D01*
X26750000Y-39750008D01*
X26250000Y-39750008D01*
X26250000Y-39000008D01*
X26202155Y-39000008D01*
X26142627Y-39006409D01*
X26142620Y-39006411D01*
X26007913Y-39056653D01*
X26007906Y-39056657D01*
X25892812Y-39142817D01*
X25892809Y-39142820D01*
X25806649Y-39257914D01*
X25806645Y-39257921D01*
X25756403Y-39392628D01*
X25756401Y-39392635D01*
X25750000Y-39452163D01*
X25500500Y-39452163D01*
X25500500Y-34893713D01*
X26149500Y-34893713D01*
X26149500Y-35106287D01*
X26150292Y-35111286D01*
X26176221Y-35275000D01*
X26182754Y-35316243D01*
X26239117Y-35489711D01*
X26248444Y-35518414D01*
X26344951Y-35707820D01*
X26469890Y-35879786D01*
X26620213Y-36030109D01*
X26792179Y-36155048D01*
X26792181Y-36155049D01*
X26792184Y-36155051D01*
X26981588Y-36251557D01*
X27183757Y-36317246D01*
X27393713Y-36350500D01*
X27393714Y-36350500D01*
X27606286Y-36350500D01*
X27606287Y-36350500D01*
X27816243Y-36317246D01*
X28018412Y-36251557D01*
X28207816Y-36155051D01*
X28253602Y-36121786D01*
X28379786Y-36030109D01*
X28379788Y-36030106D01*
X28379792Y-36030104D01*
X28530104Y-35879792D01*
X28530106Y-35879788D01*
X28530109Y-35879786D01*
X28647507Y-35718200D01*
X28655051Y-35707816D01*
X28751557Y-35518412D01*
X28817246Y-35316243D01*
X28850500Y-35106287D01*
X28850500Y-34893713D01*
X28817246Y-34683757D01*
X28751557Y-34481588D01*
X28655051Y-34292184D01*
X28655049Y-34292181D01*
X28655048Y-34292179D01*
X28530109Y-34120213D01*
X28379786Y-33969890D01*
X28207820Y-33844951D01*
X28018414Y-33748444D01*
X28018413Y-33748443D01*
X28018412Y-33748443D01*
X27816243Y-33682754D01*
X27816241Y-33682753D01*
X27816240Y-33682753D01*
X27654957Y-33657208D01*
X27606287Y-33649500D01*
X27393713Y-33649500D01*
X27345042Y-33657208D01*
X27183760Y-33682753D01*
X27183757Y-33682754D01*
X27015249Y-33737506D01*
X26981585Y-33748444D01*
X26792179Y-33844951D01*
X26620213Y-33969890D01*
X26469890Y-34120213D01*
X26344951Y-34292179D01*
X26248444Y-34481585D01*
X26182753Y-34683760D01*
X26157011Y-34846291D01*
X26149500Y-34893713D01*
X25500500Y-34893713D01*
X25500500Y-34005413D01*
X25500972Y-33994606D01*
X25506247Y-33934313D01*
X25514739Y-33837240D01*
X25518490Y-33815966D01*
X25557969Y-33668627D01*
X25565362Y-33648318D01*
X25629823Y-33510081D01*
X25640629Y-33491366D01*
X25728119Y-33366417D01*
X25742007Y-33349865D01*
X25849865Y-33242007D01*
X25866417Y-33228119D01*
X25991366Y-33140629D01*
X26010081Y-33129823D01*
X26148320Y-33065361D01*
X26168627Y-33057969D01*
X26315966Y-33018490D01*
X26337242Y-33014739D01*
X26469885Y-33003134D01*
X26494606Y-33000972D01*
X26505413Y-33000500D01*
X26565892Y-33000500D01*
X31149126Y-33000500D01*
X31216165Y-33020185D01*
G37*
%TD.AperFunction*%
%TA.AperFunction,Conductor*%
G36*
X33985771Y-35985118D02*
G01*
X33988960Y-35988195D01*
X34113181Y-36112416D01*
X34146666Y-36173739D01*
X34149500Y-36200096D01*
X34149500Y-36324392D01*
X34149501Y-36324416D01*
X34152234Y-36359153D01*
X34172798Y-36429934D01*
X34172598Y-36499803D01*
X34134655Y-36558473D01*
X34071017Y-36587316D01*
X34014718Y-36582234D01*
X33872608Y-36535144D01*
X33773322Y-36525000D01*
X33750000Y-36525000D01*
X33750000Y-37992500D01*
X33763681Y-38006181D01*
X33778384Y-38033108D01*
X33794977Y-38058927D01*
X33795868Y-38065127D01*
X33797166Y-38067504D01*
X33800000Y-38093862D01*
X33800000Y-38331684D01*
X33780315Y-38398723D01*
X33727511Y-38444478D01*
X33658353Y-38454422D01*
X33594797Y-38425397D01*
X33577625Y-38407171D01*
X33502215Y-38308896D01*
X33485451Y-38287049D01*
X33365233Y-38194802D01*
X33345152Y-38186484D01*
X33326546Y-38178777D01*
X33272143Y-38134935D01*
X33250079Y-38068641D01*
X33250000Y-38064216D01*
X33250000Y-36511373D01*
X33269685Y-36444334D01*
X33292797Y-36417660D01*
X33318947Y-36395000D01*
X33324626Y-36355501D01*
X33324627Y-36355500D01*
X33324627Y-36112502D01*
X33344312Y-36045463D01*
X33397116Y-35999708D01*
X33466274Y-35989764D01*
X33472819Y-35990885D01*
X33521155Y-36000500D01*
X33521158Y-36000500D01*
X33678844Y-36000500D01*
X33678845Y-36000499D01*
X33833497Y-35969737D01*
X33853825Y-35961316D01*
X33923291Y-35953845D01*
X33985771Y-35985118D01*
G37*
%TD.AperFunction*%
%TD*%
M02*
