%TF.GenerationSoftware,KiCad,Pcbnew,9.0.2*%
%TF.CreationDate,2025-06-09T11:48:46-05:00*%
%TF.ProjectId,ICEBATS384,49434542-4154-4533-9338-342e6b696361,rev?*%
%TF.SameCoordinates,Original*%
%TF.FileFunction,Legend,Top*%
%TF.FilePolarity,Positive*%
%FSLAX46Y46*%
G04 Gerber Fmt 4.6, Leading zero omitted, Abs format (unit mm)*
G04 Created by KiCad (PCBNEW 9.0.2) date 2025-06-09 11:48:46*
%MOMM*%
%LPD*%
G01*
G04 APERTURE LIST*
G04 Aperture macros list*
%AMRoundRect*
0 Rectangle with rounded corners*
0 $1 Rounding radius*
0 $2 $3 $4 $5 $6 $7 $8 $9 X,Y pos of 4 corners*
0 Add a 4 corners polygon primitive as box body*
4,1,4,$2,$3,$4,$5,$6,$7,$8,$9,$2,$3,0*
0 Add four circle primitives for the rounded corners*
1,1,$1+$1,$2,$3*
1,1,$1+$1,$4,$5*
1,1,$1+$1,$6,$7*
1,1,$1+$1,$8,$9*
0 Add four rect primitives between the rounded corners*
20,1,$1+$1,$2,$3,$4,$5,0*
20,1,$1+$1,$4,$5,$6,$7,0*
20,1,$1+$1,$6,$7,$8,$9,0*
20,1,$1+$1,$8,$9,$2,$3,0*%
%AMRotRect*
0 Rectangle, with rotation*
0 The origin of the aperture is its center*
0 $1 length*
0 $2 width*
0 $3 Rotation angle, in degrees counterclockwise*
0 Add horizontal line*
21,1,$1,$2,0,0,$3*%
%AMFreePoly0*
4,1,6,0.130000,0.115000,0.130000,-0.115000,-0.130000,-0.115000,-0.130000,0.275000,-0.020000,0.275000,0.130000,0.115000,0.130000,0.115000,$1*%
%AMFreePoly1*
4,1,6,0.130000,-0.115000,-0.130000,-0.115000,-0.130000,0.115000,0.020000,0.275000,0.130000,0.275000,0.130000,-0.115000,0.130000,-0.115000,$1*%
G04 Aperture macros list end*
%ADD10C,0.150000*%
%ADD11C,0.120000*%
%ADD12C,0.100000*%
%ADD13C,0.152400*%
%ADD14RoundRect,0.140000X0.170000X-0.140000X0.170000X0.140000X-0.170000X0.140000X-0.170000X-0.140000X0*%
%ADD15RoundRect,0.147500X-0.172500X0.147500X-0.172500X-0.147500X0.172500X-0.147500X0.172500X0.147500X0*%
%ADD16RoundRect,0.075000X0.075000X-0.247500X0.075000X0.247500X-0.075000X0.247500X-0.075000X-0.247500X0*%
%ADD17R,1.700000X1.010000*%
%ADD18RoundRect,0.225000X-0.225000X-0.250000X0.225000X-0.250000X0.225000X0.250000X-0.225000X0.250000X0*%
%ADD19C,2.200000*%
%ADD20RoundRect,0.140000X-0.140000X-0.170000X0.140000X-0.170000X0.140000X0.170000X-0.140000X0.170000X0*%
%ADD21RoundRect,0.062500X-0.387500X-0.062500X0.387500X-0.062500X0.387500X0.062500X-0.387500X0.062500X0*%
%ADD22R,0.200000X1.600000*%
%ADD23RoundRect,0.062500X-0.220971X-0.309359X0.309359X0.220971X0.220971X0.309359X-0.309359X-0.220971X0*%
%ADD24RoundRect,0.062500X0.220971X-0.309359X0.309359X-0.220971X-0.220971X0.309359X-0.309359X0.220971X0*%
%ADD25RotRect,3.100000X3.100000X45.000000*%
%ADD26RoundRect,0.135000X0.135000X0.185000X-0.135000X0.185000X-0.135000X-0.185000X0.135000X-0.185000X0*%
%ADD27RoundRect,0.140000X0.140000X0.170000X-0.140000X0.170000X-0.140000X-0.170000X0.140000X-0.170000X0*%
%ADD28RoundRect,0.140000X-0.170000X0.140000X-0.170000X-0.140000X0.170000X-0.140000X0.170000X0.140000X0*%
%ADD29RoundRect,0.135000X0.185000X-0.135000X0.185000X0.135000X-0.185000X0.135000X-0.185000X-0.135000X0*%
%ADD30RoundRect,0.112500X-0.237500X0.112500X-0.237500X-0.112500X0.237500X-0.112500X0.237500X0.112500X0*%
%ADD31FreePoly0,0.000000*%
%ADD32FreePoly1,0.000000*%
%ADD33FreePoly0,180.000000*%
%ADD34FreePoly1,180.000000*%
%ADD35RotRect,0.520000X0.520000X225.000000*%
%ADD36R,0.700000X0.220000*%
%ADD37R,0.500000X1.000000*%
%ADD38RoundRect,0.250000X0.300000X-0.400000X0.300000X0.400000X-0.300000X0.400000X-0.300000X-0.400000X0*%
G04 APERTURE END LIST*
D10*
X32789778Y-47004756D02*
X32789778Y-46004756D01*
X32789778Y-46004756D02*
X33170730Y-46004756D01*
X33170730Y-46004756D02*
X33265968Y-46052375D01*
X33265968Y-46052375D02*
X33313587Y-46099994D01*
X33313587Y-46099994D02*
X33361206Y-46195232D01*
X33361206Y-46195232D02*
X33361206Y-46338089D01*
X33361206Y-46338089D02*
X33313587Y-46433327D01*
X33313587Y-46433327D02*
X33265968Y-46480946D01*
X33265968Y-46480946D02*
X33170730Y-46528565D01*
X33170730Y-46528565D02*
X32789778Y-46528565D01*
X36623111Y-46480946D02*
X36765968Y-46528565D01*
X36765968Y-46528565D02*
X36813587Y-46576184D01*
X36813587Y-46576184D02*
X36861206Y-46671422D01*
X36861206Y-46671422D02*
X36861206Y-46814279D01*
X36861206Y-46814279D02*
X36813587Y-46909517D01*
X36813587Y-46909517D02*
X36765968Y-46957137D01*
X36765968Y-46957137D02*
X36670730Y-47004756D01*
X36670730Y-47004756D02*
X36289778Y-47004756D01*
X36289778Y-47004756D02*
X36289778Y-46004756D01*
X36289778Y-46004756D02*
X36623111Y-46004756D01*
X36623111Y-46004756D02*
X36718349Y-46052375D01*
X36718349Y-46052375D02*
X36765968Y-46099994D01*
X36765968Y-46099994D02*
X36813587Y-46195232D01*
X36813587Y-46195232D02*
X36813587Y-46290470D01*
X36813587Y-46290470D02*
X36765968Y-46385708D01*
X36765968Y-46385708D02*
X36718349Y-46433327D01*
X36718349Y-46433327D02*
X36623111Y-46480946D01*
X36623111Y-46480946D02*
X36289778Y-46480946D01*
X34361206Y-46909517D02*
X34313587Y-46957137D01*
X34313587Y-46957137D02*
X34170730Y-47004756D01*
X34170730Y-47004756D02*
X34075492Y-47004756D01*
X34075492Y-47004756D02*
X33932635Y-46957137D01*
X33932635Y-46957137D02*
X33837397Y-46861898D01*
X33837397Y-46861898D02*
X33789778Y-46766660D01*
X33789778Y-46766660D02*
X33742159Y-46576184D01*
X33742159Y-46576184D02*
X33742159Y-46433327D01*
X33742159Y-46433327D02*
X33789778Y-46242851D01*
X33789778Y-46242851D02*
X33837397Y-46147613D01*
X33837397Y-46147613D02*
X33932635Y-46052375D01*
X33932635Y-46052375D02*
X34075492Y-46004756D01*
X34075492Y-46004756D02*
X34170730Y-46004756D01*
X34170730Y-46004756D02*
X34313587Y-46052375D01*
X34313587Y-46052375D02*
X34361206Y-46099994D01*
X35242159Y-46719041D02*
X35718349Y-46719041D01*
X35146921Y-47004756D02*
X35480254Y-46004756D01*
X35480254Y-46004756D02*
X35813587Y-47004756D01*
X41333333Y-33879580D02*
X41285714Y-33927200D01*
X41285714Y-33927200D02*
X41142857Y-33974819D01*
X41142857Y-33974819D02*
X41047619Y-33974819D01*
X41047619Y-33974819D02*
X40904762Y-33927200D01*
X40904762Y-33927200D02*
X40809524Y-33831961D01*
X40809524Y-33831961D02*
X40761905Y-33736723D01*
X40761905Y-33736723D02*
X40714286Y-33546247D01*
X40714286Y-33546247D02*
X40714286Y-33403390D01*
X40714286Y-33403390D02*
X40761905Y-33212914D01*
X40761905Y-33212914D02*
X40809524Y-33117676D01*
X40809524Y-33117676D02*
X40904762Y-33022438D01*
X40904762Y-33022438D02*
X41047619Y-32974819D01*
X41047619Y-32974819D02*
X41142857Y-32974819D01*
X41142857Y-32974819D02*
X41285714Y-33022438D01*
X41285714Y-33022438D02*
X41333333Y-33070057D01*
X41666667Y-32974819D02*
X42333333Y-32974819D01*
X42333333Y-32974819D02*
X41904762Y-33974819D01*
X45238095Y-33754819D02*
X45238095Y-34564342D01*
X45238095Y-34564342D02*
X45285714Y-34659580D01*
X45285714Y-34659580D02*
X45333333Y-34707200D01*
X45333333Y-34707200D02*
X45428571Y-34754819D01*
X45428571Y-34754819D02*
X45619047Y-34754819D01*
X45619047Y-34754819D02*
X45714285Y-34707200D01*
X45714285Y-34707200D02*
X45761904Y-34659580D01*
X45761904Y-34659580D02*
X45809523Y-34564342D01*
X45809523Y-34564342D02*
X45809523Y-33754819D01*
X46238095Y-33850057D02*
X46285714Y-33802438D01*
X46285714Y-33802438D02*
X46380952Y-33754819D01*
X46380952Y-33754819D02*
X46619047Y-33754819D01*
X46619047Y-33754819D02*
X46714285Y-33802438D01*
X46714285Y-33802438D02*
X46761904Y-33850057D01*
X46761904Y-33850057D02*
X46809523Y-33945295D01*
X46809523Y-33945295D02*
X46809523Y-34040533D01*
X46809523Y-34040533D02*
X46761904Y-34183390D01*
X46761904Y-34183390D02*
X46190476Y-34754819D01*
X46190476Y-34754819D02*
X46809523Y-34754819D01*
X37867531Y-37445027D02*
X38439951Y-38017447D01*
X38439951Y-38017447D02*
X38540966Y-38051119D01*
X38540966Y-38051119D02*
X38608310Y-38051119D01*
X38608310Y-38051119D02*
X38709325Y-38017447D01*
X38709325Y-38017447D02*
X38844012Y-37882760D01*
X38844012Y-37882760D02*
X38877684Y-37781745D01*
X38877684Y-37781745D02*
X38877684Y-37714401D01*
X38877684Y-37714401D02*
X38844012Y-37613386D01*
X38844012Y-37613386D02*
X38271592Y-37040966D01*
X39685806Y-37040966D02*
X39281745Y-37445027D01*
X39483775Y-37242997D02*
X38776669Y-36535890D01*
X38776669Y-36535890D02*
X38810340Y-36704249D01*
X38810340Y-36704249D02*
X38810340Y-36838936D01*
X38810340Y-36838936D02*
X38776669Y-36939951D01*
X47133333Y-44754819D02*
X46800000Y-44278628D01*
X46561905Y-44754819D02*
X46561905Y-43754819D01*
X46561905Y-43754819D02*
X46942857Y-43754819D01*
X46942857Y-43754819D02*
X47038095Y-43802438D01*
X47038095Y-43802438D02*
X47085714Y-43850057D01*
X47085714Y-43850057D02*
X47133333Y-43945295D01*
X47133333Y-43945295D02*
X47133333Y-44088152D01*
X47133333Y-44088152D02*
X47085714Y-44183390D01*
X47085714Y-44183390D02*
X47038095Y-44231009D01*
X47038095Y-44231009D02*
X46942857Y-44278628D01*
X46942857Y-44278628D02*
X46561905Y-44278628D01*
X47466667Y-43754819D02*
X48085714Y-43754819D01*
X48085714Y-43754819D02*
X47752381Y-44135771D01*
X47752381Y-44135771D02*
X47895238Y-44135771D01*
X47895238Y-44135771D02*
X47990476Y-44183390D01*
X47990476Y-44183390D02*
X48038095Y-44231009D01*
X48038095Y-44231009D02*
X48085714Y-44326247D01*
X48085714Y-44326247D02*
X48085714Y-44564342D01*
X48085714Y-44564342D02*
X48038095Y-44659580D01*
X48038095Y-44659580D02*
X47990476Y-44707200D01*
X47990476Y-44707200D02*
X47895238Y-44754819D01*
X47895238Y-44754819D02*
X47609524Y-44754819D01*
X47609524Y-44754819D02*
X47514286Y-44707200D01*
X47514286Y-44707200D02*
X47466667Y-44659580D01*
X47133333Y-43754819D02*
X46800000Y-43278628D01*
X46561905Y-43754819D02*
X46561905Y-42754819D01*
X46561905Y-42754819D02*
X46942857Y-42754819D01*
X46942857Y-42754819D02*
X47038095Y-42802438D01*
X47038095Y-42802438D02*
X47085714Y-42850057D01*
X47085714Y-42850057D02*
X47133333Y-42945295D01*
X47133333Y-42945295D02*
X47133333Y-43088152D01*
X47133333Y-43088152D02*
X47085714Y-43183390D01*
X47085714Y-43183390D02*
X47038095Y-43231009D01*
X47038095Y-43231009D02*
X46942857Y-43278628D01*
X46942857Y-43278628D02*
X46561905Y-43278628D01*
X48085714Y-43754819D02*
X47514286Y-43754819D01*
X47800000Y-43754819D02*
X47800000Y-42754819D01*
X47800000Y-42754819D02*
X47704762Y-42897676D01*
X47704762Y-42897676D02*
X47609524Y-42992914D01*
X47609524Y-42992914D02*
X47514286Y-43040533D01*
X38333333Y-44359580D02*
X38285714Y-44407200D01*
X38285714Y-44407200D02*
X38142857Y-44454819D01*
X38142857Y-44454819D02*
X38047619Y-44454819D01*
X38047619Y-44454819D02*
X37904762Y-44407200D01*
X37904762Y-44407200D02*
X37809524Y-44311961D01*
X37809524Y-44311961D02*
X37761905Y-44216723D01*
X37761905Y-44216723D02*
X37714286Y-44026247D01*
X37714286Y-44026247D02*
X37714286Y-43883390D01*
X37714286Y-43883390D02*
X37761905Y-43692914D01*
X37761905Y-43692914D02*
X37809524Y-43597676D01*
X37809524Y-43597676D02*
X37904762Y-43502438D01*
X37904762Y-43502438D02*
X38047619Y-43454819D01*
X38047619Y-43454819D02*
X38142857Y-43454819D01*
X38142857Y-43454819D02*
X38285714Y-43502438D01*
X38285714Y-43502438D02*
X38333333Y-43550057D01*
X39238095Y-43454819D02*
X38761905Y-43454819D01*
X38761905Y-43454819D02*
X38714286Y-43931009D01*
X38714286Y-43931009D02*
X38761905Y-43883390D01*
X38761905Y-43883390D02*
X38857143Y-43835771D01*
X38857143Y-43835771D02*
X39095238Y-43835771D01*
X39095238Y-43835771D02*
X39190476Y-43883390D01*
X39190476Y-43883390D02*
X39238095Y-43931009D01*
X39238095Y-43931009D02*
X39285714Y-44026247D01*
X39285714Y-44026247D02*
X39285714Y-44264342D01*
X39285714Y-44264342D02*
X39238095Y-44359580D01*
X39238095Y-44359580D02*
X39190476Y-44407200D01*
X39190476Y-44407200D02*
X39095238Y-44454819D01*
X39095238Y-44454819D02*
X38857143Y-44454819D01*
X38857143Y-44454819D02*
X38761905Y-44407200D01*
X38761905Y-44407200D02*
X38714286Y-44359580D01*
X50333333Y-37624819D02*
X50000000Y-37148628D01*
X49761905Y-37624819D02*
X49761905Y-36624819D01*
X49761905Y-36624819D02*
X50142857Y-36624819D01*
X50142857Y-36624819D02*
X50238095Y-36672438D01*
X50238095Y-36672438D02*
X50285714Y-36720057D01*
X50285714Y-36720057D02*
X50333333Y-36815295D01*
X50333333Y-36815295D02*
X50333333Y-36958152D01*
X50333333Y-36958152D02*
X50285714Y-37053390D01*
X50285714Y-37053390D02*
X50238095Y-37101009D01*
X50238095Y-37101009D02*
X50142857Y-37148628D01*
X50142857Y-37148628D02*
X49761905Y-37148628D01*
X51190476Y-36958152D02*
X51190476Y-37624819D01*
X50952381Y-36577200D02*
X50714286Y-37291485D01*
X50714286Y-37291485D02*
X51333333Y-37291485D01*
X26166666Y-32304819D02*
X25833333Y-31828628D01*
X25595238Y-32304819D02*
X25595238Y-31304819D01*
X25595238Y-31304819D02*
X25976190Y-31304819D01*
X25976190Y-31304819D02*
X26071428Y-31352438D01*
X26071428Y-31352438D02*
X26119047Y-31400057D01*
X26119047Y-31400057D02*
X26166666Y-31495295D01*
X26166666Y-31495295D02*
X26166666Y-31638152D01*
X26166666Y-31638152D02*
X26119047Y-31733390D01*
X26119047Y-31733390D02*
X26071428Y-31781009D01*
X26071428Y-31781009D02*
X25976190Y-31828628D01*
X25976190Y-31828628D02*
X25595238Y-31828628D01*
X26595238Y-31781009D02*
X26928571Y-31781009D01*
X27071428Y-32304819D02*
X26595238Y-32304819D01*
X26595238Y-32304819D02*
X26595238Y-31304819D01*
X26595238Y-31304819D02*
X27071428Y-31304819D01*
X27833333Y-31781009D02*
X27500000Y-31781009D01*
X27500000Y-32304819D02*
X27500000Y-31304819D01*
X27500000Y-31304819D02*
X27976190Y-31304819D01*
X28500000Y-31304819D02*
X28500000Y-31542914D01*
X28261905Y-31447676D02*
X28500000Y-31542914D01*
X28500000Y-31542914D02*
X28738095Y-31447676D01*
X28357143Y-31733390D02*
X28500000Y-31542914D01*
X28500000Y-31542914D02*
X28642857Y-31733390D01*
X29261905Y-31304819D02*
X29261905Y-31542914D01*
X29023810Y-31447676D02*
X29261905Y-31542914D01*
X29261905Y-31542914D02*
X29500000Y-31447676D01*
X29119048Y-31733390D02*
X29261905Y-31542914D01*
X29261905Y-31542914D02*
X29404762Y-31733390D01*
X43626084Y-45103905D02*
X43673704Y-45151524D01*
X43673704Y-45151524D02*
X43721323Y-45294381D01*
X43721323Y-45294381D02*
X43721323Y-45389619D01*
X43721323Y-45389619D02*
X43673704Y-45532476D01*
X43673704Y-45532476D02*
X43578465Y-45627714D01*
X43578465Y-45627714D02*
X43483227Y-45675333D01*
X43483227Y-45675333D02*
X43292751Y-45722952D01*
X43292751Y-45722952D02*
X43149894Y-45722952D01*
X43149894Y-45722952D02*
X42959418Y-45675333D01*
X42959418Y-45675333D02*
X42864180Y-45627714D01*
X42864180Y-45627714D02*
X42768942Y-45532476D01*
X42768942Y-45532476D02*
X42721323Y-45389619D01*
X42721323Y-45389619D02*
X42721323Y-45294381D01*
X42721323Y-45294381D02*
X42768942Y-45151524D01*
X42768942Y-45151524D02*
X42816561Y-45103905D01*
X43054656Y-44246762D02*
X43721323Y-44246762D01*
X42673704Y-44484857D02*
X43387989Y-44722952D01*
X43387989Y-44722952D02*
X43387989Y-44103905D01*
X49833333Y-34859580D02*
X49785714Y-34907200D01*
X49785714Y-34907200D02*
X49642857Y-34954819D01*
X49642857Y-34954819D02*
X49547619Y-34954819D01*
X49547619Y-34954819D02*
X49404762Y-34907200D01*
X49404762Y-34907200D02*
X49309524Y-34811961D01*
X49309524Y-34811961D02*
X49261905Y-34716723D01*
X49261905Y-34716723D02*
X49214286Y-34526247D01*
X49214286Y-34526247D02*
X49214286Y-34383390D01*
X49214286Y-34383390D02*
X49261905Y-34192914D01*
X49261905Y-34192914D02*
X49309524Y-34097676D01*
X49309524Y-34097676D02*
X49404762Y-34002438D01*
X49404762Y-34002438D02*
X49547619Y-33954819D01*
X49547619Y-33954819D02*
X49642857Y-33954819D01*
X49642857Y-33954819D02*
X49785714Y-34002438D01*
X49785714Y-34002438D02*
X49833333Y-34050057D01*
X50404762Y-34383390D02*
X50309524Y-34335771D01*
X50309524Y-34335771D02*
X50261905Y-34288152D01*
X50261905Y-34288152D02*
X50214286Y-34192914D01*
X50214286Y-34192914D02*
X50214286Y-34145295D01*
X50214286Y-34145295D02*
X50261905Y-34050057D01*
X50261905Y-34050057D02*
X50309524Y-34002438D01*
X50309524Y-34002438D02*
X50404762Y-33954819D01*
X50404762Y-33954819D02*
X50595238Y-33954819D01*
X50595238Y-33954819D02*
X50690476Y-34002438D01*
X50690476Y-34002438D02*
X50738095Y-34050057D01*
X50738095Y-34050057D02*
X50785714Y-34145295D01*
X50785714Y-34145295D02*
X50785714Y-34192914D01*
X50785714Y-34192914D02*
X50738095Y-34288152D01*
X50738095Y-34288152D02*
X50690476Y-34335771D01*
X50690476Y-34335771D02*
X50595238Y-34383390D01*
X50595238Y-34383390D02*
X50404762Y-34383390D01*
X50404762Y-34383390D02*
X50309524Y-34431009D01*
X50309524Y-34431009D02*
X50261905Y-34478628D01*
X50261905Y-34478628D02*
X50214286Y-34573866D01*
X50214286Y-34573866D02*
X50214286Y-34764342D01*
X50214286Y-34764342D02*
X50261905Y-34859580D01*
X50261905Y-34859580D02*
X50309524Y-34907200D01*
X50309524Y-34907200D02*
X50404762Y-34954819D01*
X50404762Y-34954819D02*
X50595238Y-34954819D01*
X50595238Y-34954819D02*
X50690476Y-34907200D01*
X50690476Y-34907200D02*
X50738095Y-34859580D01*
X50738095Y-34859580D02*
X50785714Y-34764342D01*
X50785714Y-34764342D02*
X50785714Y-34573866D01*
X50785714Y-34573866D02*
X50738095Y-34478628D01*
X50738095Y-34478628D02*
X50690476Y-34431009D01*
X50690476Y-34431009D02*
X50595238Y-34383390D01*
X46353333Y-38859580D02*
X46305714Y-38907200D01*
X46305714Y-38907200D02*
X46162857Y-38954819D01*
X46162857Y-38954819D02*
X46067619Y-38954819D01*
X46067619Y-38954819D02*
X45924762Y-38907200D01*
X45924762Y-38907200D02*
X45829524Y-38811961D01*
X45829524Y-38811961D02*
X45781905Y-38716723D01*
X45781905Y-38716723D02*
X45734286Y-38526247D01*
X45734286Y-38526247D02*
X45734286Y-38383390D01*
X45734286Y-38383390D02*
X45781905Y-38192914D01*
X45781905Y-38192914D02*
X45829524Y-38097676D01*
X45829524Y-38097676D02*
X45924762Y-38002438D01*
X45924762Y-38002438D02*
X46067619Y-37954819D01*
X46067619Y-37954819D02*
X46162857Y-37954819D01*
X46162857Y-37954819D02*
X46305714Y-38002438D01*
X46305714Y-38002438D02*
X46353333Y-38050057D01*
X46686667Y-37954819D02*
X47305714Y-37954819D01*
X47305714Y-37954819D02*
X46972381Y-38335771D01*
X46972381Y-38335771D02*
X47115238Y-38335771D01*
X47115238Y-38335771D02*
X47210476Y-38383390D01*
X47210476Y-38383390D02*
X47258095Y-38431009D01*
X47258095Y-38431009D02*
X47305714Y-38526247D01*
X47305714Y-38526247D02*
X47305714Y-38764342D01*
X47305714Y-38764342D02*
X47258095Y-38859580D01*
X47258095Y-38859580D02*
X47210476Y-38907200D01*
X47210476Y-38907200D02*
X47115238Y-38954819D01*
X47115238Y-38954819D02*
X46829524Y-38954819D01*
X46829524Y-38954819D02*
X46734286Y-38907200D01*
X46734286Y-38907200D02*
X46686667Y-38859580D01*
X49359580Y-46442857D02*
X49407200Y-46490476D01*
X49407200Y-46490476D02*
X49454819Y-46633333D01*
X49454819Y-46633333D02*
X49454819Y-46728571D01*
X49454819Y-46728571D02*
X49407200Y-46871428D01*
X49407200Y-46871428D02*
X49311961Y-46966666D01*
X49311961Y-46966666D02*
X49216723Y-47014285D01*
X49216723Y-47014285D02*
X49026247Y-47061904D01*
X49026247Y-47061904D02*
X48883390Y-47061904D01*
X48883390Y-47061904D02*
X48692914Y-47014285D01*
X48692914Y-47014285D02*
X48597676Y-46966666D01*
X48597676Y-46966666D02*
X48502438Y-46871428D01*
X48502438Y-46871428D02*
X48454819Y-46728571D01*
X48454819Y-46728571D02*
X48454819Y-46633333D01*
X48454819Y-46633333D02*
X48502438Y-46490476D01*
X48502438Y-46490476D02*
X48550057Y-46442857D01*
X49454819Y-45490476D02*
X49454819Y-46061904D01*
X49454819Y-45776190D02*
X48454819Y-45776190D01*
X48454819Y-45776190D02*
X48597676Y-45871428D01*
X48597676Y-45871428D02*
X48692914Y-45966666D01*
X48692914Y-45966666D02*
X48740533Y-46061904D01*
X48550057Y-45109523D02*
X48502438Y-45061904D01*
X48502438Y-45061904D02*
X48454819Y-44966666D01*
X48454819Y-44966666D02*
X48454819Y-44728571D01*
X48454819Y-44728571D02*
X48502438Y-44633333D01*
X48502438Y-44633333D02*
X48550057Y-44585714D01*
X48550057Y-44585714D02*
X48645295Y-44538095D01*
X48645295Y-44538095D02*
X48740533Y-44538095D01*
X48740533Y-44538095D02*
X48883390Y-44585714D01*
X48883390Y-44585714D02*
X49454819Y-45157142D01*
X49454819Y-45157142D02*
X49454819Y-44538095D01*
X35738095Y-32954819D02*
X35738095Y-33764342D01*
X35738095Y-33764342D02*
X35785714Y-33859580D01*
X35785714Y-33859580D02*
X35833333Y-33907200D01*
X35833333Y-33907200D02*
X35928571Y-33954819D01*
X35928571Y-33954819D02*
X36119047Y-33954819D01*
X36119047Y-33954819D02*
X36214285Y-33907200D01*
X36214285Y-33907200D02*
X36261904Y-33859580D01*
X36261904Y-33859580D02*
X36309523Y-33764342D01*
X36309523Y-33764342D02*
X36309523Y-32954819D01*
X36690476Y-32954819D02*
X37309523Y-32954819D01*
X37309523Y-32954819D02*
X36976190Y-33335771D01*
X36976190Y-33335771D02*
X37119047Y-33335771D01*
X37119047Y-33335771D02*
X37214285Y-33383390D01*
X37214285Y-33383390D02*
X37261904Y-33431009D01*
X37261904Y-33431009D02*
X37309523Y-33526247D01*
X37309523Y-33526247D02*
X37309523Y-33764342D01*
X37309523Y-33764342D02*
X37261904Y-33859580D01*
X37261904Y-33859580D02*
X37214285Y-33907200D01*
X37214285Y-33907200D02*
X37119047Y-33954819D01*
X37119047Y-33954819D02*
X36833333Y-33954819D01*
X36833333Y-33954819D02*
X36738095Y-33907200D01*
X36738095Y-33907200D02*
X36690476Y-33859580D01*
X30254819Y-36561904D02*
X31064342Y-36561904D01*
X31064342Y-36561904D02*
X31159580Y-36514285D01*
X31159580Y-36514285D02*
X31207200Y-36466666D01*
X31207200Y-36466666D02*
X31254819Y-36371428D01*
X31254819Y-36371428D02*
X31254819Y-36180952D01*
X31254819Y-36180952D02*
X31207200Y-36085714D01*
X31207200Y-36085714D02*
X31159580Y-36038095D01*
X31159580Y-36038095D02*
X31064342Y-35990476D01*
X31064342Y-35990476D02*
X30254819Y-35990476D01*
X30588152Y-35085714D02*
X31254819Y-35085714D01*
X30207200Y-35323809D02*
X30921485Y-35561904D01*
X30921485Y-35561904D02*
X30921485Y-34942857D01*
X27454819Y-42083337D02*
X28169104Y-42083337D01*
X28169104Y-42083337D02*
X28311961Y-42130956D01*
X28311961Y-42130956D02*
X28407200Y-42226194D01*
X28407200Y-42226194D02*
X28454819Y-42369051D01*
X28454819Y-42369051D02*
X28454819Y-42464289D01*
X28454819Y-41083337D02*
X28454819Y-41654765D01*
X28454819Y-41369051D02*
X27454819Y-41369051D01*
X27454819Y-41369051D02*
X27597676Y-41464289D01*
X27597676Y-41464289D02*
X27692914Y-41559527D01*
X27692914Y-41559527D02*
X27740533Y-41654765D01*
X46471906Y-42092218D02*
X46424287Y-42139838D01*
X46424287Y-42139838D02*
X46281430Y-42187457D01*
X46281430Y-42187457D02*
X46186192Y-42187457D01*
X46186192Y-42187457D02*
X46043335Y-42139838D01*
X46043335Y-42139838D02*
X45948097Y-42044599D01*
X45948097Y-42044599D02*
X45900478Y-41949361D01*
X45900478Y-41949361D02*
X45852859Y-41758885D01*
X45852859Y-41758885D02*
X45852859Y-41616028D01*
X45852859Y-41616028D02*
X45900478Y-41425552D01*
X45900478Y-41425552D02*
X45948097Y-41330314D01*
X45948097Y-41330314D02*
X46043335Y-41235076D01*
X46043335Y-41235076D02*
X46186192Y-41187457D01*
X46186192Y-41187457D02*
X46281430Y-41187457D01*
X46281430Y-41187457D02*
X46424287Y-41235076D01*
X46424287Y-41235076D02*
X46471906Y-41282695D01*
X46852859Y-41282695D02*
X46900478Y-41235076D01*
X46900478Y-41235076D02*
X46995716Y-41187457D01*
X46995716Y-41187457D02*
X47233811Y-41187457D01*
X47233811Y-41187457D02*
X47329049Y-41235076D01*
X47329049Y-41235076D02*
X47376668Y-41282695D01*
X47376668Y-41282695D02*
X47424287Y-41377933D01*
X47424287Y-41377933D02*
X47424287Y-41473171D01*
X47424287Y-41473171D02*
X47376668Y-41616028D01*
X47376668Y-41616028D02*
X46805240Y-42187457D01*
X46805240Y-42187457D02*
X47424287Y-42187457D01*
X43333333Y-33859580D02*
X43285714Y-33907200D01*
X43285714Y-33907200D02*
X43142857Y-33954819D01*
X43142857Y-33954819D02*
X43047619Y-33954819D01*
X43047619Y-33954819D02*
X42904762Y-33907200D01*
X42904762Y-33907200D02*
X42809524Y-33811961D01*
X42809524Y-33811961D02*
X42761905Y-33716723D01*
X42761905Y-33716723D02*
X42714286Y-33526247D01*
X42714286Y-33526247D02*
X42714286Y-33383390D01*
X42714286Y-33383390D02*
X42761905Y-33192914D01*
X42761905Y-33192914D02*
X42809524Y-33097676D01*
X42809524Y-33097676D02*
X42904762Y-33002438D01*
X42904762Y-33002438D02*
X43047619Y-32954819D01*
X43047619Y-32954819D02*
X43142857Y-32954819D01*
X43142857Y-32954819D02*
X43285714Y-33002438D01*
X43285714Y-33002438D02*
X43333333Y-33050057D01*
X44285714Y-33954819D02*
X43714286Y-33954819D01*
X44000000Y-33954819D02*
X44000000Y-32954819D01*
X44000000Y-32954819D02*
X43904762Y-33097676D01*
X43904762Y-33097676D02*
X43809524Y-33192914D01*
X43809524Y-33192914D02*
X43714286Y-33240533D01*
X47133333Y-45754819D02*
X46800000Y-45278628D01*
X46561905Y-45754819D02*
X46561905Y-44754819D01*
X46561905Y-44754819D02*
X46942857Y-44754819D01*
X46942857Y-44754819D02*
X47038095Y-44802438D01*
X47038095Y-44802438D02*
X47085714Y-44850057D01*
X47085714Y-44850057D02*
X47133333Y-44945295D01*
X47133333Y-44945295D02*
X47133333Y-45088152D01*
X47133333Y-45088152D02*
X47085714Y-45183390D01*
X47085714Y-45183390D02*
X47038095Y-45231009D01*
X47038095Y-45231009D02*
X46942857Y-45278628D01*
X46942857Y-45278628D02*
X46561905Y-45278628D01*
X47514286Y-44850057D02*
X47561905Y-44802438D01*
X47561905Y-44802438D02*
X47657143Y-44754819D01*
X47657143Y-44754819D02*
X47895238Y-44754819D01*
X47895238Y-44754819D02*
X47990476Y-44802438D01*
X47990476Y-44802438D02*
X48038095Y-44850057D01*
X48038095Y-44850057D02*
X48085714Y-44945295D01*
X48085714Y-44945295D02*
X48085714Y-45040533D01*
X48085714Y-45040533D02*
X48038095Y-45183390D01*
X48038095Y-45183390D02*
X47466667Y-45754819D01*
X47466667Y-45754819D02*
X48085714Y-45754819D01*
X52478628Y-40879394D02*
X52954819Y-40879394D01*
X51954819Y-41212727D02*
X52478628Y-40879394D01*
X52478628Y-40879394D02*
X51954819Y-40546061D01*
X52954819Y-39688918D02*
X52954819Y-40260346D01*
X52954819Y-39974632D02*
X51954819Y-39974632D01*
X51954819Y-39974632D02*
X52097676Y-40069870D01*
X52097676Y-40069870D02*
X52192914Y-40165108D01*
X52192914Y-40165108D02*
X52240533Y-40260346D01*
X39333333Y-33859580D02*
X39285714Y-33907200D01*
X39285714Y-33907200D02*
X39142857Y-33954819D01*
X39142857Y-33954819D02*
X39047619Y-33954819D01*
X39047619Y-33954819D02*
X38904762Y-33907200D01*
X38904762Y-33907200D02*
X38809524Y-33811961D01*
X38809524Y-33811961D02*
X38761905Y-33716723D01*
X38761905Y-33716723D02*
X38714286Y-33526247D01*
X38714286Y-33526247D02*
X38714286Y-33383390D01*
X38714286Y-33383390D02*
X38761905Y-33192914D01*
X38761905Y-33192914D02*
X38809524Y-33097676D01*
X38809524Y-33097676D02*
X38904762Y-33002438D01*
X38904762Y-33002438D02*
X39047619Y-32954819D01*
X39047619Y-32954819D02*
X39142857Y-32954819D01*
X39142857Y-32954819D02*
X39285714Y-33002438D01*
X39285714Y-33002438D02*
X39333333Y-33050057D01*
X40190476Y-32954819D02*
X40000000Y-32954819D01*
X40000000Y-32954819D02*
X39904762Y-33002438D01*
X39904762Y-33002438D02*
X39857143Y-33050057D01*
X39857143Y-33050057D02*
X39761905Y-33192914D01*
X39761905Y-33192914D02*
X39714286Y-33383390D01*
X39714286Y-33383390D02*
X39714286Y-33764342D01*
X39714286Y-33764342D02*
X39761905Y-33859580D01*
X39761905Y-33859580D02*
X39809524Y-33907200D01*
X39809524Y-33907200D02*
X39904762Y-33954819D01*
X39904762Y-33954819D02*
X40095238Y-33954819D01*
X40095238Y-33954819D02*
X40190476Y-33907200D01*
X40190476Y-33907200D02*
X40238095Y-33859580D01*
X40238095Y-33859580D02*
X40285714Y-33764342D01*
X40285714Y-33764342D02*
X40285714Y-33526247D01*
X40285714Y-33526247D02*
X40238095Y-33431009D01*
X40238095Y-33431009D02*
X40190476Y-33383390D01*
X40190476Y-33383390D02*
X40095238Y-33335771D01*
X40095238Y-33335771D02*
X39904762Y-33335771D01*
X39904762Y-33335771D02*
X39809524Y-33383390D01*
X39809524Y-33383390D02*
X39761905Y-33431009D01*
X39761905Y-33431009D02*
X39714286Y-33526247D01*
D11*
%TO.C,C7*%
X41140000Y-35107836D02*
X41140000Y-34892164D01*
X41860000Y-35107836D02*
X41860000Y-34892164D01*
D12*
%TO.C,D4*%
X36550000Y-43910000D02*
G75*
G02*
X36450000Y-43910000I-50000J0D01*
G01*
X36450000Y-43910000D02*
G75*
G02*
X36550000Y-43910000I50000J0D01*
G01*
D11*
%TO.C,Q1*%
X31890000Y-40972500D02*
X31890000Y-38972500D01*
X34110000Y-40972500D02*
X34110000Y-38972500D01*
X32030000Y-41772500D02*
X31750000Y-41492500D01*
X32030000Y-41492500D01*
X32030000Y-41772500D01*
G36*
X32030000Y-41772500D02*
G01*
X31750000Y-41492500D01*
X32030000Y-41492500D01*
X32030000Y-41772500D01*
G37*
%TO.C,C9*%
X32584420Y-33490000D02*
X32865580Y-33490000D01*
X32584420Y-34510000D02*
X32865580Y-34510000D01*
%TO.C,Q2*%
X34740000Y-40972500D02*
X34740000Y-38972500D01*
X36960000Y-40972500D02*
X36960000Y-38972500D01*
X34880000Y-41772500D02*
X34600000Y-41492500D01*
X34880000Y-41492500D01*
X34880000Y-41772500D01*
G36*
X34880000Y-41772500D02*
G01*
X34600000Y-41492500D01*
X34880000Y-41492500D01*
X34880000Y-41772500D01*
G37*
%TO.C,C11*%
X35412164Y-37140000D02*
X35627836Y-37140000D01*
X35412164Y-37860000D02*
X35627836Y-37860000D01*
%TO.C,U2*%
X45575000Y-35115000D02*
X48575000Y-35115000D01*
X45575000Y-37385000D02*
X48575000Y-37385000D01*
X45025000Y-35200000D02*
X44745000Y-35200000D01*
X45025000Y-34920000D01*
X45025000Y-35200000D01*
G36*
X45025000Y-35200000D02*
G01*
X44745000Y-35200000D01*
X45025000Y-34920000D01*
X45025000Y-35200000D01*
G37*
%TO.C,U1*%
X38144778Y-39664124D02*
X38021035Y-39787868D01*
X38144778Y-40335876D02*
X37978608Y-40169706D01*
X41164124Y-36644778D02*
X41500000Y-36308903D01*
X41500000Y-36308903D02*
X41835876Y-36644778D01*
X41500000Y-43691097D02*
X41164124Y-43355222D01*
X41835876Y-43355222D02*
X41500000Y-43691097D01*
X44855222Y-40335876D02*
X45191097Y-40000000D01*
X45191097Y-40000000D02*
X44855222Y-39664124D01*
X37808903Y-40000000D02*
X37405852Y-39936360D01*
X37745263Y-39596949D01*
X37808903Y-40000000D01*
G36*
X37808903Y-40000000D02*
G01*
X37405852Y-39936360D01*
X37745263Y-39596949D01*
X37808903Y-40000000D01*
G37*
%TO.C,R3*%
X45443641Y-43920000D02*
X45136359Y-43920000D01*
X45443641Y-44680000D02*
X45136359Y-44680000D01*
%TO.C,R1*%
X45443641Y-42920000D02*
X45136359Y-42920000D01*
X45443641Y-43680000D02*
X45136359Y-43680000D01*
%TO.C,C5*%
X38127836Y-42140000D02*
X37912164Y-42140000D01*
X38127836Y-42860000D02*
X37912164Y-42860000D01*
%TO.C,R4*%
X50653641Y-35620000D02*
X50346359Y-35620000D01*
X50653641Y-36380000D02*
X50346359Y-36380000D01*
D12*
%TO.C,D2*%
X34050000Y-43910000D02*
G75*
G02*
X33950000Y-43910000I-50000J0D01*
G01*
X33950000Y-43910000D02*
G75*
G02*
X34050000Y-43910000I50000J0D01*
G01*
D11*
%TO.C,C4*%
X41640000Y-44872164D02*
X41640000Y-45087836D01*
X42360000Y-44872164D02*
X42360000Y-45087836D01*
%TO.C,C8*%
X48127836Y-34140000D02*
X47912164Y-34140000D01*
X48127836Y-34860000D02*
X47912164Y-34860000D01*
D12*
%TO.C,D3*%
X35550000Y-43910000D02*
G75*
G02*
X35450000Y-43910000I-50000J0D01*
G01*
X35450000Y-43910000D02*
G75*
G02*
X35550000Y-43910000I50000J0D01*
G01*
D11*
%TO.C,R6*%
X33306790Y-42797352D02*
X33306790Y-42490070D01*
X34066790Y-42797352D02*
X34066790Y-42490070D01*
%TO.C,C3*%
X46412164Y-39140000D02*
X46627836Y-39140000D01*
X46412164Y-39860000D02*
X46627836Y-39860000D01*
%TO.C,C12*%
X48540000Y-43372164D02*
X48540000Y-43587836D01*
X49260000Y-43372164D02*
X49260000Y-43587836D01*
%TO.C,R5*%
X32306790Y-42797352D02*
X32306790Y-42490070D01*
X33066790Y-42797352D02*
X33066790Y-42490070D01*
D12*
%TO.C,D1*%
X33050000Y-43910000D02*
G75*
G02*
X32950000Y-43910000I-50000J0D01*
G01*
X32950000Y-43910000D02*
G75*
G02*
X33050000Y-43910000I50000J0D01*
G01*
D11*
%TO.C,C10*%
X32584420Y-36990000D02*
X32865580Y-36990000D01*
X32584420Y-38010000D02*
X32865580Y-38010000D01*
%TO.C,U3*%
X35320000Y-34340000D02*
X36730000Y-34340000D01*
X35320000Y-36660000D02*
X36730000Y-36660000D01*
X36730000Y-34340000D02*
X36730000Y-35000000D01*
X36730000Y-36000000D02*
X36730000Y-36660000D01*
X34950000Y-34360000D02*
X34710000Y-34030000D01*
X35190000Y-34030000D01*
X34950000Y-34360000D01*
G36*
X34950000Y-34360000D02*
G01*
X34710000Y-34030000D01*
X35190000Y-34030000D01*
X34950000Y-34360000D01*
G37*
%TO.C,U4*%
X31644627Y-35255502D02*
X31644627Y-36255502D01*
X33084627Y-36255502D02*
X33084627Y-35255502D01*
X31724627Y-36825502D02*
X31444627Y-36545502D01*
X31724627Y-36545502D01*
X31724627Y-36825502D01*
G36*
X31724627Y-36825502D02*
G01*
X31444627Y-36545502D01*
X31724627Y-36545502D01*
X31724627Y-36825502D01*
G37*
%TO.C,R8*%
X35306790Y-42797352D02*
X35306790Y-42490070D01*
X36066790Y-42797352D02*
X36066790Y-42490070D01*
D13*
%TO.C,J1*%
X26861072Y-44299999D02*
X29138928Y-44299999D01*
X29138928Y-39200009D02*
X26861072Y-39200009D01*
X31582000Y-42013999D02*
X30388200Y-42521999D01*
X31582000Y-43029999D02*
X30388200Y-42521999D01*
X31582000Y-43029999D02*
X31582000Y-42013999D01*
D11*
%TO.C,C2*%
X46412164Y-40140000D02*
X46627836Y-40140000D01*
X46412164Y-40860000D02*
X46627836Y-40860000D01*
%TO.C,C1*%
X42140000Y-35107836D02*
X42140000Y-34892164D01*
X42860000Y-35107836D02*
X42860000Y-34892164D01*
%TO.C,R7*%
X34306790Y-42797352D02*
X34306790Y-42490070D01*
X35066790Y-42797352D02*
X35066790Y-42490070D01*
%TO.C,R2*%
X45443641Y-44920000D02*
X45136359Y-44920000D01*
X45443641Y-45680000D02*
X45136359Y-45680000D01*
%TO.C,Y1*%
X48139651Y-42363204D02*
X51409651Y-42363204D01*
X51409651Y-42363204D02*
X51409651Y-38443204D01*
%TO.C,C6*%
X40140000Y-35107836D02*
X40140000Y-34892164D01*
X40860000Y-35107836D02*
X40860000Y-34892164D01*
%TD*%
%LPC*%
D14*
%TO.C,C7*%
X41500000Y-35480000D03*
X41500000Y-34520000D03*
%TD*%
D15*
%TO.C,D4*%
X36500000Y-44515000D03*
X36500000Y-45485000D03*
%TD*%
D16*
%TO.C,Q1*%
X32350000Y-41000000D03*
X33000000Y-41000000D03*
X33650000Y-41000000D03*
X33650000Y-38945000D03*
X33000000Y-38945000D03*
X32350000Y-38945000D03*
D17*
X33000000Y-39972500D03*
%TD*%
D18*
%TO.C,C9*%
X31950000Y-34000000D03*
X33500000Y-34000000D03*
%TD*%
D16*
%TO.C,Q2*%
X35200000Y-41000000D03*
X35850000Y-41000000D03*
X36500000Y-41000000D03*
X36500000Y-38945000D03*
X35850000Y-38945000D03*
X35200000Y-38945000D03*
D17*
X35850000Y-39972500D03*
%TD*%
D19*
%TO.C,REF\u002A\u002A*%
X52500000Y-45000000D03*
%TD*%
D20*
%TO.C,C11*%
X35040000Y-37500000D03*
X36000000Y-37500000D03*
%TD*%
D21*
%TO.C,U2*%
X45650000Y-35500000D03*
X45650000Y-36000000D03*
X45650000Y-36500000D03*
X45650000Y-37000000D03*
X48500000Y-37000000D03*
X48500000Y-36500000D03*
X48500000Y-36000000D03*
X48500000Y-35500000D03*
D22*
X47075000Y-36250000D03*
%TD*%
D23*
%TO.C,U1*%
X38538990Y-40486136D03*
X38892544Y-40839689D03*
X39246097Y-41193243D03*
X39599651Y-41546796D03*
X39953204Y-41900349D03*
X40306757Y-42253903D03*
X40660311Y-42607456D03*
X41013864Y-42961010D03*
D24*
X41986136Y-42961010D03*
X42339689Y-42607456D03*
X42693243Y-42253903D03*
X43046796Y-41900349D03*
X43400349Y-41546796D03*
X43753903Y-41193243D03*
X44107456Y-40839689D03*
X44461010Y-40486136D03*
D23*
X44461010Y-39513864D03*
X44107456Y-39160311D03*
X43753903Y-38806757D03*
X43400349Y-38453204D03*
X43046796Y-38099651D03*
X42693243Y-37746097D03*
X42339689Y-37392544D03*
X41986136Y-37038990D03*
D24*
X41013864Y-37038990D03*
X40660311Y-37392544D03*
X40306757Y-37746097D03*
X39953204Y-38099651D03*
X39599651Y-38453204D03*
X39246097Y-38806757D03*
X38892544Y-39160311D03*
X38538990Y-39513864D03*
D25*
X41500000Y-40000000D03*
%TD*%
D26*
%TO.C,R3*%
X45800000Y-44300000D03*
X44780000Y-44300000D03*
%TD*%
%TO.C,R1*%
X45800000Y-43300000D03*
X44780000Y-43300000D03*
%TD*%
D27*
%TO.C,C5*%
X38500000Y-42500000D03*
X37540000Y-42500000D03*
%TD*%
D26*
%TO.C,R4*%
X51010000Y-36000000D03*
X49990000Y-36000000D03*
%TD*%
D15*
%TO.C,D2*%
X34000000Y-44515000D03*
X34000000Y-45485000D03*
%TD*%
D19*
%TO.C,REF\u002A\u002A*%
X27500000Y-35000000D03*
%TD*%
D28*
%TO.C,C4*%
X42000000Y-44500000D03*
X42000000Y-45460000D03*
%TD*%
D27*
%TO.C,C8*%
X48500000Y-34500000D03*
X47540000Y-34500000D03*
%TD*%
D15*
%TO.C,D3*%
X35500000Y-44515000D03*
X35500000Y-45485000D03*
%TD*%
D29*
%TO.C,R6*%
X33686790Y-43153711D03*
X33686790Y-42133711D03*
%TD*%
D20*
%TO.C,C3*%
X46040000Y-39500000D03*
X47000000Y-39500000D03*
%TD*%
D28*
%TO.C,C12*%
X48900000Y-43000000D03*
X48900000Y-43960000D03*
%TD*%
D29*
%TO.C,R5*%
X32686790Y-43153711D03*
X32686790Y-42133711D03*
%TD*%
D15*
%TO.C,D1*%
X33000000Y-44515000D03*
X33000000Y-45485000D03*
%TD*%
D18*
%TO.C,C10*%
X31950000Y-37500000D03*
X33500000Y-37500000D03*
%TD*%
D30*
%TO.C,U3*%
X35000000Y-34850000D03*
X35000000Y-36150000D03*
X37000000Y-35500000D03*
%TD*%
D31*
%TO.C,U4*%
X32039627Y-36240502D03*
D32*
X32689627Y-36240502D03*
D33*
X32689627Y-35270502D03*
D34*
X32039627Y-35270502D03*
D35*
X32364627Y-35755502D03*
%TD*%
D29*
%TO.C,R8*%
X35686790Y-43153711D03*
X35686790Y-42133711D03*
%TD*%
D36*
%TO.C,J1*%
X29549999Y-42550005D03*
X29549999Y-42150003D03*
X29549999Y-41750004D03*
X29549999Y-41350005D03*
X29549999Y-40950003D03*
X26450001Y-42550005D03*
X26450001Y-42150003D03*
X26450001Y-41750004D03*
X26450001Y-41350005D03*
X26450001Y-40950003D03*
D37*
X29500000Y-43500000D03*
X29500000Y-40000008D03*
X26500000Y-43500000D03*
X26500000Y-40000008D03*
%TD*%
D20*
%TO.C,C2*%
X46040000Y-40500000D03*
X47000000Y-40500000D03*
%TD*%
D14*
%TO.C,C1*%
X42500000Y-35480000D03*
X42500000Y-34520000D03*
%TD*%
D29*
%TO.C,R7*%
X34686790Y-43153711D03*
X34686790Y-42133711D03*
%TD*%
D26*
%TO.C,R2*%
X45800000Y-45300000D03*
X44780000Y-45300000D03*
%TD*%
D38*
%TO.C,Y1*%
X50599651Y-41453204D03*
X50599651Y-39353204D03*
X48949651Y-39353204D03*
X48949651Y-41453204D03*
%TD*%
D14*
%TO.C,C6*%
X40500000Y-35480000D03*
X40500000Y-34520000D03*
%TD*%
%LPD*%
M02*
